<svg xmlns="http://www.w3.org/2000/svg" width="14.182" height="6" viewBox="0 0 14.182 6">
  <g id="Group_357" data-name="Group 357" transform="translate(-1326 -585)">
    <path id="checkmark-video-icon" d="M113.241,106.491a.144.144,0,0,1-.158-.03l-2.492-2.492a.145.145,0,0,1,0-.2l.905-.906a.145.145,0,0,1,.2,0l1.487,1.487,3.8-3.8a.144.144,0,0,1,.2,0l.906.905a.145.145,0,0,1,0,.2l-4.8,4.8a.145.145,0,0,1-.041.029h0l-.006,0h0Z" transform="translate(1215.45 484.498)" fill="#b6b9c3"/>
    <path id="checkmark-video-icon-2" data-name="checkmark-video-icon" d="M113.241,106.491a.144.144,0,0,1-.158-.03l-2.492-2.492a.145.145,0,0,1,0-.2l.905-.906a.145.145,0,0,1,.2,0l1.487,1.487,3.8-3.8a.144.144,0,0,1,.2,0l.906.905a.145.145,0,0,1,0,.2l-4.8,4.8a.145.145,0,0,1-.041.029h0l-.006,0h0Z" transform="translate(1222.041 484.498)" fill="#b6b9c3"/>
  </g>
</svg>
