<svg xmlns="http://www.w3.org/2000/svg" width="60.467" height="79.965" viewBox="0 0 60.467 79.965">
  <path id="Path_184" data-name="Path 184" d="M25.743,67.622,11.692,75.287a12.627,12.627,0,0,0-2.255,1.6,47.062,47.062,0,0,0,60.467.156,12.465,12.465,0,0,0-2.477-1.66L52.381,67.866a5.738,5.738,0,0,1-3.172-5.132v-5.9A22.723,22.723,0,0,0,50.632,55a34.621,34.621,0,0,0,4.677-9.425,4.726,4.726,0,0,0,3.351-4.5v-6.3a4.7,4.7,0,0,0-1.574-3.492V22.176S58.958,8,39.76,8,22.434,22.176,22.434,22.176v9.109a4.7,4.7,0,0,0-1.574,3.492v6.3a4.724,4.724,0,0,0,2.179,3.965,31.27,31.27,0,0,0,5.7,11.787v5.758A5.744,5.744,0,0,1,25.743,67.622Z" transform="translate(-9.437 -8.001)" fill="#e7eced"/>
</svg>
