<svg xmlns="http://www.w3.org/2000/svg" width="23.973" height="23.971" viewBox="0 0 23.973 23.971">
  <path id="icons8-settings" d="M25.533,12.016l-3.08-.5a8.824,8.824,0,0,0-.735-1.774l1.8-2.562a.522.522,0,0,0-.058-.668l-2.029-2.03a.521.521,0,0,0-.673-.054L18.235,6.242A8.74,8.74,0,0,0,16.446,5.5l-.537-3.067A.522.522,0,0,0,15.4,2H12.53a.521.521,0,0,0-.514.437l-.5,3.05a8.778,8.778,0,0,0-1.791.736L7.21,4.426a.521.521,0,0,0-.672.055L4.513,6.506a.52.52,0,0,0-.058.667l1.77,2.534a8.826,8.826,0,0,0-.749,1.8l-3.038.506A.521.521,0,0,0,2,12.53V15.4a.521.521,0,0,0,.43.513l3.038.539a8.782,8.782,0,0,0,.749,1.8l-1.79,2.507a.522.522,0,0,0,.055.672l2.026,2.028a.521.521,0,0,0,.668.058L9.714,21.74a8.791,8.791,0,0,0,1.8.742l.509,3.054a.52.52,0,0,0,.513.435H15.4a.52.52,0,0,0,.513-.43l.545-3.069a8.762,8.762,0,0,0,1.787-.748L20.8,23.516a.52.52,0,0,0,.668-.058l2.026-2.028a.522.522,0,0,0,.054-.673l-1.823-2.531a8.723,8.723,0,0,0,.733-1.776l3.084-.541a.521.521,0,0,0,.431-.513V12.53a.52.52,0,0,0-.44-.514ZM13.986,17.633a3.648,3.648,0,1,1,3.648-3.648,3.648,3.648,0,0,1-3.648,3.648Z" transform="translate(-2 -2)" fill="#fff"/>
</svg>
