<svg xmlns="http://www.w3.org/2000/svg" width="16.845" height="18.458" viewBox="0 0 16.845 18.458">
  <g id="home" transform="translate(-1666.851 -509.052)" style="isolation: isolate">
    <path id="Path_186" data-name="Path 186" d="M106.528,76.968V72.775a.7.7,0,0,0-.7-.7h-2.808a.7.7,0,0,0-.7.7v4.2a.7.7,0,0,1-.7.7l-4.917.013a.7.7,0,0,1-.7-.7V66.01l8.089-6.661a.535.535,0,0,1,.671,0l8.085,6.659V76.986a.7.7,0,0,1-.7.7l-4.913-.014a.7.7,0,0,1-.7-.706Z" transform="translate(1570.851 449.823)" fill="#fff"/>
  </g>
</svg>
