<svg xmlns="http://www.w3.org/2000/svg" width="34.166" height="31.347" viewBox="0 0 34.166 31.347">
  <path id="corporate-user-icon" d="M9.318,12.762c.223-.619.563-.82,1.012-.807l-.3-.2c-.16-2.005.31-5.484-1.868-6.142C12.286.525,17.035-2.244,20.6,2.285c4.3.226,6.018,7.051,2.592,9.925l-.02.169a1.876,1.876,0,0,1,.4-.077,1.28,1.28,0,0,1,.7.131,1,1,0,0,1,.488.593,1.8,1.8,0,0,1-.023,1.019l-.536,1.52a1.11,1.11,0,0,1-.339.558,1,1,0,0,1-.727.176,1.234,1.234,0,0,1-.165-.019,3.715,3.715,0,0,1-.246,1.089,5.6,5.6,0,0,1-.7,1.22,9.508,9.508,0,0,1-.908,1.1,5.679,5.679,0,0,0,.947,1.991C24,23.073,29.223,23.4,31.04,24.413c2.623,1.468,2.551,4.305,3.126,6.932H0c.569-2.6.51-5.487,3.126-6.932,2.3-1.283,7.191-1.2,9.139-2.863a6.08,6.08,0,0,0,.7-1.592,8.455,8.455,0,0,1-1.16-1.543l-.024-.038a5.3,5.3,0,0,1-.829-2.089l-.1,0a1.28,1.28,0,0,1-.625-.164,1.7,1.7,0,0,1-.687-.833l-.013-.035a3.861,3.861,0,0,1-.263-1.22c-.007-.131-.007-.39,0-.639v0c.005-.213.017-.419.033-.535a.41.41,0,0,1,.027-.1ZM21.525,22.35l-.042-.05a5.988,5.988,0,0,1-1.044-1.954,6.271,6.271,0,0,1-1.518.918l-.029.013h0a5.155,5.155,0,0,1-2.186.446,4.8,4.8,0,0,1-1.179-.174l-.015,0a5.27,5.27,0,0,1-1.868-.938,6.294,6.294,0,0,1-.948,1.8l2.263,5.528,1.33-3.067-.649-.709a1.006,1.006,0,0,1,.584-1.669,10.022,10.022,0,0,1,2.057.022,1.041,1.041,0,0,1,.508,1.647l-.649.709,1.319,3.067,2.067-5.582Z" transform="translate(0 0.002)" fill="#fff"/>
</svg>
