<svg xmlns="http://www.w3.org/2000/svg" xmlns:xlink="http://www.w3.org/1999/xlink" width="381.043" height="446.293" viewBox="0 0 381.043 446.293">
  <defs>
    <clipPath id="clip-path">
      <path id="vectorMask" d="M44.051,176.752h0c-.046,0-.075-.015-.087-.044-.162-.407,2.972-3.679,10.163-10.609,12.328-10.257,19.856-18.064,23.016-23.869,2.747-5.046,1.814-7.868.99-10.357a10.935,10.935,0,0,1-.724-3.276c-22.1-5.961-39.778-19.038-50.34-26.852-4.971-3.678-8.256-6.107-9.7-6.107a.788.788,0,0,0-.49.144c-.949.727-1.934,2.484-3.074,4.52a37.518,37.518,0,0,1-4.163,6.37c-1.9,2.167-3.852,3.22-5.964,3.22a6.526,6.526,0,0,1-.768-.046,2.7,2.7,0,0,1-2.084-1.469,7.649,7.649,0,0,1-.8-3.364C-.2,100.589,1.56,94.163,4.5,88.642a31.258,31.258,0,0,1,5.419-7.5,14.559,14.559,0,0,1,6.957-4.109,18.652,18.652,0,0,1,3.691-.544c.769,0,1.233.154,1.42.472.341.581-.25,1.667-1,3.041-1.593,2.924-4,7.342.544,11.094,2.259,1.864,6.479,3.912,12.2,5.923a178.257,178.257,0,0,0,22.214,5.934c14.106,2.92,37.357,6.486,68.022,6.894,7.9.39,15.634.587,22.982.587,53.175,0,82.076-10.357,96.957-19.045,8.425-4.919,13.347-9.835,15.992-13.093a23.6,23.6,0,0,0,3.76-5.952c.425-4.608,1.209-8.078,2.331-10.314.914-1.822,2.049-2.784,3.282-2.784,1.742,0,3.249,1.893,3.7,3.723a97.246,97.246,0,0,1,1.24,15.928c.043,6.417-.439,14.947-2.981,19.148a4.846,4.846,0,0,1-2.915,2.427,5.886,5.886,0,0,1-1.361.174,3.313,3.313,0,0,1-2.736-1.285,7.158,7.158,0,0,1-1.251-3.5,21.406,21.406,0,0,1-.063-4.288,38.14,38.14,0,0,1,.755-5.163c-.224.131-25.435,14.839-46.564,28.127-7.543,4.744-13.779,9.942-18.034,15.031-3.289,3.934-5.376,7.8-5.726,10.606a3.061,3.061,0,0,0,.479,2.49c3.2,3.435,6.676,9.952,9.295,17.432,2.468,7.049,3.471,12.981,2.555,15.111a1.232,1.232,0,0,1-1.152.874c-1.286,0-3.319-1.779-6.041-5.289-9.055-11.675-18.131-13.418-22.735-13.418-5.146,0-8.921,2.082-9.86,4.042-2.2,7.447-3.732,10.768-4.974,10.768-1.127,0-1.93-2.795-2.861-6.031-.451-1.57-.918-3.192-1.478-4.737a28.862,28.862,0,0,0-15.521-4.476,52.78,52.78,0,0,0-10.307,1.254l-.787.156a42.751,42.751,0,0,1-7.952,1.1,9.995,9.995,0,0,1-7.341-2.72A25.157,25.157,0,0,0,96.493,149.6a50.665,50.665,0,0,0-14.429,2.44c-5.884,1.76-18.734,11.131-28.116,17.973C48.782,173.776,44.7,176.752,44.051,176.752ZM154.693,147a3.96,3.96,0,0,1,2.87.931,4.956,4.956,0,0,1,1.134,2.048l.087.254c.476,1.4.926,2.725,3.051,2.726a12.5,12.5,0,0,0,4.046-.921c6.535-2.378,13.984-11.22,17.842-16.278,5.389-7.066,9.572-14.255,10.1-16.536.711-3.088.437-4.144.21-4.5a.4.4,0,0,0-.21-.19H82.065c0,.025-.579,3.075-.868,6.355-.264,3-.328,6.776.868,7.709.719.561,1.06,1.794,1.455,3.222.776,2.8,1.742,6.293,6.206,6.293a10.649,10.649,0,0,0,1.652-.139,71.5,71.5,0,0,1,11.2-1,34.617,34.617,0,0,1,14.77,2.877,21.952,21.952,0,0,1,6.482,4.6,23.071,23.071,0,0,1,4.8,7.594c.1-.019,12.256-2.274,23.282-4.688A13.327,13.327,0,0,1,154.693,147ZM154.5,89.419h0l-.167,0c-5.758-.157-9.912-4.9-12.346-14.111-2.169-8.2-2.512-18.262-2.418-25.255a91.461,91.461,0,0,1,.777-12.438c.009.008.02.041.018.238a3.931,3.931,0,0,0,1.3,2.668,7.585,7.585,0,0,0,5.224,2.229,5.985,5.985,0,0,0,4.532-2.076c1.476-1.637,2.456-4.163,2.914-7.509.6-4.391.119-7.456-1.47-9.37a8.754,8.754,0,0,0-4.9-2.555c-1.644-.427-2.943-.764-2.948-2.138a27.751,27.751,0,0,1,4.656-14.063,8.193,8.193,0,0,1,2.58-2.538,13.054,13.054,0,0,1,3.076-1.411,16.981,16.981,0,0,1,3.657-.739A2.856,2.856,0,0,1,160.307,0,3.074,3.074,0,0,1,162.5,1.084a15.638,15.638,0,0,1,3.021,6.076,67.433,67.433,0,0,1,2.146,10.216,171.038,171.038,0,0,1,1.367,27.334c-.3,11.991-1.688,22.908-3.9,30.738a32.926,32.926,0,0,1-4.417,10.13C158.873,88.127,156.783,89.419,154.5,89.419Zm-52.806,0h0l-.167,0c-5.758-.157-9.912-4.9-12.346-14.111-2.169-8.2-2.512-18.262-2.418-25.255a91.459,91.459,0,0,1,.778-12.438c.009.008.02.041.018.238a3.931,3.931,0,0,0,1.3,2.668,7.585,7.585,0,0,0,5.224,2.229,5.985,5.985,0,0,0,4.532-2.076c1.476-1.637,2.456-4.163,2.914-7.509.6-4.391.119-7.456-1.47-9.37a8.754,8.754,0,0,0-4.9-2.555c-1.644-.427-2.943-.764-2.947-2.138A27.751,27.751,0,0,1,96.87,5.037,8.192,8.192,0,0,1,99.449,2.5a13.056,13.056,0,0,1,3.076-1.411,16.981,16.981,0,0,1,3.657-.739A2.856,2.856,0,0,1,107.5,0a3.074,3.074,0,0,1,2.192,1.084,15.637,15.637,0,0,1,3.021,6.076,67.427,67.427,0,0,1,2.146,10.216,171.036,171.036,0,0,1,1.367,27.334c-.3,11.991-1.688,22.908-3.9,30.738a32.925,32.925,0,0,1-4.417,10.13C106.066,88.127,103.976,89.419,101.694,89.419ZM51.581,78.529c-2.233,0-3.764-.657-4.2-1.8-.455-1.2.286-2.752,2.089-4.384,1.526-1.381,2.187-2.492,1.913-3.212-.208-.547-.969-.837-2.2-.837-2.827,0-7.687,1.438-13.683,4.049a2.4,2.4,0,0,1-.905.239.57.57,0,0,1-.535-.27c-.589-1.018,1.42-4.62,1.441-4.656a98.654,98.654,0,0,1,7.276-7.923A48.988,48.988,0,0,1,49.3,54.286c2.446-1.643,4.524-2.476,6.174-2.476a3.792,3.792,0,0,1,3.3,1.782A42.515,42.515,0,0,1,63.6,62.86c1.239,3.55,1.476,6.556.705,8.935a8.318,8.318,0,0,1-5.52,5.236A22.133,22.133,0,0,1,51.581,78.529Zm173.265-.415c-1.235,0-2.3-2-3.09-5.77a67.759,67.759,0,0,0-2.109-8.607c-.635-1.665-1.306-2.313-2.394-2.313a12.616,12.616,0,0,0-3.907,1.185q-.43.172-.9.359a6.9,6.9,0,0,1-2.442.559,2.214,2.214,0,0,1-1.871-.823c-1.114-1.46-.351-4.394-.344-4.424a68.681,68.681,0,0,1,6.343-3.759,45.575,45.575,0,0,1,5.816-2.584,17.725,17.725,0,0,1,5.7-1.175,5.243,5.243,0,0,1,4.053,1.5c1.133,1.238,1.593,3.262,1.368,6.015a67.1,67.1,0,0,1-2.527,14.257C227.39,76.133,226.077,78.114,224.846,78.114Z" transform="translate(0 0)" fill="#8472fc"/>
    </clipPath>
  </defs>
  <g id="Group_358" data-name="Group 358" transform="translate(2828.115 1023.185)">
    <path id="Path_67" data-name="Path 67" d="M1503.446,2509h-260.1s-35.1.863-35.1,39.4V2832.06s-4.327,22.116,9.135,27.4,20.673,5.29,29.329-2.4,78.365-81.25,78.365-81.25h166.349s43.751,4.325,43.751-34.137V2548.4S1540.546,2509,1503.446,2509Z" transform="translate(-3982.521 -3532.186)" fill="#8472fc" opacity="0.05"/>
    <path id="Path_66" data-name="Path 66" d="M1503.446,2509h-260.1s-35.1.863-35.1,39.4V2832.06s-4.327,22.116,9.135,27.4,20.673,5.29,29.329-2.4,78.365-81.25,78.365-81.25h166.349s43.751,4.325,43.751-34.137V2548.4S1540.546,2509,1503.446,2509Z" transform="translate(-4035.702 -3440.063)" fill="#8472fc" opacity="0.05"/>
    <g id="Layer_4" data-name="Layer 4" transform="translate(-2801.293 -883.905)" opacity="0.1" clip-path="url(#clip-path)">
      <rect id="Layer_4-2" data-name="Layer 4" width="467.29" height="470.445" transform="translate(-96.54 -146.857)" fill="#8472fc"/>
    </g>
  </g>
</svg>
