<svg xmlns="http://www.w3.org/2000/svg" width="23.961" height="17.799" viewBox="0 0 23.961 17.799">
  <path id="picture-icon" d="M17.023,3.292a2.213,2.213,0,1,1-2.213,2.213A2.213,2.213,0,0,1,17.023,3.292ZM22.352,17.8H1.611a1.613,1.613,0,0,1-1.137-.476h0A1.607,1.607,0,0,1,0,16.186V1.611A1.611,1.611,0,0,1,.472.472h0A1.611,1.611,0,0,1,1.611,0H22.352a1.611,1.611,0,0,1,1.137.474h0a1.611,1.611,0,0,1,.472,1.139V16.186a1.607,1.607,0,0,1-.472,1.137h0A1.613,1.613,0,0,1,22.352,17.8ZM20.919,15.96,17.083,9.84a.881.881,0,0,0-1.492,0L13.78,12.752l1.972,3.208h-.809L9.565,7.379a1.024,1.024,0,0,0-1.732,0L2.568,15.96H1.837V1.837H22.118V15.96Z" fill="#8472fc" fill-rule="evenodd"/>
</svg>
