<svg xmlns="http://www.w3.org/2000/svg" width="25.078" height="24.443" viewBox="0 0 25.078 24.443">
  <path id="Path_41" data-name="Path 41" d="M10.206,0h0a10.2,10.2,0,0,1,10.2,10.2h0v.015h0a10.2,10.2,0,0,1-.53,3.245q-.086.256-.179.492h0a10.211,10.211,0,0,1-1.133,2.1L24.5,21.389h0l.032.03h0a1.763,1.763,0,0,1,.137,2.4h0l-.036.041-.007.007-.03.033h0a1.764,1.764,0,0,1-2.4.136h0L22.156,24H22.15l-6.073-5.458q-.27.19-.549.36c-.252.154-.512.3-.779.432A10.162,10.162,0,0,1,10.2,20.4h0A10.2,10.2,0,0,1,0,10.211V10.2H0A10.2,10.2,0,0,1,10.2,0h.007Zm0,2.289H10.2A7.919,7.919,0,0,0,2.289,10.2h0v.01h0A7.919,7.919,0,0,0,10.2,18.12h.01a7.919,7.919,0,0,0,7.91-7.914h0V10.2h0a7.919,7.919,0,0,0-7.914-7.911Z" fill="#fff"/>
</svg>
