<svg id="search-icon" xmlns="http://www.w3.org/2000/svg" width="25.089" height="24.46" viewBox="0 0 25.089 24.46">
  <path id="Path_41" data-name="Path 41" d="M10.206,0h0a10.2,10.2,0,0,1,10.2,10.2h0v.015h0a10.2,10.2,0,0,1-.53,3.245q-.086.256-.179.492h0a10.211,10.211,0,0,1-1.133,2.1l5.938,5.337,0,0,.032.03,0,0a1.763,1.763,0,0,1,.137,2.4l0,0-.036.041-.007.007-.03.033,0,0a1.764,1.764,0,0,1-2.4.136l0,0-.042-.036-.006,0-6.073-5.458q-.27.19-.549.36c-.252.154-.512.3-.779.432a10.162,10.162,0,0,1-4.547,1.066h0A10.2,10.2,0,0,1,0,10.213H0V10.2H0A10.2,10.2,0,0,1,10.2,0h.007Zm0,2.289H10.2A7.919,7.919,0,0,0,2.289,10.2h0v.01h0a7.919,7.919,0,0,0,7.914,7.91h.01a7.919,7.919,0,0,0,7.91-7.914h0V10.2h0a7.919,7.919,0,0,0-7.914-7.911Z" fill="#b6b9c3"/>
</svg>
