<svg xmlns="http://www.w3.org/2000/svg" width="304.353" height="355.673" viewBox="0 0 304.353 355.673">
  <g id="Group_357" data-name="Group 357" transform="translate(3066.177 2348.836)">
    <path id="Path_182" data-name="Path 182" d="M1443.9,2509H1236.15s-28.034.69-28.034,31.471V2767.04s-3.456,17.665,7.3,21.888,16.512,4.225,23.426-1.92,62.593-64.9,62.593-64.9H1434.3s34.946,3.455,34.946-27.266V2540.471S1473.534,2509,1443.9,2509Z" transform="translate(-4231.286 -4857.837)" fill="#fff" opacity="0.6"/>
    <path id="Path_183" data-name="Path 183" d="M1443.9,2509H1236.15s-28.034.69-28.034,31.471V2767.04s-3.456,17.665,7.3,21.888,16.512,4.225,23.426-1.92,62.593-64.9,62.593-64.9H1434.3s34.946,3.455,34.946-27.266V2540.471S1473.534,2509,1443.9,2509Z" transform="translate(-4273.764 -4785.054)" fill="#fff"/>
  </g>
</svg>
