<svg xmlns="http://www.w3.org/2000/svg" width="32.455" height="31.943" viewBox="0 0 32.455 31.943">
  <path id="business-woman-icon_1_" data-name="business-woman-icon(1)" d="M8.225,17.7a5.433,5.433,0,0,1-2.536-1.585c1.7-.639,2.48-2.641,2.588-5.647.082-2.232-.38-3.7.38-5.911C10.166.187,15.734-1.305,18.837,1.246c2.433-.264,4.884,1,5.414,4.754.394,2.8-.444,5.338.441,7.924a4.02,4.02,0,0,0,2.073,2.456,5.993,5.993,0,0,1-2.773,1.334,27.8,27.8,0,0,1-4.374.486v.946l-3.37,2.087a3.235,3.235,0,0,1,1.712.755L17,23.95H14.867l-.829-1.962a2.839,2.839,0,0,1,1.516-.742l-3.14-2.11v-.911A19.235,19.235,0,0,1,8.233,17.7Zm6.722,6.946L14.352,28.6l-3.729-4.7.713-4.406c-1.894.732-8.824,3.217-9.78,5C.433,26.612.6,29.705,0,31.942H32.455c-.6-2.237-.436-5.341-1.556-7.443-.956-1.785-7.887-4.271-9.77-5l.713,4.406-4.189,4.733-.607-3.994Z" transform="translate(0 0.001)" fill="#fff" fill-rule="evenodd"/>
</svg>
