<svg xmlns="http://www.w3.org/2000/svg" width="401.818" height="337.791" viewBox="0 0 401.818 337.791">
  <g id="photo_2020-06-29_19-35-16" transform="translate(-0.004 -0.004)">
    <path id="Path_183" data-name="Path 183" d="M237.86,98.77C233.74,95.85,221.59,86,202.61,89a17.78,17.78,0,0,0-.75,16.5c4.14,9.23,10.82,16.72,27,11.25,5.52-1.87,11.25-12,11.25-12S242,101.69,237.86,98.77Zm-24.75,16.5c-7-4.39-9.41-8.08-10.5-11.25,0,0,2.22-1.82,6.75-.75s3.79,3.37,8.25,4.5,7.7.2,10.5,3,3,3.75,3,3.75S220.13,119.65,213.11,115.27ZM234.86,104c-6.12,4.69-8.09-2-8.25-3.75s3.68,2,3.75.75-9.5-5.72-16.5-6.75,0,1.5,0,1.5.75,2.66-4.5,2.25-4.5-8.25-4.5-8.25a49.45,49.45,0,0,1,32.25,10.5C238.13,101.17,236.39,102.84,234.86,104Z" transform="translate(-0.49 -0.5)" fill="#fff" fill-rule="evenodd"/>
    <path id="Path_184" data-name="Path 184" d="M213.11,82.27s4.11-4,6-3,2.92,2.89,2.25,4.5-2.91-1.72-3.75-2.25-4.28,2.19-4.5.75" transform="translate(-0.49 -0.5)" fill="#fff" fill-rule="evenodd"/>
    <path id="Path_185" data-name="Path 185" d="M226.61,86s.76-2.78,4.5-3,2.25,6,2.25,6-3.52-4.68-6-1.5C227.36,87.52,225.37,87.57,226.61,86Z" transform="translate(-0.49 -0.5)" fill="#fff" fill-rule="evenodd"/>
    <path id="Path_186" data-name="Path 186" d="M228.11,64.27s-2,3.41-2.25,5.25-3.11-1.09-6,.75S222.05,63.2,228.11,64.27Z" transform="translate(-0.49 -0.5)" fill="#fff" fill-rule="evenodd"/>
    <path id="Path_187" data-name="Path 187" d="M234.11,68.77l-3,3.75s4.45,3,5.25,6S240.13,70.82,234.11,68.77Z" transform="translate(-0.49 -0.5)" fill="#fff" fill-rule="evenodd"/>
    <path id="Path_188" data-name="Path 188" d="M240.86,78.52s10.64,14.76,5.25,28.5-14.26,22-34.5,17.25S190.1,91.75,195.86,84.52s10.62-12.71,20.25-15c0,0-20.38,1.72-25.5,21.75s9.7,33.16,24.75,36.75,33.79-8.91,35.25-28.5a22.78,22.78,0,0,0-9.75-21" transform="translate(-0.49 -0.5)" fill="#fff" fill-rule="evenodd"/>
    <path id="Path_189" data-name="Path 189" d="M262.61,98.77s2.32,10.33-5.25,23.25c0,0,2.61,1.62,6.75-14.25C264.11,107.77,264.53,97.93,262.61,98.77Z" transform="translate(-0.49 -0.5)" fill="#fff" fill-rule="evenodd"/>
    <path id="Path_190" data-name="Path 190" d="M246.11,141.52s-7.09,6.37-21,6c-.83,2.13,9.65,2.28,12.75,1.5S246.11,141.52,246.11,141.52Z" transform="translate(-0.49 -0.5)" fill="#fff" fill-rule="evenodd"/>
    <path id="Path_191" data-name="Path 191" d="M215.36,136.27s3.57-.5,4.5-.75,3,2.77,0,3a5,5,0,0,1-4.5-2.25Z" transform="translate(-0.49 -0.5)" fill="#fff" fill-rule="evenodd"/>
    <path id="Path_192" data-name="Path 192" d="M186.86,119s2,11.06,13.5,14.25C189.07,121.74,186.86,119,186.86,119Z" transform="translate(-0.49 -0.5)" fill="#fff" fill-rule="evenodd"/>
    <path id="Path_193" data-name="Path 193" d="M171.86,119s-.57,10.21,7.5,13.5a100,100,0,0,0-7.5-13.5Z" transform="translate(-0.49 -0.5)" fill="#fff" fill-rule="evenodd"/>
    <path id="Path_194" data-name="Path 194" d="M171.11,98s.49-9.93,2.25-14.25,7.5-11.25,7.5-11.25-7.81,13.41-8.25,23.25C172.39,99.5,171.11,98,171.11,98Z" transform="translate(-0.49 -0.5)" fill="#fff" fill-rule="evenodd"/>
    <path id="Path_195" data-name="Path 195" d="M184.61,83s1-13,14.25-17.25C194.41,70.94,190,72.12,184.61,83Z" transform="translate(-0.49 -0.5)" fill="#fff" fill-rule="evenodd"/>
    <path id="Path_196" data-name="Path 196" d="M278.36,86.77s4.14,4.85,0,16.5C277.53,98.92,279.25,90.7,278.36,86.77Z" transform="translate(-0.49 -0.5)" fill="#fff" fill-rule="evenodd"/>
    <path id="Path_197" data-name="Path 197" d="M191.36,42.52s3.55-6,17.25-6.75C203.68,38.18,193.41,40.72,191.36,42.52Z" transform="translate(-0.49 -0.5)" fill="#fff" fill-rule="evenodd"/>
    <path id="Path_198" data-name="Path 198" d="M150.86,57.52s.89-7,11.25-12.75c-1.52,2.51-8.7,9.48-9.75,13.5C151.21,61,150.86,57.52,150.86,57.52Z" transform="translate(-0.49 -0.5)" fill="#fff" fill-rule="evenodd"/>
    <path id="Path_199" data-name="Path 199" d="M133.61,93.52s-5.33,15.2,1.5,21.75c-.08-3.59-3.69-7.93-.75-19.5C134.93,92.44,133.61,93.52,133.61,93.52Z" transform="translate(-0.49 -0.5)" fill="#fff" fill-rule="evenodd"/>
    <path id="Path_200" data-name="Path 200" d="M129.11,56s-3.85,2.39-3.75,11.25.32-4.38,2.25-6.75S131.72,54,129.11,56Z" transform="translate(-0.49 -0.5)" fill="#fff" fill-rule="evenodd"/>
    <path id="Path_201" data-name="Path 201" d="M215.36.52s-4-.63-12.75,6,5.21-1.68,12.75-1.5,12.25-3.63.75-4.5" transform="translate(-0.49 -0.5)" fill="#fff" fill-rule="evenodd"/>
    <path id="Path_202" data-name="Path 202" d="M252.86,29s6.74-.68,11.25.75,4.5,4.5,4.5,4.5S268.46,30.67,252.86,29Z" transform="translate(-0.49 -0.5)" fill="#fff" fill-rule="evenodd"/>
    <path id="Path_203" data-name="Path 203" d="M315.11,58.27s5.22.08,3.75,7.5-1.73-.88-3-5.25S315.11,58.27,315.11,58.27Z" transform="translate(-0.49 -0.5)" fill="#fff" fill-rule="evenodd"/>
    <path id="Path_204" data-name="Path 204" d="M306.86,122.77s3.44,2.77-3.75,12S306.75,130.65,306.86,122.77Z" transform="translate(-0.49 -0.5)" fill="#fff" fill-rule="evenodd"/>
    <path id="Path_205" data-name="Path 205" d="M247.61,179a14.17,14.17,0,0,0,8.25,1.5c1.71-.22,6-5.25,6-5.25S257.17,179.23,247.61,179Z" transform="translate(-0.49 -0.5)" fill="#fff" fill-rule="evenodd"/>
    <path id="Path_206" data-name="Path 206" d="M184.61,189.52s-6.62-1-8.25-7.5a43.288,43.288,0,0,0,7.5,4.5C187.34,188,184.61,189.52,184.61,189.52Z" transform="translate(-0.49 -0.5)" fill="#fff" fill-rule="evenodd"/>
    <path id="Path_207" data-name="Path 207" d="M125.36,158.77s-4.3.93-3-9.75.78,2.07,3,5.25S127.2,159,125.36,158.77Z" transform="translate(-0.49 -0.5)" fill="#fff" fill-rule="evenodd"/>
    <path id="Path_208" data-name="Path 208" d="M294.56,333.47s2.36-5.7,7.74-4.65,7,4.65,7,4.65H294.56" transform="translate(-0.49 -0.5)" fill="#fff" fill-rule="evenodd"/>
    <path id="Path_209" data-name="Path 209" d="M235,331.92s4.43-4.2,9.29-4.65,4.79,2.49,4.65,3.87-7,.78-7,.78Z" transform="translate(-0.49 -0.5)" fill="#fff" fill-rule="evenodd"/>
    <path id="Path_210" data-name="Path 210" d="M273.1,268.52a2.18,2.18,0,0,0-1.55.78,4.51,4.51,0,0,0-.77,2.32c0,.67,1.88-.15,1.54,2.32s-2.33,1.49-2.32.78-1,8.42,2.32,8.51S275.29,267.39,273.1,268.52Z" transform="translate(-0.49 -0.5)" fill="#fff" fill-rule="evenodd"/>
    <path id="Path_211" data-name="Path 211" d="M264.32,268.52a2.18,2.18,0,0,0-1.55.78,4.51,4.51,0,0,0-.77,2.32c0,.67,1.89-.15,1.54,2.32s-2.33,1.49-2.32.78-1,8.42,2.32,8.51S266.51,267.39,264.32,268.52Z" transform="translate(-0.49 -0.5)" fill="#fff" fill-rule="evenodd"/>
    <path id="Path_212" data-name="Path 212" d="M271.55,253s1.33-5.33,3.87-4.64,3.7,5.27,3.87,8.51-2.58-4.25-7.74-3.09a1.46,1.46,0,0,1,0-.78" transform="translate(-0.49 -0.5)" fill="#fff" fill-rule="evenodd"/>
    <path id="Path_213" data-name="Path 213" d="M258.39,259.23s.91-5.65,5.42-8.51,4.6,2,0,4.64S258.39,259.23,258.39,259.23Z" transform="translate(-0.49 -0.5)" fill="#fff" fill-rule="evenodd"/>
    <path id="Path_214" data-name="Path 214" d="M281.21,278.09s4.1-2.79,3.87,0-1.11,4.42-1.55,2.32-.45-2-1.54-1.54-.78-.78-.78-.78" transform="translate(-0.49 -0.5)" fill="#fff" fill-rule="evenodd"/>
    <path id="Path_215" data-name="Path 215" d="M252.57,279.64s3-3.66,3.87-2.32,1.68,3.27,0,3.87-2.42,0-1.55-.78,0-1-2.32,0C252,280.66,252.57,279.64,252.57,279.64Z" transform="translate(-0.49 -0.5)" fill="#fff" fill-rule="evenodd"/>
    <path id="Path_216" data-name="Path 216" d="M292.05,278.87c-.17-.7-1.27-1.41-1.55,1.54,0,0-2.62,7.21-23.22,6.2-8.93-.12-15.56-1.89-17-3.1s1.45-2.81-.77-2.32-3.59,5.27-2.32,5.42,1.82-1.94,2.32-2.32,4.43,3.9,10.06,5.41c0,1.07,1.74,1.57-3.87,6.2-5,4.81,2.55-1.7,4.65-2.32s3.93-.64,5.42.77,3.85-1.13,7,.77c.49,1.36.59,3.22,1.54,0,.35-.71,3-1.54,5.42,1.55s.88-2.88-.77-4.64c-.37-.39.35-2.45,3.87-4.65s7.74-4.64,7.74-4.64-.62,2.65.78,2.32S292.22,279.55,292.05,278.87Zm-13.16,9.29c-.17.74-2.76,4.73-4.65,5.42s-.47-1.18-2.32-.78-3.87.78-3.87.78c-1.2-3-4.77-2.55-6.19-2.33s-1.17-1.25-1.55-1.55,0-2.32,0-2.32h18.58s.17.04,0,.78Z" transform="translate(-0.49 -0.5)" fill="#fff" fill-rule="evenodd"/>
    <path id="Path_217" data-name="Path 217" d="M309.19,286.24s3.09,3.83,3.09,7.74c0,1,6.14,5.8,2.33,9.29-1.91,1.75-7,1.55-7,1.55s7.94-3,6.19-6.19-4.62-2.25-4.64-6.19S308.44,285.2,309.19,286.24Z" transform="translate(-0.49 -0.5)" fill="#fff" fill-rule="evenodd"/>
    <path id="Path_218" data-name="Path 218" d="M301.45,268.44s14.23,1.95,7.74,10.06c.76,1.35,6.62,5.36.77,7-.3-1.21,1.38-6.39-3.87-6.2C303.78,279.1,314.25,273.6,301.45,268.44Z" transform="translate(-0.49 -0.5)" fill="#fff" fill-rule="evenodd"/>
    <path id="Path_219" data-name="Path 219" d="M299.12,268.44s.77-7.87-3.09-7.75c-2.14.21-2.33,3.88-2.33,3.88s-2-7.61-7.74-9.29,5.78,2.47,7,11.61C293.54,269.83,296.16,257.39,299.12,268.44Z" transform="translate(-0.49 -0.5)" fill="#fff" fill-rule="evenodd"/>
    <path id="Path_220" data-name="Path 220" d="M308.41,310.24s4.95.56,5.42-2.32S315.53,316.73,308.41,310.24Z" transform="translate(-0.49 -0.5)" fill="#fff" fill-rule="evenodd"/>
    <path id="Path_221" data-name="Path 221" d="M304.54,314.89s6.12-1.07,4.65.77-2.69-.77-2.33,1.55S305.16,316.33,304.54,314.89Z" transform="translate(-0.49 -0.5)" fill="#fff" fill-rule="evenodd"/>
    <path id="Path_222" data-name="Path 222" d="M302.22,323.4s-1.81,6.45-7,6.2-6.19-7-6.19-7S294.58,331.14,302.22,323.4Z" transform="translate(-0.49 -0.5)" fill="#fff" fill-rule="evenodd"/>
    <path id="Path_223" data-name="Path 223" d="M275.9,328.82s5.4,2.61,8.51-1.55c.06-.24,1.21,3.42,6.2-1.55.95-.74-2.53,9.54-7,4.65C282.72,329,279,334.87,275.9,328.82Z" transform="translate(-0.49 -0.5)" fill="#fff" fill-rule="evenodd"/>
    <path id="Path_224" data-name="Path 224" d="M273.58,328.05s-3.54,3.83-8.52-.78c-.73-.67,1.41,5.55-9.29-.77-2.64-1.56,5.09,9.5,10.06,3.1C266.52,328.76,270.66,335.09,273.58,328.05Z" transform="translate(-0.49 -0.5)" fill="#fff" fill-rule="evenodd"/>
    <path id="Path_225" data-name="Path 225" d="M251.9,318.76s-5.66,4.48-7-.78c0-5.44-.15-1.65-3.1-4.64-1.72-1.76,0-7.74,0-7.74s-3.24,3.07-4.64,2.32c-2-1.08-4.32-7.51-1.55.77.92,2.74,4.65.78,4.65.78s-.73,4.65,3.09,6.19c.6.21-1.63,5.76,5.42,6.19C251.27,322,251.9,318.76,251.9,318.76Z" transform="translate(-0.49 -0.5)" fill="#fff" fill-rule="evenodd"/>
    <path id="Path_226" data-name="Path 226" d="M237.19,288.56s-3.83-2.71-3.1-7,5.42-3.87,5.42-3.87-2.37-4.87,1.55-5.42c0,0-3.34-6.6,2.32-8.52,0,0,1-.68,5.42,0,.68-1,.11-4.85,3.1-5.42a19.68,19.68,0,0,1-1.55,4.65c-1.35,3.1.91,2-3.1,2.32s-6,2.74-5.42,6.19c.16,1.08.25,1.29-.77,1.55s-1.84,3.31,0,5.42c.2.51-5.49-.61-5.42,4.65S237.19,288.56,237.19,288.56Z" transform="translate(-0.49 -0.5)" fill="#fff" fill-rule="evenodd"/>
    <path id="Path_227" data-name="Path 227" d="M296,314.89s-2.16,4.29-3.1,4.64,2.77.78,3.87-2.32S296,314.89,296,314.89Z" transform="translate(-0.49 -0.5)" fill="#fff" fill-rule="evenodd"/>
    <path id="Path_228" data-name="Path 228" d="M263.51,311.79s-.1,1.6,2.32,2.32S263.65,312.26,263.51,311.79Z" transform="translate(-0.49 -0.5)" fill="#fff" fill-rule="evenodd"/>
    <path id="Path_229" data-name="Path 229" d="M59.89,232.27s-7.09,10-14.25,6.75-8.41-5.73-6-10.5c.71-1.58,1-4.61-1.5-3s-9.23,1.33-6.75-6c-.91.56-3.32,1.85-2.25,6.75-2.23.57-6.4-.83-3.75-6,1.43-.66,4.08-2.06,6-2.25s2.94-2.71,5.25-2.25,3.59,2.07,5.25,1.5,4.42-3.93,6.75-3,4.87,1.22,6,3,1.68-.38,3.75,2.25,6.16,4.74,6.75,11.25c.77,1,1.19,1.95,1.5,0s0-8.8-5.25-12-5.25-2.25-5.25-2.25-3.79-5.06-9.75-3.75-4.3,2.93-8.25.75a7.78,7.78,0,0,0-6,1.5c-.78.56-5.83,1.19-6.75,4.5-1,.75-5.75,5.49-.75,9s6-.75,6-.75.15,1.48,2.25,2.25,3.85-.11,5.25-.75-4.68,6.66.75,9.75c0,0,3.78,2.51,6.75,3,.44.61,2.4,11.26,9.75,18s18.69,15.2,27.75,16.5c0-.23,1.32.25,1.5,0s-.75-1.3-.75-1.5a2.94,2.94,0,0,0-.75-2.25s-18.51,1.11-35.25-30C47.89,242.77,59.62,240,59.89,232.27Z" transform="translate(-0.49 -0.5)" fill="#fff" fill-rule="evenodd"/>
    <path id="Path_230" data-name="Path 230" d="M41.89,218s-4.59,10,5.25,12.75c6.33,1.75,11.66-7.07,9-11.25-.81,2.76-3.19,8.36-9,7.5S41.89,218,41.89,218Z" transform="translate(-0.49 -0.5)" fill="#fff" fill-rule="evenodd"/>
    <path id="Path_231" data-name="Path 231" d="M83.14,257.77s-5.48,39.67,33.75,60.75c-2.09,1.94-5.36,9.55-6,14.25-1,0-4-2.38-9-2.25s-6.49,3.77-8.25,3.75-1.36,1.76,7.5,1.5,9.75-.75,9.75-.75.5-.32.75-2.25c.37-.67,6.24-11.78,9.75-12,0,0,4.61,3.08,20.25,5.25.24,2.86,1.2,9.47,17.25,12,6.09,1,16.74-.9,19.5-3s3.78-8.44-1.5-9.75c.15-1.89.24-5.59-6.75-5.25a16.16,16.16,0,0,0,3,3c1.75,1.31,1.43,2.43-1.5,2.25s6.66.64,6,5.25-4.31,6.58-19.5,5.25c-7.62-2.29-15.08-4.06-14.25-11.25s2.41-22.93,2.25-30.75-1.06-17.35-2.25-19.5.94,12.53,0,20.25-1.08,27.52-3,27.75-8.5-1.09-15.75-4.5-14-5-21.75-14.25-14.23-15.6-16.5-30-1.5-15.75-1.5-15.75Z" transform="translate(-0.49 -0.5)" fill="#fff" fill-rule="evenodd"/>
    <path id="Path_232" data-name="Path 232" d="M110.14,270.52c-13.51-4.31-18.75,5.25-18.75,5.25,14.71-8.48,22.63,0,23.25,1.5s-1.91.47-3,0-.13-3.19-1.5-.75-4,3-6.75,3-5.77-6-6-5.25c-1.31,3.38.43,4.21,3.75,7.5s6,1.5,6,1.5v2.25s-1.86-1.88-3.75,1.5,4.19,4,10.5,3S123.65,274.82,110.14,270.52Zm6.75,14.25c-.73.86-6.87,3.61-6,.75s5.25-4.5,5.25-4.5C118.1,280.68,117.62,283.91,116.89,284.77Z" transform="translate(-0.49 -0.5)" fill="#fff" fill-rule="evenodd"/>
    <path id="Path_233" data-name="Path 233" d="M102.64,221s-5.7-9.67-18-5.25c0,0-6.1-3.14-15.75.75,2.38.54,7.21,2.18,7.5,2.25s-11,7.48-9.75,18.75,9.28,27.34,31.5,15c-.19-2-7.7,4.17-17.25,2.25C76,252.7,69.57,247,68.89,242c0,0-4.5-13.63,11.25-21,1.37,1.09,6.58,5.43,6.75,6.75s3.67-4.51.75-8.25c0,0,5.73-3.28,12.75,3.75Z" transform="translate(-0.49 -0.5)" fill="#fff" fill-rule="evenodd"/>
    <path id="Path_234" data-name="Path 234" d="M71.89,228.52c-4.57,0-3,13.5-3,13.5H95.14a44.18,44.18,0,0,1,.75-6.75L95.14,239H85.39c.62-1.9-1.5-5.25-1.5-5.25s-.3-.67,0-.75,12,2.25,12,2.25V233Zm9.75,11.25H68.89s-.76-8.63,1.5-9l12,1.5S80.57,236.91,81.64,239.77Z" transform="translate(-0.49 -0.5)" fill="#fff" fill-rule="evenodd"/>
    <path id="Path_235" data-name="Path 235" d="M127.39,261.52s23.88-9.61,12-35.25-50.94-5.67-43.5,20.25c0,0,4.09,15.73,24,13.5-9.18-2-29.11-4.11-19.5-30.75,5.2-14.41,42.17-16.2,39,12C139.39,241.27,140,253.32,127.39,261.52Z" transform="translate(-0.49 -0.5)" fill="#fff" fill-rule="evenodd"/>
    <path id="Path_236" data-name="Path 236" d="M98.14,239h6s-.45-7.65,3.75-7.5c1.6.14-3,2.88.75,5.25,1.25.79,0,1.5,0,1.5h27l1.5,2.25-39,.75v-1.5" transform="translate(-0.49 -0.5)" fill="#fff" fill-rule="evenodd"/>
    <path id="Path_237" data-name="Path 237" d="M114.64,203c8.5,3.68,17.53,9.58,18.75,13.5-.06-5.91-4.65-18.25-15.75-20.25" transform="translate(-0.49 -0.5)" fill="#fff" fill-rule="evenodd"/>
    <path id="Path_238" data-name="Path 238" d="M201.64,330.52c-8.11-2.71-10.08-.18-10.5,0s.09-7.63-8.25-12.75c-6-4.06-7.5-4.5-7.5-4.5A29,29,0,0,0,185.14,299c2.94-9.49,2.31-18.35.75-23.25s-4.83-8.45-11.25-10.5-13.34-2.91-21-12A61.23,61.23,0,0,1,143.14,236s0,7.08-.75,9.75,5.44,9.3,10.5,13.5,8.23,6.91,10.5,7.5,2.23,19.15,2.25,24.75,5.83,6.13,9-1.5,3-16.5,3-16.5,5.69,5.86,5.25,9.75-5.86,7.4-5.25,12,5.25,0,5.25,0-2.25,13-13.5,18.75c1.27,2.33,14.24,3.18,18,14.25.5,5-.2,5.56,1.5,6s13.5,0,13.5,0S209.75,333.23,201.64,330.52Zm-28.5-41.25c-3,5.81-5.48,3.71-6-1.5.17-5.65-1.5-20.25-1.5-20.25,10.77,2.13,9.75,5.25,9.75,5.25S176.18,283.45,173.14,289.27Zm6.75,4.5c-1-1.78,3-7.5,3-7.5.69-4.2.87,4.39.75,5.25S180.94,295.55,179.89,293.77Z" transform="translate(-0.49 -0.5)" fill="#fff" fill-rule="evenodd"/>
    <path id="Path_239" data-name="Path 239" d="M390.64,327.52h9.75s3.77-2.64.75-3.75-9,.75-9,.75.76-9-6.75-2.25a3.86,3.86,0,0,0-.75-5.25s-2,0,0-1.5.72-2.61,1.5-1.5.06,3.18,1.5,1.5,3.6-2.8,2.25-3.75,1.23-1.19,2.25-1.5,4.61-4.21,1.5-6.75-.81-3.44-.75-5.25-1.79-5-5.25-.75,2.07-3.47-.75-4.5.09-2.39-1.5-3,1.3-8.72-3.75-3,1.37-2.7-3.75-.75,6.33-6.85-3-5.25c0,0,3.73-4.77.75-6.75s-7.38-.2-9,3,1.48-6.34-2.25-4.5-.4,3.79-2.25,3-1.74-3.66-6.75-2.25,1.71-2.49,1.5-5.25,1.47-3.87,3.75-4.5.75-4.5.75-4.5,4-.68,3.75-2.25-3.36-3.07-2.25-4.5,5.71-9.59,1.5-12.75c0,0-2.05-1.43-3.75,1.5s2.69-5.16-3-3c0,0,.61-6.39-3-8.25s5.6-3.62,0-7.5,3.82-3.42-5.25-8.25c0,0,1.84-6.85-3.75-5.25h0s.42-12.87-6-3c0,0-.72-3.65-2.25-3.75s-.54,4.44-2.25,1.5-3.44-4.92-8.25-5.25c-.45-1-3.75-7.3-6-.75-1.56-1.09-1.1-2.07-3.75-1.5s1.18-2,1.5-4.5-.33-13.58-11.25,0c0,0,.72-6.37-2.25-5.25a5.73,5.73,0,0,0-3.75,5.25c-.14,1.63-3.05-5.84-5.25,1.5s-4.36.79-6,0-5.08-3.06-6.75,3-.64-2.17-6-1.5a8.73,8.73,0,0,0-3,3.75c-.8,2.25-1.1-4.34-4.5-.75s2.52-10-3.75-8.25-5.68,10.39-6,11.25-3.55-8.48-6-2.25-.33,4.8-2.25,6-1.24,3.76-2.25,4.5-5.17-3.44-6.75.75,0,6.78-.75,6.75-2.47,1.24-3.75,3.75-2.25-.27-3,1.5-1.1,1.13-3,.75-2.93.77-2.25,4.5-.08,5.47-.75,6-5.38,2.11-3,6,1.22,2.08,0,4.5-1,1,1.5,0,5.8-1.06,3.75-2.25-4.21-3.45-3-4.5,3.48-1.5,3-3.75-1.54-3.76-.75-6,1-4.8,2.25-1.5,3.68,2.24,2.25-.75,1-4,1.5-2.25,1.84,2.49,3-.75.55-2.6,1.5-3.75,2.26-1.45,2.25-3.75.15-3.48,1.5-3,1.16,2.3,3,1.5,1.47-2.66,2.25-3.75,1.56-3.62,3-3,1.72,1.09,2.25.75,1.29-.29.75-1.5-.31-2.85-.75-3-1.66-2.74,0-2.25,3.47,2.29,4.5,2.25.57-1.19,1.5-3,3.32-8.45,4.5-6a10.25,10.25,0,0,1,0,8.25c-1.13,2.65,2.51-3.05,4.5-1.5s2,2.33,4.5-.75,4.29-.28,5.25-1.5,2.19-1.92,3.75-.75.5-3,3-2.25,3.39,1.19,6,.75,4.48.81,4.5-.75.27-3.81,2.25-1.5,2.75,1.6,3-1.5,2.78-4.35,2.25,0,3.15.6,3.75,0,6.72-7,7.5-1.5-5.57,4.35-3,6c.8.51,2.27-1.24,2.25,2.25,0,1.3,2.39-1.64,3.75-.75s-.22,2.28,2.25.75,2.51-.58,3.75,1.5,2.05,1.65,4.5,2.25a14.17,14.17,0,0,1,5.25,3c1.21.87,2.08-2.38,3,0s1.54,2.33,3,.75,2.91-.24,2.25,4.5,4.72-4.2,3,4.5c0,0,5.3,1.57,5.25,5.25s2.78-1.43,2.25,4.5-2.24,6.09,0,8.25,3,3.95,2.25,7.5-.6,5.13.75,1.5,2.69.08,2.25,3,3.69-5.72,4.5-2.25,1.4,5.12-.75,7.5-2.52,4.17-2.25,5.25-2.86-1-3,2.25,4.87.79,2.25,3-1.84.7-2.25,0-1-2.22-1.5,3-1.48,3-1.5,5.25a5.23,5.23,0,0,1-1.5,3.75,2.51,2.51,0,0,1-2.25.75c-.87-.13-2-3.59-3.75-2.25s-.73,2.6-1.5,1.5-.1-5.45-3.75-3.75-5.68,4.76-5.25,6,4.8-6.32,6-3,.14,7.56,1.5,5.25c.36-.63-.13-4.1,2.25-3s1.59-1,2.25,0,.05,1.81,3,2.25,4.81-1.07,7.5-.75,4.06.48,4.5.75,1.58-2.74,1.5-1.5,1.58,1,1.5,3,1.4-2.27,4.5-1.5,3.39,1.94-1.5,3.75,3.23.36,4.5,1.5,2.73.37,1.5,3,.13,1.65,2.25,3,.93,3.43,3.75.75,2,2.11,2.25,3.75,1.7,0,1.5,3,1.33-1.89,2.25,3.75c0,0,3.41-.88,3,.75s-3,.44-3,3.75c0,0,5,0,5.25,2.25s-3.19,3.86-4.5,1.5-1.19.18-1.5,2.25,3.17.72,1.5,3-1.27-3.68-1.5-3.75-.63.59-2.25,2.25-1.13,2.47-.75,3-3.35.65-1.5,3.75.74,5.34-.75,6.75.61,2.54,3.75,0,5.63-2.81,5.25.75C390.43,327.26,390.64,327.52,390.64,327.52Z" transform="translate(-0.49 -0.5)" fill="#fff" fill-rule="evenodd"/>
    <path id="Path_240" data-name="Path 240" d="M229.39,249.52s1.08-3.2-2.25-3.75-4.16,1.71-3,4.5-5.74-3.35-6,1.5c-.2,3.65,4.5,5.25,4.5,5.25s-5.68,3.89-.75,6c2,.86,4.5-1.5,4.5-1.5s-6.58.69-3-3.75c0,0-3.17-3.91-2.25-5.25s3.32,1.1,6,1.5-4.45-3.19-1.5-5.25,3.75.75,3.75.75" transform="translate(-0.49 -0.5)" fill="#fff" fill-rule="evenodd"/>
    <path id="Path_241" data-name="Path 241" d="M320.89,212s4.41-5.32,6-3c1.09,1.58-.75,5.25-.75,5.25s6.83-.27,2.25,5.25c0,0,.92-6.49-4.5-3s7.33-7.58-3-4.5" transform="translate(-0.49 -0.5)" fill="#fff" fill-rule="evenodd"/>
    <path id="Path_242" data-name="Path 242" d="M312.64,209.77s.42-4.05,3-3.75,2.25,4.5,2.25,4.5-.63-2.53-2.25-2.25S314,208.75,312.64,209.77Z" transform="translate(-0.49 -0.5)" fill="#fff" fill-rule="evenodd"/>
    <path id="Path_243" data-name="Path 243" d="M341.89,228.52s3.72-4.07,5.25-.75-3.75,7.5-3.75,7.5-2.3-1.05.75-3S344.29,227.74,341.89,228.52Z" transform="translate(-0.49 -0.5)" fill="#fff" fill-rule="evenodd"/>
    <path id="Path_244" data-name="Path 244" d="M333.64,221.77s3.81-.17,2.25,5.25-1.11-3-2.25-3S331.73,221.84,333.64,221.77Z" transform="translate(-0.49 -0.5)" fill="#fff" fill-rule="evenodd"/>
    <path id="Path_245" data-name="Path 245" d="M344.89,254.77c-.46-.06,6-3.85,6.75,1.5s-3,6.5-4.5,6.75,2.95-2.47,2.25-5.25S349.13,255.3,344.89,254.77Z" transform="translate(-0.49 -0.5)" fill="#fff" fill-rule="evenodd"/>
    <path id="Path_246" data-name="Path 246" d="M368.14,298.27s3.43-5.55,6.75-3.75-.75,5.25-.75,5.25,7.66-.52,2.25,5.25c0,0-2.21.75-.75-2.25s-1.83-1.39-3.75-1.5,6.35-3.68,1.5-5.25C371.2,295.31,368.14,298.27,368.14,298.27Z" transform="translate(-0.49 -0.5)" fill="#fff" fill-rule="evenodd"/>
    <path id="Path_247" data-name="Path 247" d="M362.14,290s3.45-2.88,5.25-.75,0,4.5,0,4.5.51-2.83-1.5-3.75a4.46,4.46,0,0,0-3.75,0Z" transform="translate(-0.49 -0.5)" fill="#fff" fill-rule="evenodd"/>
    <path id="Path_248" data-name="Path 248" d="M342.64,309.52s2.2-8.44,5.25-6.75-1.5,10.5-1.5,10.5,1.79-7,.75-7.5-3.68,4-4.5,3.75" transform="translate(-0.49 -0.5)" fill="#fff" fill-rule="evenodd"/>
    <path id="Path_249" data-name="Path 249" d="M349.39,311s3.65-3.39,4.5-2.25.74,6.6-1.5,6.75.1-1.31,0-3-2.59-.48-3-.75S349.39,311,349.39,311Z" transform="translate(-0.49 -0.5)" fill="#fff" fill-rule="evenodd"/>
    <path id="Path_250" data-name="Path 250" d="M350.89,328.27s3.37-6.26,6-4.5.25,6.53-1.5,6.75,2.88-4.87-.75-4.5C354.64,326,349.42,330.11,350.89,328.27Z" transform="translate(-0.49 -0.5)" fill="#fff" fill-rule="evenodd"/>
    <path id="Path_251" data-name="Path 251" d="M330.64,329.77s3.05-.81,3.75-1.5,1-2-.75-2.25,5.88-9.72-2.25-5.25c-4.79,2.63-7.5,9-7.5,9s7.63-8.68,9-7.5-1.8,3.71-3,5.25S329.39,329.67,330.64,329.77Z" transform="translate(-0.49 -0.5)" fill="#fff" fill-rule="evenodd"/>
    <path id="Path_252" data-name="Path 252" d="M323.89,327.52s-.73-7.27-7.5-3,3.72-1.28,5.25.75S323.89,327.52,323.89,327.52Z" transform="translate(-0.49 -0.5)" fill="#fff" fill-rule="evenodd"/>
    <path id="Path_253" data-name="Path 253" d="M383.89,249.52s5.88-6.33,7.5-3.75-.23,7.74-6,9.75-.75-3-.75-3,8.52-4.3,5.25-3.75S381.86,252.68,383.89,249.52Z" transform="translate(-0.49 -0.5)" fill="#fff" fill-rule="evenodd"/>
    <path id="Path_254" data-name="Path 254" d="M387.64,258.52s3.48-1.77,4.5-3.75.65,2.93-2.25,4.5S385.68,259.87,387.64,258.52Z" transform="translate(-0.49 -0.5)" fill="#fff" fill-rule="evenodd"/>
    <path id="Path_255" data-name="Path 255" d="M291.64,173s7.07-.91,6-12c0,0-7.22-3.12-6.75,8.25,0,0,0,.85,1.5-3.75s6.67-2.91,3,2.25-5.06,4.77-3.75,5.25" transform="translate(-0.49 -0.5)" fill="#fff" fill-rule="evenodd"/>
    <path id="Path_256" data-name="Path 256" d="M286.39,166.27s-1.2-2.17-3-1.5-2,3.85-1.5,5.25,2.2,2.46,5.25,2.25c1.67-.5,1.79-2.36-.75-3s-3.33-3-1.5-2.25,2,.12,1.5-.75" transform="translate(-0.49 -0.5)" fill="#fff" fill-rule="evenodd"/>
    <path id="Path_257" data-name="Path 257" d="M225.64,205.27s-.07-8.36-4.5-7.5-2.57,8.45-.75,9.75,3.66,2.24,3.75,0-5.45-2.17-3.75-6.75S224.13,204.28,225.64,205.27Z" transform="translate(-0.49 -0.5)" fill="#fff" fill-rule="evenodd"/>
    <path id="Path_258" data-name="Path 258" d="M221.14,225.52a13.94,13.94,0,0,1,3,4.5c1.32,3,3.59,1.07,1.5-2.25S221.14,225.52,221.14,225.52Z" transform="translate(-0.49 -0.5)" fill="#fff" fill-rule="evenodd"/>
    <path id="Path_259" data-name="Path 259" d="M216.64,225.52s1.68,2.51,1.5-1.5-1.31-2.48-3.75-2.25.72-.17,2.25-3-1.82-9.91-11.25-3c0,0-.94,3-1.5,0s-.53-3.31-5.25-2.25-.95,1.38-1.5-1.5-2.23-7.07-4.5-6.75-2.78,8.57-.75,9.75-3.89,1.4-3.75-.75.82-5.53-.75-5.25-4.68,1.49-6,3-.27-4.11-6.75-.75c-.21-3.07-.91-8.25-3.75-8.25s-3.83,4.92-3.75,9-2.83-.29-6,1.5-2.65,2.95-3.75,3-1.38.4-1.5-1.5-4.42.34-5.25,2.25.52,1.07,2.25,0-.19,3.27,1.5,2.25.35-4.44,4.5-3c1.48.51,2.82-1.23,4.5-.75s3.1,1.26,3.75-.75-.88-1.9.75-3,.4-3.09.75-4.5,3.07-3.12,3.75,1.5.15,5.58,3,4.5,5.43-.62,3.75,1.5.71,1.2,3.75-1.5,4.2-.72,3.75,1.5,1.1,1.35,1.5,1.5-.26-1.16.75-1.5,2.83.23,3.75,0-.28-2.7-.75-4.5,3.19-2.31,3.75,1.5.73.48,2.25,1.5,2.76.44,3.75,1.5.66,4.07,3,3c.73-.34-1.27-1.52.75-1.5s1.41-1.31,4.5-.75,7.91,1.62,3,3.75-2.88,2.84-1.5,3,1.38-1.2,2.25-.75,3.09,1,3,2.25a5.42,5.42,0,0,0,0,1.5Z" transform="translate(-0.49 -0.5)" fill="#fff" fill-rule="evenodd"/>
    <path id="Path_260" data-name="Path 260" d="M203.89,233.77s2.76.37,2.25-5.25c-.64-4-3.75,1.5-3.75,1.5s2.23-7.66-1.5-6.75a4.79,4.79,0,0,0-3.75,4.5s2.63-3,3-1.5-1.64,5.28.75,5.25,2.84-3.87,3.75-1.5S203.27,232.61,203.89,233.77Z" transform="translate(-0.49 -0.5)" fill="#fff" fill-rule="evenodd"/>
    <path id="Path_261" data-name="Path 261" d="M182.14,227.77s2.23-1.55,3-1.5,0-5.1-1.5-3S183.14,227.22,182.14,227.77Z" transform="translate(-0.49 -0.5)" fill="#fff" fill-rule="evenodd"/>
    <path id="Path_262" data-name="Path 262" d="M186.64,221.77s1.42-4.15,3-3.75-.95,3.1-2.25,3.75S186.64,221.77,186.64,221.77Z" transform="translate(-0.49 -0.5)" fill="#fff" fill-rule="evenodd"/>
    <path id="Path_263" data-name="Path 263" d="M211.39,231.52s-3,1.2-2.25,2.25,3.29-.23,3,2.25S210.89,232.43,211.39,231.52Z" transform="translate(-0.49 -0.5)" fill="#fff" fill-rule="evenodd"/>
    <path id="Path_264" data-name="Path 264" d="M121.39,174.52c-2.26-1.37-2.77-1.78-5.25.75s-3,7.5-3,7.5,1.94,3.57,3,3.75,3.11,1.23,6-3S123.65,175.88,121.39,174.52Zm0,8.25c-1.79,1.85-4,.74-6-.75s.75-4.5.75-4.5C119.36,176.89,123.18,180.91,121.39,182.77Z" transform="translate(-0.49 -0.5)" fill="#fff" fill-rule="evenodd"/>
    <path id="Path_265" data-name="Path 265" d="M227.89,331.27s2.08,1.15,2.25-.75.27-3.56-1.5-3.75-7,3.41-4.5.75,6.13-9.06,1.5-8.25-9,10.5-9,10.5,7.13-9.11,9-8.25c.4.91-5.2,6.31-3.75,9.75.84,2,4.73-3.57,6-2.25a1.4,1.4,0,0,1,0,2.25Z" transform="translate(-0.49 -0.5)" fill="#fff" fill-rule="evenodd"/>
    <path id="Path_266" data-name="Path 266" d="M203.14,318.52s-.18-5.21,5.25-4.5-2.13-2.63-4.5-1.5-2.32,4.88-.75,6" transform="translate(-0.49 -0.5)" fill="#fff" fill-rule="evenodd"/>
    <path id="Path_267" data-name="Path 267" d="M212.89,309.52s-1.36-4.21,1.5-4.5c-.51-1.82-1.81-7.81.75-8.25s4.61,6.25.75,3c0,0-1.72-1.28,0,3,1.31,3.26,1.89,3.09-.75,3s-.24,2.47-.75,3.75S212.89,309.52,212.89,309.52Z" transform="translate(-0.49 -0.5)" fill="#fff" fill-rule="evenodd"/>
    <path id="Path_268" data-name="Path 268" d="M98.14,290s-2.4,5.35,3,7.5,4.83-.86,3.75-2.25-5.86.51-6-6C98.86,288.11,98.14,290,98.14,290Z" transform="translate(-0.49 -0.5)" fill="#fff" fill-rule="evenodd"/>
    <path id="Path_269" data-name="Path 269" d="M60.64,191s-2.91-6.31-6.75-5.25-1.72,3.82.75,4.5a30.719,30.719,0,0,0,6,.75Z" transform="translate(-0.49 -0.5)" fill="#fff" fill-rule="evenodd"/>
    <path id="Path_270" data-name="Path 270" d="M77.89,185.77s-1.46-8.55.75-12.75,1.76,4.29,0,9.75S77.89,185.77,77.89,185.77Z" transform="translate(-0.49 -0.5)" fill="#fff" fill-rule="evenodd"/>
    <path id="Path_271" data-name="Path 271" d="M65.89,271.27s-3-8.46-6-.75c0,0-.53,2.4.75,3.75s-2.46-3.74-4.5,3.75-1.66,2.14-2.25,5.25-.19,2.2-3,.75-5.68.11-6.75,6c-.74,4,3.09,1.41,2.25,4.5s-1.23,3.51,0,4.5.28,2-.75,3.75.86-1.43.75,2.25-1,3.81-1.5,5.25-.26,3.85,3.75,4.5v-3s-2.88.6-2.25-1.5,2.2-1.32,2.25-3.75-1.71-2.29-1.5-4.5-.92-2.59.75-3-.09-3.62-.75-3.75-1.52-1,.75-1.5,1.57-1.59.75-2.25-4.64-2.29-3-3.75,4.84-3,6.75-2.25.19-1.72.75-1.5,1.17.94,1.5.75.5-1.23.75-2.25-.75-1.11.75-1.5,1.27-.69,1.5-2.25-1.23-5.65,5.25-3c1-.42,1-2.92.75-3s-2.5-.81-1.5-2.25S64.63,272.82,65.89,271.27Z" transform="translate(-0.49 -0.5)" fill="#fff" fill-rule="evenodd"/>
    <path id="Path_272" data-name="Path 272" d="M65.89,289.27s-1.18-7.07-3.75-4.5-1.85,4.55-.75,7.5-2-.2-3,2.25-1.21,4.84,1.5,5.25,2.41-2.66.75-3.75-1.53-3.82,1.5-2.25,2.36-.77,1.5-1.5S61.28,284.54,65.89,289.27Z" transform="translate(-0.49 -0.5)" fill="#fff" fill-rule="evenodd"/>
    <path id="Path_273" data-name="Path 273" d="M68.14,290.77c0-.55-.88-4.76,2.25-4.5s-.82.82-1.5,3.75S68.14,291.29,68.14,290.77Z" transform="translate(-0.49 -0.5)" fill="#fff" fill-rule="evenodd"/>
    <path id="Path_274" data-name="Path 274" d="M44.14,307.27s-1.51-5.82-3.75-5.25c-1.68.42-2.25,3.75-2.25,3.75s-9.14-3.8-12,1.5a5.72,5.72,0,0,0,0,6s-6.06,3.43-1.5,7.5c0,0,2.06.35.75-3s-.28-3.17,2.25-3,1.7-.64,1.5-1.5-5.43-3.69,0-5.25,8-1.7,9-1.5-1,2,.75,2.25-.44-5.12,2.25-3.75S42.39,307.92,44.14,307.27Z" transform="translate(-0.49 -0.5)" fill="#fff" fill-rule="evenodd"/>
    <path id="Path_275" data-name="Path 275" d="M35.89,326a4.25,4.25,0,0,1,3-3.75c2.88-.86-1.39,1.46-1.5,3.75S35.84,327.14,35.89,326Z" transform="translate(-0.49 -0.5)" fill="#fff" fill-rule="evenodd"/>
    <path id="Path_276" data-name="Path 276" d="M27.64,329.77s-.76-5.91-6.75-5.25c-3.31.36-3,6-3,6a7,7,0,0,0-5.25-1.5c-3.45.25-1.05,1.62-3,2.25s-4.49-2-6-.75-3.74,3.61-3,3.75,4.52-1.21,6-1.5.29-.95,2.25-.75,1.68-.19.75,1.5.62-.09,2.25-1.5,1.75.07,3.75,0,3.36.5,3.75,1.5-.34-1.6,0-3.75,2.57-2.23,5.25-.75S27.64,329.77,27.64,329.77Z" transform="translate(-0.49 -0.5)" fill="#fff" fill-rule="evenodd"/>
    <path id="Path_277" data-name="Path 277" d="M75.64,332.77s1.66-5.29-.75-5.25-3.21,2.74-3,.75,1.56-1.66,1.5-6-.93-9.56-7.5,4.5c0,0-2.25,6.54,1.5,0s5.89-9.57,3.75-1.5-2,5.69.75,5.25,2.63-.67,2.25,2.25S75.64,332.77,75.64,332.77Z" transform="translate(-0.49 -0.5)" fill="#fff" fill-rule="evenodd"/>
    <path id="Path_278" data-name="Path 278" d="M62.89,330.52s.66-6.48-3-7.5-1.5,6-1.5,6-8.14-3.44-9,3.75-.94-3.47,6-.75,5,1.26,5.25,0S59.7,325.21,62.89,330.52Z" transform="translate(-0.49 -0.5)" fill="#fff" fill-rule="evenodd"/>
    <path id="Path_279" data-name="Path 279" d="M86.14,319.27s3.51,2,2.25,5.25.35,1.81,1.5.75S90.28,319.33,86.14,319.27Z" transform="translate(-0.49 -0.5)" fill="#fff" fill-rule="evenodd"/>
    <path id="Path_280" data-name="Path 280" d="M86.14,327.52s-5.4-.7-6,1.5-.75-.19,4.5,0S86.14,327.52,86.14,327.52Z" transform="translate(-0.49 -0.5)" fill="#fff" fill-rule="evenodd"/>
    <path id="Path_281" data-name="Path 281" d="M94.44,148.57c-1.43-2.9-11.9-24.24-11.9-24.24s-1-3.66-5-1.71l-30.3,14.86s-2.91,1.78-1.07,5.54l16.52,33.66s.37,1.62,1.34,1.85a3.15,3.15,0,0,0,3.37-1.65c.43-.92,4.13-13.72,4.13-13.72l20.2-9.91S95.86,151.48,94.44,148.57Zm-2.89,3.28L70.68,162.09s-2.79,10-3.45,11.71c-.34.87-.92,3.83-2.37,3.67s-2.33-3-2.33-3L47,142.79c-1.7-3.46,1-4.69,1-4.69s25-12,28.68-13.84,5.18,1.3,5.18,1.3L92.8,147.87a2.91,2.91,0,0,1-1.25,3.98Z" transform="translate(-0.49 -0.5)" fill="#fff" fill-rule="evenodd"/>
    <path id="Path_282" data-name="Path 282" d="M76,139.58a13.12,13.12,0,0,1,2.32,4.71,2.31,2.31,0,0,0,3.36-1.66c.76-2.88-1.84-4.15-2.32-4.71S76.74,135.7,76,139.58Z" transform="translate(-0.49 -0.5)" fill="#fff" fill-rule="evenodd"/>
    <path id="Path_283" data-name="Path 283" d="M68.25,142.55s-1.67.92.65,4.7,2.62,3.2,3.67,2.37-.31-4-.31-4S70,141.12,68.25,142.55Z" transform="translate(-0.49 -0.5)" fill="#fff" fill-rule="evenodd"/>
    <path id="Path_284" data-name="Path 284" d="M59.84,147.53s-3.34.48-1,4.68,5.31,2.13,4.7-.64S59.84,147.53,59.84,147.53Z" transform="translate(-0.49 -0.5)" fill="#fff" fill-rule="evenodd"/>
  </g>
</svg>
