<?xml version="1.0" standalone="no"?>
<!DOCTYPE svg PUBLIC "-//W3C//DTD SVG 1.1//EN" "http://www.w3.org/Graphics/SVG/1.1/DTD/svg11.dtd" >
<svg xmlns="http://www.w3.org/2000/svg" xmlns:xlink="http://www.w3.org/1999/xlink" version="1.1">
<metadata>
Created by FontForge 20190801 at Wed Jul 17 18:49:44 2019
 By www-data
Copyright (c) 2019 by www.fontiran.com (Moslem Ebrahimi). All rights reserved.
</metadata>
<defs>
<font id="Dana-Black" horiz-adv-x="0" >
  <font-face 
    font-family="Dana Black"
    font-weight="900"
    font-stretch="normal"
    units-per-em="1000"
    panose-1="0 0 10 0 0 0 0 0 0 0"
    ascent="800"
    descent="-200"
    x-height="520"
    cap-height="700"
    bbox="-160 -717 1603.79 1133"
    underline-thickness="30"
    underline-position="-280"
    unicode-range="U+000D-FEFF"
  />
<missing-glyph horiz-adv-x="300" 
d="M30 -25v550h240v-550h-240zM70 25h160v450h-160v-450z" />
    <glyph glyph-name="uni06C0" unicode="&#x647;&#x654;" horiz-adv-x="526" 
d="M247 693q-70 11 -88.5 40.5t5.5 94.5q22 57 66 78.5t99 4.5l38 -12l-24 -86l-38 12q-55 18 -71 -31q-2 -6 4 -9t27 -7q65 -13 88.5 -30.5t23.5 -62.5q0 -58 -40.5 -74.5t-167.5 -23.5l-8 90l141 7zM372 439q105 -96 105 -219q0 -92 -62.5 -157.5t-150.5 -65.5t-151 65.5
t-63 157.5q0 106 89 195l2 2l-21 20l111 131zM264 172q26 0 41.5 13.5t15.5 34.5q0 19 -10.5 36.5t-45.5 48.5l-3 3l-3 -3q-32 -32 -42.5 -49.5t-10.5 -35.5q0 -21 16 -34.5t42 -13.5z" />
    <glyph glyph-name="uniFBA5" unicode="&#xfeea;&#x654;" horiz-adv-x="560" arabic-form="final" 
d="M288 681q-70 11 -88.5 40.5t5.5 94.5q22 57 66 78.5t99 4.5l38 -12l-24 -86l-38 12q-55 18 -71 -31q-2 -6 4 -9t27 -7q65 -13 88.5 -30.5t23.5 -62.5q0 -58 -40.5 -74.5t-167.5 -23.5l-8 90l141 7zM546 180h19v-180h-19q-112 0 -182 89l-94 -15q-62 -8 -124 35.5
t-85 110.5q-28 82 11 164t119 108l118 39v28h160v-312q0 -28 22 -47.5t55 -19.5zM256 253q3 0 11 1.5t20.5 3.5t21.5 4v91l-68 -24q-35 -12 -30 -45q2 -14 15 -24t30 -7z" />
    <glyph glyph-name="uniFEF5" unicode="&#xfedf;&#xfe82;" horiz-adv-x="619" arabic-form="isolated" 
d="M115 710v-3l-80 -6v27q0 53 35.5 82.5t88.5 19.5l101 -19q30 -5 30 14v3l80 6v-27q0 -53 -35.5 -82.5t-88.5 -19.5l-101 19q-30 5 -30 -14zM569 218q5 -96 -53.5 -157t-154.5 -61h-253v180h253q30 0 39.5 6.5t8.5 23.5l-19 496l160 8zM292 252l-157 -32l-85 421l157 32z
" />
    <glyph glyph-name="uniFEF6" unicode="&#xfee0;&#xfe82;" horiz-adv-x="632" arabic-form="final" 
d="M115 710v-3l-80 -6v27q0 53 35.5 82.5t88.5 19.5l101 -19q30 -5 30 14v3l80 6v-27q0 -53 -35.5 -82.5t-88.5 -19.5l-101 19q-30 5 -30 -14zM617 180h20v-180h-20q-71 0 -125 41q-54 -41 -131 -41h-253v180h253q30 0 39.5 6.5t8.5 23.5l-19 496l160 8l19 -490
q1 -26 11.5 -35t36.5 -9zM292 252l-157 -32l-85 421l157 32z" />
    <glyph glyph-name="uniFEF7" unicode="&#xfedf;&#xfe84;" horiz-adv-x="619" arabic-form="isolated" 
d="M188 725q-2 -1 -5 -1t-5 -1l-162 -38l-19 86l64 15q-6 10 -11 30q-15 61 24.5 108t100.5 41l79 -13l-15 -86q-8 1 -19.5 3t-34.5 4.5t-31 0.5q-16 -4 -24.5 -14.5t-4.5 -24.5q3 -11 15.5 -18t25.5 -6l116 28l19 -87zM569 218q5 -96 -53.5 -157t-154.5 -61h-253v180h253
q30 0 39.5 6.5t8.5 23.5l-19 496l160 8zM292 252l-157 -32l-85 421l157 32z" />
    <glyph glyph-name="uniFEF8" unicode="&#xfee0;&#xfe84;" horiz-adv-x="632" arabic-form="final" 
d="M188 716q-2 0 -5 -1t-5 -1l-162 -38l-19 86l64 15q-6 10 -11 30q-15 61 24.5 108t100.5 41l79 -13l-15 -86q-8 1 -19.5 3t-34.5 4.5t-31 0.5q-16 -4 -24.5 -14.5t-4.5 -24.5q3 -11 15.5 -18t25.5 -6l116 28l19 -87zM617 180h20v-180h-20q-71 0 -125 41q-54 -41 -131 -41
h-253v180h253q30 0 39.5 6.5t8.5 23.5l-19 496l160 8l19 -490q1 -26 11.5 -35t36.5 -9zM292 252l-157 -32l-85 421l157 32z" />
    <glyph glyph-name="uniFEF9" unicode="&#xfedf;&#xfe88;" horiz-adv-x="619" arabic-form="isolated" 
d="M569 218q5 -96 -53.5 -157t-154.5 -61h-253v180h253q30 0 39.5 6.5t8.5 23.5l-19 496l160 8zM292 252l-157 -32l-85 421l157 32zM219 -179l116 28l19 -87l-113 -27q-2 -1 -5.5 -1t-4.5 -1l-162 -38l-19 86l64 15q-6 10 -11 30q-15 61 24.5 108t100.5 41l79 -13l-15 -86
q-8 1 -19.5 3t-34.5 4.5t-31 0.5q-16 -4 -24.5 -14.5t-4.5 -24.5q3 -11 15.5 -18t25.5 -6z" />
    <glyph glyph-name="uniFEFA" unicode="&#xfee0;&#xfe88;" horiz-adv-x="632" arabic-form="final" 
d="M617 180h20v-180h-20q-71 0 -125 41q-54 -41 -131 -41h-253v180h253q30 0 39.5 6.5t8.5 23.5l-19 496l160 8l19 -490q1 -26 11.5 -35t36.5 -9zM292 252l-157 -32l-85 421l157 32zM219 -179l116 28l19 -87l-113 -27q-2 -1 -5.5 -1t-4.5 -1l-162 -38l-19 86l64 15
q-6 10 -11 30q-15 61 24.5 108t100.5 41l79 -13l-15 -86q-8 1 -19.5 3t-34.5 4.5t-31 0.5q-16 -4 -24.5 -14.5t-4.5 -24.5q3 -11 15.5 -18t25.5 -6z" />
    <glyph glyph-name="uniFEFB" unicode="&#xfedf;&#xfe8e;" horiz-adv-x="619" arabic-form="isolated" 
d="M569 218q5 -96 -53.5 -157t-154.5 -61h-253v180h253q30 0 39.5 6.5t8.5 23.5l-19 496l160 8zM292 252l-157 -32l-85 421l157 32z" />
    <glyph glyph-name="uniFEFC" unicode="&#xfee0;&#xfe8e;" horiz-adv-x="632" arabic-form="final" 
d="M617 180h20v-180h-20q-71 0 -125 41q-54 -41 -131 -41h-253v180h253q30 0 39.5 6.5t8.5 23.5l-19 496l160 8l19 -490q1 -26 11.5 -35t36.5 -9zM292 252l-157 -32l-85 421l157 32z" />
    <glyph glyph-name="uni06440671" unicode="&#xfedf;&#xfb51;" horiz-adv-x="619" 
d="M102 713q-11 0 -18 -6t-25 -29l-67 51q25 36 44.5 52t42.5 20l32 44q18 25 26 34.5t26 27.5t36.5 25.5t40.5 7.5q46 0 77 -33.5t31 -83.5q0 -44 -32.5 -77t-75.5 -33h-138zM240 854q-25 0 -58 -44l-5 -7h63q31 0 31 25q0 12 -9 19t-22 7zM569 218q5 -96 -53.5 -157
t-154.5 -61h-253v180h253q30 0 39.5 6.5t8.5 23.5l-19 496l160 8zM292 252l-157 -32l-85 421l157 32z" />
    <glyph glyph-name="uni06440671.fina" unicode="&#xfee0;&#xfb51;" horiz-adv-x="632" 
d="M102 713q-11 0 -18 -6t-25 -29l-67 51q25 36 44.5 52t42.5 20l32 44q18 25 26 34.5t26 27.5t36.5 25.5t40.5 7.5q46 0 77 -33.5t31 -83.5q0 -44 -32.5 -77t-75.5 -33h-138zM240 854q-25 0 -58 -44l-5 -7h63q31 0 31 25q0 12 -9 19t-22 7zM617 180h20v-180h-20
q-71 0 -125 41q-54 -41 -131 -41h-253v180h253q30 0 39.5 6.5t8.5 23.5l-19 496l160 8l19 -490q1 -26 11.5 -35t36.5 -9zM292 252l-157 -32l-85 421l157 32z" />
    <glyph glyph-name="uniFDF2.001" unicode="&#xfedf;&#xfee0;&#xfeea;" horiz-adv-x="1145" 
d="M726 1133v-162h-75v162h75zM630 764q-49 0 -78 37t-15 86l15 60l67 -19l-11 -53q-2 -9 2 -15t20 -6q8 0 13 2t7 4l1 2l3 70h65l3 -70q4 -8 21 -8q16 0 20.5 5t2.5 12l-17 73l69 21l22 -77q14 -49 -15.5 -86.5t-81.5 -37.5q-37 0 -56 19q-22 -19 -57 -19zM1075 218
q5 -96 -53.5 -157t-154.5 -61h-33q-71 0 -125 41q-54 -41 -131 -41h-32q-112 0 -182 89l-94 -15q-62 -8 -124 35.5t-85 110.5q-28 82 11 164t119 108l118 39v28h160v-312q0 -28 22 -47.5t55 -19.5h32q30 0 39.5 6.5t8.5 23.5l-19 496l160 8l19 -490q1 -26 11.5 -35t36.5 -9
h33q30 0 39.5 6.5t8.5 23.5l-19 496l160 8zM256 253q3 0 11 1.5t20.5 3.5t21.5 4v91l-68 -24q-35 -12 -30 -45q2 -14 15 -24t30 -7z" />
    <glyph glyph-name="uni0621" unicode="&#x621;" horiz-adv-x="491" arabic-form="isolated" 
d="M415 197l26 -159l-365 -68l-26 158l50 9q-6 20 -8 30q-15 79 28 145.5t119 81.5q16 3 53.5 -1.5t67.5 -10.5l29 -6l-38 -154q-65 15 -86 15q-19 0 -28.5 -11t-7.5 -26t16.5 -23.5t36.5 -4.5z" />
    <glyph glyph-name="uni0622" unicode="&#x622;" horiz-adv-x="333" arabic-form="isolated" 
d="M0 643v27q0 53 35.5 82.5t88.5 19.5l101 -19q30 -5 30 14v3l80 6v-27q0 -53 -35.5 -82.5t-88.5 -19.5l-101 19q-30 5 -30 -14v-3zM103 -5l-23 612l160 8l23 -613z" />
    <glyph glyph-name="uni0623" unicode="&#x623;" horiz-adv-x="333" arabic-form="isolated" 
d="M192 704q-1 0 -5 -1t-5 -1l-162 -38l-19 86l64 15q-6 10 -11 30q-15 61 24.5 108t100.5 41l79 -13l-15 -86q-8 1 -19.5 3t-34.5 4.5t-31 0.5q-16 -4 -24.5 -14.5t-4.5 -24.5q3 -11 15.5 -18t25.5 -6l116 28l19 -87zM80 607l160 8l23 -613l-160 -7z" />
    <glyph glyph-name="uni0624" unicode="&#x624;" horiz-adv-x="562" arabic-form="isolated" 
d="M147 503l-19 86l64 15q-6 10 -11 30q-15 61 24.5 108t100.5 41l79 -13l-15 -86q-8 1 -19.5 3t-34.5 4.5t-31 0.5q-16 -4 -24.5 -14.5t-4.5 -24.5q3 -11 15.5 -18t25.5 -6l116 28l19 -87l-113 -27q-2 -1 -5 -1t-5 -1zM509 58q8 -75 -6.5 -125t-61 -85.5t-113.5 -58
t-181 -45.5l-32 176q142 29 185 44t49 41q-43 -5 -89 -5q-86 0 -143.5 56t-65.5 146q-8 103 51.5 182t153.5 83q95 4 159.5 -65t76.5 -182zM211 216q3 -36 49 -36q40 0 75 5l-1 13q-4 45 -22.5 67.5t-47.5 21.5q-26 -1 -40.5 -21t-12.5 -50z" />
    <glyph glyph-name="uni0625" unicode="&#x625;" horiz-adv-x="327" arabic-form="isolated" 
d="M257 2l-160 -7l-27 711l160 8zM323 -267l-113 -27q-1 0 -5 -1t-5 -1l-162 -38l-19 86l64 15q-6 10 -11 30q-15 61 24.5 108t100.5 41l79 -13l-15 -86q-8 1 -19.5 3t-34.5 4.5t-31 0.5q-16 -4 -24.5 -14.5t-4.5 -24.5q3 -11 15.5 -18t25.5 -6l116 28z" />
    <glyph glyph-name="uni0626" unicode="&#x626;" horiz-adv-x="762" arabic-form="isolated" 
d="M123 394l-19 86l64 15q-6 10 -11 30q-15 61 24.5 108t100.5 41l79 -13l-15 -86q-8 1 -19.5 3t-34.5 4.5t-31 0.5q-16 -4 -24.5 -14.5t-4.5 -24.5q3 -11 15.5 -18t25.5 -6l116 28l19 -87l-113 -27q-2 0 -5 -1t-5 -1zM709 22q18 -93 -56 -159t-221 -99q-76 -19 -138 -9
t-110.5 38.5t-80 79t-45 113t-5.5 141t37 163.5l152 -60q-57 -164 -15 -241.5t169 -48.5q37 9 76.5 17t57.5 12l19 4l-15 3q-15 4 -42 11t-50 15q-94 34 -127 91t-1 162q35 116 121.5 174.5t191.5 29.5l65 -18l-42 -174l-65 18q-28 8 -51.5 0.5t-37 -25.5t-20 -30.5
t-9.5 -23.5q-5 -16 3 -23t48 -20q8 -3 35.5 -11.5t33.5 -10.5t26.5 -9.5t25.5 -11.5t19 -12t18.5 -15.5t13 -18.5t12.5 -23.5t7 -28.5z" />
    <glyph glyph-name="uni0627" unicode="&#x627;" horiz-adv-x="327" arabic-form="isolated" 
d="M97 -5l-27 711l160 8l27 -712z" />
    <glyph glyph-name="uni0628" unicode="&#x628;" horiz-adv-x="1002" arabic-form="isolated" 
d="M941 303q25 -91 -3.5 -165t-103.5 -107q-47 -21 -107 -26t-225 -5q-163 0 -224.5 5.5t-108.5 25.5q-74 32 -103 103.5t-6 158.5l39 148l154 -46l-40 -156q-5 -21 -1.5 -28.5t21.5 -15.5q36 -15 269 -15q230 0 268 16q21 9 23.5 18t-6.5 43l-38 139l154 46zM394 -151
l107 107l107 -107l-107 -107z" />
    <glyph glyph-name="uni0629" unicode="&#x629;" horiz-adv-x="527" arabic-form="isolated" 
d="M234 655l-95 -94l-94 94l94 95zM451 655l-95 -94l-94 94l94 95zM372 439q105 -96 105 -219q0 -92 -62.5 -157.5t-150.5 -65.5t-151 65.5t-63 157.5q0 106 89 195l2 2l-21 20l111 131zM264 172q26 0 41.5 13.5t15.5 34.5q0 19 -10.5 36.5t-45.5 48.5l-3 3l-3 -3
q-32 -32 -42.5 -49.5t-10.5 -35.5q0 -21 16 -34.5t42 -13.5z" />
    <glyph glyph-name="uni062A" unicode="&#x62a;" horiz-adv-x="1002" arabic-form="isolated" 
d="M487 457l-95 -94l-94 94l94 95zM704 457l-95 -94l-94 94l94 95zM941 303q25 -91 -3.5 -165t-103.5 -107q-47 -21 -107 -26t-225 -5q-163 0 -224.5 5.5t-108.5 25.5q-74 32 -103 103.5t-6 158.5l39 148l154 -46l-40 -156q-5 -21 -1.5 -28.5t21.5 -15.5q36 -15 269 -15
q230 0 268 16q21 9 23.5 18t-6.5 43l-38 139l154 46z" />
    <glyph glyph-name="uni062B" unicode="&#x62b;" horiz-adv-x="1002" arabic-form="isolated" 
d="M577 619l-75 -76l-76 76l76 75zM488 458l-95 -94l-94 94l94 95zM609 364l-94 94l94 95l95 -95zM941 303q25 -91 -3.5 -165t-103.5 -107q-47 -21 -107 -26t-225 -5q-163 0 -224.5 5.5t-108.5 25.5q-74 32 -103 103.5t-6 158.5l39 148l154 -46l-40 -156q-5 -21 -1.5 -28.5
t21.5 -15.5q36 -15 269 -15q230 0 268 16q21 9 23.5 18t-6.5 43l-38 139l154 46z" />
    <glyph glyph-name="uni062C" unicode="&#x62c;" horiz-adv-x="747" arabic-form="isolated" 
d="M655 -99l42 -174l-259 -72q-128 -32 -235 29.5t-141 186.5q-37 135 33.5 245.5t218.5 150.5l169 42l-126 59q-29 15 -60.5 6.5t-48.5 -36.5l-17 -31l-140 88l20 36q56 93 144 119t180 -24l251 -141l-22 -207l-308 -85q-172 -46 -141 -170q14 -54 69 -81.5t119 -10.5z
M433 -132l-107 107l107 107l107 -107z" />
    <glyph glyph-name="uni062D" unicode="&#x62d;" horiz-adv-x="747" arabic-form="isolated" 
d="M655 -99l42 -174l-259 -72q-128 -32 -235 29.5t-141 186.5q-37 135 33.5 245.5t218.5 150.5l169 42l-126 59q-29 15 -60.5 6.5t-48.5 -36.5l-17 -31l-140 88l20 36q56 93 144 119t180 -24l251 -141l-22 -207l-308 -85q-172 -46 -141 -170q14 -54 69 -81.5t119 -10.5z" />
    <glyph glyph-name="uni062E" unicode="&#x62e;" horiz-adv-x="747" arabic-form="isolated" 
d="M428 697l-107 -107l-107 107l107 107zM655 -99l42 -174l-259 -72q-128 -32 -235 29.5t-141 186.5q-37 135 33.5 245.5t218.5 150.5l169 42l-126 59q-29 15 -60.5 6.5t-48.5 -36.5l-17 -31l-140 88l20 36q56 93 144 119t180 -24l251 -141l-22 -207l-308 -85
q-172 -46 -141 -170q14 -54 69 -81.5t119 -10.5z" />
    <glyph glyph-name="uni062F" unicode="&#x62f;" horiz-adv-x="587" arabic-form="isolated" 
d="M236 0q-80 0 -133 47.5t-53 113.5v63h148v-34q0 -7 2 -8.5t8 -1.5h145q20 0 24 9t-3 24q-17 43 -54.5 107.5t-67.5 107.5l-29 44l130 106q16 -21 40.5 -56.5t72.5 -122t63 -145.5q26 -106 -31 -180t-167 -74h-95z" />
    <glyph glyph-name="uni0630" unicode="&#x630;" horiz-adv-x="587" arabic-form="isolated" 
d="M297 590l-107 107l107 107l107 -107zM236 0q-80 0 -133 47.5t-53 113.5v63h148v-34q0 -7 2 -8.5t8 -1.5h145q20 0 24 9t-3 24q-17 43 -54.5 107.5t-67.5 107.5l-29 44l130 106q16 -21 40.5 -56.5t72.5 -122t63 -145.5q26 -106 -31 -180t-167 -74h-95z" />
    <glyph glyph-name="uni0631" unicode="&#x631;" horiz-adv-x="388" arabic-form="isolated" 
d="M42 -255l-42 174q124 34 153.5 53t22.5 67l-40 287l158 24l40 -290q18 -132 -49.5 -199.5t-242.5 -115.5z" />
    <glyph glyph-name="uni0632" unicode="&#x632;" horiz-adv-x="388" arabic-form="isolated" 
d="M209 414l-107 107l107 107l107 -107zM42 -255l-42 174q124 34 153.5 53t22.5 67l-40 287l158 24l40 -290q18 -132 -49.5 -199.5t-242.5 -115.5z" />
    <glyph glyph-name="uni0633" unicode="&#x633;" horiz-adv-x="1256" arabic-form="isolated" 
d="M1194 293q33 -121 -24 -207t-173 -86q-71 0 -119 42q-52 -42 -122 -42q-28 0 -49 7q-4 -99 -69.5 -155t-205.5 -88q-76 -19 -138 -9t-110.5 38.5t-80 79t-45 113t-5.5 141t37 163.5l152 -60q-57 -164 -15 -241.5t169 -48.5q106 24 131 42t18 68l-41 275l158 26l17 -113
q9 -35 24.5 -46.5t52.5 -11.5q30 0 39 6.5t9 26.5v124h150v-124q0 -19 8.5 -26t34.5 -7q36 0 44.5 13.5t-1.5 53.5l-40 149l154 46z" />
    <glyph glyph-name="uni0634" unicode="&#x634;" horiz-adv-x="1256" arabic-form="isolated" 
d="M945 685l-75 -76l-76 76l76 75zM856 524l-95 -94l-94 94l94 95zM977 430l-94 94l94 95l95 -95zM1194 293q33 -121 -24 -207t-173 -86q-71 0 -119 42q-52 -42 -122 -42q-28 0 -49 7q-4 -99 -69.5 -155t-205.5 -88q-76 -19 -138 -9t-110.5 38.5t-80 79t-45 113t-5.5 141
t37 163.5l152 -60q-57 -164 -15 -241.5t169 -48.5q106 24 131 42t18 68l-41 275l158 26l17 -113q9 -35 24.5 -46.5t52.5 -11.5q30 0 39 6.5t9 26.5v124h150v-124q0 -19 8.5 -26t34.5 -7q36 0 44.5 13.5t-1.5 53.5l-40 149l154 46z" />
    <glyph glyph-name="uni0635" unicode="&#x635;" horiz-adv-x="1343" arabic-form="isolated" 
d="M1070 467q95 0 159 -69.5t64 -171.5q0 -92 -66 -159t-157 -67h-325h-15q-9 0 -23 2q-5 -97 -71 -151.5t-204 -86.5q-76 -19 -138 -9t-110.5 38.5t-80 79t-45 113t-5.5 141t37 163.5l152 -60q-57 -164 -15 -241.5t169 -48.5q106 24 131 42t18 68l-41 275l158 26l12 -79
q11 -62 20 -77t30 -15h21l57 78q44 61 71 93.5t60 62.5t65 41.5t72 11.5zM1070 180q24 0 43.5 15t19.5 31q0 28 -17 44.5t-46 16.5q-25 0 -48.5 -21t-70.5 -86h119z" />
    <glyph glyph-name="uni0636" unicode="&#x636;" horiz-adv-x="1343" arabic-form="isolated" 
d="M1165 641l-107 -107l-107 107l107 107zM1070 467q95 0 159 -69.5t64 -171.5q0 -92 -66 -159t-157 -67h-325h-15q-9 0 -23 2q-5 -97 -71 -151.5t-204 -86.5q-76 -19 -138 -9t-110.5 38.5t-80 79t-45 113t-5.5 141t37 163.5l152 -60q-57 -164 -15 -241.5t169 -48.5
q106 24 131 42t18 68l-41 275l158 26l12 -79q11 -62 20 -77t30 -15h21l57 78q44 61 71 93.5t60 62.5t65 41.5t72 11.5zM1070 180q24 0 43.5 15t19.5 31q0 28 -17 44.5t-46 16.5q-25 0 -48.5 -21t-70.5 -86h119z" />
    <glyph glyph-name="uni0637" unicode="&#x637;" horiz-adv-x="739" arabic-form="isolated" 
d="M466 467q95 0 159 -69.5t64 -171.5q0 -92 -66 -159t-157 -67h-416v180h91l27 37l-19 489l160 8l12 -307q65 60 145 60zM466 180q24 0 43.5 15t19.5 31q0 28 -17 44.5t-46 16.5q-25 0 -48.5 -21t-70.5 -86h119z" />
    <glyph glyph-name="uni0638" unicode="&#x638;" horiz-adv-x="739" arabic-form="isolated" 
d="M596 636l-107 -107l-107 107l107 107zM466 467q95 0 159 -69.5t64 -171.5q0 -92 -66 -159t-157 -67h-416v180h91l27 37l-19 489l160 8l12 -307q65 60 145 60zM466 180q24 0 43.5 15t19.5 31q0 28 -17 44.5t-46 16.5q-25 0 -48.5 -21t-70.5 -86h119z" />
    <glyph glyph-name="uni0639" unicode="&#x639;" horiz-adv-x="663" arabic-form="isolated" 
d="M597 -67l16 -180l-269 -27q-110 -11 -195.5 60.5t-97.5 185.5q-8 78 25.5 147.5t98.5 112.5q-16 33 -23 68q-18 95 34.5 175.5t144.5 96.5q28 5 73.5 -0.5t77.5 -13.5l32 -8l-42 -174q-10 3 -24.5 6.5t-45.5 8.5t-43 3q-28 -5 -41.5 -20.5t-9.5 -36.5q4 -22 25.5 -34.5
t47.5 -8.5l170 31l28 -178l-267 -49q-50 -9 -77.5 -38.5t-23.5 -67.5q4 -40 38.5 -65.5t78.5 -21.5z" />
    <glyph glyph-name="uni063A" unicode="&#x63a;" horiz-adv-x="663" arabic-form="isolated" 
d="M459 721l-107 -107l-107 107l107 107zM597 -67l16 -180l-269 -27q-110 -11 -195.5 60.5t-97.5 185.5q-8 78 25.5 147.5t98.5 112.5q-16 33 -23 68q-18 95 34.5 175.5t144.5 96.5q28 5 73.5 -0.5t77.5 -13.5l32 -8l-42 -174q-10 3 -24.5 6.5t-45.5 8.5t-43 3
q-28 -5 -41.5 -20.5t-9.5 -36.5q4 -22 25.5 -34.5t47.5 -8.5l170 31l28 -178l-267 -49q-50 -9 -77.5 -38.5t-23.5 -67.5q4 -40 38.5 -65.5t78.5 -21.5z" />
    <glyph glyph-name="uni0641" unicode="&#x641;" horiz-adv-x="1011" arabic-form="isolated" 
d="M841 806l-107 -107l-107 107l107 107zM960 218q7 -109 -57.5 -163.5t-225.5 -54.5h-180q-160 0 -221 5.5t-107 25.5q-74 32 -103 103.5t-6 158.5l39 148l154 -46l-40 -156q-5 -21 -1.5 -28.5t21.5 -15.5q36 -15 269 -15h177q89 0 109.5 5.5t17.5 31.5q-44 -2 -84 -2
q-88 0 -140.5 49.5t-52.5 137.5q0 103 48.5 170t140.5 74q94 7 158 -57.5t71 -172.5zM674 416q3 -35 48 -35q34 0 72 2l-2 20q-4 41 -21 62t-45 20q-25 -1 -39.5 -20.5t-12.5 -48.5z" />
    <glyph glyph-name="uni0642" unicode="&#x642;" horiz-adv-x="795" arabic-form="isolated" 
d="M381 514l-94 94l94 95l95 -95zM598 514l-94 94l94 95l95 -95zM432 -236q-76 -19 -138 -9t-110.5 38.5t-80 79t-45 113t-5.5 141t37 163.5l152 -60q-57 -164 -15 -241.5t169 -48.5q97 20 141.5 34.5t44.5 33.5v7q-43 -5 -89 -5q-86 0 -143.5 56t-65.5 146q-8 103 51.5 182
t153.5 83q95 4 159.5 -65t76.5 -182l17 -162q8 -71 -4.5 -119t-52 -83t-98.5 -57.5t-155 -44.5zM493 190q40 0 75 5l-1 13q-4 45 -22.5 67.5t-47.5 21.5q-26 -1 -40.5 -21t-12.5 -50q3 -36 49 -36z" />
    <glyph glyph-name="uni0643" unicode="&#x643;" horiz-adv-x="938" arabic-form="isolated" 
d="M888 218q5 -96 -53.5 -157t-154.5 -61h-178q-163 0 -224.5 5.5t-108.5 25.5q-74 32 -103 103.5t-6 158.5l39 148l154 -46l-40 -156q-5 -21 -1.5 -28.5t21.5 -15.5q36 -15 269 -15h178q30 0 39.5 6.5t8.5 23.5l-19 496l160 8zM534 423q27 -25 14 -61t-51 -36h-89v70h47
q9 0 1 8l-42 42l14 58l98 33l22 -66l-45 -15z" />
    <glyph glyph-name="uni0644" unicode="&#x644;" horiz-adv-x="753" arabic-form="isolated" 
d="M431 -236q-76 -20 -138 -10.5t-110.5 38t-79.5 79t-44.5 113.5t-6 142t36.5 163l152 -60q-57 -163 -15 -243t167 -48q105 27 128.5 45t21.5 76l-25 647l160 8l25 -646q5 -133 -56.5 -200t-215.5 -104z" />
    <glyph glyph-name="uni0645" unicode="&#x645;" horiz-adv-x="625" arabic-form="isolated" 
d="M467 435q82 -43 102.5 -150t-33.5 -206q-31 -57 -86 -76.5t-114 8.5l-126 64l20 -369l-160 -6l-20 520l109 73l21 -11l37 72q37 72 108.5 95t141.5 -14zM415 163q41 89 -5 116q-44 24 -79 -45l-12 -22z" />
    <glyph glyph-name="uni0646" unicode="&#x646;" horiz-adv-x="757" arabic-form="isolated" 
d="M361 258l-107 107l107 107l107 -107zM432 -236q-76 -19 -138 -9t-110.5 38.5t-80 79t-45 113t-5.5 141t37 163.5l152 -60q-57 -164 -15 -241.5t169 -48.5q106 24 131 42t18 68l-41 275l158 26q34 -226 41 -276q18 -133 -46 -203.5t-225 -107.5z" />
    <glyph glyph-name="uni0647" unicode="&#x647;" horiz-adv-x="527" arabic-form="isolated" 
d="M372 439q105 -96 105 -219q0 -92 -62.5 -157.5t-150.5 -65.5t-151 65.5t-63 157.5q0 106 89 195l2 2l-21 20l111 131zM264 172q26 0 41.5 13.5t15.5 34.5q0 19 -10.5 36.5t-45.5 48.5l-3 3l-3 -3q-32 -32 -42.5 -49.5t-10.5 -35.5q0 -21 16 -34.5t42 -13.5z" />
    <glyph glyph-name="uni0648" unicode="&#x648;" horiz-adv-x="562" arabic-form="isolated" 
d="M509 58q8 -75 -6.5 -125t-61 -85.5t-113.5 -58t-181 -45.5l-32 176q142 29 185 44t49 41q-43 -5 -89 -5q-86 0 -143.5 56t-65.5 146q-8 103 51.5 182t153.5 83q95 4 159.5 -65t76.5 -182zM211 216q3 -36 49 -36q40 0 75 5l-1 13q-4 45 -22.5 67.5t-47.5 21.5
q-26 -1 -40.5 -21t-12.5 -50z" />
    <glyph glyph-name="uni0649" unicode="&#x649;" horiz-adv-x="762" arabic-form="isolated" 
d="M432 -236q-76 -19 -138 -9t-110.5 38.5t-80 79t-45 113t-5.5 141t37 163.5l152 -60q-57 -164 -15 -241.5t169 -48.5q37 9 76.5 17t57.5 12l19 4l-15 3q-15 4 -42 11t-50 15q-94 34 -127 91t-1 162q35 116 121.5 174.5t191.5 29.5l65 -18l-42 -174l-65 18q-28 8 -51.5 0.5
t-37 -25.5t-20 -30.5t-9.5 -23.5q-5 -16 3 -23t48 -20q8 -3 35.5 -11.5t33.5 -10.5t26.5 -9.5t25.5 -11.5t19 -12t18.5 -15.5t13 -18.5t12.5 -23.5t7 -28.5q18 -93 -56 -159t-221 -99z" />
    <glyph glyph-name="uni064A" unicode="&#x64a;" horiz-adv-x="762" arabic-form="isolated" 
d="M432 -236q-76 -19 -138 -9t-110.5 38.5t-80 79t-45 113t-5.5 141t37 163.5l152 -60q-57 -164 -15 -241.5t169 -48.5q37 9 76.5 17t57.5 12l19 4l-15 3q-15 4 -42 11t-50 15q-94 34 -127 91t-1 162q35 116 121.5 174.5t191.5 29.5l65 -18l-42 -174l-65 18q-28 8 -51.5 0.5
t-37 -25.5t-20 -30.5t-9.5 -23.5q-5 -16 3 -23t48 -20q8 -3 35.5 -11.5t33.5 -10.5t26.5 -9.5t25.5 -11.5t19 -12t18.5 -15.5t13 -18.5t12.5 -23.5t7 -28.5q18 -93 -56 -159t-221 -99zM272 -461l-94 94l94 95l95 -95zM489 -461l-94 94l94 95l95 -95z" />
    <glyph glyph-name="uni066E.init" unicode="&#x66e;" horiz-adv-x="351" 
d="M-5 0v180h79q48 0 60.5 13.5t1.5 53.5l-40 149l154 46l40 -149q34 -125 -28 -209t-188 -84h-79z" />
    <glyph glyph-name="uni066E.medi" unicode="&#x66e;" horiz-adv-x="309" 
d="M314 180v-180q-78 0 -127 36q-53 -36 -129 -36h-63v180h63q31 0 40 4.5t8 17.5v3l-11 123l160 16l11 -123v-3q2 -25 10 -31.5t38 -6.5z" />
    <glyph glyph-name="uni066E.fina" unicode="&#x66e;" horiz-adv-x="994" 
d="M999 180v-180q-77 0 -127 36q-53 -36 -129 -36h-241q-163 0 -224.5 5.5t-108.5 25.5q-74 32 -103 103.5t-6 158.5l39 148l154 -46l-40 -156q-5 -21 -1.5 -28.5t21.5 -15.5q36 -15 269 -15h241q31 0 40 4.5t8 17.5v3l-11 123l160 16l11 -123v-3q2 -25 10 -31.5t38 -6.5z
" />
    <glyph glyph-name="uni066F.fina" unicode="&#x66f;" horiz-adv-x="778" 
d="M432 -236q-76 -19 -138 -9t-110.5 38.5t-80 79t-45 113t-5.5 141t37 163.5l152 -60q-57 -164 -15 -241.5t169 -48.5q184 39 184 56v4h-88q-89 0 -145 54.5t-64 147.5q-8 104 51.5 182.5t153.5 82.5q95 4 159.5 -65.5t76.5 -182.5l4 -39h55v-180h-39l-1 -14
q-9 -91 -80 -138.5t-231 -83.5zM492 180h74l-2 20q-4 45 -22 66.5t-46 20.5q-26 -1 -40.5 -20.5t-12.5 -50.5q2 -20 11.5 -28t37.5 -8z" />
    <glyph glyph-name="uni0671" unicode="&#x671;" horiz-adv-x="333" arabic-form="isolated" 
d="M229 873q46 0 77 -33.5t31 -83.5q0 -44 -32.5 -77t-75.5 -33h-138q-11 0 -18 -6t-25 -29l-67 51q25 36 44.5 52t42.5 20l32 44q18 25 26 34.5t26 27.5t36.5 25.5t40.5 7.5zM229 736q31 0 31 25q0 12 -9 19t-22 7q-25 0 -58 -44l-5 -7h63zM80 607l160 8l23 -613l-160 -7z
" />
    <glyph glyph-name="uni067E" unicode="&#x67e;" horiz-adv-x="1002" arabic-form="isolated" 
d="M941 303q25 -91 -3.5 -165t-103.5 -107q-47 -21 -107 -26t-225 -5q-163 0 -224.5 5.5t-108.5 25.5q-74 32 -103 103.5t-6 158.5l39 148l154 -46l-40 -156q-5 -21 -1.5 -28.5t21.5 -15.5q36 -15 269 -15q230 0 268 16q21 9 23.5 18t-6.5 43l-38 139l154 46zM402 -52
l95 -95l-95 -94l-94 94zM524 -147l94 95l95 -95l-95 -94zM435 -306l76 75l75 -75l-75 -76z" />
    <glyph glyph-name="uni0686" unicode="&#x686;" horiz-adv-x="747" arabic-form="isolated" 
d="M655 -99l42 -174l-259 -72q-128 -32 -235 29.5t-141 186.5q-37 135 33.5 245.5t218.5 150.5l169 42l-126 59q-29 15 -60.5 6.5t-48.5 -36.5l-17 -31l-140 88l20 36q56 93 144 119t180 -24l251 -141l-22 -207l-308 -85q-172 -46 -141 -170q14 -54 69 -81.5t119 -10.5z
M569 67l-49 -94l-95 50l50 94zM254 -29l51 94l94 -50l-50 -95zM512 -52l-49 -94l-95 50l51 94z" />
    <glyph glyph-name="uni0698" unicode="&#x698;" horiz-adv-x="405" arabic-form="isolated" 
d="M203 588l-76 76l76 75l75 -75zM94 409l-94 94l94 95l95 -95zM310 409l-94 94l94 95l95 -95zM42 -255l-42 174q124 34 153.5 53t22.5 67l-40 287l158 24l40 -290q18 -132 -49.5 -199.5t-242.5 -115.5z" />
    <glyph glyph-name="uni06A1.init" unicode="&#x6a1;" horiz-adv-x="509" 
d="M458 218q7 -109 -57.5 -163.5t-225.5 -54.5h-180v180h182q89 0 109.5 5.5t17.5 31.5q-44 -2 -84 -2q-88 0 -140.5 49.5t-52.5 137.5q0 103 48.5 170t140.5 74q94 7 158 -57.5t71 -172.5zM172 416q3 -35 48 -35q34 0 72 2l-2 20q-4 41 -21 62t-45 20q-25 -1 -39.5 -20.5
t-12.5 -48.5z" />
    <glyph glyph-name="uni06A1.medi" unicode="&#x6a1;" horiz-adv-x="490" 
d="M452 180h43v-180h-58q-93 0 -188 36q-103 -36 -202 -36h-52v180h52h2q-17 32 -14 65l6 60q10 93 78.5 149t158.5 46q84 -9 137.5 -78.5t48.5 -158.5l-3 -48q-2 -19 -9 -35zM195 238q24 -22 51 -33q45 14 55 29l5 31q3 19 -11.5 36.5t-36.5 20.5q-23 2 -41 -11.5
t-19 -35.5z" />
    <glyph glyph-name="uni06A1.fina" unicode="&#x6a1;" horiz-adv-x="992" 
d="M954 180h43v-180h-58q-93 0 -188 36q-103 -36 -202 -36h-52q-160 0 -221 5.5t-107 25.5q-74 32 -103 103.5t-6 158.5l39 148l154 -46l-40 -156q-5 -21 -1.5 -28.5t21.5 -15.5q36 -15 269 -15h47h2q-17 32 -14 65l6 60q10 93 78.5 149t158.5 46q84 -9 137.5 -78.5
t48.5 -158.5l-3 -48q-2 -19 -9 -35zM697 238q24 -22 51 -33q45 14 55 29l5 31q3 19 -11.5 36.5t-36.5 20.5q-23 2 -41 -11.5t-19 -35.5z" />
    <glyph glyph-name="uni06A4" unicode="&#x6a4;" horiz-adv-x="1011" arabic-form="isolated" 
d="M815 940l-75 -76l-76 76l76 75zM726 779l-95 -94l-94 94l94 95zM847 685l-94 94l94 95l95 -95zM960 218q7 -109 -57.5 -163.5t-225.5 -54.5h-180q-160 0 -221 5.5t-107 25.5q-74 32 -103 103.5t-6 158.5l39 148l154 -46l-40 -156q-5 -21 -1.5 -28.5t21.5 -15.5
q36 -15 269 -15h177q89 0 109.5 5.5t17.5 31.5q-44 -2 -84 -2q-88 0 -140.5 49.5t-52.5 137.5q0 103 48.5 170t140.5 74q94 7 158 -57.5t71 -172.5zM674 416q3 -35 48 -35q34 0 72 2l-2 20q-4 41 -21 62t-45 20q-25 -1 -39.5 -20.5t-12.5 -48.5z" />
    <glyph glyph-name="uni06A9" unicode="&#x6a9;" horiz-adv-x="1001" arabic-form="isolated" 
d="M722 528l140 -210q45 -68 50 -135t-28 -111q-51 -72 -162 -72h-225q-160 0 -221 5.5t-107 25.5q-74 32 -103 103.5t-6 158.5l39 148l154 -46l-40 -156q-5 -21 -1.5 -28.5t21.5 -15.5q36 -15 269 -15h222q15 0 20 5q9 9 -3 25l-219 310l36 136l362 133l56 -168z" />
    <glyph glyph-name="uni06AF" unicode="&#x6af;" horiz-adv-x="1001" arabic-form="isolated" 
d="M823 832l-244 -88l-39 109l244 88zM722 528l140 -210q45 -68 50 -135t-28 -111q-51 -72 -162 -72h-225q-160 0 -221 5.5t-107 25.5q-74 32 -103 103.5t-6 158.5l39 148l154 -46l-40 -156q-5 -21 -1.5 -28.5t21.5 -15.5q36 -15 269 -15h222q15 0 20 5q9 9 -3 25l-219 310
l36 136l362 133l56 -168z" />
    <glyph glyph-name="uni06CC" unicode="&#x6cc;" horiz-adv-x="762" arabic-form="isolated" 
d="M432 -236q-76 -19 -138 -9t-110.5 38.5t-80 79t-45 113t-5.5 141t37 163.5l152 -60q-57 -164 -15 -241.5t169 -48.5q37 9 76.5 17t57.5 12l19 4l-15 3q-15 4 -42 11t-50 15q-94 34 -127 91t-1 162q35 116 121.5 174.5t191.5 29.5l65 -18l-42 -174l-65 18q-28 8 -51.5 0.5
t-37 -25.5t-20 -30.5t-9.5 -23.5q-5 -16 3 -23t48 -20q8 -3 35.5 -11.5t33.5 -10.5t26.5 -9.5t25.5 -11.5t19 -12t18.5 -15.5t13 -18.5t12.5 -23.5t7 -28.5q18 -93 -56 -159t-221 -99z" />
    <glyph glyph-name="uniFB51" unicode="&#x671;" horiz-adv-x="291" arabic-form="final" 
d="M233 888q46 0 77 -33.5t31 -83.5q0 -44 -32.5 -77t-75.5 -33h-138q-11 0 -18 -6t-25 -29l-67 51q25 36 44.5 52t42.5 20l32 44q18 25 26 34.5t26 27.5t36.5 25.5t40.5 7.5zM233 751q31 0 31 25q0 12 -9 19t-22 7q-25 0 -58 -44l-5 -7h63zM228 246q2 -50 8.5 -58t49.5 -8
h10v-180h-10q-114 0 -163.5 56t-54.5 190l-14 361l160 8z" />
    <glyph glyph-name="uniFB57" unicode="&#x67e;" horiz-adv-x="994" arabic-form="final" 
d="M999 180v-180q-77 0 -127 36q-53 -36 -129 -36h-241q-163 0 -224.5 5.5t-108.5 25.5q-74 32 -103 103.5t-6 158.5l39 148l154 -46l-40 -156q-5 -21 -1.5 -28.5t21.5 -15.5q36 -15 269 -15h241q31 0 40 4.5t8 17.5v3l-11 123l160 16l11 -123v-3q2 -25 10 -31.5t38 -6.5z
M400 -55l95 -95l-95 -94l-94 94zM522 -150l94 95l95 -95l-95 -94zM433 -309l76 75l75 -75l-75 -76z" />
    <glyph glyph-name="uniFB58" unicode="&#x67e;" horiz-adv-x="430" arabic-form="initial" 
d="M-5 0v180h157q47 0 59.5 14t1.5 53l-39 149l154 46l42 -158q32 -120 -31 -202t-187 -82h-157zM2 -245l-94 94l94 95l95 -95zM218 -245l-94 94l94 95l95 -95zM111 -386l-76 76l76 75l75 -75z" />
    <glyph glyph-name="uniFB59" unicode="&#x67e;" horiz-adv-x="438" arabic-form="medial" 
d="M396 213q2 -22 10 -27.5t37 -5.5v-180q-77 0 -127 36q-53 -36 -129 -36h-192v180h192q32 0 41 5t7 20l-11 123l160 16l11 -123q0 -5 1 -8zM95 -53l95 -95l-95 -94l-94 94zM217 -148l94 95l95 -95l-95 -94zM128 -307l76 75l75 -75l-75 -76z" />
    <glyph glyph-name="uniFB6B" unicode="&#x6a4;" horiz-adv-x="992" arabic-form="final" 
d="M838 797l-75 -76l-76 76l76 75zM749 636l-95 -94l-94 94l94 95zM870 542l-94 94l94 95l95 -95zM954 180h43v-180h-58q-93 0 -188 36q-103 -36 -202 -36h-52q-160 0 -221 5.5t-107 25.5q-74 32 -103 103.5t-6 158.5l39 148l154 -46l-40 -156q-5 -21 -1.5 -28.5t21.5 -15.5
q36 -15 269 -15h47h2q-17 32 -14 65l6 60q10 93 78.5 149t158.5 46q84 -9 137.5 -78.5t48.5 -158.5l-3 -48q-2 -19 -9 -35zM697 238q24 -22 51 -33q45 14 55 29l5 31q3 19 -11.5 36.5t-36.5 20.5q-23 2 -41 -11.5t-19 -35.5z" />
    <glyph glyph-name="uniFB6C" unicode="&#x6a4;" horiz-adv-x="509" arabic-form="initial" 
d="M309 947l-75 -76l-76 76l76 75zM220 786l-95 -94l-94 94l94 95zM341 692l-94 94l94 95l95 -95zM458 218q7 -109 -57.5 -163.5t-225.5 -54.5h-180v180h182q89 0 109.5 5.5t17.5 31.5q-44 -2 -84 -2q-88 0 -140.5 49.5t-52.5 137.5q0 103 48.5 170t140.5 74q94 7 158 -57.5
t71 -172.5zM172 416q3 -35 48 -35q34 0 72 2l-2 20q-4 41 -21 62t-45 20q-25 -1 -39.5 -20.5t-12.5 -48.5z" />
    <glyph glyph-name="uniFB6D" unicode="&#x6a4;" horiz-adv-x="490" arabic-form="medial" 
d="M328 795l-75 -76l-76 76l76 75zM239 634l-95 -94l-94 94l94 95zM360 540l-94 94l94 95l95 -95zM452 180h43v-180h-58q-93 0 -188 36q-103 -36 -202 -36h-52v180h52h2q-17 32 -14 65l6 60q10 93 78.5 149t158.5 46q84 -9 137.5 -78.5t48.5 -158.5l-3 -48q-2 -19 -9 -35z
M195 238q24 -22 51 -33q45 14 55 29l5 31q3 19 -11.5 36.5t-36.5 20.5q-23 2 -41 -11.5t-19 -35.5z" />
    <glyph glyph-name="uniFB7B" unicode="&#x686;" horiz-adv-x="745" arabic-form="final" 
d="M713 180h37v-180h-37q-69 0 -122.5 36.5t-81.5 98.5l-153 -42q-172 -46 -141 -170q14 -54 69 -81.5t119 -10.5l252 70l42 -174l-259 -72q-128 -32 -235 29.5t-141 186.5q-37 135 33.5 245.5t218.5 150.5l169 42l-126 59q-29 15 -60.5 6.5t-48.5 -36.5l-17 -31l-140 88
l20 36q56 93 144 119t180 -24l251 -141l-20 -189q18 -16 47 -16zM549 61l-49 -94l-95 50l50 94zM234 -35l51 94l94 -50l-50 -95zM492 -58l-49 -94l-95 50l51 94z" />
    <glyph glyph-name="uniFB7C" unicode="&#x686;" horiz-adv-x="689" arabic-form="initial" 
d="M388 454l251 -141l-22 -207l-289 -76q-119 -30 -328 -30h-5v180h6q194 0 287 24l151 33l-129 59q-29 14 -60.5 6t-48.5 -36l-17 -31l-140 88l20 36q52 94 142.5 120t181.5 -25zM228 -54l95 -95l-95 -94l-94 94zM350 -149l94 95l95 -95l-95 -94zM261 -308l76 75l75 -75
l-75 -76z" />
    <glyph glyph-name="uniFB7D" unicode="&#x686;" horiz-adv-x="689" arabic-form="medial" 
d="M630 180h64v-180h-64q-50 0 -93 24.5t-71 65.5l-142 -43q-157 -47 -324 -47h-5v180h6q120 1 277 39l155 37l-133 54q-30 14 -59.5 5t-45.5 -36l-18 -32l-140 88l20 36q56 93 145 118.5t177 -22.5l255 -132l-18 -153q8 -2 14 -2zM209 -53l95 -95l-95 -94l-94 94zM331 -148
l94 95l95 -95l-95 -94zM242 -307l76 75l75 -75l-75 -76z" />
    <glyph glyph-name="uniFB8B" unicode="&#x698;" horiz-adv-x="412" arabic-form="final" 
d="M281 664l-75 -76l-76 76l76 75zM192 503l-95 -94l-94 94l94 95zM313 409l-94 94l94 95l95 -95zM417 180v-180h-70h-9q-2 -100 -71.5 -156t-224.5 -99l-42 174q124 34 153.5 53t22.5 67l-40 287l158 24l11 -78q7 -42 14 -63t12.5 -25t15.5 -4h70z" />
    <glyph glyph-name="uniFB8F" unicode="&#x6a9;" horiz-adv-x="1020" arabic-form="final" 
d="M1011 180h14v-180h-14q-78 0 -142 54q-52 -54 -147 -54h-225q-160 0 -221 5.5t-107 25.5q-74 32 -103 103.5t-6 158.5l39 148l154 -46l-40 -156q-5 -21 -1.5 -28.5t21.5 -15.5q36 -15 269 -15h222q15 0 20 5q9 9 -3 25l-219 310l36 136l362 133l56 -168l-254 -93
l140 -210q4 -6 11 -18t8 -14q37 -64 63.5 -85t66.5 -21z" />
    <glyph glyph-name="uniFB90" unicode="&#x6a9;" horiz-adv-x="499" arabic-form="initial" 
d="M220 528l140 -210q45 -68 50 -135t-28 -111q-51 -72 -162 -72h-225v180h227q15 0 20 5q9 9 -3 25l-219 310l36 136l362 133l56 -168z" />
    <glyph glyph-name="uniFB91" unicode="&#x6a9;" horiz-adv-x="518" arabic-form="medial" 
d="M509 180h14v-180h-14q-78 0 -142 54q-52 -54 -147 -54h-225v180h227q15 0 20 5q9 9 -3 25l-219 310l36 136l362 133l56 -168l-254 -93l140 -210q4 -6 11 -18t8 -14q37 -64 63.5 -85t66.5 -21z" />
    <glyph glyph-name="uniFB93" unicode="&#x6af;" horiz-adv-x="1020" arabic-form="final" 
d="M821 830l-244 -88l-39 109l244 88zM1011 180h14v-180h-14q-78 0 -142 54q-52 -54 -147 -54h-225q-160 0 -221 5.5t-107 25.5q-74 32 -103 103.5t-6 158.5l39 148l154 -46l-40 -156q-5 -21 -1.5 -28.5t21.5 -15.5q36 -15 269 -15h222q15 0 20 5q9 9 -3 25l-219 310l36 136
l362 133l56 -168l-254 -93l140 -210q4 -6 11 -18t8 -14q37 -64 63.5 -85t66.5 -21z" />
    <glyph glyph-name="uniFB94" unicode="&#x6af;" horiz-adv-x="499" arabic-form="initial" 
d="M327 826l-244 -88l-39 109l244 88zM220 528l140 -210q45 -68 50 -135t-28 -111q-51 -72 -162 -72h-225v180h227q15 0 20 5q9 9 -3 25l-219 310l36 136l362 133l56 -168z" />
    <glyph glyph-name="uniFB95" unicode="&#x6af;" horiz-adv-x="518" arabic-form="medial" 
d="M327 826l-244 -88l-39 109l244 88zM509 180h14v-180h-14q-78 0 -142 54q-52 -54 -147 -54h-225v180h227q15 0 20 5q9 9 -3 25l-219 310l36 136l362 133l56 -168l-254 -93l140 -210q4 -6 11 -18t8 -14q37 -64 63.5 -85t66.5 -21z" />
    <glyph glyph-name="uniFB9F" unicode="&#x6ba;" horiz-adv-x="746" arabic-form="final" 
d="M724 180h27v-180h-21q-9 0 -23 2q-5 -97 -71 -151.5t-204 -86.5q-76 -19 -138 -9t-110.5 38.5t-80 79t-45 113t-5.5 141t37 163.5l152 -60q-57 -164 -15 -241.5t169 -48.5q106 24 131 42t18 68l-41 275l158 26l12 -79q11 -62 20 -77t30 -15z" />
    <glyph glyph-name="uniFBFD" unicode="&#x6cc;" horiz-adv-x="735" arabic-form="final" 
d="M740 180v-180h-34q-4 -91 -68 -147t-206 -89q-76 -19 -138 -9t-110.5 38.5t-80 79t-45 113t-5.5 141t37 163.5l152 -60q-56 -164 -14.5 -241.5t168.5 -48.5q102 23 127.5 39t23.5 52q-17 5 -57.5 18t-61.5 20l49 171q153 -42 193 -51t70 -9z" />
    <glyph glyph-name="uniFBFE" unicode="&#x6cc;" horiz-adv-x="430" arabic-form="initial" 
d="M-5 0v180h157q47 0 59.5 14t1.5 53l-39 149l154 46l42 -158q32 -120 -31 -202t-187 -82h-157zM0 -244l-94 94l94 95l95 -95zM217 -244l-94 94l94 95l95 -95z" />
    <glyph glyph-name="uniFBFF" unicode="&#x6cc;" horiz-adv-x="438" arabic-form="medial" 
d="M396 213q2 -22 10 -27.5t37 -5.5v-180q-77 0 -127 36q-53 -36 -129 -36h-192v180h192q32 0 41 5t7 20l-11 123l160 16l11 -123q0 -5 1 -8zM0 -152l94 95l95 -95l-95 -94zM217 -152l94 95l95 -95l-95 -94z" />
    <glyph glyph-name="uniFDF2" unicode="&#xfdf2;" horiz-adv-x="1452" arabic-form="isolated" 
d="M729 1113v-162h-75v162h75zM633 744q-49 0 -78 37t-15 86l15 60l67 -19l-11 -53q-2 -9 2 -15t20 -6q8 0 13 2t6 4l2 2l3 70h65l3 -70q4 -8 21 -8q16 0 20.5 5t2.5 12l-17 73l69 21l22 -77q14 -49 -15.5 -86.5t-81.5 -37.5q-37 0 -56 19q-22 -19 -57 -19zM1056 714
l19 -496q5 -96 -53.5 -157t-154.5 -61h-33q-71 0 -125 41q-54 -41 -131 -41h-32q-112 0 -182 89l-94 -15q-62 -8 -124 35.5t-85 110.5q-28 82 11 164t119 108l118 39v28h160v-312q0 -28 22 -47.5t55 -19.5h32q30 0 39.5 6.5t8.5 23.5l-19 496l160 8l19 -490q1 -26 11.5 -35
t36.5 -9h33q30 0 39.5 6.5t8.5 23.5l-19 496zM1355 714l27 -712l-160 -7l-27 711zM256 253q3 0 11 1.5t20.5 3.5t21.5 4v91l-68 -24q-35 -12 -30 -45q2 -14 15 -24t30 -7z" />
    <glyph glyph-name="uniFDFC" unicode="&#xfdfc;" horiz-adv-x="1653" arabic-form="isolated" 
d="M678 714l25 -646q5 -133 -56.5 -200t-215.5 -104q-76 -20 -138 -10.5t-110.5 38t-79.5 79t-44.5 113.5t-6 142t36.5 163l152 -60q-57 -163 -15 -243t167 -48q105 27 128.5 45t21.5 76l-25 647zM1312 293q34 -125 -28 -209t-188 -84h-79q-112 1 -161 57t-54 189l-18 460
l160 8l18 -468q0 -50 7 -58t50 -8h1h76q48 0 60.5 13.5t1.5 53.5l-40 149l154 46zM1600 60q18 -132 -49.5 -199.5t-242.5 -115.5l-42 174q124 34 153.5 53t22.5 67l-40 287l158 24zM802 -167l94 95l95 -95l-95 -94zM1019 -167l94 95l95 -95l-95 -94z" />
    <glyph glyph-name="uniFE82" unicode="&#x622;" horiz-adv-x="291" arabic-form="final" 
d="M0 643v27q0 53 35.5 82.5t88.5 19.5l101 -19q30 -5 30 14v3l80 6v-27q0 -53 -35.5 -82.5t-88.5 -19.5l-101 19q-30 5 -30 -14v-3zM286 0q-114 0 -163.5 56t-54.5 190l-14 361l160 8l14 -369q2 -50 8.5 -58t49.5 -8h10v-180h-10z" />
    <glyph glyph-name="uniFE84" unicode="&#x623;" horiz-adv-x="291" arabic-form="final" 
d="M192 704q-1 0 -5 -1t-5 -1l-162 -38l-19 86l64 15q-6 10 -11 30q-15 61 24.5 108t100.5 41l79 -13l-15 -86q-8 1 -19.5 3t-34.5 4.5t-31 0.5q-16 -4 -24.5 -14.5t-4.5 -24.5q3 -11 15.5 -18t25.5 -6l116 28l19 -87zM228 246q2 -50 8.5 -58t49.5 -8h10v-180h-10
q-114 0 -163.5 56t-54.5 190l-14 361l160 8z" />
    <glyph glyph-name="uniFE86" unicode="&#x624;" horiz-adv-x="546" arabic-form="final" 
d="M147 503l-19 86l64 15q-6 10 -11 30q-15 61 24.5 108t100.5 41l79 -13l-15 -86q-8 1 -19.5 3t-34.5 4.5t-31 0.5q-16 -4 -24.5 -14.5t-4.5 -24.5q3 -11 15.5 -18t25.5 -6l116 28l19 -87l-113 -27q-2 -1 -5 -1t-5 -1zM551 180v-180h-39q-4 -110 -83 -161.5t-282 -94.5
l-32 176q139 30 182 44t51 36h-88q-89 0 -145 54.5t-64 147.5q-8 104 51.5 182.5t153.5 82.5q95 4 159.5 -65.5t76.5 -182.5l4 -39h55zM211 216q2 -20 11.5 -28t37.5 -8h74l-2 20q-4 45 -22 66.5t-46 20.5q-26 -1 -40.5 -20.5t-12.5 -50.5z" />
    <glyph glyph-name="uniFE88" unicode="&#x625;" horiz-adv-x="291" arabic-form="final" 
d="M286 0q-114 0 -163.5 56t-54.5 190l-18 460l160 8l18 -468q0 -50 7 -58t51 -8h10v-180h-10zM301 -239l-113 -27q-1 0 -5 -1t-5 -1l-162 -38l-19 86l64 15q-6 10 -11 30q-15 61 24.5 108t100.5 41l79 -13l-15 -86q-8 1 -19.5 3t-34.5 4.5t-31 0.5q-16 -4 -24.5 -14.5
t-4.5 -24.5q3 -11 15.5 -18t25.5 -6l116 28z" />
    <glyph glyph-name="uniFE8A" unicode="&#x626;" horiz-adv-x="735" arabic-form="final" 
d="M260 269l-19 86l64 15q-6 10 -11 30q-15 61 24.5 108t100.5 41l79 -13l-15 -86q-8 1 -19.5 3t-34.5 4.5t-31 0.5q-16 -4 -24.5 -14.5t-4.5 -24.5q3 -11 15.5 -18t25.5 -6l116 28l19 -87l-113 -27q-2 -1 -5 -1t-5 -1zM740 180v-180h-34q-4 -91 -68 -147t-206 -89
q-76 -19 -138 -9t-110.5 38.5t-80 79t-45 113t-5.5 141t37 163.5l152 -60q-56 -164 -14.5 -241.5t168.5 -48.5q102 23 127.5 39t23.5 52q-17 5 -57.5 18t-61.5 20l49 171q153 -42 193 -51t70 -9z" />
    <glyph glyph-name="uniFE8B" unicode="&#x626;" horiz-adv-x="351" arabic-form="initial" 
d="M23 474l-19 86l64 15q-6 10 -11 30q-15 61 24.5 108t100.5 41l79 -13l-15 -86q-8 1 -19.5 3t-34.5 4.5t-31 0.5q-16 -4 -24.5 -14.5t-4.5 -24.5q3 -11 15.5 -18t25.5 -6l116 28l19 -87l-113 -27q-1 0 -4.5 -1t-5.5 -1zM250 442l40 -149q34 -125 -28 -209t-188 -84h-79
v180h79q48 0 60.5 13.5t1.5 53.5l-40 149z" />
    <glyph glyph-name="uniFE8C" unicode="&#x626;" horiz-adv-x="309" arabic-form="medial" 
d="M23 392l-19 86l64 15q-6 10 -11 30q-15 61 24.5 108t100.5 41l79 -13l-15 -86q-8 1 -19.5 3t-34.5 4.5t-31 0.5q-16 -4 -24.5 -14.5t-4.5 -24.5q3 -11 15.5 -18t25.5 -6l116 28l19 -87l-113 -27q-1 0 -4.5 -1t-5.5 -1zM314 180v-180q-78 0 -127 36q-53 -36 -129 -36h-63
v180h63q31 0 40 4.5t8 17.5v3l-11 123l160 16l11 -123v-3q2 -25 10 -31.5t38 -6.5z" />
    <glyph glyph-name="uniFE8E" unicode="&#x627;" horiz-adv-x="291" arabic-form="final" 
d="M286 0q-114 0 -163.5 56t-54.5 190l-18 460l160 8l18 -468q0 -50 7 -58t51 -8h10v-180h-10z" />
    <glyph glyph-name="uniFE90" unicode="&#x628;" horiz-adv-x="994" arabic-form="final" 
d="M999 180v-180q-77 0 -127 36q-53 -36 -129 -36h-241q-163 0 -224.5 5.5t-108.5 25.5q-74 32 -103 103.5t-6 158.5l39 148l154 -46l-40 -156q-5 -21 -1.5 -28.5t21.5 -15.5q36 -15 269 -15h241q31 0 40 4.5t8 17.5v3l-11 123l160 16l11 -123v-3q2 -25 10 -31.5t38 -6.5z
M412 -151l107 107l107 -107l-107 -107z" />
    <glyph glyph-name="uniFE91" unicode="&#x628;" horiz-adv-x="351" arabic-form="initial" 
d="M-5 0v180h79q48 0 60.5 13.5t1.5 53.5l-40 149l154 46l40 -149q34 -125 -28 -209t-188 -84h-79zM70 -258l-107 107l107 107l107 -107z" />
    <glyph glyph-name="uniFE92" unicode="&#x628;" horiz-adv-x="309" arabic-form="medial" 
d="M266 218q2 -25 10 -31.5t38 -6.5v-180q-78 0 -127 36q-53 -36 -129 -36h-63v180h63q31 0 40 4.5t8 17.5v3l-11 123l160 16l11 -123v-3zM41 -150l107 107l107 -107l-107 -107z" />
    <glyph glyph-name="uniFE94" unicode="&#x629;" horiz-adv-x="560" arabic-form="final" 
d="M277 686l-95 -94l-94 94l94 95zM494 686l-95 -94l-94 94l94 95zM546 180h19v-180h-19q-112 0 -182 89l-94 -15q-62 -8 -124 35.5t-85 110.5q-28 82 11 164t119 108l118 39v28h160v-312q0 -28 22 -47.5t55 -19.5zM256 253q3 0 11 1.5t20.5 3.5t21.5 4v91l-68 -24
q-35 -12 -30 -45q2 -14 15 -24t30 -7z" />
    <glyph glyph-name="uniFE96" unicode="&#x62a;" horiz-adv-x="994" arabic-form="final" 
d="M492 457l-95 -94l-94 94l94 95zM709 457l-95 -94l-94 94l94 95zM999 180v-180q-77 0 -127 36q-53 -36 -129 -36h-241q-163 0 -224.5 5.5t-108.5 25.5q-74 32 -103 103.5t-6 158.5l39 148l154 -46l-40 -156q-5 -21 -1.5 -28.5t21.5 -15.5q36 -15 269 -15h241q31 0 40 4.5
t8 17.5v3l-11 123l160 16l11 -123v-3q2 -25 10 -31.5t38 -6.5z" />
    <glyph glyph-name="uniFE97" unicode="&#x62a;" horiz-adv-x="430" arabic-form="initial" 
d="M118 501l-94 94l94 95l95 -95zM335 501l-94 94l94 95l95 -95zM-5 0v180h157q47 0 59.5 14t1.5 53l-39 149l154 46l42 -158q32 -120 -31 -202t-187 -82h-157z" />
    <glyph glyph-name="uniFE98" unicode="&#x62a;" horiz-adv-x="438" arabic-form="medial" 
d="M201 511l-95 -94l-94 94l94 95zM418 511l-95 -94l-94 94l94 95zM443 180v-180q-77 0 -127 36q-53 -36 -129 -36h-192v180h192q32 0 41 5t7 20l-11 123l160 16l11 -123q0 -5 1 -8q2 -22 10 -27.5t37 -5.5z" />
    <glyph glyph-name="uniFE9A" unicode="&#x62b;" horiz-adv-x="994" arabic-form="final" 
d="M585 561l-75 -76l-76 76l76 75zM496 400l-95 -94l-94 94l94 95zM617 306l-94 94l94 95l95 -95zM999 180v-180q-77 0 -127 36q-53 -36 -129 -36h-241q-163 0 -224.5 5.5t-108.5 25.5q-74 32 -103 103.5t-6 158.5l39 148l154 -46l-40 -156q-5 -21 -1.5 -28.5t21.5 -15.5
q36 -15 269 -15h241q31 0 40 4.5t8 17.5v3l-11 123l160 16l11 -123v-3q2 -25 10 -31.5t38 -6.5z" />
    <glyph glyph-name="uniFE9B" unicode="&#x62b;" horiz-adv-x="430" arabic-form="initial" 
d="M203 678l-76 76l76 75l75 -75zM94 499l-94 94l94 95l95 -95zM310 499l-94 94l94 95l95 -95zM-5 0v180h157q47 0 59.5 14t1.5 53l-39 149l154 46l42 -158q32 -120 -31 -202t-187 -82h-157z" />
    <glyph glyph-name="uniFE9C" unicode="&#x62b;" horiz-adv-x="438" arabic-form="medial" 
d="M289 670l-75 -76l-76 76l76 75zM200 509l-95 -94l-94 94l94 95zM321 415l-94 94l94 95l95 -95zM443 180v-180q-77 0 -127 36q-53 -36 -129 -36h-192v180h192q32 0 41 5t7 20l-11 123l160 16l11 -123q0 -5 1 -8q2 -22 10 -27.5t37 -5.5z" />
    <glyph glyph-name="uniFE9E" unicode="&#x62c;" horiz-adv-x="745" arabic-form="final" 
d="M713 180h37v-180h-37q-69 0 -122.5 36.5t-81.5 98.5l-153 -42q-172 -46 -141 -170q14 -54 69 -81.5t119 -10.5l252 70l42 -174l-259 -72q-128 -32 -235 29.5t-141 186.5q-37 135 33.5 245.5t218.5 150.5l169 42l-126 59q-29 15 -60.5 6.5t-48.5 -36.5l-17 -31l-140 88
l20 36q56 93 144 119t180 -24l251 -141l-20 -189q18 -16 47 -16zM430 -138l-107 107l107 107l107 -107z" />
    <glyph glyph-name="uniFE9F" unicode="&#x62c;" horiz-adv-x="689" arabic-form="initial" 
d="M388 454l251 -141l-22 -207l-289 -76q-119 -30 -328 -30h-5v180h6q194 0 287 24l151 33l-129 59q-29 14 -60.5 6t-48.5 -36l-17 -31l-140 88l20 36q52 94 142.5 120t181.5 -25zM219 -147l107 107l107 -107l-107 -107z" />
    <glyph glyph-name="uniFEA0" unicode="&#x62c;" horiz-adv-x="689" arabic-form="medial" 
d="M630 180h64v-180h-64q-50 0 -93 24.5t-71 65.5l-142 -43q-157 -47 -324 -47h-5v180h6q120 1 277 39l155 37l-133 54q-30 14 -59.5 5t-45.5 -36l-18 -32l-140 88l20 36q56 93 145 118.5t177 -22.5l255 -132l-18 -153q8 -2 14 -2zM219 -147l107 107l107 -107l-107 -107z
" />
    <glyph glyph-name="uniFEA2" unicode="&#x62d;" horiz-adv-x="745" arabic-form="final" 
d="M713 180h37v-180h-37q-69 0 -122.5 36.5t-81.5 98.5l-153 -42q-172 -46 -141 -170q14 -54 69 -81.5t119 -10.5l252 70l42 -174l-259 -72q-128 -32 -235 29.5t-141 186.5q-37 135 33.5 245.5t218.5 150.5l169 42l-126 59q-29 15 -60.5 6.5t-48.5 -36.5l-17 -31l-140 88
l20 36q56 93 144 119t180 -24l251 -141l-20 -189q18 -16 47 -16z" />
    <glyph glyph-name="uniFEA3" unicode="&#x62d;" horiz-adv-x="689" arabic-form="initial" 
d="M388 454l251 -141l-22 -207l-289 -76q-119 -30 -328 -30h-5v180h6q194 0 287 24l151 33l-129 59q-29 14 -60.5 6t-48.5 -36l-17 -31l-140 88l20 36q52 94 142.5 120t181.5 -25z" />
    <glyph glyph-name="uniFEA4" unicode="&#x62d;" horiz-adv-x="689" arabic-form="medial" 
d="M630 180h64v-180h-64q-50 0 -93 24.5t-71 65.5l-142 -43q-157 -47 -324 -47h-5v180h6q120 1 277 39l155 37l-133 54q-30 14 -59.5 5t-45.5 -36l-18 -32l-140 88l20 36q56 93 145 118.5t177 -22.5l255 -132l-18 -153q8 -2 14 -2z" />
    <glyph glyph-name="uniFEA6" unicode="&#x62e;" horiz-adv-x="745" arabic-form="final" 
d="M428 697l-107 -107l-107 107l107 107zM713 180h37v-180h-37q-69 0 -122.5 36.5t-81.5 98.5l-153 -42q-172 -46 -141 -170q14 -54 69 -81.5t119 -10.5l252 70l42 -174l-259 -72q-128 -32 -235 29.5t-141 186.5q-37 135 33.5 245.5t218.5 150.5l169 42l-126 59
q-29 15 -60.5 6.5t-48.5 -36.5l-17 -31l-140 88l20 36q56 93 144 119t180 -24l251 -141l-20 -189q18 -16 47 -16z" />
    <glyph glyph-name="uniFEA7" unicode="&#x62e;" horiz-adv-x="689" arabic-form="initial" 
d="M384 647l-107 -107l-107 107l107 107zM388 454l251 -141l-22 -207l-289 -76q-119 -30 -328 -30h-5v180h6q194 0 287 24l151 33l-129 59q-29 14 -60.5 6t-48.5 -36l-17 -31l-140 88l20 36q52 94 142.5 120t181.5 -25z" />
    <glyph glyph-name="uniFEA8" unicode="&#x62e;" horiz-adv-x="689" arabic-form="medial" 
d="M382 647l-107 -107l-107 107l107 107zM630 180h64v-180h-64q-50 0 -93 24.5t-71 65.5l-142 -43q-157 -47 -324 -47h-5v180h6q120 1 277 39l155 37l-133 54q-30 14 -59.5 5t-45.5 -36l-18 -32l-140 88l20 36q56 93 145 118.5t177 -22.5l255 -132l-18 -153q8 -2 14 -2z" />
    <glyph glyph-name="uniFEAA" unicode="&#x62f;" horiz-adv-x="601" arabic-form="final" 
d="M557 180h49v-180h-49q-64 0 -109 40q-54 -40 -132 -40h-80q-80 0 -133 47.5t-53 113.5v63h148v-34q0 -7 2 -8.5t8 -1.5h130q27 0 25 18q-1 2 -2.5 7t-1.5 8l-74 291l156 44l74 -294q13 -50 20 -62t22 -12z" />
    <glyph glyph-name="uniFEAC" unicode="&#x630;" horiz-adv-x="601" arabic-form="final" 
d="M479 697l-107 -107l-107 107l107 107zM557 180h49v-180h-49q-64 0 -109 40q-54 -40 -132 -40h-80q-80 0 -133 47.5t-53 113.5v63h148v-34q0 -7 2 -8.5t8 -1.5h130q27 0 25 18q-1 2 -2.5 7t-1.5 8l-74 291l156 44l74 -294q13 -50 20 -62t22 -12z" />
    <glyph glyph-name="uniFEAE" unicode="&#x631;" horiz-adv-x="347" arabic-form="final" 
d="M347 180h5v-180h-5h-9q-2 -100 -71.5 -156t-224.5 -99l-42 174q124 34 153.5 53t22.5 67l-40 287l158 24l11 -78q7 -42 14 -63t12.5 -25t15.5 -4z" />
    <glyph glyph-name="uniFEB0" unicode="&#x632;" horiz-adv-x="347" arabic-form="final" 
d="M316 521l-107 -107l-107 107l107 107zM347 180h5v-180h-5h-9q-2 -100 -71.5 -156t-224.5 -99l-42 174q124 34 153.5 53t22.5 67l-40 287l158 24l11 -78q7 -42 14 -63t12.5 -25t15.5 -4z" />
    <glyph glyph-name="uniFEB2" unicode="&#x633;" horiz-adv-x="1275" arabic-form="final" 
d="M1280 180v-180q-82 0 -140 50q-53 -50 -130 -50q-72 0 -127 48q-53 -48 -121 -48q-28 0 -55 11q-2 -101 -68 -158t-207 -89q-76 -19 -138 -9t-110.5 38.5t-80 79t-45 113t-5.5 141t37 163.5l152 -60q-57 -164 -15 -241.5t169 -48.5q106 24 131 42t18 68l-41 275l158 26
q7 -49 16 -107q8 -39 24.5 -51t54.5 -12q28 0 38 6.5t10 25.5v124h150v-124q0 -3 1 -8t12 -13.5t31 -8.5q32 0 43 5.5t7 18.5l-33 123l144 43l33 -123l2 -8q18 -62 85 -62z" />
    <glyph glyph-name="uniFEB3" unicode="&#x633;" horiz-adv-x="783" arabic-form="initial" 
d="M721 293q33 -121 -24 -207t-173 -86q-71 0 -119 42q-52 -42 -122 -42q-67 0 -118 44q-51 -44 -123 -44h-47v180h47q31 0 39.5 6.5t8.5 26.5v124h150v-124q1 -17 10 -25t33 -8q30 0 39 6.5t9 26.5v124h150v-124q0 -19 8.5 -26t34.5 -7q36 0 44.5 13.5t-1.5 53.5l-40 149
l154 46z" />
    <glyph glyph-name="uniFEB4" unicode="&#x633;" horiz-adv-x="788" arabic-form="medial" 
d="M793 180v-180q-82 0 -140 50q-53 -50 -130 -50q-68 0 -123 50q-53 -50 -130 -50q-67 0 -118 49q-54 -49 -123 -49h-34v180h34q31 0 39.5 6.5t8.5 26.5v124h150v-124q1 -17 10 -25t33 -8q30 0 39 6.5t9 26.5v124h150v-124q0 -3 1 -8t12 -13.5t31 -8.5q32 0 43 5.5t7 18.5
l-33 123l144 43l33 -123l2 -8q18 -62 85 -62z" />
    <glyph glyph-name="uniFEB6" unicode="&#x634;" horiz-adv-x="1275" arabic-form="final" 
d="M959 680l-75 -76l-76 76l76 75zM870 519l-95 -94l-94 94l94 95zM991 425l-94 94l94 95l95 -95zM1280 180v-180q-82 0 -140 50q-53 -50 -130 -50q-72 0 -127 48q-53 -48 -121 -48q-28 0 -55 11q-2 -101 -68 -158t-207 -89q-76 -19 -138 -9t-110.5 38.5t-80 79t-45 113
t-5.5 141t37 163.5l152 -60q-57 -164 -15 -241.5t169 -48.5q106 24 131 42t18 68l-41 275l158 26q7 -49 16 -107q8 -39 24.5 -51t54.5 -12q28 0 38 6.5t10 25.5v124h150v-124q0 -3 1 -8t12 -13.5t31 -8.5q32 0 43 5.5t7 18.5l-33 123l144 43l33 -123l2 -8q18 -62 85 -62z
" />
    <glyph glyph-name="uniFEB7" unicode="&#x634;" horiz-adv-x="783" arabic-form="initial" 
d="M477 685l-75 -76l-76 76l76 75zM388 524l-95 -94l-94 94l94 95zM509 430l-94 94l94 95l95 -95zM721 293q33 -121 -24 -207t-173 -86q-71 0 -119 42q-52 -42 -122 -42q-67 0 -118 44q-51 -44 -123 -44h-47v180h47q31 0 39.5 6.5t8.5 26.5v124h150v-124q1 -17 10 -25t33 -8
q30 0 39 6.5t9 26.5v124h150v-124q0 -19 8.5 -26t34.5 -7q36 0 44.5 13.5t-1.5 53.5l-40 149l154 46z" />
    <glyph glyph-name="uniFEB8" unicode="&#x634;" horiz-adv-x="788" arabic-form="medial" 
d="M475 654l-75 -76l-76 76l76 75zM386 493l-95 -94l-94 94l94 95zM507 399l-94 94l94 95l95 -95zM793 180v-180q-82 0 -140 50q-53 -50 -130 -50q-68 0 -123 50q-53 -50 -130 -50q-67 0 -118 49q-54 -49 -123 -49h-34v180h34q31 0 39.5 6.5t8.5 26.5v124h150v-124
q1 -17 10 -25t33 -8q30 0 39 6.5t9 26.5v124h150v-124q0 -3 1 -8t12 -13.5t31 -8.5q32 0 43 5.5t7 18.5l-33 123l144 43l33 -123l2 -8q18 -62 85 -62z" />
    <glyph glyph-name="uniFEBA" unicode="&#x635;" horiz-adv-x="1356" arabic-form="final" 
d="M1347 180h14v-180h-14q-72 0 -141 49q-60 -49 -136 -49h-325h-15q-9 0 -23 2q-5 -97 -71 -151.5t-204 -86.5q-76 -19 -138 -9t-110.5 38.5t-80 79t-45 113t-5.5 141t37 163.5l152 -60q-57 -164 -15 -241.5t169 -48.5q106 24 131 42t18 68l-41 275l158 26l12 -79
q11 -62 20 -77t30 -15h21l57 78q44 61 71 93.5t60 62.5t65 41.5t72 11.5q95 0 159 -69.5t64 -171.5q0 -9 -2 -27q19 -19 56 -19zM1070 180q24 0 43.5 15t19.5 31q0 28 -17 44.5t-46 16.5q-25 0 -48.5 -21t-70.5 -86h119z" />
    <glyph glyph-name="uniFEBB" unicode="&#x635;" horiz-adv-x="830" arabic-form="initial" 
d="M557 467q95 0 159 -69.5t64 -171.5q0 -92 -66 -159t-157 -67h-325q-59 0 -102 37q-53 -35 -130 -37h-5v180h5q32 0 46.5 7.5t16.5 32.5l11 124l160 -16l-11 -122q-1 -16 1 -21t8 -5l57 78q44 61 71 93.5t60 62.5t65 41.5t72 11.5zM557 180q24 0 43.5 15t19.5 31
q0 28 -17 44.5t-46 16.5q-25 0 -48.5 -21t-70.5 -86h119z" />
    <glyph glyph-name="uniFEBC" unicode="&#x635;" horiz-adv-x="843" arabic-form="medial" 
d="M834 180h14v-180h-14q-72 0 -141 49q-60 -49 -136 -49h-325q-59 0 -102 37q-53 -35 -130 -37h-5v180h5q32 0 46.5 7.5t16.5 32.5l11 124l160 -16l-11 -122q-1 -16 1 -21t8 -5l57 78q44 61 71 93.5t60 62.5t65 41.5t72 11.5q95 0 159 -69.5t64 -171.5q0 -9 -2 -27
q19 -19 56 -19zM557 180q24 0 43.5 15t19.5 31q0 28 -17 44.5t-46 16.5q-25 0 -48.5 -21t-70.5 -86h119z" />
    <glyph glyph-name="uniFEBE" unicode="&#x636;" horiz-adv-x="1356" arabic-form="final" 
d="M1156 642l-107 -107l-107 107l107 107zM1347 180h14v-180h-14q-72 0 -141 49q-60 -49 -136 -49h-325h-15q-9 0 -23 2q-5 -97 -71 -151.5t-204 -86.5q-76 -19 -138 -9t-110.5 38.5t-80 79t-45 113t-5.5 141t37 163.5l152 -60q-57 -164 -15 -241.5t169 -48.5q106 24 131 42
t18 68l-41 275l158 26l12 -79q11 -62 20 -77t30 -15h21l57 78q44 61 71 93.5t60 62.5t65 41.5t72 11.5q95 0 159 -69.5t64 -171.5q0 -9 -2 -27q19 -19 56 -19zM1070 180q24 0 43.5 15t19.5 31q0 28 -17 44.5t-46 16.5q-25 0 -48.5 -21t-70.5 -86h119z" />
    <glyph glyph-name="uniFEBF" unicode="&#x636;" horiz-adv-x="830" arabic-form="initial" 
d="M643 613l-107 -107l-107 107l107 107zM557 467q95 0 159 -69.5t64 -171.5q0 -92 -66 -159t-157 -67h-325q-59 0 -102 37q-53 -35 -130 -37h-5v180h5q32 0 46.5 7.5t16.5 32.5l11 124l160 -16l-11 -122q-1 -16 1 -21t8 -5l57 78q44 61 71 93.5t60 62.5t65 41.5t72 11.5z
M557 180q24 0 43.5 15t19.5 31q0 28 -17 44.5t-46 16.5q-25 0 -48.5 -21t-70.5 -86h119z" />
    <glyph glyph-name="uniFEC0" unicode="&#x636;" horiz-adv-x="843" arabic-form="medial" 
d="M640 627l-107 -107l-107 107l107 107zM834 180h14v-180h-14q-72 0 -141 49q-60 -49 -136 -49h-325q-59 0 -102 37q-53 -35 -130 -37h-5v180h5q32 0 46.5 7.5t16.5 32.5l11 124l160 -16l-11 -122q-1 -16 1 -21t8 -5l57 78q44 61 71 93.5t60 62.5t65 41.5t72 11.5
q95 0 159 -69.5t64 -171.5q0 -9 -2 -27q19 -19 56 -19zM557 180q24 0 43.5 15t19.5 31q0 28 -17 44.5t-46 16.5q-25 0 -48.5 -21t-70.5 -86h119z" />
    <glyph glyph-name="uniFEC2" unicode="&#x637;" horiz-adv-x="717" arabic-form="final" 
d="M708 180h14v-180h-14q-62 0 -122 37q-56 -37 -120 -37h-416v180h91l27 37l-19 489l160 8l12 -307q65 60 145 60q95 0 159 -69.5t64 -171.5q0 -24 -4 -43q9 -3 23 -3zM466 180q24 0 43.5 15t19.5 31q0 28 -17 44.5t-46 16.5q-25 0 -48.5 -21t-70.5 -86h119z" />
    <glyph glyph-name="uniFEC3" unicode="&#x637;" horiz-adv-x="684" arabic-form="initial" 
d="M411 467q95 0 159 -69.5t64 -171.5q0 -92 -66 -159t-157 -67h-416v180h91l27 37l-19 489l160 8l12 -307q64 60 145 60zM411 180q24 0 43.5 15t19.5 31q0 28 -17 44.5t-46 16.5q-25 0 -48.5 -21t-70.5 -86h119z" />
    <glyph glyph-name="uniFEC4" unicode="&#x637;" horiz-adv-x="697" arabic-form="medial" 
d="M688 180h14v-180h-14q-72 0 -141 49q-60 -49 -136 -49h-416v180h91l27 37l-19 489l160 8l12 -307q64 60 145 60q95 0 159 -69.5t64 -171.5q0 -9 -2 -27q19 -19 56 -19zM411 180q24 0 43.5 15t19.5 31q0 28 -17 44.5t-46 16.5q-25 0 -48.5 -21t-70.5 -86h119z" />
    <glyph glyph-name="uniFEC6" unicode="&#x638;" horiz-adv-x="717" arabic-form="final" 
d="M596 636l-107 -107l-107 107l107 107zM708 180h14v-180h-14q-62 0 -122 37q-56 -37 -120 -37h-416v180h91l27 37l-19 489l160 8l12 -307q65 60 145 60q95 0 159 -69.5t64 -171.5q0 -24 -4 -43q9 -3 23 -3zM466 180q24 0 43.5 15t19.5 31q0 28 -17 44.5t-46 16.5
q-25 0 -48.5 -21t-70.5 -86h119z" />
    <glyph glyph-name="uniFEC7" unicode="&#x638;" horiz-adv-x="684" arabic-form="initial" 
d="M526 636l-107 -107l-107 107l107 107zM411 467q95 0 159 -69.5t64 -171.5q0 -92 -66 -159t-157 -67h-416v180h91l27 37l-19 489l160 8l12 -307q64 60 145 60zM411 180q24 0 43.5 15t19.5 31q0 28 -17 44.5t-46 16.5q-25 0 -48.5 -21t-70.5 -86h119z" />
    <glyph glyph-name="uniFEC8" unicode="&#x638;" horiz-adv-x="697" arabic-form="medial" 
d="M520 636l-107 -107l-107 107l107 107zM688 180h14v-180h-14q-72 0 -141 49q-60 -49 -136 -49h-416v180h91l27 37l-19 489l160 8l12 -307q64 60 145 60q95 0 159 -69.5t64 -171.5q0 -9 -2 -27q19 -19 56 -19zM411 180q24 0 43.5 15t19.5 31q0 28 -17 44.5t-46 16.5
q-25 0 -48.5 -21t-70.5 -86h119z" />
    <glyph glyph-name="uniFECA" unicode="&#x639;" horiz-adv-x="639" arabic-form="final" 
d="M514 182q62 -2 130 -2v-180q-162 0 -221.5 11.5t-101.5 67.5l-12 16q-102 -46 -98 -111q2 -35 32 -58t69 -20l293 25l14 -180l-295 -25q-105 -8 -185 63t-88 179q-14 175 164 250l-97 129l45 141l247 38q50 8 95 -17t67.5 -66.5t27.5 -91t-24 -91.5q-23 -45 -62 -78z
M458 366q-134 -17 -141 -15l66 -82q69 27 75 97z" />
    <glyph glyph-name="uniFECB" unicode="&#x639;" horiz-adv-x="538" arabic-form="initial" 
d="M316 13q-2 -1 -5.5 -1.5t-5.5 -0.5q-5 0 -7 -1q-34 -4 -107 -6.5t-129 -3.5h-55h-12v180h10q24 0 59 1q-2 4 -4 16q-18 96 34 176t144 96q28 5 74 -0.5t78 -13.5l31 -8l-42 -174q-74 20 -104 20q-28 0 -45.5 -17.5t-13.5 -41.5q3 -19 19 -31.5t37 -13.5q3 0 8.5 0.5
t7.5 1.5v-1l170 32l30 -176z" />
    <glyph glyph-name="uniFECC" unicode="&#x639;" horiz-adv-x="529" arabic-form="medial" 
d="M534 180v-180q-113 0 -177.5 6.5t-113.5 31.5q-117 -38 -230 -38h-18v180h18q62 0 89 1l-79 107l46 141l245 36q48 7 90.5 -13t66.5 -56.5t32.5 -83t-11.5 -92.5q-10 -23 -23 -40h65zM222 291l67 -81q64 27 74 96z" />
    <glyph glyph-name="uniFECE" unicode="&#x63a;" horiz-adv-x="639" arabic-form="final" 
d="M467 664l-107 -107l-107 107l107 107zM514 182q62 -2 130 -2v-180q-162 0 -221.5 11.5t-101.5 67.5l-12 16q-102 -46 -98 -111q2 -35 32 -58t69 -20l293 25l14 -180l-295 -25q-105 -8 -185 63t-88 179q-14 175 164 250l-97 129l45 141l247 38q50 8 95 -17t67.5 -66.5
t27.5 -91t-24 -91.5q-23 -45 -62 -78zM458 366q-134 -17 -141 -15l66 -82q69 27 75 97z" />
    <glyph glyph-name="uniFECF" unicode="&#x63a;" horiz-adv-x="538" arabic-form="initial" 
d="M350 616l-107 -107l-107 107l107 107zM316 13q-2 -1 -5.5 -1.5t-5.5 -0.5q-5 0 -7 -1q-34 -4 -107 -6.5t-129 -3.5h-55h-12v180h10q24 0 59 1q-2 4 -4 16q-18 96 34 176t144 96q28 5 74 -0.5t78 -13.5l31 -8l-42 -174q-74 20 -104 20q-28 0 -45.5 -17.5t-13.5 -41.5
q3 -19 19 -31.5t37 -13.5q3 0 8.5 0.5t7.5 1.5v-1l170 32l30 -176z" />
    <glyph glyph-name="uniFED0" unicode="&#x63a;" horiz-adv-x="529" arabic-form="medial" 
d="M385 633l-107 -107l-107 107l107 107zM534 180v-180q-113 0 -177.5 6.5t-113.5 31.5q-117 -38 -230 -38h-18v180h18q62 0 89 1l-79 107l46 141l245 36q48 7 90.5 -13t66.5 -56.5t32.5 -83t-11.5 -92.5q-10 -23 -23 -40h65zM222 291l67 -81q64 27 74 96z" />
    <glyph glyph-name="uniFED2" unicode="&#x641;" horiz-adv-x="992" arabic-form="final" 
d="M882 645l-107 -107l-107 107l107 107zM954 180h43v-180h-58q-93 0 -188 36q-103 -36 -202 -36h-52q-160 0 -221 5.5t-107 25.5q-74 32 -103 103.5t-6 158.5l39 148l154 -46l-40 -156q-5 -21 -1.5 -28.5t21.5 -15.5q36 -15 269 -15h47h2q-17 32 -14 65l6 60
q10 93 78.5 149t158.5 46q84 -9 137.5 -78.5t48.5 -158.5l-3 -48q-2 -19 -9 -35zM697 238q24 -22 51 -33q45 14 55 29l5 31q3 19 -11.5 36.5t-36.5 20.5q-23 2 -41 -11.5t-19 -35.5z" />
    <glyph glyph-name="uniFED3" unicode="&#x641;" horiz-adv-x="509" arabic-form="initial" 
d="M335 817l-107 -107l-107 107l107 107zM458 218q7 -109 -57.5 -163.5t-225.5 -54.5h-180v180h182q89 0 109.5 5.5t17.5 31.5q-44 -2 -84 -2q-88 0 -140.5 49.5t-52.5 137.5q0 103 48.5 170t140.5 74q94 7 158 -57.5t71 -172.5zM172 416q3 -35 48 -35q34 0 72 2l-2 20
q-4 41 -21 62t-45 20q-25 -1 -39.5 -20.5t-12.5 -48.5z" />
    <glyph glyph-name="uniFED4" unicode="&#x641;" horiz-adv-x="490" arabic-form="medial" 
d="M373 673l-107 -107l-107 107l107 107zM452 180h43v-180h-58q-93 0 -188 36q-103 -36 -202 -36h-52v180h52h2q-17 32 -14 65l6 60q10 93 78.5 149t158.5 46q84 -9 137.5 -78.5t48.5 -158.5l-3 -48q-2 -19 -9 -35zM195 238q24 -22 51 -33q45 14 55 29l5 31q3 19 -11.5 36.5
t-36.5 20.5q-23 2 -41 -11.5t-19 -35.5z" />
    <glyph glyph-name="uniFED6" unicode="&#x642;" horiz-adv-x="778" arabic-form="final" 
d="M387 488l-94 94l94 95l95 -95zM604 488l-94 94l94 95l95 -95zM432 -236q-76 -19 -138 -9t-110.5 38.5t-80 79t-45 113t-5.5 141t37 163.5l152 -60q-57 -164 -15 -241.5t169 -48.5q184 39 184 56v4h-88q-89 0 -145 54.5t-64 147.5q-8 104 51.5 182.5t153.5 82.5
q95 4 159.5 -65.5t76.5 -182.5l4 -39h55v-180h-39l-1 -14q-9 -91 -80 -138.5t-231 -83.5zM492 180h74l-2 20q-4 45 -22 66.5t-46 20.5q-26 -1 -40.5 -20.5t-12.5 -50.5q2 -20 11.5 -28t37.5 -8z" />
    <glyph glyph-name="uniFED7" unicode="&#x642;" horiz-adv-x="509" arabic-form="initial" 
d="M215 793l-95 -94l-94 94l94 95zM432 793l-95 -94l-94 94l94 95zM458 218q7 -109 -57.5 -163.5t-225.5 -54.5h-180v180h182q89 0 109.5 5.5t17.5 31.5q-44 -2 -84 -2q-88 0 -140.5 49.5t-52.5 137.5q0 103 48.5 170t140.5 74q94 7 158 -57.5t71 -172.5zM172 416
q3 -35 48 -35q34 0 72 2l-2 20q-4 41 -21 62t-45 20q-25 -1 -39.5 -20.5t-12.5 -48.5z" />
    <glyph glyph-name="uniFED8" unicode="&#x642;" horiz-adv-x="490" arabic-form="medial" 
d="M249 681l-95 -94l-94 94l94 95zM466 681l-95 -94l-94 94l94 95zM452 180h43v-180h-58q-93 0 -188 36q-103 -36 -202 -36h-52v180h52h2q-17 32 -14 65l6 60q10 93 78.5 149t158.5 46q84 -9 137.5 -78.5t48.5 -158.5l-3 -48q-2 -19 -9 -35zM195 238q24 -22 51 -33
q45 14 55 29l5 31q3 19 -11.5 36.5t-36.5 20.5q-23 2 -41 -11.5t-19 -35.5z" />
    <glyph glyph-name="uniFEDA" unicode="&#x643;" horiz-adv-x="951" arabic-form="final" 
d="M936 180h20v-180h-20q-71 0 -125 41q-54 -41 -131 -41h-178q-163 0 -224.5 5.5t-108.5 25.5q-74 32 -103 103.5t-6 158.5l39 148l154 -46l-40 -156q-5 -21 -1.5 -28.5t21.5 -15.5q36 -15 269 -15h178q30 0 39.5 6.5t8.5 23.5l-19 496l160 8l19 -490q1 -26 11.5 -35
t36.5 -9zM534 423q27 -25 14 -61t-51 -36h-89v70h47q9 0 1 8l-42 42l14 58l98 33l22 -66l-45 -15z" />
    <glyph glyph-name="uniFEDB" unicode="&#x643;" horiz-adv-x="499" arabic-form="initial" 
d="M220 528l140 -210q45 -68 50 -135t-28 -111q-51 -72 -162 -72h-225v180h227q15 0 20 5q9 9 -3 25l-219 310l36 136l362 133l56 -168z" />
    <glyph glyph-name="uniFEDC" unicode="&#x643;" horiz-adv-x="518" arabic-form="medial" 
d="M509 180h14v-180h-14q-78 0 -142 54q-52 -54 -147 -54h-225v180h227q15 0 20 5q9 9 -3 25l-219 310l36 136l362 133l56 -168l-254 -93l140 -210q4 -6 11 -18t8 -14q37 -64 63.5 -85t66.5 -21z" />
    <glyph glyph-name="uniFEDE" unicode="&#x644;" horiz-adv-x="760" arabic-form="final" 
d="M745 180h20v-180h-20q-26 0 -43 4q-10 -99 -73 -153t-198 -87q-76 -20 -138 -10.5t-110.5 38t-79.5 79t-44.5 113.5t-6 142t36.5 163l152 -60q-57 -163 -15 -243t167 -48q105 27 128.5 45t21.5 76l-25 647l160 8l19 -490q1 -26 11.5 -35t36.5 -9z" />
    <glyph glyph-name="uniFEDF" unicode="&#x644;" horiz-adv-x="276" arabic-form="initial" 
d="M226 218q5 -96 -53.5 -157t-154.5 -61h-25v180h25q30 0 39.5 6.5t8.5 23.5l-19 496l160 8z" />
    <glyph glyph-name="uniFEE0" unicode="&#x644;" horiz-adv-x="289" arabic-form="medial" 
d="M274 180h20v-180h-20q-71 0 -125 41q-54 -41 -131 -41h-25v180h25q30 0 39.5 6.5t8.5 23.5l-19 496l160 8l19 -490q1 -26 11.5 -35t36.5 -9z" />
    <glyph glyph-name="uniFEE2" unicode="&#x645;" horiz-adv-x="627" arabic-form="final" 
d="M632 180v-180q-75 0 -122 42q-35 -36 -80 -45t-94 14l-126 64l20 -369l-160 -6l-20 520l109 73l21 -11l37 72q37 72 108.5 95t141.5 -14q51 -27 79 -81.5t29 -121.5q0 -52 57 -52zM415 163q41 89 -5 116q-44 24 -79 -45l-12 -22z" />
    <glyph glyph-name="uniFEE3" unicode="&#x645;" horiz-adv-x="549" arabic-form="initial" 
d="M391 435q82 -45 102.5 -151t-33.5 -205q-31 -57 -87.5 -76.5t-115.5 9.5l-102 52q-62 -64 -149 -64h-11v180h11q43 0 59 28l75 144q38 74 109 97.5t142 -14.5zM339 163q44 89 -5 116q-44 24 -79 -45l-12 -23z" />
    <glyph glyph-name="uniFEE4" unicode="&#x645;" horiz-adv-x="551" arabic-form="medial" 
d="M556 180v-180q-75 0 -123 42q-35 -36 -81 -45t-95 15l-102 52q-62 -64 -149 -64h-11v180h11q43 0 59 28l75 144q38 74 109 97.5t142 -14.5q51 -28 79 -82.5t29 -120.5q0 -52 57 -52zM339 163q44 89 -5 116q-44 24 -79 -45l-12 -23z" />
    <glyph glyph-name="uniFEE6" unicode="&#x646;" horiz-adv-x="746" arabic-form="final" 
d="M468 365l-107 -107l-107 107l107 107zM724 180h27v-180h-21q-9 0 -23 2q-5 -97 -71 -151.5t-204 -86.5q-76 -19 -138 -9t-110.5 38.5t-80 79t-45 113t-5.5 141t37 163.5l152 -60q-57 -164 -15 -241.5t169 -48.5q106 24 131 42t18 68l-41 275l158 26l12 -79q11 -62 20 -77
t30 -15z" />
    <glyph glyph-name="uniFEE7" unicode="&#x646;" horiz-adv-x="351" arabic-form="initial" 
d="M124 488l-107 107l107 107l107 -107zM-5 0v180h79q48 0 60.5 13.5t1.5 53.5l-40 149l154 46l40 -149q34 -125 -28 -209t-188 -84h-79z" />
    <glyph glyph-name="uniFEE8" unicode="&#x646;" horiz-adv-x="309" arabic-form="medial" 
d="M243 512l-107 -107l-107 107l107 107zM314 180v-180q-78 0 -127 36q-53 -36 -129 -36h-63v180h63q31 0 40 4.5t8 17.5v3l-11 123l160 16l11 -123v-3q2 -25 10 -31.5t38 -6.5z" />
    <glyph glyph-name="uniFEEA" unicode="&#x647;" horiz-adv-x="560" arabic-form="final" 
d="M546 180h19v-180h-19q-112 0 -182 89l-94 -15q-62 -8 -124 35.5t-85 110.5q-28 82 11 164t119 108l118 39v28h160v-312q0 -28 22 -47.5t55 -19.5zM256 253q3 0 11 1.5t20.5 3.5t21.5 4v91l-68 -24q-35 -12 -30 -45q2 -14 15 -24t30 -7z" />
    <glyph glyph-name="uniFEEB" unicode="&#x647;" horiz-adv-x="698" arabic-form="initial" 
d="M534 379q74 -38 102.5 -122.5t-8.5 -161.5q-38 -79 -113.5 -107.5t-152.5 6.5l-99 46q-89 -40 -200 -40h-68v180h58q-27 46 -29.5 99.5t21.5 105.5q33 71 101 105l35 75zM279 266q7 17 1.5 33.5t-22.5 25.5q-21 10 -37 6.5t-24 -17.5q-10 -15 -5 -32t25 -27l44 -22
q4 5 18 33zM487 164q8 13 2 30.5t-26 27.5l-25 13q-6 -21 -15 -43q-7 -17 -18 -34l22 -11q16 -9 34 -4t26 21z" />
    <glyph glyph-name="uniFEEC" unicode="&#x647;" horiz-adv-x="497" arabic-form="medial" 
d="M444 180h58v-180h-58q-13 0 -21 -6t-8 -14v-139l-80 -80q-101 -1 -177.5 65.5t-102.5 173.5h-60v180h69q14 51 36.5 122t38.5 117l16 46l97 49l72 -20q54 -15 89.5 -67t39.5 -113.5t-19 -121.5l-6 -13q5 1 16 1zM273 322q-23 -62 -42 -123q49 19 67 65q6 16 -0.5 34.5
t-17.5 21.5zM261 -65v45q0 29 8 58q-29 -12 -60 -21q11 -59 52 -82z" />
    <glyph glyph-name="uniFEEE" unicode="&#x648;" horiz-adv-x="546" arabic-form="final" 
d="M551 180v-180h-39q-4 -110 -83 -161.5t-282 -94.5l-32 176q139 30 182 44t51 36h-88q-89 0 -145 54.5t-64 147.5q-8 104 51.5 182.5t153.5 82.5q95 4 159.5 -65.5t76.5 -182.5l4 -39h55zM211 216q2 -20 11.5 -28t37.5 -8h74l-2 20q-4 45 -22 66.5t-46 20.5
q-26 -1 -40.5 -20.5t-12.5 -50.5z" />
    <glyph glyph-name="uniFEF0" unicode="&#x649;" horiz-adv-x="735" arabic-form="final" 
d="M740 180v-180h-34q-4 -91 -68 -147t-206 -89q-76 -19 -138 -9t-110.5 38.5t-80 79t-45 113t-5.5 141t37 163.5l152 -60q-56 -164 -14.5 -241.5t168.5 -48.5q102 23 127.5 39t23.5 52q-17 5 -57.5 18t-61.5 20l49 171q153 -42 193 -51t70 -9z" />
    <glyph glyph-name="uniFEF2" unicode="&#x64a;" horiz-adv-x="735" arabic-form="final" 
d="M740 180v-180h-34q-4 -91 -68 -147t-206 -89q-76 -19 -138 -9t-110.5 38.5t-80 79t-45 113t-5.5 141t37 163.5l152 -60q-56 -164 -14.5 -241.5t168.5 -48.5q102 23 127.5 39t23.5 52q-17 5 -57.5 18t-61.5 20l49 171q153 -42 193 -51t70 -9zM173 -367l94 95l95 -95
l-95 -94zM390 -367l94 95l95 -95l-95 -94z" />
    <glyph glyph-name="uniFEF3" unicode="&#x64a;" horiz-adv-x="430" arabic-form="initial" 
d="M-5 0v180h157q47 0 59.5 14t1.5 53l-39 149l154 46l42 -158q32 -120 -31 -202t-187 -82h-157zM0 -244l-94 94l94 95l95 -95zM217 -244l-94 94l94 95l95 -95z" />
    <glyph glyph-name="uniFEF4" unicode="&#x64a;" horiz-adv-x="438" arabic-form="medial" 
d="M396 213q2 -22 10 -27.5t37 -5.5v-180q-77 0 -127 36q-53 -36 -129 -36h-192v180h192q32 0 41 5t7 20l-11 123l160 16l11 -123q0 -5 1 -8zM0 -152l94 95l95 -95l-95 -94zM217 -152l94 95l95 -95l-95 -94z" />
    <glyph glyph-name=".notdef" horiz-adv-x="300" 
d="M30 -25v550h240v-550h-240zM70 25h160v450h-160v-450z" />
    <glyph glyph-name=".null" 
 />
    <glyph glyph-name="nonmarkingreturn" horiz-adv-x="333" 
 />
    <glyph glyph-name="CR" unicode="&#xd;" horiz-adv-x="300" 
 />
    <glyph glyph-name="space" unicode=" " horiz-adv-x="200" 
 />
    <glyph glyph-name="exclam" unicode="!" horiz-adv-x="288" 
d="M70 236l-20 464h188l-20 -464h-148zM144 -36q-40 0 -67 27.5t-27 66.5q0 38 27 65t67 27q38 0 65 -27t27 -65q0 -39 -27 -66.5t-65 -27.5z" />
    <glyph glyph-name="quotedbl" unicode="&#x22;" horiz-adv-x="464" 
d="M41 460l-19 240h188l-21 -240h-148zM273 460l-19 240h188l-21 -240h-148z" />
    <glyph glyph-name="numbersign" unicode="#" horiz-adv-x="705" 
d="M675 387h-94l-10 -69h67v-160h-92l-19 -124h-188l19 124h-71l-19 -124h-188l19 124h-69v160h94l10 69h-67v161h92l19 124h188l-19 -124h71l19 124h188l-19 -124h69v-161zM383 318l10 69h-71l-10 -69h71z" />
    <glyph glyph-name="dollar" unicode="$" horiz-adv-x="616" 
d="M601 196q0 -89 -57.5 -145.5t-154.5 -67.5l1 -64h-164l2 78q-73 23 -114 77.5t-41 129.5v29h177v-21q0 -28 28.5 -49.5t75.5 -21.5q36 0 51 15.5t15 34.5q0 11 -4.5 19t-17.5 15.5t-22.5 12t-34 13.5t-38.5 14q-96 39 -133 64q-90 63 -90 167q0 71 40 122t108 74l-2 99
h164l-2 -88q93 -15 151 -76.5t58 -150.5v-24h-178v16q0 30 -26 54.5t-70 24.5q-31 0 -48.5 -13t-17.5 -36q0 -26 29.5 -45.5t105.5 -44.5q90 -29 128 -57q81 -57 81 -155z" />
    <glyph glyph-name="percent" unicode="%" horiz-adv-x="756" 
d="M192 371q-69 0 -117.5 49.5t-48.5 119.5t48.5 119t117.5 49q68 0 116.5 -49t48.5 -119q0 -71 -48 -120t-117 -49zM121 0l377 700h132l-377 -700h-132zM192 465q29 0 49 21.5t20 53.5q0 31 -20 52.5t-49 21.5t-49.5 -21.5t-20.5 -52.5t20.5 -53t49.5 -22zM563 -8
q-69 0 -117.5 49.5t-48.5 119.5t48.5 119t117.5 49q68 0 116.5 -49t48.5 -119q0 -71 -48 -120t-117 -49zM563 86q29 0 49 21.5t20 53.5q0 31 -20 52.5t-49 21.5t-49.5 -21.5t-20.5 -52.5t20.5 -53t49.5 -22z" />
    <glyph glyph-name="ampersand" unicode="&#x26;" horiz-adv-x="734" 
d="M709 0h-212q-28 30 -39 41q-98 -49 -199 -49q-62 0 -113 18t-86 61t-35 107q0 116 127 189q-46 54 -60.5 86t-14.5 71q0 77 63.5 130.5t164.5 53.5q104 0 171 -56.5t67 -145.5q0 -114 -124 -190l60 -66q56 48 83 93l128 -73q-43 -78 -104 -137q100 -107 123 -133z
M309 552q-22 1 -35.5 -15t-13.5 -32q0 -12 46 -64q52 29 52 60q0 20 -12 35t-37 16zM293 138q23 6 53 20q-5 5 -10.5 11t-15 16t-19.5 20l-35 37q-49 -23 -55 -48q-7 -26 19 -45.5t63 -10.5z" />
    <glyph glyph-name="quotesingle" unicode="'" horiz-adv-x="232" 
d="M41 460l-19 240h188l-21 -240h-148z" />
    <glyph glyph-name="parenleft" unicode="(" horiz-adv-x="418" 
d="M363 -124l-114 -126q-94 96 -146.5 226t-52.5 269q0 141 53.5 272t150.5 229l114 -128q-158 -156 -158 -373q0 -213 153 -369z" />
    <glyph glyph-name="parenright" unicode=")" horiz-adv-x="418" 
d="M55 -124q153 156 153 369q0 217 -158 373l114 128q97 -98 150.5 -229t53.5 -272q0 -139 -52.5 -269t-146.5 -226z" />
    <glyph glyph-name="asterisk" unicode="*" horiz-adv-x="528" 
d="M478 399l-84 -27l52 -72l-130 -94l-52 72l-52 -72l-130 94l52 72l-84 27l50 152l84 -27v89h160v-89l84 27z" />
    <glyph glyph-name="plus" unicode="+" horiz-adv-x="436" 
d="M418 373v-140h-130v-130h-140v130h-130v140h130v130h140v-130h130z" />
    <glyph glyph-name="comma" unicode="," horiz-adv-x="233" 
d="M24 -111l17 271h168l-63 -271h-122z" />
    <glyph glyph-name="hyphen" unicode="-" horiz-adv-x="343" 
d="M18 205v160h307v-160h-307z" />
    <glyph glyph-name="period" unicode="." horiz-adv-x="367" 
d="M184 0q-40 0 -67 27.5t-27 66.5q0 38 27 65t67 27q38 0 65 -27t27 -65q0 -39 -27 -66.5t-65 -27.5z" />
    <glyph glyph-name="slash" unicode="/" horiz-adv-x="470" 
d="M8 0l254 700h188l-254 -700h-188z" />
    <glyph glyph-name="zero" unicode="0" horiz-adv-x="598" 
d="M286 -12q-119 0 -187.5 66t-68.5 182v228q0 113 68.5 178.5t187.5 65.5t188 -65.5t69 -178.5v-228q0 -115 -69 -181.5t-188 -66.5zM286 149q32 0 50.5 20.5t18.5 56.5v244q0 36 -18.5 56.5t-50.5 20.5t-50 -20.5t-18 -56.5v-244q0 -36 18 -56.5t50 -20.5z" />
    <glyph glyph-name="one" unicode="1" horiz-adv-x="359" 
d="M138 700h188v-700h-188v530l-116 -23v145z" />
    <glyph glyph-name="two" unicode="2" horiz-adv-x="601" 
d="M289 161h257v-161h-510v149q120 105 204 195q109 117 109 148q0 24 -18 39.5t-46 15.5q-29 0 -47 -15.5t-18 -41.5v-35h-190v65q7 85 78.5 136.5t176.5 51.5q116 0 185 -61.5t69 -150.5q0 -75 -77 -165q-72 -84 -173 -170z" />
    <glyph glyph-name="three" unicode="3" horiz-adv-x="556" 
d="M509 335q20 -46 20 -100q0 -51 -21 -102q-27 -66 -89 -104.5t-144 -38.5q-80 0 -142.5 39t-91.5 106q-20 46 -20 103h190q0 -34 14 -59q16 -28 49 -28t50 28q15 26 15 62q0 41 -14 63q-18 30 -52 30q-18 0 -75 -43l-97 137l168 111h-228v161h476v-174l-106 -76
q60 -25 98 -115z" />
    <glyph glyph-name="four" unicode="4" horiz-adv-x="641" 
d="M603 337v-166h-61v-171h-188v171h-332v131l172 398h200l-156 -363h116v119h188v-119h61z" />
    <glyph glyph-name="five" unicode="5" horiz-adv-x="555" 
d="M508 314q22 -102 1 -172q-21 -69 -83 -110.5t-164 -41.5q-82 0 -139.5 37.5t-79.5 101.5q-6 18 -10 38t-5 31l-1 11h193q3 -19 8 -28q14 -26 50 -26q31 0 51 27q11 16 12 43t-10 48q-15 27 -48 27q-21 0 -40 -12.5t-19 -28.5h-195v441h483v-161h-295v-101q39 24 91 24
q75 0 129.5 -37.5t70.5 -110.5z" />
    <glyph glyph-name="six" unicode="6" horiz-adv-x="549" 
d="M518 290q8 -92 0 -138q-12 -68 -79.5 -113t-162.5 -45q-89 0 -164.5 49t-81.5 139q-2 24 -2 68l-3 274q-1 85 66.5 134.5t178.5 49.5q108 0 174.5 -49.5t66.5 -134.5v-19h-188v6q0 15 -15.5 25.5t-38.5 10.5q-24 0 -39.5 -10.5t-15.5 -25.5v-87q34 29 98 29
q33 0 64.5 -7.5t63 -24.5t53 -51t25.5 -80zM338 229v35q0 17 -16 32.5t-46 15.5t-46 -15.5t-16 -32.5v-32v-38q0 -17 19 -29.5t43 -12.5q23 0 42.5 12.5t19.5 29.5v35z" />
    <glyph glyph-name="seven" unicode="7" horiz-adv-x="537" 
d="M101 0l216 539h-143v-65h-152l1 226h492v-161l-214 -539h-200z" />
    <glyph glyph-name="eight" unicode="8" horiz-adv-x="554" 
d="M506 317q26 -48 26 -106q0 -50 -22 -94q-29 -57 -88.5 -91t-142.5 -34q-79 0 -142 31.5t-93 92.5q-22 44 -22 96q0 59 25 105q16 29 41 48q-27 24 -41 52q-19 38 -19 84q0 77 47 132q71 82 203 82q131 0 201 -82q48 -57 48 -132q0 -50 -23 -89q-15 -25 -41 -46
q28 -19 43 -49zM222 523q-7 -14 -7 -33q0 -21 9 -36q16 -27 53 -27q38 0 55 26q10 16 10 38q0 18 -7 32q-15 31 -58 31q-40 0 -55 -31zM327 176q15 20 15 53q0 26 -9 43q-17 33 -55 33t-54 -33q-9 -18 -9 -45q0 -30 12 -48q17 -26 51 -26q32 0 49 23z" />
    <glyph glyph-name="nine" unicode="9" horiz-adv-x="549" 
d="M524 173q1 -85 -66.5 -134.5t-178.5 -49.5q-108 0 -174.5 49.5t-66.5 134.5v19h188v-6q0 -15 15.5 -25.5t38.5 -10.5q24 0 39.5 10.5t15.5 25.5v87q-34 -29 -98 -29q-33 0 -64.5 7.5t-63 24.5t-53 51t-25.5 80q-8 92 0 138q12 68 79.5 113t162.5 45q89 0 164.5 -49
t81.5 -139q2 -24 2 -68zM273 385q30 0 46 15.5t16 32.5v32v38q0 17 -19 29.5t-43 12.5q-23 0 -42.5 -12.5t-19.5 -29.5v-35v-35q0 -17 16 -32.5t46 -15.5z" />
    <glyph glyph-name="colon" unicode=":" horiz-adv-x="367" 
d="M184 276q-40 0 -67 27.5t-27 66.5q0 38 27 65t67 27q38 0 65 -27t27 -65q0 -39 -27 -66.5t-65 -27.5zM184 0q-40 0 -67 27.5t-27 66.5q0 38 27 65t67 27q38 0 65 -27t27 -65q0 -39 -27 -66.5t-65 -27.5z" />
    <glyph glyph-name="semicolon" unicode=";" horiz-adv-x="385" 
d="M202 276q-40 0 -67 27.5t-27 66.5q0 38 27 65t67 27q38 0 65 -27t27 -65q0 -39 -27 -66.5t-65 -27.5zM100 -111l17 271h168l-63 -271h-122z" />
    <glyph glyph-name="equal" unicode="=" horiz-adv-x="439" 
d="M20 334v138h399v-138h-399zM20 133v138h399v-138h-399z" />
    <glyph glyph-name="question" unicode="?" horiz-adv-x="551" 
d="M180 236v28q0 38 14.5 69t29.5 46t41 35q2 2 10.5 8.5t11 8.5t9.5 7.5t9.5 8.5t7 8t6.5 9l4.5 9t3.5 10t1 11q0 21 -10.5 33t-28.5 12q-22 0 -34 -14t-12 -37v-19l-188 9v10q0 99 66 160.5t173 61.5q102 0 163 -57t61 -150q0 -41 -13.5 -73.5t-28.5 -49t-40 -36.5
q-2 -2 -14.5 -12t-15.5 -12.5t-12 -10.5t-12 -13t-8 -12.5t-6.5 -15t-1.5 -16.5v-16h-186zM276 0q-40 0 -67 27.5t-27 66.5q0 38 27 65t67 27q38 0 65 -27t27 -65q0 -39 -27 -66.5t-65 -27.5z" />
    <glyph glyph-name="at" unicode="@" horiz-adv-x="850" 
d="M487 714q111 0 194 -55t120.5 -145t25.5 -194q-11 -99 -68.5 -158t-148.5 -59q-77 0 -116 41q-40 -41 -120 -41q-50 0 -83 27.5t-42 72.5q-8 38 -1 85q6 40 21 81q19 52 57.5 79t83.5 27q44 0 78 -22l3 22h123l-26 -185q-10 -73 29 -73q40 0 54 94q19 130 -35 191.5
t-160 61.5q-120 0 -198 -73t-97 -197q-19 -125 38 -189t169 -64q99 0 142 39l81 -120q-36 -32 -101 -51.5t-133 -19.5q-76 0 -146 30.5t-120.5 83t-75 131t-11.5 167.5q26 178 150 295.5t313 117.5zM406 206q22 0 39 27q15 24 17 56q3 35 -2 55q-6 25 -34 25q-26 0 -41 -26
q-9 -15 -17 -60q-6 -33 1 -50q10 -27 37 -27z" />
    <glyph glyph-name="A" unicode="A" horiz-adv-x="718" 
d="M496 0l-30 103h-215l-29 -103h-202l220 700h238l220 -700h-202zM292 247h133l-67 233z" />
    <glyph glyph-name="B" unicode="B" horiz-adv-x="642" 
d="M505 361q93 -48 93 -161q0 -103 -72 -151.5t-187 -48.5h-284v700h275q128 0 192.5 -45.5t64.5 -152.5q0 -100 -82 -141zM243 539v-110h87q73 0 73 55t-73 55h-87zM339 161q71 0 71 59q0 56 -70 56h-97v-115h96z" />
    <glyph glyph-name="C" unicode="C" horiz-adv-x="669" 
d="M340 -20q-126 0 -205.5 72t-79.5 175v231q0 104 79.5 177t205.5 73t205.5 -73t79.5 -177v-6l-194 -10l-2 36q-1 25 -22.5 47t-66.5 22q-44 0 -67 -22.5t-23 -46.5v-260q0 -25 23 -51t67 -26q45 0 66.5 19t23.5 43l3 36l192 -6v-6q0 -107 -73 -177t-212 -70z" />
    <glyph glyph-name="D" unicode="D" horiz-adv-x="645" 
d="M55 0v700h272q123 0 198.5 -62t75.5 -163v-250q0 -101 -75.5 -163t-198.5 -62h-272zM243 161h91q34 0 56 26.5t23 69.5v186q0 43 -22 69.5t-58 26.5h-90v-378z" />
    <glyph glyph-name="E" unicode="E" horiz-adv-x="606" 
d="M562 539h-319v-104h205v-160h-205v-114h319v-161h-507v700h507v-161z" />
    <glyph glyph-name="F" unicode="F" horiz-adv-x="553" 
d="M531 539h-288v-104h205v-160h-205v-275h-188v700h476v-161z" />
    <glyph glyph-name="G" unicode="G" horiz-adv-x="650" 
d="M331 -20q-122 0 -199 64t-77 156v245q0 119 76 191t200 72q123 0 199 -56.5t76 -143.5v-51h-187v30q0 60 -88 60q-40 0 -64 -26.5t-24 -70.5v-212q0 -43 27.5 -70t68.5 -27q42 0 63 11.5t21 45.5v38h-108v150h291v-152q0 -113 -76 -183.5t-199 -70.5z" />
    <glyph glyph-name="H" unicode="H" horiz-adv-x="652" 
d="M420 700h188v-700h-188v271h-166v-271h-188v700h188v-267h166v267z" />
    <glyph glyph-name="I" unicode="I" horiz-adv-x="298" 
d="M55 0v700h188v-700h-188z" />
    <glyph glyph-name="J" unicode="J" horiz-adv-x="624" 
d="M300 -20q-122 0 -194.5 66t-72.5 174v68h188v-67q0 -36 21 -58t58 -22q36 0 59 22t23 58v479h187v-480q0 -108 -74.5 -174t-194.5 -66z" />
    <glyph glyph-name="K" unicode="K" horiz-adv-x="681" 
d="M55 0v700h188v-265l187 265h213l-223 -310l228 -390h-210l-147 262l-48 -73v-189h-188z" />
    <glyph glyph-name="L" unicode="L" horiz-adv-x="594" 
d="M55 0v700h188v-539h329v-161h-517z" />
    <glyph glyph-name="M" unicode="M" horiz-adv-x="746" 
d="M508 700h183v-700h-188v433l-80 -174h-100l-80 173v-432h-188v700h183l135 -219z" />
    <glyph glyph-name="N" unicode="N" horiz-adv-x="690" 
d="M447 700h188v-700h-178l-216 360l2 -360h-188v700h178l215 -360z" />
    <glyph glyph-name="O" unicode="O" horiz-adv-x="680" 
d="M340 -20q-126 0 -205.5 72t-79.5 175v231q0 104 79.5 177t205.5 73t205.5 -73t79.5 -177v-231q0 -103 -79.5 -175t-205.5 -72zM340 141q45 0 67 26t22 51v260q0 24 -22 46.5t-67 22.5q-44 0 -67 -22.5t-23 -46.5v-260q0 -25 23 -51t67 -26z" />
    <glyph glyph-name="P" unicode="P" horiz-adv-x="623" 
d="M363 700q107 0 172.5 -63t65.5 -167q0 -101 -68 -163t-179 -62h-111v-245h-188v700h308zM332 395q37 0 59.5 19.5t22.5 51.5q0 33 -22.5 53t-59.5 20h-89v-144h89z" />
    <glyph glyph-name="Q" unicode="Q" horiz-adv-x="632" 
d="M625 458v-231q0 -64 -33 -119l29 -29l-113 -114l-39 39q-61 -24 -129 -24q-126 0 -205.5 72t-79.5 175v231q0 104 79.5 177t205.5 73t205.5 -73t79.5 -177zM250 218q0 -25 23 -51t67 -26q45 0 67 26t22 51v260q0 24 -22 46.5t-67 22.5q-44 0 -67 -22.5t-23 -46.5v-260z
" />
    <glyph glyph-name="R" unicode="R" horiz-adv-x="645" 
d="M601 470q0 -72 -36 -125.5t-100 -79.5l127 -265h-200l-107 245h-42v-245h-188v700h308q107 0 172.5 -63t65.5 -167zM332 539h-89v-144h89q37 0 59.5 19.5t22.5 51.5q0 33 -22.5 53t-59.5 20z" />
    <glyph glyph-name="S" unicode="S" horiz-adv-x="660" 
d="M334 -20q-127 0 -203 61t-76 163v29h185v-21q0 -28 29.5 -49.5t78.5 -21.5q37 0 53 15.5t16 34.5q0 11 -4.5 19t-18 15.5t-24 12t-36 13.5t-39.5 14q-101 39 -139 64q-94 63 -94 167q0 95 73.5 153.5t187.5 58.5q119 0 198.5 -64.5t79.5 -167.5v-24h-185v16
q0 30 -27 54.5t-73 24.5q-32 0 -50.5 -13t-18.5 -36q0 -26 30.5 -45.5t110.5 -44.5q93 -30 132 -56q85 -57 85 -156q0 -101 -74 -158.5t-197 -57.5z" />
    <glyph glyph-name="T" unicode="T" horiz-adv-x="605" 
d="M583 700v-161h-171v-539h-188v539h-202v161h561z" />
    <glyph glyph-name="U" unicode="U" horiz-adv-x="680" 
d="M340 -20q-126 0 -205.5 72t-79.5 175v473h195v-482q0 -25 23 -51t67 -26q45 0 67 26t22 51v482h196v-473q0 -103 -79.5 -175t-205.5 -72z" />
    <glyph glyph-name="V" unicode="V" horiz-adv-x="649" 
d="M431 700h198l-208 -700h-195l-206 700h202l106 -449z" />
    <glyph glyph-name="W" unicode="W" horiz-adv-x="1061" 
d="M843 700h198l-208 -700h-195l-108 367l-109 -367h-195l-206 700h202l106 -449l103 449h203l106 -449z" />
    <glyph glyph-name="X" unicode="X" horiz-adv-x="689" 
d="M33 0l194 350l-194 350h205l107 -207l107 207h204l-193 -350l193 -350h-203l-108 206l-108 -206h-204z" />
    <glyph glyph-name="Y" unicode="Y" horiz-adv-x="655" 
d="M233 2v239l-213 459h204l103 -259l103 259h205l-215 -459v-239h-187z" />
    <glyph glyph-name="Z" unicode="Z" horiz-adv-x="599" 
d="M44 0v170l303 369h-303v161h511v-170l-305 -369h305v-161h-511z" />
    <glyph glyph-name="bracketleft" unicode="[" horiz-adv-x="348" 
d="M30 -164v982h263v-161h-75v-660h75v-161h-263z" />
    <glyph glyph-name="backslash" unicode="\" horiz-adv-x="470" 
d="M462 0h-188l-254 700h188z" />
    <glyph glyph-name="bracketright" unicode="]" horiz-adv-x="323" 
d="M293 817v-982h-263v161h75v660h-75v161h263z" />
    <glyph glyph-name="underscore" unicode="_" horiz-adv-x="451" 
d="M8 0v140h435v-140h-435z" />
    <glyph glyph-name="a" unicode="a" horiz-adv-x="605" 
d="M302 528q104 0 176 -50.5t72 -122.5v-355h-188v63q-30 -71 -131 -71q-82 0 -129 37.5t-47 109.5q0 76 53.5 117t155.5 41h98v23q0 21 -15.5 34t-41.5 13q-24 0 -39.5 -10t-16.5 -25l-188 24q1 73 69.5 122.5t171.5 49.5zM289 122q32 0 52.5 17t20.5 46v18h-55
q-63 0 -63 -41q0 -18 11.5 -29t33.5 -11z" />
    <glyph glyph-name="b" unicode="b" horiz-adv-x="573" 
d="M339 529q179 0 179 -189v-161q0 -189 -178 -189q-58 0 -97 34v-24h-188v700h188v-205q39 34 96 34zM338 179v161q0 24 -13.5 40t-34.5 16q-23 0 -35 -15.5t-12 -40.5v-161q0 -55 47 -55q21 0 34.5 15t13.5 40z" />
    <glyph glyph-name="c" unicode="c" horiz-adv-x="597" 
d="M304 -8q-85 0 -148 41.5t-92 115.5q-20 51 -20 114q0 62 20 113q28 71 92 111.5t148 40.5q85 0 150.5 -42.5t88.5 -106.5q10 -27 10 -52l-184 -29q-3 19 -6 29q-5 17 -21.5 28.5t-38.5 11.5q-41 0 -57 -36q-12 -25 -12 -69q0 -41 11 -69q17 -40 58 -40q44 0 60 46
q2 5 3 20l185 -30q0 -22 -8 -45q-26 -73 -90.5 -112.5t-148.5 -39.5z" />
    <glyph glyph-name="d" unicode="d" horiz-adv-x="589" 
d="M346 700h188v-700h-188v40q-44 -50 -112 -50q-179 0 -179 189v161q0 189 178 189q70 0 113 -51v222zM330 179v161q0 55 -47 55q-21 0 -34.5 -15t-13.5 -40v-161q0 -24 13.5 -40t34.5 -16q23 0 35 15.5t12 40.5z" />
    <glyph glyph-name="e" unicode="e" horiz-adv-x="595" 
d="M540 317v-104h-318q0 -25 20.5 -45.5t52.5 -20.5q27 0 45.5 14.5t24.5 35.5l163 -35q-12 -73 -75.5 -121.5t-157.5 -48.5q-98 0 -169 56.5t-71 157.5v111q0 93 66 154.5t172 61.5q104 0 175.5 -62.5t71.5 -153.5zM293 375q-31 0 -50.5 -17.5t-20.5 -45.5h143
q-1 27 -22 45t-50 18z" />
    <glyph glyph-name="f" unicode="f" horiz-adv-x="393" 
d="M316 575q-20 -2 -28.5 -10.5t-8.5 -25.5v-88h94v-140h-94v-311h-188v311h-71v140h71v105q0 84 51.5 117t173.5 27h57v-125h-57z" />
    <glyph glyph-name="g" unicode="g" horiz-adv-x="573" 
d="M330 520h188v-452q0 -76 -27 -131t-69 -82.5t-98 -40t-108.5 -11t-106.5 12.5l8 166q62 -21 121.5 -14t80.5 48q-35 -26 -85 -26q-179 0 -179 189v161q0 189 178 189q58 0 97 -34v25zM283 123q23 0 35 15.5t12 40.5v161q0 55 -47 55q-21 0 -34.5 -15t-13.5 -40v-161
q0 -24 13.5 -40t34.5 -16z" />
    <glyph glyph-name="h" unicode="h" horiz-adv-x="573" 
d="M339 529q179 0 179 -189v-340h-180v340q0 24 -13.5 40t-34.5 16q-23 0 -35 -15.5t-12 -40.5v-340h-188v700h188v-205q39 34 96 34z" />
    <glyph glyph-name="i" unicode="i" horiz-adv-x="345" 
d="M176 556q-40 0 -67 27.5t-27 66.5q0 38 27 65t67 27q38 0 65 -27t27 -65q0 -39 -27 -66.5t-65 -27.5zM77 0v520h188v-520h-188z" />
    <glyph glyph-name="j" unicode="j" horiz-adv-x="344" 
d="M196 556q-40 0 -67 27.5t-27 66.5q0 38 27 65t67 27q38 0 65 -27t27 -65q0 -39 -27 -66.5t-65 -27.5zM-15 -207v157q71 -6 95 8t24 62l-3 500h188v-497q0 -99 -25.5 -148t-89 -67.5t-189.5 -14.5z" />
    <glyph glyph-name="k" unicode="k" horiz-adv-x="580" 
d="M55 0v700h188v-312l98 132h214l-144 -195l158 -325h-198l-89 211l-39 -65v-146h-188z" />
    <glyph glyph-name="l" unicode="l" horiz-adv-x="325" 
d="M243 161h60v-161h-248v700h188v-539z" />
    <glyph glyph-name="m" unicode="m" horiz-adv-x="848" 
d="M614 529q179 0 179 -189v-340h-180v340q0 24 -13.5 40t-34.5 16q-23 0 -35 -15.5t-12 -40.5v-340h-180v340q0 24 -13.5 40t-34.5 16q-23 0 -35 -15.5t-12 -40.5v-340h-188v520h188v-25q39 34 96 34q107 0 150 -68q44 68 125 68z" />
    <glyph glyph-name="n" unicode="n" horiz-adv-x="573" 
d="M339 529q179 0 179 -189v-340h-180v340q0 24 -13.5 40t-34.5 16q-23 0 -35 -15.5t-12 -40.5v-340h-188v520h188v-25q39 34 96 34z" />
    <glyph glyph-name="o" unicode="o" horiz-adv-x="592" 
d="M296 -10q-102 0 -171.5 58t-69.5 140v147q0 81 71 137.5t170 56.5q100 0 170.5 -56.5t70.5 -137.5v-147q0 -83 -69 -140.5t-172 -57.5zM296 138q32 0 46.5 18.5t14.5 43.5v122q0 21 -16 38.5t-45 17.5q-27 0 -44 -17.5t-17 -38.5v-122q0 -24 15 -43t46 -19z" />
    <glyph glyph-name="p" unicode="p" horiz-adv-x="572" 
d="M338 529q179 0 179 -189v-161q0 -189 -178 -189q-57 0 -96 34v-231h-188v737h188v-34q39 33 95 33zM337 179v161q0 24 -13.5 40t-34.5 16q-39 0 -46 -43v-188q6 -41 46 -41q21 0 34.5 15t13.5 40z" />
    <glyph glyph-name="q" unicode="q" horiz-adv-x="573" 
d="M330 530h188v-737h-188v231q-39 -34 -96 -34q-179 0 -179 189v161q0 189 178 189q58 0 97 -34v35zM283 123q23 0 35 15.5t12 40.5v161q0 55 -47 55q-21 0 -34.5 -15t-13.5 -40v-161q0 -24 13.5 -40t34.5 -16z" />
    <glyph glyph-name="r" unicode="r" horiz-adv-x="452" 
d="M369 519q43 0 63 -20l-29 -174q-7 6 -28 8.5t-47 -1.5q-26 -5 -44.5 -21.5t-18.5 -44.5v-266h-188v520h188v-72q40 71 104 71z" />
    <glyph glyph-name="s" unicode="s" horiz-adv-x="584" 
d="M292 -8q-108 0 -172 49.5t-64 129.5v6h172v-11q0 -16 17.5 -26t45.5 -10q49 0 49 25q0 17 -29 23.5t-81.5 15t-88.5 26.5q-86 42 -86 132q0 81 63 128.5t166 47.5q106 0 169.5 -49.5t63.5 -131.5v-11h-175v11q0 17 -15 26.5t-40 9.5q-23 0 -37.5 -7.5t-14.5 -20.5
q0 -17 25 -24t74.5 -14t83.5 -18q111 -39 111 -140q0 -82 -64 -124.5t-173 -42.5z" />
    <glyph glyph-name="t" unicode="t" horiz-adv-x="397" 
d="M377 370h-103v-162q0 -50 36 -50h52v-158q-64 -4 -90 -4q-91 0 -134 28t-44 106v240h-74v140h74v150h180v-150h103v-140z" />
    <glyph glyph-name="u" unicode="u" horiz-adv-x="573" 
d="M330 520h188v-520h-188v25q-39 -34 -96 -34q-179 0 -179 189v340h180v-340q0 -24 13.5 -40t34.5 -16q23 0 35 15.5t12 40.5v340z" />
    <glyph glyph-name="v" unicode="v" horiz-adv-x="570" 
d="M184 0l-162 520h202l61 -313l62 313h201l-161 -520h-203z" />
    <glyph glyph-name="w" unicode="w" horiz-adv-x="859" 
d="M636 520h201l-161 -520h-178l-68 234l-69 -234h-178l-161 520h201l62 -313l61 313h167l61 -313z" />
    <glyph glyph-name="x" unicode="x" horiz-adv-x="604" 
d="M22 0l170 260l-170 260h202l72 -117l72 117h214l-170 -260l170 -260h-202l-72 117l-72 -117h-214z" />
    <glyph glyph-name="y" unicode="y" horiz-adv-x="560" 
d="M50 -207v157h11q68 0 95.5 8.5t29.5 36.5l-164 525h200l60 -295l60 295h196l-169 -527q-20 -58 -37.5 -90.5t-51 -60t-85 -38.5t-131.5 -11h-14z" />
    <glyph glyph-name="z" unicode="z" horiz-adv-x="541" 
d="M55 0v170l200 180h-193v170h416v-170l-209 -180h217v-170h-431z" />
    <glyph glyph-name="braceleft" unicode="{" horiz-adv-x="417" 
d="M244 -164q-64 0 -102 35.5t-38 94.5v200q0 90 -74 90v146q74 0 74 89v197q0 59 38 94.5t102 35.5h118v-161h-26q-17 0 -30.5 -17t-13.5 -39v-139q0 -104 -67 -133q67 -29 67 -134v-142q0 -22 13.5 -39t30.5 -17h26v-161h-118z" />
    <glyph glyph-name="bar" unicode="|" horiz-adv-x="371" 
d="M100 -106v806h171v-806h-171z" />
    <glyph glyph-name="braceright" unicode="}" horiz-adv-x="417" 
d="M173 -164h-118v161h26q17 0 30.5 17t13.5 39v142q0 105 67 134q-67 29 -67 133v139q0 22 -13.5 39t-30.5 17h-26v161h118q64 0 102 -35.5t38 -94.5v-197q0 -89 74 -89v-146q-74 0 -74 -90v-200q0 -59 -38 -94.5t-102 -35.5z" />
    <glyph glyph-name="uni00A0" unicode="&#xa0;" horiz-adv-x="200" 
 />
    <glyph glyph-name="guillemotleft" unicode="&#xab;" horiz-adv-x="498" 
d="M225 403q-52 -49 -52 -121q0 -68 48 -118l-100 -98q-88 91 -88 216q0 62 25 121t71 102zM454 403q-52 -49 -52 -121q0 -68 48 -118l-100 -98q-88 91 -88 216q0 62 25 121t71 102z" />
    <glyph glyph-name="guillemotright" unicode="&#xbb;" horiz-adv-x="498" 
d="M44 403l96 102q46 -43 71 -102t25 -121q0 -125 -88 -216l-100 98q48 50 48 118q0 72 -52 121zM273 403l96 102q46 -43 71 -102t25 -121q0 -125 -88 -216l-100 98q48 50 48 118q0 72 -52 121z" />
    <glyph glyph-name="multiply" unicode="&#xd7;" horiz-adv-x="428" 
d="M405 395l-92 -92l92 -92l-99 -99l-92 92l-92 -92l-99 99l92 92l-92 92l99 99l92 -92l92 92z" />
    <glyph glyph-name="divide" unicode="&#xf7;" horiz-adv-x="439" 
d="M220 408q-40 0 -67 27.5t-27 66.5q0 38 27 65t67 27q38 0 65 -27t27 -65q0 -39 -27 -66.5t-65 -27.5zM20 233v138h399v-138h-399zM220 12q-40 0 -67 27.5t-27 66.5q0 38 27 65t67 27q38 0 65 -27t27 -65q0 -39 -27 -66.5t-65 -27.5z" />
    <glyph glyph-name="uni060C" unicode="&#x60c;" horiz-adv-x="367" 
d="M211 182q28 -9 46.5 -33.5t18.5 -54.5q0 -39 -27 -66.5t-65 -27.5q-40 0 -67 27.5t-27 66.5q0 24 13 47l83 172l72 -34z" />
    <glyph glyph-name="uni061B" unicode="&#x61b;" horiz-adv-x="367" 
d="M184 276q-40 0 -67 27.5t-27 66.5q0 24 13 47l83 172l72 -34l-47 -97q28 -9 46.5 -33.5t18.5 -54.5q0 -39 -27 -66.5t-65 -27.5zM184 186q38 0 65 -27t27 -65q0 -39 -27 -66.5t-65 -27.5q-40 0 -67 27.5t-27 66.5q0 38 27 65t67 27z" />
    <glyph glyph-name="uni061F" unicode="&#x61f;" horiz-adv-x="562" 
d="M364 215h-160v28q-1 23 -6.5 31.5t-39.5 35.5q-64 51 -86 85t-22 89q0 99 67 169t164 70q96 0 163.5 -71t67.5 -170v-40h-160v40q0 25 -20.5 43t-50.5 18t-50.5 -17.5t-20.5 -41.5q0 -21 16 -38.5t51 -39.5l37.5 -25t23.5 -20t15.5 -18.5t6.5 -24t4 -31v-44.5v-28z
M283 -36q-40 0 -67 27.5t-27 66.5q0 38 27 65t67 27q38 0 65 -27t27 -65q0 -39 -27 -66.5t-65 -27.5z" />
    <glyph glyph-name="uni0640" unicode="&#x640;" horiz-adv-x="300" 
d="M-5 0v180h310v-180h-310z" />
    <glyph glyph-name="uni064B" unicode="&#x64b;" 
d="M19 557l-19 87l241 58l19 -87zM19 416l-19 87l241 58l19 -87z" />
    <glyph glyph-name="uni064C" unicode="&#x64c;" 
d="M390 711q10 -54 -19.5 -94.5t-89.5 -55.5l-230 -56l-17 77l9 2q22 8 31.5 24.5t4.5 33.5q-6 18 -23 26t-41 1l-15 69q56 15 96 -11t49 -70q4 -22 0 -43l32 9l-12 49q-11 47 10.5 83.5t69.5 47.5q53 13 94.5 -14t50.5 -78zM261 647q28 8 42 19.5t12 26.5q-6 38 -50 28
q-30 -7 -24 -31l11 -45z" />
    <glyph glyph-name="uni064D" unicode="&#x64d;" 
d="M19 -382l-19 87l241 58l19 -87zM19 -523l-19 87l241 58l19 -87z" />
    <glyph glyph-name="uni064E" unicode="&#x64e;" 
d="M19 500l-19 87l241 58l19 -87z" />
    <glyph glyph-name="uni064F" unicode="&#x64f;" 
d="M307 692q10 -53 -21.5 -94t-92.5 -56l-174 -42l-19 87l79 19l-12 47q-11 46 13 83t73 48q54 13 99.5 -14.5t54.5 -77.5zM173 628q27 7 39.5 19t10.5 27q-6 38 -50 28q-30 -7 -24 -31l11 -46z" />
    <glyph glyph-name="uni0650" unicode="&#x650;" 
d="M19 -401l-19 87l241 58l19 -87z" />
    <glyph glyph-name="uni0651" unicode="&#x651;" 
d="M4 623l15 60l67 -19l-11 -53q-2 -9 2 -15t20 -6q8 0 13 2t6 4l2 2l3 70h65l3 -70q4 -8 21 -8q16 0 20.5 5t2.5 12l-17 73l69 21l22 -77q14 -49 -15.5 -86.5t-81.5 -37.5q-37 0 -56 19q-22 -19 -57 -19q-49 0 -78 37t-15 86z" />
    <glyph glyph-name="uni0652" unicode="&#x652;" 
d="M137 500q-56 0 -96.5 41t-40.5 99q0 57 40.5 98t96.5 41t96 -41t40 -98q0 -58 -40 -99t-96 -41zM137 586q23 0 39.5 16t16.5 38t-16.5 37.5t-39.5 15.5t-40 -15.5t-17 -37.5q0 -23 16.5 -38.5t40.5 -15.5z" />
    <glyph glyph-name="uni0653" unicode="&#x653;" 
d="M0 585v27q0 53 35.5 82.5t88.5 19.5l101 -19q30 -5 30 14v3l80 6v-27q0 -53 -35.5 -82.5t-88.5 -19.5l-101 19q-30 5 -30 -14v-3z" />
    <glyph glyph-name="uni0654" unicode="&#x654;" 
d="M304 563l-113 -27q-1 0 -5 -1t-5 -1l-162 -38l-19 86l64 15q-6 10 -11 30q-15 61 24.5 108t100.5 41l79 -13l-15 -86q-8 1 -19.5 3t-34.5 4.5t-31 0.5q-16 -4 -24.5 -14.5t-4.5 -24.5q3 -11 15.5 -18t25.5 -6l116 28z" />
    <glyph glyph-name="uni0655" unicode="&#x655;" 
d="M304 -373l-113 -27q-1 0 -5 -1t-5 -1l-162 -38l-19 86l64 15q-6 10 -11 30q-15 61 24.5 108t100.5 41l79 -13l-15 -86q-8 1 -19.5 3t-34.5 4.5t-31 0.5q-16 -4 -24.5 -14.5t-4.5 -24.5q3 -11 15.5 -18t25.5 -6l116 28z" />
    <glyph glyph-name="uni0656" unicode="&#x656;" 
d="M2 -400v162h75v-162h-75z" />
    <glyph glyph-name="uni0660" unicode="&#x660;" horiz-adv-x="424" 
d="M212 96l-142 142l142 142l142 -142z" />
    <glyph glyph-name="uni0661" unicode="&#x661;" horiz-adv-x="394" 
d="M164 -9l-64 655l160 18l64 -655z" />
    <glyph glyph-name="uni0662" unicode="&#x662;" horiz-adv-x="643" 
d="M562 501q9 -87 -51.5 -153t-148.5 -66h-19q-23 0 -46 6l27 -275l-160 -18l-64 656l160 18l17 -177q4 -19 12 -24.5t28 -5.5h45q43 0 40 24l-17 165l160 18z" />
    <glyph glyph-name="uni0663" unicode="&#x663;" horiz-adv-x="874" 
d="M793 493q8 -87 -53 -151t-147 -64h-11q-65 0 -118 43q-54 -43 -122 -43h-18q-10 0 -26 2l26 -271l-160 -18l-64 655l160 18l16 -165q5 -41 41 -41h25q17 0 29 7t11 19v1l-14 138l160 18l14 -147q3 -36 40 -36h11q17 0 29 8t11 19l-16 161l160 18z" />
    <glyph glyph-name="uni0664" unicode="&#x664;" horiz-adv-x="565" 
d="M303 180h182v-180h-186q-83 0 -141 61t-58 146q0 123 118 188q-72 57 -72 152q0 73 42 124t119 74l127 38l46 -172l-127 -37q-47 -14 -47 -32q0 -11 11 -17t46 -17l112 -33l3 -170l-142 -43q-44 -14 -59.5 -24t-16.5 -26q-1 -17 10.5 -24.5t32.5 -7.5z" />
    <glyph glyph-name="uni0665" unicode="&#x665;" horiz-adv-x="761" 
d="M351 -10q-148 0 -211.5 94t-25.5 256q25 110 61.5 176t92.5 90q45 21 95 13t98 -31t90.5 -64.5t73.5 -88.5t46 -103t8 -107q-31 -235 -328 -235zM351 170q85 0 125 19t45 60q5 36 -30.5 87t-83.5 83.5t-75 20.5q-33 -13 -62 -140q-18 -82 -2.5 -106t83.5 -24z" />
    <glyph glyph-name="uni0666" unicode="&#x666;" horiz-adv-x="639" 
d="M399 -9l-42 484q-194 -14 -317 25l50 172q54 -18 136 -20.5t136 3.5l55 6l91 -80l51 -572z" />
    <glyph glyph-name="uni0667" unicode="&#x667;" horiz-adv-x="755" 
d="M525 664l150 -60l-223 -612h-150l-222 612l150 60l147 -408z" />
    <glyph glyph-name="uni0668" unicode="&#x668;" horiz-adv-x="755" 
d="M230 -15l-150 60l223 616h150l222 -616l-150 -60l-147 408z" />
    <glyph glyph-name="uni0669" unicode="&#x669;" horiz-adv-x="678" 
d="M598 10l-160 -18l-25 228h-89q-94 0 -159 66t-65 162t65 164t159 68q88 0 150.5 -63t73.5 -159zM324 394h69l-5 46q-3 28 -20.5 46t-43.5 18q-28 0 -46 -16.5t-18 -39.5q0 -22 18.5 -38t45.5 -16z" />
    <glyph glyph-name="uni066A" unicode="&#x66a;" horiz-adv-x="591" 
d="M114 514q-40 0 -67 27.5t-27 66.5q0 38 27 65t67 27q38 0 65 -27t27 -65q0 -39 -27 -66.5t-65 -27.5zM73 0l254 700h188l-254 -700h-188zM479 0q-40 0 -67 27.5t-27 66.5q0 38 27 65t67 27q38 0 65 -27t27 -65q0 -39 -27 -66.5t-65 -27.5z" />
    <glyph glyph-name="uni066B" unicode="&#x66b;" horiz-adv-x="426" 
d="M150 -122l-110 48l216 536l110 -48z" />
    <glyph glyph-name="uni066C" unicode="&#x66c;" horiz-adv-x="338" 
d="M184 -136l-114 40l84 238l114 -40z" />
    <glyph glyph-name="uni066D" unicode="&#x66d;" horiz-adv-x="528" 
d="M478 399l-84 -27l52 -72l-130 -94l-52 72l-52 -72l-130 94l52 72l-84 27l50 152l84 -27v89h160v-89l84 27z" />
    <glyph glyph-name="uni066E" unicode="&#x66e;" horiz-adv-x="1002" 
d="M941 303q25 -91 -3.5 -165t-103.5 -107q-47 -21 -107 -26t-225 -5q-163 0 -224.5 5.5t-108.5 25.5q-74 32 -103 103.5t-6 158.5l39 148l154 -46l-40 -156q-5 -21 -1.5 -28.5t21.5 -15.5q36 -15 269 -15q230 0 268 16q21 9 23.5 18t-6.5 43l-38 139l154 46z" />
    <glyph glyph-name="uni066F" unicode="&#x66f;" horiz-adv-x="795" 
d="M432 -236q-76 -19 -138 -9t-110.5 38.5t-80 79t-45 113t-5.5 141t37 163.5l152 -60q-57 -164 -15 -241.5t169 -48.5q97 20 141.5 34.5t44.5 33.5v7q-43 -5 -89 -5q-86 0 -143.5 56t-65.5 146q-8 103 51.5 182t153.5 83q95 4 159.5 -65t76.5 -182l17 -162q8 -71 -4.5 -119
t-52 -83t-98.5 -57.5t-155 -44.5zM493 190q40 0 75 5l-1 13q-4 45 -22.5 67.5t-47.5 21.5q-26 -1 -40.5 -21t-12.5 -50q3 -36 49 -36z" />
    <glyph glyph-name="uni0670" unicode="&#x670;" 
d="M2 500v162h75v-162h-75z" />
    <glyph glyph-name="uni06A1" unicode="&#x6a1;" horiz-adv-x="1011" 
d="M960 218q7 -109 -57.5 -163.5t-225.5 -54.5h-180q-160 0 -221 5.5t-107 25.5q-74 32 -103 103.5t-6 158.5l39 148l154 -46l-40 -156q-5 -21 -1.5 -28.5t21.5 -15.5q36 -15 269 -15h177q89 0 109.5 5.5t17.5 31.5q-44 -2 -84 -2q-88 0 -140.5 49.5t-52.5 137.5
q0 103 48.5 170t140.5 74q94 7 158 -57.5t71 -172.5zM674 416q3 -35 48 -35q34 0 72 2l-2 20q-4 41 -21 62t-45 20q-25 -1 -39.5 -20.5t-12.5 -48.5z" />
    <glyph glyph-name="uni06BA" unicode="&#x6ba;" horiz-adv-x="757" 
d="M432 -236q-76 -19 -138 -9t-110.5 38.5t-80 79t-45 113t-5.5 141t37 163.5l152 -60q-57 -164 -15 -241.5t169 -48.5q106 24 131 42t18 68l-41 275l158 26q34 -226 41 -276q18 -133 -46 -203.5t-225 -107.5z" />
    <glyph glyph-name="uni06F0" unicode="&#x6f0;" horiz-adv-x="594" 
d="M514 231q0 -89 -60.5 -153t-146.5 -64t-146.5 64t-60.5 153t60.5 153t146.5 64t146.5 -64t60.5 -153zM364 231q0 20 -17 34t-40 14t-40 -14t-17 -34q0 -21 17 -34.5t40 -13.5t40 13.5t17 34.5z" />
    <glyph glyph-name="uni06F1" unicode="&#x6f1;" horiz-adv-x="394" 
d="M164 -9l-64 655l160 18l64 -655z" />
    <glyph glyph-name="uni06F2" unicode="&#x6f2;" horiz-adv-x="643" 
d="M562 501q9 -87 -51.5 -153t-148.5 -66h-19q-23 0 -46 6l27 -275l-160 -18l-64 656l160 18l17 -177q4 -19 12 -24.5t28 -5.5h45q43 0 40 24l-17 165l160 18z" />
    <glyph glyph-name="uni06F3" unicode="&#x6f3;" horiz-adv-x="874" 
d="M793 493q8 -87 -53 -151t-147 -64h-11q-65 0 -118 43q-54 -43 -122 -43h-18q-10 0 -26 2l26 -271l-160 -18l-64 655l160 18l16 -165q5 -41 41 -41h25q17 0 29 7t11 19v1l-14 138l160 18l14 -147q3 -36 40 -36h11q17 0 29 8t11 19l-16 161l160 18z" />
    <glyph glyph-name="uni06F4" unicode="&#x6f4;" horiz-adv-x="773" 
d="M496 458h192v-180h-372q-13 0 -19 1l26 -270l-160 -18l-46 482q-1 2 -1 7l-16 167l160 18l17 -176q4 -27 21 -30q-5 27 -5 50q0 96 66.5 163.5t159.5 67.5q62 0 174 -56l-71 -160q-65 25 -103 36q-27 8 -46.5 -9.5t-19.5 -41.5q0 -21 12.5 -36t30.5 -15z" />
    <glyph glyph-name="uni06F5" unicode="&#x6f5;" horiz-adv-x="828" 
d="M412 771q69 -77 103.5 -115t78 -89.5t61 -74.5t40.5 -59.5t29 -55t14 -50t9 -57t1 -64.5q0 -86 -56.5 -146t-139.5 -60h-11q-66 0 -117 40q-51 -40 -117 -40h-11q-83 0 -139.5 60t-56.5 146q0 90 14 142.5t55.5 112.5t141.5 171q-3 3 -8.5 9.5t-8.5 9.5zM552 180
q17 0 26.5 7.5t9.5 18.5q0 79 -25.5 126.5t-138.5 174.5q-116 -129 -140 -172.5t-24 -128.5q0 -11 9.5 -18.5t26.5 -7.5h11q16 0 26.5 8t10.5 18v61h160v-53q3 -34 37 -34h11z" />
    <glyph glyph-name="uni06F6" unicode="&#x6f6;" horiz-adv-x="682" 
d="M504 344h1l-11 -15l-256 -379l-132 100l140 208q-26 11 -43 22q-80 50 -99 148.5t35 176.5q12 17 48 46.5t66 50.5l30 21l80 -156q-80 -46 -92 -63q-27 -41 13 -69q19 -16 47.5 -12t41.5 23l97 143l132 -100z" />
    <glyph glyph-name="uni06F7" unicode="&#x6f7;" horiz-adv-x="755" 
d="M525 664l150 -60l-223 -612h-150l-222 612l150 60l147 -408z" />
    <glyph glyph-name="uni06F8" unicode="&#x6f8;" horiz-adv-x="755" 
d="M230 -15l-150 60l223 616h150l222 -616l-150 -60l-147 408z" />
    <glyph glyph-name="uni06F9" unicode="&#x6f9;" horiz-adv-x="678" 
d="M598 10l-160 -18l-25 228h-89q-94 0 -159 66t-65 162t65 164t159 68q88 0 150.5 -63t73.5 -159zM324 394h69l-5 46q-3 28 -20.5 46t-43.5 18q-28 0 -46 -16.5t-18 -39.5q0 -22 18.5 -38t45.5 -16z" />
    <glyph glyph-name="uni2009" unicode="&#x2009;" horiz-adv-x="150" 
 />
    <glyph glyph-name="uni200A" unicode="&#x200a;" horiz-adv-x="75" 
 />
    <glyph glyph-name="uni200B" unicode="&#x200b;" 
 />
    <glyph glyph-name="uni200C" unicode="&#x200c;" 
 />
    <glyph glyph-name="uni200D" unicode="&#x200d;" 
 />
    <glyph glyph-name="uni200E" unicode="&#x200e;" 
 />
    <glyph glyph-name="uni200F" unicode="&#x200f;" 
 />
    <glyph glyph-name="quoteleft" unicode="&#x2018;" horiz-adv-x="233" 
d="M209 811l-17 -271h-168l63 271h122z" />
    <glyph glyph-name="quoteright" unicode="&#x2019;" horiz-adv-x="233" 
d="M24 541l17 271h168l-63 -271h-122z" />
    <glyph glyph-name="quotedblleft" unicode="&#x201c;" horiz-adv-x="466" 
d="M209 811l-17 -271h-168l63 271h122zM442 811l-17 -271h-168l63 271h122z" />
    <glyph glyph-name="quotedblright" unicode="&#x201d;" horiz-adv-x="466" 
d="M24 541l17 271h168l-63 -271h-122zM257 541l17 271h168l-63 -271h-122z" />
    <glyph glyph-name="quotedblbase" unicode="&#x201e;" horiz-adv-x="466" 
d="M24 -111l17 271h168l-63 -271h-122zM257 -111l17 271h168l-63 -271h-122z" />
    <glyph glyph-name="guilsinglleft" unicode="&#x2039;" horiz-adv-x="279" 
d="M229 403q-52 -49 -52 -121q0 -68 48 -118l-100 -98q-88 91 -88 216q0 62 25 121t71 102z" />
    <glyph glyph-name="guilsinglright" unicode="&#x203a;" horiz-adv-x="279" 
d="M50 403l96 102q46 -43 71 -102t25 -121q0 -125 -88 -216l-100 98q48 50 48 118q0 72 -52 121z" />
    <glyph glyph-name="minus" unicode="&#x2212;" horiz-adv-x="439" 
d="M20 233v138h399v-138h-399z" />
    <glyph glyph-name="notequal" unicode="&#x2260;" horiz-adv-x="439" 
d="M419 334h-123l-22 -63h145v-138h-195l-28 -76h-134l28 76h-70v138h120l22 63h-142v138h193l30 84h134l-30 -84h72v-138z" />
    <glyph glyph-name="dotabove-ar" unicode="&#xfbb2;" 
d="M107 340l-107 107l107 107l107 -107z" />
    <glyph glyph-name="dotbelow-ar" unicode="&#xfbb3;" 
d="M107 -263l-107 107l107 107l107 -107z" />
    <glyph glyph-name="twodotshorizontalabove-ar" unicode="&#xfbb4;" 
d="M94 459l-94 94l94 95l95 -95zM311 459l-94 94l94 95l95 -95z" />
    <glyph glyph-name="twodotshorizontalbelow-ar" unicode="&#xfbb5;" 
d="M94 -233l-94 94l94 95l95 -95zM311 -233l-94 94l94 95l95 -95z" />
    <glyph glyph-name="threedotsupabove-ar" unicode="&#xfbb6;" 
d="M203 638l-76 76l76 75l75 -75zM94 459l-94 94l94 95l95 -95zM310 459l-94 94l94 95l95 -95z" />
    <glyph glyph-name="threedotsdownbelow-ar" unicode="&#xfbb9;" 
d="M94 -253l-94 94l94 95l95 -95zM310 -253l-94 94l94 95l95 -95zM203 -394l-76 76l76 75l75 -75z" />
    <glyph glyph-name="uniFD3E" unicode="&#xfd3e;" horiz-adv-x="418" 
d="M363 -124l-114 -126q-94 96 -146.5 226t-52.5 269q0 141 53.5 272t150.5 229l114 -128q-158 -156 -158 -373q0 -213 153 -369z" />
    <glyph glyph-name="uniFD3F" unicode="&#xfd3f;" horiz-adv-x="418" 
d="M55 -124q153 156 153 369q0 217 -158 373l114 128q97 -98 150.5 -229t53.5 -272q0 -139 -52.5 -269t-146.5 -226z" />
    <glyph glyph-name="uniFEFF" unicode="&#xfeff;" 
 />
    <glyph glyph-name="b.bowl" horiz-adv-x="335" 
d="M157 -10q-72 0 -114.5 52.5t-42.5 136.5v161q0 84 42 136.5t114 52.5q179 0 179 -189v-161q0 -189 -178 -189zM107 124q21 0 34.5 15t13.5 40v161q0 24 -13.5 40t-34.5 16q-23 0 -35 -15.5t-12 -40.5v-161q0 -55 47 -55z" />
    <glyph glyph-name="d.bowl" horiz-adv-x="335" 
d="M178 529q72 0 114.5 -52.5t42.5 -136.5v-161q0 -84 -42 -136.5t-114 -52.5q-179 0 -179 189v161q0 189 178 189zM228 395q-21 0 -34.5 -15t-13.5 -40v-161q0 -24 13.5 -40t34.5 -16q23 0 35 15.5t12 40.5v161q0 55 -47 55z" />
    <glyph glyph-name="n.curve" horiz-adv-x="335" 
d="M155 0v340q0 24 -13.5 40t-34.5 16q-23 0 -35 -15.5t-12 -40.5v-61h-60v61q0 84 42 136.5t114 52.5q179 0 179 -189v-340h-180z" />
    <glyph glyph-name="uni0627.001" horiz-adv-x="187" 
d="M21 162l-21 544l160 8l18 -477z" />
    <glyph glyph-name="uni0627.002" horiz-adv-x="333" 
d="M103 -5l-23 612l160 8l23 -613z" />
    <glyph glyph-name="uniFE8E.001" horiz-adv-x="291" 
d="M286 0q-114 0 -163.5 56t-54.5 190l-14 361l160 8l14 -369q2 -50 8.5 -58t49.5 -8h10v-180h-10z" />
    <glyph glyph-name="uniFE8E.002" horiz-adv-x="343" 
d="M135 220l-85 421l157 32l85 -421zM108 0v180h240v-180h-240z" />
    <glyph glyph-name="uni066E.001" horiz-adv-x="500" 
d="M0 0v180q230 0 268 16q21 9 23.5 18t-6.5 43l-38 139l154 46l38 -139q25 -91 -3.5 -165t-103.5 -107q-47 -21 -107 -26t-225 -5z" />
    <glyph glyph-name="uni066E.fina.001" horiz-adv-x="502" 
d="M502 0q-163 0 -224.5 5.5t-108.5 25.5q-74 32 -103 103.5t-6 158.5l39 148l154 -46l-40 -156q-5 -21 -1.5 -28.5t21.5 -15.5q36 -15 269 -15v-180z" />
    <glyph glyph-name="uni066E.fina.001.003" horiz-adv-x="504" 
d="M259 0q-101 4 -159 64t-49 157l11 123l160 -16l-11 -123q-2 -14 6.5 -19t41.5 -6h245v-180h-245z" />
    <glyph glyph-name="uni066E.fina.002" horiz-adv-x="492" 
d="M497 180v-180q-77 0 -127 36q-53 -36 -129 -36h-241v180h241q31 0 40 4.5t8 17.5v3l-11 123l160 16l11 -123v-3q2 -25 10 -31.5t38 -6.5z" />
    <glyph glyph-name="uni066E.medi.001" horiz-adv-x="438" 
d="M443 180v-180q-77 0 -127 36q-53 -36 -129 -36h-192v180h192q32 0 41 5t7 20l-11 123l160 16l11 -123q0 -5 1 -8q2 -22 10 -27.5t37 -5.5z" />
    <glyph glyph-name="uni066E.init.001" horiz-adv-x="430" 
d="M-5 0v180h157q47 0 59.5 14t1.5 53l-39 149l154 46l42 -158q32 -120 -31 -202t-187 -82h-157z" />
    <glyph glyph-name="uni066E.init.002" horiz-adv-x="351" 
d="M96 396l154 46l40 -149q34 -125 -28 -209t-188 -84h-79v180h79q48 0 60.5 13.5t1.5 53.5z" />
    <glyph glyph-name="uniFE92.alt" horiz-adv-x="309" 
d="M314 180v-180q-78 0 -127 36q-53 -36 -129 -36h-63v180h63q31 0 40 4.5t8 17.5v3l-11 123l160 16l11 -123v-3q2 -25 10 -31.5t38 -6.5zM-35 -150l107 107l107 -107l-107 -107z" />
    <glyph glyph-name="uniFE91.alt" horiz-adv-x="401" 
d="M340 293q34 -125 -28 -209t-188 -84h-129v180h129q48 0 60.5 13.5t1.5 53.5l-40 149l154 46zM64 -151l107 107l107 -107l-107 -107z" />
    <glyph glyph-name="uniFB59.alt" horiz-adv-x="438" 
d="M396 213q2 -22 10 -27.5t37 -5.5v-180q-77 0 -127 36q-53 -36 -129 -36h-192v180h192q32 0 41 5t7 20l-11 123l160 16l11 -123q0 -5 1 -8zM9 -53l95 -95l-95 -94l-94 94zM131 -148l94 95l95 -95l-95 -94zM42 -307l76 75l75 -75l-75 -76z" />
    <glyph glyph-name="uniFB58.alt" horiz-adv-x="480" 
d="M-5 0v180h207q47 0 59.5 14t1.5 53l-39 149l154 46l42 -158q32 -120 -31 -202t-187 -82h-207zM96 -56l95 -95l-95 -94l-94 94zM218 -151l94 95l95 -95l-95 -94zM129 -310l76 75l75 -75l-75 -76z" />
    <glyph glyph-name="uniFEA2.001" horiz-adv-x="747" 
d="M655 -99l42 -174l-259 -72q-128 -32 -235 29.5t-141 186.5q-37 135 33.5 245.5t218.5 150.5l169 42l-126 59q-29 15 -60.5 6.5t-48.5 -36.5l-17 -31l-140 88l20 36q56 93 144 119t180 -24l251 -141l-22 -207l-308 -85q-172 -46 -141 -170q14 -54 69 -81.5t119 -10.5z" />
    <glyph glyph-name="uniFEA2.002" horiz-adv-x="266" 
d="M229 0q-100 0 -164.5 73.5t-64.5 179.5h160q0 -32 17 -52.5t52 -20.5h37v-180h-37z" />
    <glyph glyph-name="uniFEAE.001" horiz-adv-x="199" 
d="M199 0q-88 0 -132 66t-67 228l150 24q9 -64 17 -95t14 -37t18 -6h5v-180h-5z" />
    <glyph glyph-name="uniFEBC.001" horiz-adv-x="13" 
d="M4 0q-42 0 -83 17t-61 33l-20 17l108 132q20 -19 56 -19h14v-180h-14z" />
    <glyph glyph-name="uniFEBC.002" horiz-adv-x="233" 
d="M223 206q-1 -17 1 -21.5t9 -4.5v-180q-60 0 -103 37q-53 -35 -130 -37h-5v180h5q32 0 46.5 7.5t16.5 32.5l11 124l160 -16z" />
    <glyph glyph-name="uniFEBC.003" horiz-adv-x="597" 
d="M324 467q95 0 159 -69.5t64 -171.5q0 -92 -66 -159t-157 -67h-325v125l-24 22l24 33l57 78q44 61 71 93.5t60 62.5t65 41.5t72 11.5zM324 180q24 0 43.5 15t19.5 31q0 28 -17 44.5t-46 16.5q-25 0 -48.5 -21t-70.5 -86h119z" />
    <glyph glyph-name="uniFEDC.001" horiz-adv-x="267" 
d="M258 0q-155 0 -258 221l121 77q40 -71 68 -94.5t69 -23.5h14v-180h-14z" />
    <glyph glyph-name="uniFEDB.001" horiz-adv-x="499" 
d="M220 528l140 -210q45 -68 50 -135t-28 -111q-51 -72 -162 -72h-225v180h227q15 0 20 5q9 9 -3 25l-219 310l36 136l362 133l56 -168z" />
    <glyph glyph-name="uniFEDE.001" horiz-adv-x="221" 
d="M206 0q-90 0 -145.5 59.5t-60.5 155.5l158 9q1 -26 11.5 -35t36.5 -9h20v-180h-20z" />
    <glyph glyph-name="uniFEE0.001" horiz-adv-x="289" 
d="M274 180h20v-180h-20q-71 0 -125 41q-54 -41 -131 -41h-23v180h23q30 0 39.5 6.5t8.5 23.5l-19 496l160 8l19 -490q1 -26 11.5 -35t36.5 -9z" />
    <glyph glyph-name="uniFEDF.001" horiz-adv-x="276" 
d="M-5 0v180h23q30 0 39.5 6.5t8.5 23.5l-19 496l160 8l19 -496q5 -96 -53.5 -157t-154.5 -61h-23z" />
    <glyph glyph-name="uniFEE4.001" horiz-adv-x="188" 
d="M193 0q-93 0 -143 63.5t-50 168.5h136q0 -52 57 -52v-180z" />
    <glyph glyph-name="uniFB9F.001" horiz-adv-x="242" 
d="M226 0q-83 0 -143 83.5t-82 241.5l157 25q12 -83 20.5 -118t16.5 -43.5t25 -8.5h27v-180h-21z" />
    <glyph glyph-name="uniFEF4.alt" horiz-adv-x="438" 
d="M443 180v-180q-77 0 -127 36q-53 -36 -129 -36h-192v180h192q32 0 41 5t7 20l-11 123l160 16l11 -123q0 -5 1 -8q2 -22 10 -27.5t37 -5.5zM-95 -152l94 95l95 -95l-95 -94zM122 -152l94 95l95 -95l-95 -94z" />
    <glyph glyph-name="uniFEF3.alt" horiz-adv-x="480" 
d="M420 284q32 -120 -31 -202t-187 -82h-207v180h207q47 0 59.5 14t1.5 53l-39 149l154 46zM-1 -150l94 95l95 -95l-95 -94zM216 -150l94 95l95 -95l-95 -94z" />
    <glyph glyph-name="uniFBFF.alt" horiz-adv-x="438" 
d="M443 180v-180q-77 0 -127 36q-53 -36 -129 -36h-192v180h192q32 0 41 5t7 20l-11 123l160 16l11 -123q0 -5 1 -8q2 -22 10 -27.5t37 -5.5zM-95 -152l94 95l95 -95l-95 -94zM122 -152l94 95l95 -95l-95 -94z" />
    <glyph glyph-name="uniFBFE.alt" horiz-adv-x="480" 
d="M420 284q32 -120 -31 -202t-187 -82h-207v180h207q47 0 59.5 14t1.5 53l-39 149l154 46zM-1 -150l94 95l95 -95l-95 -94zM216 -150l94 95l95 -95l-95 -94z" />
    <glyph glyph-name="uni0640.001" horiz-adv-x="160" 
d="M0 0v180h160v-180h-160z" />
    <glyph glyph-name="uni0640.002" horiz-adv-x="65" 
d="M0 0v180h70v-180h-70z" />
    <glyph glyph-name="uni0640.003" 
d="M-2 0v180h4v-180h-4z" />
    <glyph glyph-name="uni0640.004" horiz-adv-x="50" 
d="M-5 0v180h60v-180h-60z" />
    <glyph glyph-name="period.001" horiz-adv-x="367" 
d="M184 0q-40 0 -67 27.5t-27 66.5q0 38 27 65t67 27q38 0 65 -27t27 -65q0 -39 -27 -66.5t-65 -27.5z" />
    <glyph glyph-name="sareyaar" 
d="M19 479l-8 90l141 7l-55 9q-70 11 -88.5 40.5t5.5 94.5q22 57 66 78.5t99 4.5l38 -12l-24 -86l-38 12q-55 18 -71 -31q-2 -6 4 -9t27 -7q65 -13 88.5 -30.5t23.5 -62.5q0 -58 -40.5 -74.5t-167.5 -23.5z" />
    <glyph glyph-name="dotcenterar" 
d="M107 -135l-107 107l107 107l107 -107z" />
    <glyph glyph-name="threedotsdownbelowar.002" 
d="M76 -235l-76 76l76 75l75 -75zM254 -235l-76 76l76 75l75 -75zM165 -332l-76 76l76 75l75 -75z" />
    <glyph glyph-name="threedotsupabovear.001" 
d="M94 459l-94 94l94 95l95 -95z" />
    <glyph glyph-name="threedotsupabovear.002" 
d="M76 638l-76 76l76 75l75 -75z" />
    <glyph glyph-name="waslaar" 
d="M248 720q46 0 77 -33.5t31 -83.5q0 -44 -32.5 -77t-75.5 -33h-138q-11 0 -18 -6t-25 -29l-67 51q25 36 44.5 52t42.5 20l32 44q18 25 26 34.5t26 27.5t36.5 25.5t40.5 7.5zM248 583q31 0 31 25q0 12 -9 19t-22 7q-25 0 -58 -44l-5 -7h63z" />
    <glyph glyph-name="miniKehehar" 
d="M0 0v70h47q9 0 1 8l-42 42l14 58l98 33l22 -66l-45 -15l31 -33q27 -25 14 -61t-51 -36h-89z" />
    <glyph glyph-name="gafsarkashabovear" 
d="M31 514l-39 109l244 88l39 -109z" />
    <glyph glyph-name="uni0654064F" 
d="M18 807l-19 87l79 19l-12 47q-11 46 13 83t73 48q54 13 99.5 -14.5t54.5 -77.5q10 -53 -21.5 -94t-92.5 -56zM148 978l11 -46l13 3q27 7 39.5 19t10.5 27q-6 38 -50 28q-30 -7 -24 -31zM172 622l116 28l19 -87l-113 -27q-2 0 -5.5 -1t-4.5 -1l-162 -38l-19 86l64 15
q-6 10 -11 30q-15 61 24.5 108t100.5 41l79 -13l-15 -86q-8 1 -19.5 3t-34.5 4.5t-31 0.5q-16 -4 -24.5 -14.5t-4.5 -24.5q3 -11 15.5 -18t25.5 -6z" />
    <glyph glyph-name="uni0654064C" 
d="M415 1008q10 -54 -19.5 -94.5t-89.5 -55.5l-230 -56l-17 77l9 2q22 8 31.5 24.5t4.5 33.5q-6 18 -23 26t-41 1l-15 69q56 15 96 -11t49 -70q4 -22 0 -43l32 9l-12 49q-11 47 10.5 83.5t69.5 47.5q53 13 94.5 -14t50.5 -78zM286 944q28 8 42 19.5t12 26.5q-6 38 -50 28
q-30 -7 -24 -31l11 -45zM228 622l116 28l19 -87l-113 -27q-2 0 -5 -1t-5 -1l-162 -38l-19 86l64 15q-6 10 -11 30q-15 61 24.5 108t100.5 41l79 -13l-15 -86q-8 1 -19.5 3t-34.5 4.5t-31 0.5q-16 -4 -24.5 -14.5t-4.5 -24.5q3 -11 15.5 -18t25.5 -6z" />
    <glyph glyph-name="uni0654064E" 
d="M274 865l-241 -58l-19 87l241 58zM304 563l-113 -27q-1 0 -5 -1t-5 -1l-162 -38l-19 86l64 15q-6 10 -11 30q-15 61 24.5 108t100.5 41l79 -13l-15 -86q-8 1 -19.5 3t-34.5 4.5t-31 0.5q-16 -4 -24.5 -14.5t-4.5 -24.5q3 -11 15.5 -18t25.5 -6l116 28z" />
    <glyph glyph-name="uni0654064B" 
d="M282 994l-241 -58l-19 87l241 58zM282 853l-241 -58l-19 87l241 58zM304 563l-113 -27q-1 0 -5 -1t-5 -1l-162 -38l-19 86l64 15q-6 10 -11 30q-15 61 24.5 108t100.5 41l79 -13l-15 -86q-8 1 -19.5 3t-34.5 4.5t-31 0.5q-16 -4 -24.5 -14.5t-4.5 -24.5q3 -11 15.5 -18
t25.5 -6l116 28z" />
    <glyph glyph-name="uni06540652" 
d="M152 825q-56 0 -96.5 41t-40.5 99q0 57 40.5 98t96.5 41t96 -41t40 -98q0 -58 -40 -99t-96 -41zM152 1018q-23 0 -40 -15.5t-17 -37.5q0 -23 16.5 -38.5t40.5 -15.5q23 0 39.5 16t16.5 38t-16.5 37.5t-39.5 15.5zM304 563l-113 -27q-1 0 -5 -1t-5 -1l-162 -38l-19 86
l64 15q-6 10 -11 30q-15 61 24.5 108t100.5 41l79 -13l-15 -86q-8 1 -19.5 3t-34.5 4.5t-31 0.5q-16 -4 -24.5 -14.5t-4.5 -24.5q3 -11 15.5 -18t25.5 -6l116 28z" />
    <glyph glyph-name="uni06550650" 
d="M191 -400q-1 0 -5 -1t-5 -1l-162 -38l-19 86l64 15q-6 10 -11 30q-15 61 24.5 108t100.5 41l79 -13l-15 -86q-8 1 -19.5 3t-34.5 4.5t-31 0.5q-16 -4 -24.5 -14.5t-4.5 -24.5q3 -11 15.5 -18t25.5 -6l116 28l19 -87zM29 -504l241 58l19 -87l-241 -58z" />
    <glyph glyph-name="uni0655064D" 
d="M191 -400q-1 0 -5 -1t-5 -1l-162 -38l-19 86l64 15q-6 10 -11 30q-15 61 24.5 108t100.5 41l79 -13l-15 -86q-8 1 -19.5 3t-34.5 4.5t-31 0.5q-16 -4 -24.5 -14.5t-4.5 -24.5q3 -11 15.5 -18t25.5 -6l116 28l19 -87zM29 -489l241 58l19 -87l-241 -58zM29 -630l241 58
l19 -87l-241 -58z" />
    <glyph glyph-name="uni0653.001" 
d="M0 585v27q0 53 35.5 82.5t88.5 19.5l101 -19q30 -5 30 14v3l80 6v-27q0 -53 -35.5 -82.5t-88.5 -19.5l-101 19q-30 5 -30 -14v-3z" />
    <glyph glyph-name="uni06510670" 
d="M118 707v162h75v-162h-75zM4 623l15 60l67 -19l-11 -53q-2 -9 2 -15t20 -6q8 0 13 2t6 4l2 2l3 70h65l3 -70q4 -8 21 -8q16 0 20.5 5t2.5 12l-17 73l69 21l22 -77q14 -49 -15.5 -86.5t-81.5 -37.5q-37 0 -56 19q-22 -19 -57 -19q-49 0 -78 37t-15 86z" />
    <glyph glyph-name="uni0651064F" 
d="M16 738l-19 87l79 19l-12 47q-11 46 13 83t73 48q54 13 99.5 -14.5t54.5 -77.5q10 -53 -21.5 -94t-92.5 -56zM146 909l11 -46l13 3q27 7 39.5 19t10.5 27q-6 38 -50 28q-30 -7 -24 -31zM307 624q14 -49 -15.5 -86.5t-81.5 -37.5q-37 0 -56 19q-22 -19 -57 -19
q-49 0 -78 37t-15 86l15 60l67 -19l-11 -53q-2 -9 2 -15t20 -6q8 0 13 2t6 4l2 2l3 70h65l3 -70q4 -8 21 -8q16 0 20.5 5t2.5 12l-17 73l69 21z" />
    <glyph glyph-name="uni0651064C" 
d="M389 921q10 -54 -19.5 -94.5t-89.5 -55.5l-230 -56l-17 77l9 2q22 8 31.5 24.5t4.5 33.5q-6 18 -23 26t-41 1l-15 69q56 15 96 -11t49 -70q4 -22 0 -43l32 9l-12 49q-11 47 10.5 83.5t69.5 47.5q53 13 94.5 -14t50.5 -78zM240 900l11 -45l9 2q28 8 42 19.5t12 26.5
q-6 38 -50 28q-30 -7 -24 -31zM341 701l22 -77q14 -49 -15.5 -86.5t-81.5 -37.5q-37 0 -56 19q-22 -19 -57 -19q-49 0 -78 37t-15 86l15 60l67 -19l-11 -53q-2 -9 2 -15t20 -6q8 0 13 2t6 4l2 2l3 70h65l3 -70q4 -8 21 -8q16 0 20.5 5t2.5 12l-17 73z" />
    <glyph glyph-name="uni0651064E" 
d="M34 738l-19 87l241 58l19 -87zM4 623l15 60l67 -19l-11 -53q-2 -9 2 -15t20 -6q8 0 13 2t6 4l2 2l3 70h65l3 -70q4 -8 21 -8q16 0 20.5 5t2.5 12l-17 73l69 21l22 -77q14 -49 -15.5 -86.5t-81.5 -37.5q-37 0 -56 19q-22 -19 -57 -19q-49 0 -78 37t-15 86z" />
    <glyph glyph-name="uni0651064B.1" 
d="M42 867l-19 87l241 58l19 -87zM42 726l-19 87l241 58l19 -87zM4 623l15 60l67 -19l-11 -53q-2 -9 2 -15t20 -6q8 0 13 2t6 4l2 2l3 70h65l3 -70q4 -8 21 -8q16 0 20.5 5t2.5 12l-17 73l69 21l22 -77q14 -49 -15.5 -86.5t-81.5 -37.5q-37 0 -56 19q-22 -19 -57 -19
q-49 0 -78 37t-15 86z" />
    <glyph glyph-name="uni06510650" 
d="M4 784l15 60l67 -19l-11 -53q-2 -9 2 -15t20 -6q8 0 13 2t6 4l2 2l3 70h65l3 -70q4 -8 21 -8q16 0 20.5 5t2.5 12l-17 73l69 21l22 -77q14 -49 -15.5 -86.5t-81.5 -37.5q-37 0 -56 19q-22 -19 -57 -19q-49 0 -78 37t-15 86zM44 500l-19 87l241 58l19 -87z" />
    <glyph glyph-name="uni0651064D" 
d="M4 923l15 60l67 -19l-11 -53q-2 -9 2 -15t20 -6q8 0 13 2t6 4l2 2l3 70h65l3 -70q4 -8 21 -8q16 0 20.5 5t2.5 12l-17 73l69 21l22 -77q14 -49 -15.5 -86.5t-81.5 -37.5q-37 0 -56 19q-22 -19 -57 -19q-49 0 -78 37t-15 86zM44 641l-19 87l241 58l19 -87zM44 500l-19 87
l241 58l19 -87z" />
    </font>
</defs>
</svg>
