<?xml version="1.0" standalone="no"?>
<!DOCTYPE svg PUBLIC "-//W3C//DTD SVG 1.1//EN" "http://www.w3.org/Graphics/SVG/1.1/DTD/svg11.dtd" >
<svg xmlns="http://www.w3.org/2000/svg" xmlns:xlink="http://www.w3.org/1999/xlink" version="1.1">
<metadata>
Created by FontForge 20190801 at Wed Jul 17 18:49:43 2019
 By www-data
Copyright (c) 2019 by www.fontiran.com (Moslem Ebrahimi). All rights reserved.
</metadata>
<defs>
<font id="Dana-UltraBold" horiz-adv-x="0" >
  <font-face 
    font-family="Dana UltraBold"
    font-weight="800"
    font-stretch="normal"
    units-per-em="1000"
    panose-1="0 0 9 0 0 0 0 0 0 0"
    ascent="800"
    descent="-200"
    x-height="504"
    cap-height="688"
    bbox="-149 -680 1536.68 1108"
    underline-thickness="27"
    underline-position="-276"
    unicode-range="U+000D-FEFF"
  />
<missing-glyph horiz-adv-x="300" 
d="M33 -22v544h234v-544h-234zM67 22h166v456h-166v-456z" />
    <glyph glyph-name="uni06C0" unicode="&#x647;&#x654;" horiz-adv-x="501" 
d="M234 669q-67 11 -84.5 38t4.5 88q22 55 64 75.5t95 3.5l38 -11l-21 -74l-37 12q-60 19 -79 -35q-4 -11 2.5 -15t32.5 -10q63 -12 85.5 -28t22.5 -58q0 -53 -40.5 -68.5t-162.5 -22.5l-7 76q13 1 54.5 3.5t66.5 5t25 5.5q0 4 -59 15zM351 414q53 -49 77 -97.5t24 -110.5
q0 -86 -59 -147t-142 -61t-142 61t-59 147q0 100 85 185l14 14l-25 23l94 110zM251 145q30 0 49.5 17.5t19.5 43.5q0 22 -11.5 42t-47.5 54l-11 10l-14 -14q-55 -55 -55 -92q0 -26 20 -43.5t50 -17.5z" />
    <glyph glyph-name="uniFBA5" unicode="&#xfeea;&#x654;" horiz-adv-x="547" arabic-form="final" 
d="M277 663q-67 11 -84.5 38t5.5 88q21 55 63 76t95 4l38 -12l-20 -73l-38 11q-60 19 -79 -35q-4 -10 3 -14t33 -10q63 -13 85.5 -29t22.5 -58q0 -53 -40.5 -68.5t-163.5 -22.5l-6 76q16 2 55 4.5t65 4.5t26 5q0 4 -60 15zM533 151h19v-151h-19q-109 0 -177 89
q-21 -3 -58.5 -9t-40.5 -6q-59 -8 -117.5 32.5t-79.5 103.5q-26 77 10.5 153t111.5 101l127 41v34h135v-306q0 -34 26 -58t63 -24zM246 225q4 0 13.5 2t24 4t25.5 4v122l-85 -30q-23 -8 -32.5 -25.5t-4.5 -37.5q4 -18 21 -30.5t38 -8.5z" />
    <glyph glyph-name="uniFEF5" unicode="&#xfedf;&#xfe82;" horiz-adv-x="599" arabic-form="isolated" 
d="M92 699v-4l-68 -5v24q0 50 33.5 77t83.5 18l101 -19q37 -7 37 21v4l68 5v-24q0 -50 -33 -77.5t-84 -18.5l-101 19q-37 7 -37 -20zM549 203q5 -87 -48.5 -145t-146.5 -58h-250v151h250q37 0 49.5 11.5t11.5 33.5l-19 496l134 6zM265 223l-132 -27l-83 435l132 27z" />
    <glyph glyph-name="uniFEF6" unicode="&#xfee0;&#xfe82;" horiz-adv-x="624" arabic-form="final" 
d="M95 694v-4l-69 -5v24q0 50 33.5 77.5t83.5 17.5l101 -19q37 -5 37 21v4l69 5v-24q0 -50 -33.5 -77.5t-83.5 -18.5l-101 19q-37 7 -37 -20zM609 151h20v-151h-20q-73 0 -125 44q-50 -44 -131 -44h-249v151h249q37 0 49.5 11.5t11.5 33.5l-19 496l134 6l19 -489
q1 -33 16 -45.5t45 -12.5zM265 223l-132 -27l-83 435l132 27z" />
    <glyph glyph-name="uniFEF7" unicode="&#xfedf;&#xfe84;" horiz-adv-x="599" arabic-form="isolated" 
d="M180 717l-4 -1l-165 -39l-16 73l69 17q-10 14 -15 36q-14 57 21.5 100.5t92.5 39.5l80 -12l-13 -73q-7 1 -18.5 3t-34.5 4.5t-31 0.5q-42 -11 -33 -47q4 -15 19.5 -23.5t32.5 -4.5l108 26l16 -74zM549 203q5 -87 -48.5 -145t-146.5 -58h-250v151h250q37 0 49.5 11.5
t11.5 33.5l-19 496l134 6zM265 223l-132 -27l-83 435l132 27z" />
    <glyph glyph-name="uniFEF8" unicode="&#xfee0;&#xfe84;" horiz-adv-x="624" arabic-form="final" 
d="M180 710q-2 0 -5.5 -1t-4.5 -1l-159 -37l-16 73l68 16q-10 18 -14 36q-14 57 22 101t92 40l80 -12l-13 -73q-7 1 -17.5 3t-36.5 4.5t-30 -0.5q-18 -4 -27.5 -17t-5.5 -29q4 -14 17.5 -23t29.5 -7l113 27l16 -74zM609 151h20v-151h-20q-73 0 -125 44q-50 -44 -131 -44
h-249v151h249q37 0 49.5 11.5t11.5 33.5l-19 496l134 6l19 -489q1 -33 16 -45.5t45 -12.5zM265 223l-132 -27l-83 435l132 27z" />
    <glyph glyph-name="uniFEF9" unicode="&#xfedf;&#xfe88;" horiz-adv-x="599" arabic-form="isolated" 
d="M549 203q5 -87 -48.5 -145t-146.5 -58h-250v151h250q37 0 49.5 11.5t11.5 33.5l-19 496l134 6zM265 223l-132 -27l-83 435l132 27zM214 -179l108 26l16 -74l-109 -26q-2 -1 -6 -1l-163 -39l-16 73l69 17q-10 14 -15 36q-14 57 21.5 100.5t92.5 39.5l80 -12l-13 -73
q-7 1 -18.5 3t-34.5 4.5t-31 0.5q-18 -5 -27.5 -18t-5.5 -29q4 -15 19.5 -23.5t32.5 -4.5z" />
    <glyph glyph-name="uniFEFA" unicode="&#xfee0;&#xfe88;" horiz-adv-x="624" arabic-form="final" 
d="M609 151h20v-151h-20q-73 0 -125 44q-50 -44 -131 -44h-249v151h249q37 0 49.5 11.5t11.5 33.5l-19 496l134 6l19 -489q1 -33 16 -45.5t45 -12.5zM265 223l-132 -27l-83 435l132 27zM217 -179l108 26l17 -74l-279 -66l-16 73l69 17q-10 14 -15 36q-14 57 21.5 100.5
t92.5 39.5l80 -12l-13 -73q-7 1 -18.5 3t-34.5 4.5t-31 0.5q-18 -5 -27.5 -18t-5.5 -29q4 -15 19.5 -23.5t32.5 -4.5z" />
    <glyph glyph-name="uniFEFB" unicode="&#xfedf;&#xfe8e;" horiz-adv-x="599" arabic-form="isolated" 
d="M549 203q5 -87 -48.5 -145t-146.5 -58h-250v151h250q37 0 49.5 11.5t11.5 33.5l-19 496l134 6zM265 223l-132 -27l-83 435l132 27z" />
    <glyph glyph-name="uniFEFC" unicode="&#xfee0;&#xfe8e;" horiz-adv-x="624" arabic-form="final" 
d="M609 151h20v-151h-20q-73 0 -125 44q-50 -44 -131 -44h-249v151h249q37 0 49.5 11.5t11.5 33.5l-19 496l134 6l19 -489q1 -33 16 -45.5t45 -12.5zM265 223l-132 -27l-83 435l132 27z" />
    <glyph glyph-name="uni06440671" unicode="&#xfedf;&#xfb51;" horiz-adv-x="599" 
d="M92 703q-12 0 -20 -6t-25 -29l-57 43q43 61 83 68l33 45q23 31 35 45.5t37.5 31t52.5 16.5q43 0 72.5 -31.5t29.5 -78.5q0 -42 -30.5 -73t-71.5 -31h-139zM231 844q-16 0 -29.5 -11t-35.5 -39l-10 -14h75q14 0 25 8.5t11 22.5q0 15 -10.5 24t-25.5 9zM549 203
q5 -87 -48.5 -145t-146.5 -58h-250v151h250q37 0 49.5 11.5t11.5 33.5l-19 496l134 6zM265 223l-132 -27l-83 435l132 27z" />
    <glyph glyph-name="uni06440671.fina" unicode="&#xfee0;&#xfb51;" horiz-adv-x="624" 
d="M92 703q-12 0 -20 -6t-25 -29l-57 43q43 61 83 68l33 45q23 31 35 45.5t37.5 31t52.5 16.5q43 0 72.5 -31.5t29.5 -78.5q0 -42 -30.5 -73t-71.5 -31h-139zM231 844q-16 0 -29.5 -11t-35.5 -39l-10 -14h75q14 0 25 8.5t11 22.5q0 15 -10.5 24t-25.5 9zM609 151h20v-151
h-20q-73 0 -125 44q-50 -44 -131 -44h-249v151h249q37 0 49.5 11.5t11.5 33.5l-19 496l134 6l19 -489q1 -33 16 -45.5t45 -12.5zM265 223l-132 -27l-83 435l132 27z" />
    <glyph glyph-name="uniFDF2.001" unicode="&#xfedf;&#xfee0;&#xfeea;" horiz-adv-x="1120" 
d="M707 1108v-162h-64v162h64zM618 747q-47 0 -73.5 34.5t-13.5 80.5l14 57l57 -16l-11 -51q-6 -28 27 -28q9 0 15 3t8 6t2 5l3 67h55l3 -67q0 -2 2 -5t8.5 -6t15.5 -3q17 0 23.5 7t3.5 17l-17 71l59 18l21 -74q13 -46 -14 -81t-76 -35q-37 0 -56 21q-21 -21 -56 -21z
M1050 203q4 -87 -49.5 -145t-146.5 -58h-33q-72 0 -124 44q-52 -44 -132 -44h-32q-109 0 -177 89q-21 -3 -58.5 -9t-40.5 -6q-59 -8 -117.5 32.5t-79.5 103.5q-26 77 10.5 153t111.5 101l127 41v34h135v-306q0 -34 26 -58t63 -24h32q37 0 49.5 11.5t11.5 33.5l-19 496l135 6
l19 -489q1 -33 15.5 -45.5t44.5 -12.5h33q37 0 49.5 11.5t11.5 33.5l-19 496l135 6zM246 225q4 0 13.5 2t24 4t25.5 4v122l-85 -30q-23 -8 -32.5 -25.5t-4.5 -37.5q4 -18 21 -30.5t38 -8.5z" />
    <glyph glyph-name="uni0621" unicode="&#x621;" horiz-adv-x="487" arabic-form="isolated" 
d="M415 177l22 -134l-365 -68l-22 133l64 12q-8 18 -13 42q-14 74 26 136.5t112 75.5q16 3 52.5 -1t64.5 -10l28 -6l-32 -130q-8 2 -19.5 4.5t-36.5 6.5t-35 4q-24 -1 -35.5 -16.5t-9.5 -35.5q3 -20 21.5 -31.5t43.5 -6.5z" />
    <glyph glyph-name="uni0622" unicode="&#x622;" horiz-adv-x="322" arabic-form="isolated" 
d="M0 625v24q0 50 33.5 77.5t83.5 18.5l101 -19q37 -7 37 20v4l68 5v-24q0 -50 -33.5 -77t-83.5 -18l-101 19q-37 7 -37 -21v-4zM111 -4l-23 596l135 6l23 -596z" />
    <glyph glyph-name="uni0623" unicode="&#x623;" horiz-adv-x="322" arabic-form="isolated" 
d="M187 684q-2 -1 -6 -1l-163 -39l-16 73l68 16q-10 16 -15 37q-13 56 23 100t92 40l79 -12l-12 -73q-7 1 -18.5 3t-34.5 4.5t-31 0.5q-19 -5 -28.5 -18t-5.5 -29q4 -15 20 -23.5t32 -4.5l109 26l16 -74zM88 592l135 6l23 -596l-135 -6z" />
    <glyph glyph-name="uni0624" unicode="&#x624;" horiz-adv-x="541" arabic-form="isolated" 
d="M138 475l-16 73l69 17q-10 14 -15 36q-14 56 22 100t92 40l80 -12l-13 -73q-7 1 -18.5 3t-34.5 4.5t-31 0.5q-18 -5 -27.5 -18t-5.5 -29q4 -15 19.5 -23.5t32.5 -4.5l108 26l16 -74l-109 -26q-2 -1 -6 -1zM488 42q6 -58 -3.5 -100t-32.5 -72t-69.5 -53t-102.5 -39
t-144 -34l-27 148q162 33 204 51.5t41 63.5q-51 -7 -103 -7q-81 0 -134.5 52.5t-61.5 136.5q-8 96 48 170.5t145 78.5q90 4 151 -61t72 -173zM190 200q3 -49 61 -49q42 0 90 6l-3 28q-5 51 -27 77.5t-56 24.5q-32 -1 -50 -26.5t-15 -60.5z" />
    <glyph glyph-name="uni0625" unicode="&#x625;" horiz-adv-x="305" arabic-form="isolated" 
d="M235 2l-135 -6l-27 696l135 6zM307 -254l-110 -26q-2 0 -4.5 -1t-4.5 -1l-160 -37l-16 73l69 16q-11 16 -15 36q-13 57 22.5 101t91.5 40l80 -12l-13 -74q-7 1 -18.5 3t-34.5 4.5t-31 0.5q-18 -4 -27.5 -17t-5.5 -30q4 -13 18 -22t30 -7l113 27z" />
    <glyph glyph-name="uni0626" unicode="&#x626;" horiz-adv-x="742" arabic-form="isolated" 
d="M122 371l-16 73l69 16q-11 16 -15 36q-13 57 22.5 101t91.5 40l80 -12l-13 -74q-7 1 -18.5 3t-34.5 4.5t-31 0.5q-18 -4 -27.5 -17t-5.5 -30q4 -14 18 -22.5t30 -6.5l113 27l16 -74l-110 -26q-1 0 -4 -1t-5 -1zM685 4q15 -85 -57 -146.5t-212 -93.5q-106 -25 -189.5 4
t-126 99.5t-49.5 174t38 229.5l128 -50q-59 -172 -12.5 -256.5t181.5 -52.5q166 39 164 51q0 3 -13.5 7t-43.5 12.5t-55 16.5q-90 32 -122.5 84.5t-2.5 152.5q32 105 113.5 164t184.5 31l65 -18l-35 -147l-65 18q-32 9 -58.5 0t-42 -29t-23 -34.5t-10.5 -25.5
q-7 -26 3.5 -36t56.5 -24q102 -32 124 -45q47 -26 59 -86z" />
    <glyph glyph-name="uni0627" unicode="&#x627;" horiz-adv-x="305" arabic-form="isolated" 
d="M100 -4l-27 696l135 6l27 -696z" />
    <glyph glyph-name="uni0628" unicode="&#x628;" horiz-adv-x="977" arabic-form="isolated" 
d="M916 285q23 -87 -3 -155.5t-97 -99.5q-43 -20 -101.5 -25t-225.5 -5q-164 0 -223.5 5.5t-104.5 24.5q-69 30 -96 97t-5 150l38 146l130 -39l-39 -153q-7 -28 -1.5 -40.5t27.5 -22.5q21 -9 72.5 -13t201.5 -4q105 0 163.5 2.5t76.5 5.5t33 10q26 11 30 25t-6 52l-38 139
l130 39zM392 -148l96 96l96 -96l-96 -96z" />
    <glyph glyph-name="uni0629" unicode="&#x629;" horiz-adv-x="502" arabic-form="isolated" 
d="M221 622l-86 -84l-84 84l84 86zM425 622l-86 -84l-84 84l84 86zM351 414q53 -49 77 -97.5t24 -110.5q0 -86 -59 -147t-142 -61t-142 61t-59 147q0 100 85 185l14 14l-25 23l94 110zM251 145q30 0 49.5 17.5t19.5 43.5q0 22 -11.5 42t-47.5 54l-11 10l-14 -14
q-55 -55 -55 -92q0 -26 20 -43.5t50 -17.5z" />
    <glyph glyph-name="uni062A" unicode="&#x62a;" horiz-adv-x="977" arabic-form="isolated" 
d="M471 436l-85 -84l-85 84l85 86zM675 436l-85 -84l-85 84l85 86zM916 285q23 -87 -3 -155.5t-97 -99.5q-43 -20 -101.5 -25t-225.5 -5q-164 0 -223.5 5.5t-104.5 24.5q-69 30 -96 97t-5 150l38 146l130 -39l-39 -153q-7 -28 -1.5 -40.5t27.5 -22.5q21 -9 72.5 -13
t201.5 -4q105 0 163.5 2.5t76.5 5.5t33 10q26 11 30 25t-6 52l-38 139l130 39z" />
    <glyph glyph-name="uni062B" unicode="&#x62b;" horiz-adv-x="977" arabic-form="isolated" 
d="M557 586l-68 -69l-70 69l70 69zM472 437l-86 -85l-84 85l84 85zM589 352l-84 85l84 85l86 -85zM916 285q23 -87 -3 -155.5t-97 -99.5q-43 -20 -101.5 -25t-225.5 -5q-164 0 -223.5 5.5t-104.5 24.5q-69 30 -96 97t-5 150l38 146l130 -39l-39 -153q-7 -28 -1.5 -40.5
t27.5 -22.5q21 -9 72.5 -13t201.5 -4q105 0 163.5 2.5t76.5 5.5t33 10q26 11 30 25t-6 52l-38 139l130 39z" />
    <glyph glyph-name="uni062C" unicode="&#x62c;" horiz-adv-x="734" arabic-form="isolated" 
d="M646 -127l35 -147l-259 -71q-122 -31 -225 27.5t-136 178.5q-33 125 32 232t212 146l201 50l-156 77q-34 18 -70 8.5t-56 -43.5l-17 -31l-118 74l20 35q53 88 137 112.5t170 -22.5l259 -145l-19 -174l-316 -88q-93 -24 -129 -74.5t-21 -113.5q15 -60 74.5 -90t128.5 -11z
M417 -136l-96 96l96 96l96 -96z" />
    <glyph glyph-name="uni062D" unicode="&#x62d;" horiz-adv-x="734" arabic-form="isolated" 
d="M646 -127l35 -147l-259 -71q-122 -31 -225 27.5t-136 178.5q-33 125 32 232t212 146l201 50l-156 77q-34 18 -70 8.5t-56 -43.5l-17 -31l-118 74l20 35q53 88 137 112.5t170 -22.5l259 -145l-19 -174l-316 -88q-93 -24 -129 -74.5t-21 -113.5q15 -60 74.5 -90t128.5 -11z
" />
    <glyph glyph-name="uni062E" unicode="&#x62e;" horiz-adv-x="734" arabic-form="isolated" 
d="M402 665l-96 -96l-96 96l96 97zM646 -127l35 -147l-259 -71q-122 -31 -225 27.5t-136 178.5q-33 125 32 232t212 146l201 50l-156 77q-34 18 -70 8.5t-56 -43.5l-17 -31l-118 74l20 35q53 88 137 112.5t170 -22.5l259 -145l-19 -174l-316 -88q-93 -24 -129 -74.5
t-21 -113.5q15 -60 74.5 -90t128.5 -11z" />
    <glyph glyph-name="uni062F" unicode="&#x62f;" horiz-adv-x="567" arabic-form="isolated" 
d="M236 0q-78 0 -128 42t-52 103l-2 64h125q0 -26 1 -39q1 -11 8.5 -15t24.5 -4h121q63 0 45 50q-16 44 -54.5 110.5t-68.5 110.5l-30 44l110 89q16 -21 40.5 -56.5t72 -120.5t61.5 -142q25 -99 -28.5 -167.5t-165.5 -68.5h-80z" />
    <glyph glyph-name="uni0630" unicode="&#x630;" horiz-adv-x="567" arabic-form="isolated" 
d="M284 577l-97 96l97 96l96 -96zM236 0q-78 0 -128 42t-52 103l-2 64h125q0 -26 1 -39q1 -11 8.5 -15t24.5 -4h121q63 0 45 50q-16 44 -54.5 110.5t-68.5 110.5l-30 44l110 89q16 -21 40.5 -56.5t72 -120.5t61.5 -142q25 -99 -28.5 -167.5t-165.5 -68.5h-80z" />
    <glyph glyph-name="uni0631" unicode="&#x631;" horiz-adv-x="372" arabic-form="isolated" 
d="M35 -256l-35 147q125 34 159 55.5t26 79.5l-40 288l133 20l40 -290q9 -67 -4 -115t-52.5 -82.5t-92 -57t-134.5 -45.5z" />
    <glyph glyph-name="uni0632" unicode="&#x632;" horiz-adv-x="372" arabic-form="isolated" 
d="M203 406l-96 96l96 97l96 -97zM35 -256l-35 147q125 34 159 55.5t26 79.5l-40 288l133 20l40 -290q9 -67 -4 -115t-52.5 -82.5t-92 -57t-134.5 -45.5z" />
    <glyph glyph-name="uni0633" unicode="&#x633;" horiz-adv-x="1233" arabic-form="isolated" 
d="M1171 275q32 -117 -23 -196t-162 -79q-72 0 -120 45q-50 -45 -122 -45q-32 0 -62 11q1 -104 -64 -159.5t-202 -87.5q-106 -25 -189.5 4t-126 99.5t-49.5 174t38 229.5l128 -50q-59 -172 -12.5 -256.5t181.5 -52.5q108 25 137.5 45.5t21.5 80.5l-41 275l133 22l17 -116
q10 -39 29.5 -53.5t60.5 -14.5q37 0 48.5 12t11.5 36v124h127v-124q0 -26 12 -37t43 -11q40 0 54 18.5t2 66.5l-40 149l129 39z" />
    <glyph glyph-name="uni0634" unicode="&#x634;" horiz-adv-x="1233" arabic-form="isolated" 
d="M928 653l-68 -70l-70 70l70 68zM843 503l-86 -84l-84 84l84 86zM960 419l-84 84l84 86l86 -86zM1171 275q32 -117 -23 -196t-162 -79q-72 0 -120 45q-50 -45 -122 -45q-32 0 -62 11q1 -104 -64 -159.5t-202 -87.5q-106 -25 -189.5 4t-126 99.5t-49.5 174t38 229.5
l128 -50q-59 -172 -12.5 -256.5t181.5 -52.5q108 25 137.5 45.5t21.5 80.5l-41 275l133 22l17 -116q10 -39 29.5 -53.5t60.5 -14.5q37 0 48.5 12t11.5 36v124h127v-124q0 -26 12 -37t43 -11q40 0 54 18.5t2 66.5l-40 149l129 39z" />
    <glyph glyph-name="uni0635" unicode="&#x635;" horiz-adv-x="1312" arabic-form="isolated" 
d="M1052 438q90 0 150 -65t60 -161q0 -86 -62.5 -149t-147.5 -63h-320h-17q-18 0 -33 4q-1 -100 -66 -154.5t-200 -85.5q-106 -25 -189.5 4t-126 99.5t-49.5 174t38 229.5l128 -50q-59 -172 -12.5 -256.5t181.5 -52.5q108 25 137.5 45.5t21.5 80.5l-41 275l133 22
q5 -32 11 -75q12 -70 24 -89.5t39 -19.5h21h1l62 85q42 58 67 89t57 60.5t63 41t70 11.5zM1052 151q29 0 52.5 19.5t23.5 41.5q0 33 -21 54t-55 21q-32 0 -60 -26.5t-86 -109.5h146z" />
    <glyph glyph-name="uni0636" unicode="&#x636;" horiz-adv-x="1312" arabic-form="isolated" 
d="M1137 606l-96 -96l-96 96l96 96zM1052 438q90 0 150 -65t60 -161q0 -86 -62.5 -149t-147.5 -63h-320h-17q-18 0 -33 4q-1 -100 -66 -154.5t-200 -85.5q-106 -25 -189.5 4t-126 99.5t-49.5 174t38 229.5l128 -50q-59 -172 -12.5 -256.5t181.5 -52.5q108 25 137.5 45.5
t21.5 80.5l-41 275l133 22q5 -32 11 -75q12 -70 24 -89.5t39 -19.5h21h1l62 85q42 58 67 89t57 60.5t63 41t70 11.5zM1052 151q29 0 52.5 19.5t23.5 41.5q0 33 -21 54t-55 21q-32 0 -60 -26.5t-86 -109.5h146z" />
    <glyph glyph-name="uni0637" unicode="&#x637;" horiz-adv-x="721" arabic-form="isolated" 
d="M461 438q90 0 150 -65t60 -161q0 -86 -62.5 -149t-147.5 -63h-411v151h92l28 39l-19 502l135 6l13 -341q73 81 162 81zM461 151q29 0 52.5 19.5t23.5 41.5q0 33 -21 54t-55 21q-32 0 -60 -26.5t-86 -109.5h146z" />
    <glyph glyph-name="uni0638" unicode="&#x638;" horiz-adv-x="721" arabic-form="isolated" 
d="M576 610l-96 -96l-96 96l96 97zM461 438q90 0 150 -65t60 -161q0 -86 -62.5 -149t-147.5 -63h-411v151h92l28 39l-19 502l135 6l13 -341q73 81 162 81zM461 151q29 0 52.5 19.5t23.5 41.5q0 33 -21 54t-55 21q-32 0 -60 -26.5t-86 -109.5h146z" />
    <glyph glyph-name="uni0639" unicode="&#x639;" horiz-adv-x="649" arabic-form="isolated" 
d="M586 -95l13 -151l-269 -27q-105 -11 -186.5 57t-92.5 176q-8 78 27.5 145.5t102.5 107.5q-22 36 -29 76q-17 90 32.5 165t136.5 90q26 5 70.5 -0.5t75.5 -13.5l31 -7l-35 -147q-10 3 -25.5 6.5t-47.5 9t-46 3.5q-32 -7 -48.5 -27t-12.5 -48q5 -27 31 -43t57 -11l170 31
l23 -149l-267 -49q-54 -10 -85 -44t-26 -78q4 -46 42.5 -75.5t88.5 -24.5z" />
    <glyph glyph-name="uni063A" unicode="&#x63a;" horiz-adv-x="649" arabic-form="isolated" 
d="M436 689l-96 -96l-96 96l96 96zM586 -95l13 -151l-269 -27q-105 -11 -186.5 57t-92.5 176q-8 78 27.5 145.5t102.5 107.5q-22 36 -29 76q-17 90 32.5 165t136.5 90q26 5 70.5 -0.5t75.5 -13.5l31 -7l-35 -147q-10 3 -25.5 6.5t-47.5 9t-46 3.5q-32 -7 -48.5 -27
t-12.5 -48q5 -27 31 -43t57 -11l170 31l23 -149l-267 -49q-54 -10 -85 -44t-26 -78q4 -46 42.5 -75.5t88.5 -24.5z" />
    <glyph glyph-name="uni0641" unicode="&#x641;" horiz-adv-x="984" arabic-form="isolated" 
d="M815 762l-96 -96l-96 96l96 96zM933 207q7 -107 -50.5 -157t-211.5 -50h-187q-161 0 -219.5 5.5t-103.5 24.5q-69 30 -96 97t-5 150l38 146l130 -39l-39 -153q-7 -28 -1.5 -40.5t27.5 -22.5q21 -9 72.5 -13t201.5 -4h184q88 0 110.5 8.5t19.5 41.5q-36 -3 -96 -3
q-83 0 -132.5 47t-50.5 130q-1 96 45.5 161t133.5 71q89 7 149.5 -55t67.5 -166zM646 386q3 -48 61 -48q44 0 86 4l-3 33q-5 48 -26 73t-54 23q-31 -1 -48.5 -25.5t-15.5 -59.5z" />
    <glyph glyph-name="uni0642" unicode="&#x642;" horiz-adv-x="763" arabic-form="isolated" 
d="M368 493l-84 84l84 86l86 -86zM572 493l-84 84l84 86l86 -86zM416 -236q-106 -25 -189.5 4t-126 99.5t-49.5 174t38 229.5l128 -50q-59 -172 -12.5 -256.5t181.5 -52.5q102 21 146.5 39.5t43.5 49.5l-1 15q-58 -7 -101 -7q-81 0 -135 52.5t-61 136.5q-8 96 47.5 170.5
t144.5 78.5q90 4 151 -61t72 -173l17 -162q7 -67 -5 -112.5t-49.5 -78.5t-93 -54.5t-146.5 -41.5zM474 160q36 0 89 8l-3 26q-5 51 -27 77t-56 25q-32 -1 -49.5 -26t-15.5 -61q5 -49 62 -49z" />
    <glyph glyph-name="uni0643" unicode="&#x643;" horiz-adv-x="913" arabic-form="isolated" 
d="M863 203q5 -87 -48.5 -145t-146.5 -58h-178v151h178q37 0 49.5 11.5t11.5 33.5l-19 496l134 6zM520 391q25 -23 13 -55.5t-47 -32.5h-89v59h54q15 0 3 12l-47 47l12 50l98 33l19 -57l-53 -17zM189 231q-7 -28 -1.5 -40.5t27.5 -22.5q21 -9 72.5 -13t201.5 -4v-151
q-164 0 -223.5 5.5t-104.5 24.5q-69 30 -96 97t-5 150l38 146l130 -39z" />
    <glyph glyph-name="uni0644" unicode="&#x644;" horiz-adv-x="728" arabic-form="isolated" 
d="M415 -236q-87 -18 -156 -6.5t-117 58t-72 112t-20 155t38 187.5l129 -50q-60 -170 -13 -257t180 -53q40 10 57.5 15t41 14t31.5 16.5t17.5 20.5t11 29.5t0.5 40.5l-25 646l135 6l25 -645q5 -130 -56.5 -192t-206.5 -97z" />
    <glyph glyph-name="uni0645" unicode="&#x645;" horiz-adv-x="598" arabic-form="isolated" 
d="M446 408q78 -41 97 -141.5t-32 -194.5q-29 -53 -79.5 -70.5t-104.5 8.5l-142 73l19 -378l-135 -5l-19 504l92 62l30 -15l42 82q34 67 101 88.5t131 -13.5zM404 133q54 111 -6 144q-24 13 -47.5 1.5t-40.5 -46.5l-21 -41l111 -57q3 -1 3 -3q0 1 1 2z" />
    <glyph glyph-name="uni0646" unicode="&#x646;" horiz-adv-x="732" arabic-form="isolated" 
d="M351 245l-96 96l96 96l96 -96zM416 -236q-106 -25 -189.5 4t-126 99.5t-49.5 174t38 229.5l128 -50q-59 -172 -12.5 -256.5t181.5 -52.5q108 25 137.5 45.5t21.5 80.5l-41 275l133 22l41 -276q18 -129 -46 -194.5t-216 -100.5z" />
    <glyph glyph-name="uni0647" unicode="&#x647;" horiz-adv-x="502" arabic-form="isolated" 
d="M351 414q53 -49 77 -97.5t24 -110.5q0 -86 -59 -147t-142 -61t-142 61t-59 147q0 100 85 185l14 14l-25 23l94 110zM251 145q30 0 49.5 17.5t19.5 43.5q0 22 -11.5 42t-47.5 54l-11 10l-14 -14q-55 -55 -55 -92q0 -26 20 -43.5t50 -17.5z" />
    <glyph glyph-name="uni0648" unicode="&#x648;" horiz-adv-x="541" arabic-form="isolated" 
d="M488 42q6 -58 -3.5 -100t-32.5 -72t-69.5 -53t-102.5 -39t-144 -34l-27 148q162 33 204 51.5t41 63.5q-51 -7 -103 -7q-81 0 -134.5 52.5t-61.5 136.5q-8 96 48 170.5t145 78.5q90 4 151 -61t72 -173zM190 200q3 -49 61 -49q42 0 90 6l-3 28q-5 51 -27 77.5t-56 24.5
q-32 -1 -50 -26.5t-15 -60.5z" />
    <glyph glyph-name="uni0649" unicode="&#x649;" horiz-adv-x="742" arabic-form="isolated" 
d="M416 -236q-106 -25 -189.5 4t-126 99.5t-49.5 174t38 229.5l128 -50q-59 -172 -12.5 -256.5t181.5 -52.5q166 39 164 51q0 3 -13.5 7t-43.5 12.5t-55 16.5q-90 32 -122.5 84.5t-2.5 152.5q32 105 113.5 164t184.5 31l65 -18l-35 -147l-65 18q-32 9 -58.5 0t-42 -29
t-23 -34.5t-10.5 -25.5q-7 -26 3.5 -36t56.5 -24q102 -32 124 -45q47 -26 59 -86q15 -85 -57 -146.5t-212 -93.5z" />
    <glyph glyph-name="uni064A" unicode="&#x64a;" horiz-adv-x="742" arabic-form="isolated" 
d="M416 -236q-106 -25 -189.5 4t-126 99.5t-49.5 174t38 229.5l128 -50q-59 -172 -12.5 -256.5t181.5 -52.5q166 39 164 51q0 3 -13.5 7t-43.5 12.5t-55 16.5q-90 32 -122.5 84.5t-2.5 152.5q32 105 113.5 164t184.5 31l65 -18l-35 -147l-65 18q-32 9 -58.5 0t-42 -29
t-23 -34.5t-10.5 -25.5q-7 -26 3.5 -36t56.5 -24q102 -32 124 -45q47 -26 59 -86q15 -85 -57 -146.5t-212 -93.5zM269 -446l-85 85l85 85l85 -85zM473 -446l-85 85l85 85l85 -85z" />
    <glyph glyph-name="uni066E.init" unicode="&#x66e;" horiz-adv-x="339" 
d="M-5 0v151h79q52 0 69.5 18t4.5 67l-40 149l130 39l40 -149q32 -120 -27.5 -197.5t-176.5 -77.5h-79z" />
    <glyph glyph-name="uni066E.medi" unicode="&#x66e;" horiz-adv-x="309" 
d="M314 151v-151q-79 0 -127 39q-51 -39 -129 -39h-63v151h63q37 0 50 9.5t11 31.5l-11 123l134 13l11 -123v-2q3 -31 14.5 -41.5t46.5 -10.5z" />
    <glyph glyph-name="uni066E.fina" unicode="&#x66e;" horiz-adv-x="981" 
d="M986 151v-151q-79 0 -127 39q-51 -39 -129 -39h-241q-164 0 -223.5 5.5t-104.5 24.5q-69 30 -96 97t-5 150l38 146l130 -39l-39 -153q-7 -28 -1.5 -40.5t27.5 -22.5q21 -9 72.5 -13t201.5 -4h241q36 0 49.5 9t11.5 29v3l-11 123l135 13l11 -123v-6q3 -29 14.5 -38.5
t45.5 -9.5z" />
    <glyph glyph-name="uni066F.fina" unicode="&#x66f;" horiz-adv-x="750" 
d="M416 -236q-106 -25 -189.5 4t-126 99.5t-49.5 174t38 229.5l128 -50q-59 -172 -12.5 -256.5t181.5 -52.5q42 9 70 16t58.5 17.5t45.5 21.5t14 24l-1 9h-100q-84 0 -136.5 51t-59.5 138q-8 97 48 171t145 78t150 -61.5t72 -173.5l6 -52h57v-151h-44v-17q-6 -91 -73 -137.5
t-222 -81.5zM473 151h88l-3 36q-11 103 -82 100q-32 -1 -49.5 -26t-15.5 -61q2 -26 16 -37.5t46 -11.5z" />
    <glyph glyph-name="uni0671" unicode="&#x671;" horiz-adv-x="322" arabic-form="isolated" 
d="M225 846q44 0 73.5 -32t29.5 -78q0 -42 -31 -73t-72 -31h-138q-13 0 -21 -6t-25 -29l-57 43q45 62 83 68l33 45q43 56 64 72q30 21 61 21zM225 709q15 0 26 8.5t11 22.5t-10.5 23.5t-26.5 9.5q-15 0 -29 -11t-35 -39l-10 -14h74zM88 592l135 6l23 -596l-135 -6z" />
    <glyph glyph-name="uni067E" unicode="&#x67e;" horiz-adv-x="977" arabic-form="isolated" 
d="M916 285q23 -87 -3 -155.5t-97 -99.5q-43 -20 -101.5 -25t-225.5 -5q-164 0 -223.5 5.5t-104.5 24.5q-69 30 -96 97t-5 150l38 146l130 -39l-39 -153q-7 -28 -1.5 -40.5t27.5 -22.5q21 -9 72.5 -13t201.5 -4q105 0 163.5 2.5t76.5 5.5t33 10q26 11 30 25t-6 52l-38 139
l130 39zM394 -60l86 -85l-86 -85l-84 85zM513 -145l84 85l86 -85l-86 -85zM427 -293l70 69l68 -69l-68 -69z" />
    <glyph glyph-name="uni0686" unicode="&#x686;" horiz-adv-x="734" arabic-form="isolated" 
d="M646 -127l35 -147l-259 -71q-122 -31 -225 27.5t-136 178.5q-33 125 32 232t212 146l201 50l-156 77q-34 18 -70 8.5t-56 -43.5l-17 -31l-118 74l20 35q53 88 137 112.5t170 -22.5l259 -145l-19 -174l-316 -88q-93 -24 -129 -74.5t-21 -113.5q15 -60 74.5 -90t128.5 -11z
M547 49l-45 -87l-87 47l46 86zM251 -41l46 86l86 -46l-45 -87zM493 -67l-45 -87l-87 46l46 86z" />
    <glyph glyph-name="uni0698" unicode="&#x698;" horiz-adv-x="386" arabic-form="isolated" 
d="M199 563l-69 70l69 69l69 -69zM97 399l-85 85l85 85l85 -85zM300 399l-84 85l84 85l86 -85zM35 -256l-35 147q125 34 159 55.5t26 79.5l-40 288l133 20l40 -290q9 -67 -4 -115t-52.5 -82.5t-92 -57t-134.5 -45.5z" />
    <glyph glyph-name="uni06A1.init" unicode="&#x6a1;" horiz-adv-x="495" 
d="M444 207q7 -107 -50.5 -157t-211.5 -50h-187v151h189q88 0 110.5 8.5t19.5 41.5q-36 -3 -97 -3q-82 0 -132 47t-51 130q-1 96 46 161t134 71q89 7 149.5 -55t67.5 -166zM157 386q3 -48 60 -48q44 0 86 4l-3 33q-11 99 -79 96q-32 -1 -49.5 -25.5t-14.5 -59.5z" />
    <glyph glyph-name="uni06A1.medi" unicode="&#x6a1;" horiz-adv-x="490" 
d="M437 151h58v-151h-58q-90 0 -188 36q-108 -36 -202 -36h-52v151h52q17 0 27 1q-30 40 -26 78l5 59q10 87 75 139.5t149 43.5q80 -9 129.5 -74.5t44.5 -148.5l-3 -47q-1 -25 -19 -51h8zM182 224q21 -25 63 -43q58 17 69 37l4 32q3 25 -14 46.5t-44 25.5q-28 3 -50 -14
t-24 -44z" />
    <glyph glyph-name="uni06A1.fina" unicode="&#x6a1;" horiz-adv-x="979" 
d="M926 151h58v-151h-58q-88 0 -188 36q-108 -36 -202 -36h-52q-161 0 -219.5 5.5t-103.5 24.5q-69 30 -96 97t-5 150l38 146l130 -39l-39 -153q-7 -28 -1.5 -40.5t27.5 -22.5q21 -9 72.5 -13t201.5 -4h47q17 0 27 1q-30 40 -26 78l6 59q9 87 74 139.5t149 43.5
q80 -9 130 -74.5t45 -148.5l-3 -47q-1 -25 -19 -51h7zM672 224q19 -25 62 -43q58 17 69 37l4 32q4 24 -13.5 46t-44.5 26q-28 3 -50 -14t-24 -44z" />
    <glyph glyph-name="uni06A4" unicode="&#x6a4;" horiz-adv-x="984" arabic-form="isolated" 
d="M791 882l-69 -69l-69 69l69 69zM705 733l-85 -85l-85 85l85 85zM823 648l-84 85l84 85l86 -85zM933 207q7 -107 -50.5 -157t-211.5 -50h-187q-161 0 -219.5 5.5t-103.5 24.5q-69 30 -96 97t-5 150l38 146l130 -39l-39 -153q-7 -28 -1.5 -40.5t27.5 -22.5q21 -9 72.5 -13
t201.5 -4h184q88 0 110.5 8.5t19.5 41.5q-36 -3 -96 -3q-83 0 -132.5 47t-50.5 130q-1 96 45.5 161t133.5 71q89 7 149.5 -55t67.5 -166zM646 386q3 -48 61 -48q44 0 86 4l-3 33q-5 48 -26 73t-54 23q-31 -1 -48.5 -25.5t-15.5 -59.5z" />
    <glyph glyph-name="uni06A9" unicode="&#x6a9;" horiz-adv-x="978" arabic-form="isolated" 
d="M682 521l154 -228q41 -63 43.5 -126t-31.5 -104q-47 -63 -145 -63h-219q-161 0 -219.5 5.5t-103.5 24.5q-69 30 -96 97t-5 150l38 146l130 -39l-39 -153q-7 -28 -1.5 -40.5t27.5 -22.5q21 -9 72.5 -13t201.5 -4h216q17 0 26 7q21 16 3 45l-220 311l30 114l362 133
l47 -141z" />
    <glyph glyph-name="uni06AF" unicode="&#x6af;" horiz-adv-x="978" arabic-form="isolated" 
d="M812 806l-244 -88l-33 92l243 88zM682 521l154 -228q41 -63 43.5 -126t-31.5 -104q-47 -63 -145 -63h-219q-161 0 -219.5 5.5t-103.5 24.5q-69 30 -96 97t-5 150l38 146l130 -39l-39 -153q-7 -28 -1.5 -40.5t27.5 -22.5q21 -9 72.5 -13t201.5 -4h216q17 0 26 7
q21 16 3 45l-220 311l30 114l362 133l47 -141z" />
    <glyph glyph-name="uni06CC" unicode="&#x6cc;" horiz-adv-x="742" arabic-form="isolated" 
d="M416 -236q-106 -25 -189.5 4t-126 99.5t-49.5 174t38 229.5l128 -50q-59 -172 -12.5 -256.5t181.5 -52.5q166 39 164 51q0 3 -13.5 7t-43.5 12.5t-55 16.5q-90 32 -122.5 84.5t-2.5 152.5q32 105 113.5 164t184.5 31l65 -18l-35 -147l-65 18q-32 9 -58.5 0t-42 -29
t-23 -34.5t-10.5 -25.5q-7 -26 3.5 -36t56.5 -24q102 -32 124 -45q47 -26 59 -86q15 -85 -57 -146.5t-212 -93.5z" />
    <glyph glyph-name="uniFB51" unicode="&#x671;" horiz-adv-x="288" arabic-form="final" 
d="M230 860q43 0 72.5 -32t29.5 -79q0 -41 -30.5 -72t-71.5 -31h-139q-13 0 -21 -6.5t-25 -29.5l-57 44q25 34 43 49t41 19l33 44q18 25 26 35t25 27.5t35 24.5t39 7zM230 723q14 0 25 8t11 22q0 15 -10.5 24t-25.5 9q-16 0 -30 -10.5t-35 -39.5l-10 -13h75zM212 232
q2 -57 12 -69t59 -12h10v-151h-10q-108 0 -154.5 52.5t-51.5 179.5l-14 360l135 6z" />
    <glyph glyph-name="uniFB57" unicode="&#x67e;" horiz-adv-x="981" arabic-form="final" 
d="M986 151v-151q-79 0 -127 39q-51 -39 -129 -39h-241q-164 0 -223.5 5.5t-104.5 24.5q-69 30 -96 97t-5 150l38 146l130 -39l-39 -153q-7 -28 -1.5 -40.5t27.5 -22.5q21 -9 72.5 -13t201.5 -4h241q36 0 49.5 9t11.5 29v3l-11 123l135 13l11 -123v-6q3 -29 14.5 -38.5
t45.5 -9.5zM394 -63l85 -85l-85 -85l-85 85zM513 -148l84 85l86 -85l-86 -85zM427 -295l69 68l69 -68l-69 -70z" />
    <glyph glyph-name="uniFB58" unicode="&#x67e;" horiz-adv-x="414" arabic-form="initial" 
d="M-5 0v151h154q51 0 68.5 18.5t4.5 66.5l-39 149l129 39l42 -157q31 -116 -29.5 -191.5t-175.5 -75.5h-154zM6 -233l-85 85l85 85l85 -85zM209 -233l-84 85l84 85l86 -85zM108 -365l-69 69l69 69l69 -69z" />
    <glyph glyph-name="uniFB59" unicode="&#x67e;" horiz-adv-x="426" arabic-form="medial" 
d="M372 196q2 -27 13.5 -36t45.5 -9v-151q-78 0 -126 39q-51 -39 -130 -39h-180v151h180q38 0 50.5 9.5t10.5 31.5l-11 123l135 13l11 -123q0 -6 1 -9zM88 -60l86 -86l-86 -84l-84 84zM207 -146l85 86l85 -86l-85 -84zM121 -293l70 69l69 -69l-69 -70z" />
    <glyph glyph-name="uniFB6B" unicode="&#x6a4;" horiz-adv-x="979" arabic-form="final" 
d="M817 751l-69 -70l-69 70l69 69zM731 602l-85 -85l-85 85l85 85zM849 517l-84 85l84 85l85 -85zM926 151h58v-151h-58q-88 0 -188 36q-108 -36 -202 -36h-52q-161 0 -219.5 5.5t-103.5 24.5q-69 30 -96 97t-5 150l38 146l130 -39l-39 -153q-7 -28 -1.5 -40.5t27.5 -22.5
q21 -9 72.5 -13t201.5 -4h47q17 0 27 1q-30 40 -26 78l6 59q9 87 74 139.5t149 43.5q80 -9 130 -74.5t45 -148.5l-3 -47q-1 -25 -19 -51h7zM672 224q19 -25 62 -43q58 17 69 37l4 32q4 24 -13.5 46t-44.5 26q-28 3 -50 -14t-24 -44z" />
    <glyph glyph-name="uniFB6C" unicode="&#x6a4;" horiz-adv-x="495" arabic-form="initial" 
d="M298 885l-69 -70l-69 70l69 69zM212 736l-85 -85l-85 85l85 85zM330 651l-85 85l85 85l85 -85zM444 207q7 -107 -50.5 -157t-211.5 -50h-187v151h189q88 0 110.5 8.5t19.5 41.5q-36 -3 -97 -3q-82 0 -132 47t-51 130q-1 96 46 161t134 71q89 7 149.5 -55t67.5 -166z
M157 386q3 -48 60 -48q44 0 86 4l-3 33q-11 99 -79 96q-32 -1 -49.5 -25.5t-14.5 -59.5z" />
    <glyph glyph-name="uniFB6D" unicode="&#x6a4;" horiz-adv-x="490" arabic-form="medial" 
d="M321 747l-69 -69l-69 69l69 69zM235 598l-85 -84l-84 84l84 85zM353 514l-84 84l84 85l86 -85zM437 151h58v-151h-58q-90 0 -188 36q-108 -36 -202 -36h-52v151h52q17 0 27 1q-30 40 -26 78l5 59q10 87 75 139.5t149 43.5q80 -9 129.5 -74.5t44.5 -148.5l-3 -47
q-1 -25 -19 -51h8zM182 224q21 -25 63 -43q58 17 69 37l4 32q3 25 -14 46.5t-44 25.5q-28 3 -50 -14t-24 -44z" />
    <glyph glyph-name="uniFB7B" unicode="&#x686;" horiz-adv-x="740" arabic-form="final" 
d="M708 151h37v-151h-37q-68 0 -121 38t-78 101l-169 -47q-93 -24 -129 -74.5t-21 -113.5q15 -60 74.5 -90t128.5 -11l253 70l35 -147l-259 -71q-122 -31 -225 27.5t-136 178.5q-33 125 32 232t212 146l201 50l-156 77q-34 18 -70 8.5t-56 -43.5l-17 -31l-118 74l20 35
q53 88 137 112.5t170 -22.5l259 -145l-19 -174l-11 -3q23 -26 63 -26zM526 45l-45 -87l-87 47l47 85zM230 -46l46 86l86 -45l-45 -87zM472 -72l-45 -87l-87 47l47 86z" />
    <glyph glyph-name="uniFB7C" unicode="&#x686;" horiz-adv-x="676" arabic-form="initial" 
d="M374 427l252 -145l-19 -174l-290 -78q-113 -30 -317 -30h-5v151h6q187 0 282 25l180 42l-155 76q-34 18 -70 8.5t-56 -43.5l-17 -31l-118 74l20 35q49 88 135.5 113.5t171.5 -23.5zM226 -61l86 -85l-86 -85l-84 85zM345 -146l85 85l85 -85l-85 -85zM259 -294l70 69
l69 -69l-69 -69z" />
    <glyph glyph-name="uniFB7D" unicode="&#x686;" horiz-adv-x="684" arabic-form="medial" 
d="M625 151h64v-151h-64q-49 0 -91.5 25t-68.5 68l-151 -47q-152 -46 -314 -46h-5v151h6q125 1 274 40l184 47l-159 70q-36 17 -69.5 7t-53.5 -43l-18 -32l-117 74l19 35q53 88 137.5 112.5t168.5 -21.5l255 -135l-18 -150q9 -4 21 -4zM214 -59l85 -86l-85 -84l-85 84z
M333 -145l84 86l86 -86l-86 -84zM247 -292l69 69l69 -69l-69 -70z" />
    <glyph glyph-name="uniFB8B" unicode="&#x698;" horiz-adv-x="408" arabic-form="final" 
d="M274 633l-69 -70l-69 70l69 69zM188 484l-85 -85l-85 85l85 85zM306 399l-85 85l85 85l85 -85zM413 151v-151h-71q-14 0 -20 1q1 -55 -16.5 -95.5t-57 -70t-89 -50t-124.5 -41.5l-35 147q125 34 159 55.5t26 79.5l-40 288l133 20l12 -87q10 -62 20.5 -79t31.5 -17h71z
" />
    <glyph glyph-name="uniFB8F" unicode="&#x6a9;" horiz-adv-x="1003" arabic-form="final" 
d="M994 151h14v-151h-14q-80 0 -147 62q-46 -62 -144 -62h-219q-161 0 -219.5 5.5t-103.5 24.5q-69 30 -96 97t-5 150l38 146l130 -39l-39 -153q-7 -28 -1.5 -40.5t27.5 -22.5q21 -9 72.5 -13t201.5 -4h216q17 0 26 7q21 16 3 45l-220 311l30 114l362 133l47 -141l-270 -99
l153 -228l10 -16q44 -75 74.5 -100.5t73.5 -25.5z" />
    <glyph glyph-name="uniFB90" unicode="&#x6a9;" horiz-adv-x="489" arabic-form="initial" 
d="M193 521l154 -228q41 -63 43.5 -126t-31.5 -104q-47 -63 -145 -63h-219v151h221q17 0 26 7q21 16 3 45l-220 311l30 114l362 133l47 -141z" />
    <glyph glyph-name="uniFB91" unicode="&#x6a9;" horiz-adv-x="514" arabic-form="medial" 
d="M505 151h14v-151h-14q-80 0 -147 62q-47 -62 -144 -62h-219v151h221q17 0 26 7q21 16 3 45l-220 311l30 114l362 133l47 -141l-271 -99l154 -228q15 -25 17 -29q41 -66 70.5 -89.5t70.5 -23.5z" />
    <glyph glyph-name="uniFB93" unicode="&#x6af;" horiz-adv-x="1003" arabic-form="final" 
d="M810 804l-244 -88l-33 93l244 88zM994 151h14v-151h-14q-80 0 -147 62q-46 -62 -144 -62h-219q-161 0 -219.5 5.5t-103.5 24.5q-69 30 -96 97t-5 150l38 146l130 -39l-39 -153q-7 -28 -1.5 -40.5t27.5 -22.5q21 -9 72.5 -13t201.5 -4h216q17 0 26 7q21 16 3 45l-220 311
l30 114l362 133l47 -141l-270 -99l153 -228l10 -16q44 -75 74.5 -100.5t73.5 -25.5z" />
    <glyph glyph-name="uniFB94" unicode="&#x6af;" horiz-adv-x="489" arabic-form="initial" 
d="M328 801l-244 -88l-33 92l244 88zM193 521l154 -228q41 -63 43.5 -126t-31.5 -104q-47 -63 -145 -63h-219v151h221q17 0 26 7q21 16 3 45l-220 311l30 114l362 133l47 -141z" />
    <glyph glyph-name="uniFB95" unicode="&#x6af;" horiz-adv-x="514" arabic-form="medial" 
d="M328 801l-244 -88l-33 92l244 88zM505 151h14v-151h-14q-80 0 -147 62q-47 -62 -144 -62h-219v151h221q17 0 26 7q21 16 3 45l-220 311l30 114l362 133l47 -141l-271 -99l154 -228q15 -25 17 -29q41 -66 70.5 -89.5t70.5 -23.5z" />
    <glyph glyph-name="uniFB9F" unicode="&#x6ba;" horiz-adv-x="733" arabic-form="final" 
d="M711 151h27v-151h-23q-18 0 -33 4q-1 -100 -66 -154.5t-200 -85.5q-106 -25 -189.5 4t-126 99.5t-49.5 174t38 229.5l128 -50q-59 -172 -12.5 -256.5t181.5 -52.5q108 25 137.5 45.5t21.5 80.5l-41 275l133 22q5 -32 11 -75q12 -70 24 -89.5t39 -19.5z" />
    <glyph glyph-name="uniFBFD" unicode="&#x6cc;" horiz-adv-x="718" arabic-form="final" 
d="M723 151v-151q-31 0 -44 1q2 -94 -61 -149.5t-202 -87.5q-106 -25 -189.5 4t-126 99.5t-49.5 174t38 229.5l128 -50q-59 -172 -12.5 -256t181.5 -53q103 24 133 42.5t25 60.5q-1 7 -25 19l-108 34l42 144q146 -41 189.5 -51t80.5 -10z" />
    <glyph glyph-name="uniFBFE" unicode="&#x6cc;" horiz-adv-x="414" arabic-form="initial" 
d="M-5 0v151h154q51 0 68.5 18.5t4.5 66.5l-39 149l129 39l42 -157q31 -116 -29.5 -191.5t-175.5 -75.5h-154zM4 -233l-85 85l85 85l85 -85zM208 -233l-85 85l85 85l85 -85z" />
    <glyph glyph-name="uniFBFF" unicode="&#x6cc;" horiz-adv-x="426" arabic-form="medial" 
d="M372 196q2 -27 13.5 -36t45.5 -9v-151q-78 0 -126 39q-51 -39 -130 -39h-180v151h180q38 0 50.5 9.5t10.5 31.5l-11 123l135 13l11 -123q0 -6 1 -9zM4 -150l85 85l85 -85l-85 -85zM208 -150l85 85l85 -85l-85 -85z" />
    <glyph glyph-name="uniFDF2" unicode="&#xfdf2;" horiz-adv-x="1404" arabic-form="isolated" 
d="M710 1092v-162h-64v162h64zM620 732q-46 0 -73 34.5t-14 80.5l14 56l58 -16l-11 -51q-6 -27 26 -27q9 0 15.5 3t8.5 6t2 5l2 67h56l2 -67q0 -2 2.5 -5t8.5 -6t15 -3q18 0 24 6.5t3 17.5l-17 71l59 18l21 -75q13 -46 -14 -80.5t-76 -34.5q-37 0 -55 21q-23 -21 -57 -21z
M1030 698l19 -495q5 -87 -48.5 -145t-146.5 -58h-33q-73 0 -125 44q-50 -44 -131 -44h-32q-109 0 -177 89q-21 -3 -58.5 -9t-40.5 -6q-59 -8 -117.5 32.5t-79.5 103.5q-26 77 10.5 153t111.5 101l127 41v34h135v-306q0 -34 26 -58t63 -24h32q37 0 49.5 11.5t11.5 33.5
l-19 496l134 6l19 -489q1 -33 16 -45.5t45 -12.5h33q37 0 49.5 11.5t11.5 33.5l-19 496zM1307 698l27 -696l-135 -6l-27 696zM246 225q4 0 13.5 2t24 4t25.5 4v122l-85 -30q-23 -8 -32.5 -25.5t-4.5 -37.5q4 -18 21 -30.5t38 -8.5z" />
    <glyph glyph-name="uniFDFC" unicode="&#xfdfc;" horiz-adv-x="1586" arabic-form="isolated" 
d="M653 698l25 -645q5 -130 -56.5 -192t-206.5 -97q-87 -18 -156 -6.5t-117 58t-72 112t-20 155t38 187.5l129 -50q-60 -170 -13 -257t180 -53q40 10 57.5 15t41 14t31.5 16.5t17.5 20.5t11 29.5t0.5 40.5l-25 646zM984 -13q-106 1 -151 53.5t-50 178.5l-18 460l134 7
l18 -467q1 -56 11.5 -68t59.5 -12h75q53 0 70 18t5 67l-40 149l129 38l40 -149q33 -120 -27 -197.5t-177 -77.5h-79zM1533 44q9 -67 -4 -115t-52.5 -82.5t-91.5 -57t-134 -45.5l-36 147q125 34 159 55.5t26 79.5l-40 288l133 20zM782 -178l84 86l86 -86l-86 -84zM986 -178
l84 86l86 -86l-86 -84z" />
    <glyph glyph-name="uniFE82" unicode="&#x622;" horiz-adv-x="288" arabic-form="final" 
d="M0 625v24q0 50 33.5 77.5t83.5 17.5l101 -19q37 -6 37 21v4l68 5v-24q0 -50 -33.5 -77.5t-83.5 -17.5l-101 19q-37 6 -37 -21v-4zM283 0q-108 0 -154.5 52.5t-51.5 179.5l-14 360l135 6l14 -366q2 -57 12 -69t59 -12h10v-151h-10z" />
    <glyph glyph-name="uniFE84" unicode="&#x623;" horiz-adv-x="288" arabic-form="final" 
d="M188 686q-2 0 -5 -1t-5 -1l-159 -37l-16 73l68 16q-10 18 -14 36q-14 57 22 101t92 40l80 -12l-13 -74q-7 1 -18.5 3t-34.5 4.5t-31 0.5q-18 -4 -27.5 -17t-5.5 -30q3 -13 18 -22t30 -7l112 27l16 -74zM212 232q2 -57 12 -69t59 -12h10v-151h-10q-108 0 -154.5 52.5
t-51.5 179.5l-14 360l135 6z" />
    <glyph glyph-name="uniFE86" unicode="&#x624;" horiz-adv-x="528" arabic-form="final" 
d="M139 475l-16 73l69 17q-10 14 -15 36q-13 56 23 100t92 40l79 -12l-13 -73q-7 1 -18.5 3t-34.5 4.5t-31 0.5q-18 -5 -27.5 -18t-5.5 -29q4 -15 19.5 -23.5t32.5 -4.5l109 26l16 -74zM533 151v-151h-42q0 -113 -76.5 -164t-278.5 -92l-27 148q159 33 201.5 51t43.5 57
h-102q-84 0 -136.5 51t-60.5 138q-8 97 48 171t145 78q90 4 151 -61.5t72 -173.5l6 -52h56zM190 200q2 -26 16 -37.5t46 -11.5h88l-4 36q-11 103 -81 100q-32 -1 -50 -26t-15 -61z" />
    <glyph glyph-name="uniFE88" unicode="&#x625;" horiz-adv-x="285" arabic-form="final" 
d="M280 0q-108 0 -154 52.5t-51 179.5l-18 460l134 6l18 -466q1 -57 11.5 -69t59.5 -12h10v-151h-10zM293 -230l-110 -27q-10 -2 -14 -2l-155 -37l-16 73l69 16q-10 16 -15 37q-14 56 22 100t92 40l80 -12l-13 -73q-7 1 -18.5 3t-34.5 4.5t-31 0.5q-18 -5 -27.5 -18
t-5.5 -29q4 -13 17 -21.5t29 -8.5l115 28z" />
    <glyph glyph-name="uniFE8A" unicode="&#x626;" horiz-adv-x="718" arabic-form="final" 
d="M249 252l-17 73l69 17q-10 14 -15 36q-13 56 23 100t92 40l79 -12l-13 -73q-7 1 -18.5 3t-34 4.5t-30.5 0.5q-19 -5 -28.5 -18t-5.5 -29q4 -13 17 -21.5t29 -8.5l115 28l16 -74l-109 -27q-10 -2 -15 -2zM723 151v-151q-31 0 -44 1q2 -94 -61 -149.5t-202 -87.5
q-106 -25 -189.5 4t-126 99.5t-49.5 174t38 229.5l128 -50q-59 -172 -12.5 -256t181.5 -53q103 24 133 42.5t25 60.5q-1 7 -25 19l-108 34l42 144q146 -41 189.5 -51t80.5 -10z" />
    <glyph glyph-name="uniFE8B" unicode="&#x626;" horiz-adv-x="339" arabic-form="initial" 
d="M22 460l-16 74l68 16q-10 18 -14 36q-13 57 23 100.5t92 39.5l79 -12l-13 -73q-7 1 -18.5 3t-34.5 4.5t-31 0.5q-18 -4 -27.5 -17t-5.5 -30q4 -14 18 -22.5t30 -6.5l113 27l16 -74zM238 424l40 -149q32 -120 -27.5 -197.5t-176.5 -77.5h-79v151h79q52 0 69.5 18t4.5 67
l-40 149z" />
    <glyph glyph-name="uniFE8C" unicode="&#x626;" horiz-adv-x="309" arabic-form="medial" 
d="M23 382l-16 74l68 16q-10 18 -14 36q-14 57 21.5 100.5t92.5 39.5l80 -12l-13 -73q-7 1 -18.5 3t-34.5 4.5t-31 0.5q-18 -4 -27.5 -17t-5.5 -30q3 -14 18 -22.5t30 -6.5l112 27l16 -74l-109 -26l-4 -1zM314 151v-151q-79 0 -127 39q-51 -39 -129 -39h-63v151h63
q37 0 50 9.5t11 31.5l-11 123l134 13l11 -123v-2q3 -31 14.5 -41.5t46.5 -10.5z" />
    <glyph glyph-name="uniFE8E" unicode="&#x627;" horiz-adv-x="285" arabic-form="final" 
d="M280 0q-108 0 -154 52.5t-51 179.5l-18 460l134 6l18 -466q1 -57 11.5 -69t59.5 -12h10v-151h-10z" />
    <glyph glyph-name="uniFE90" unicode="&#x628;" horiz-adv-x="981" arabic-form="final" 
d="M986 151v-151q-79 0 -127 39q-51 -39 -129 -39h-241q-164 0 -223.5 5.5t-104.5 24.5q-69 30 -96 97t-5 150l38 146l130 -39l-39 -153q-7 -28 -1.5 -40.5t27.5 -22.5q21 -9 72.5 -13t201.5 -4h241q36 0 49.5 9t11.5 29v3l-11 123l135 13l11 -123v-6q3 -29 14.5 -38.5
t45.5 -9.5zM407 -148l96 96l96 -96l-96 -96z" />
    <glyph glyph-name="uniFE91" unicode="&#x628;" horiz-adv-x="339" arabic-form="initial" 
d="M-5 0v151h79q52 0 69.5 18t4.5 67l-40 149l130 39l40 -149q32 -120 -27.5 -197.5t-176.5 -77.5h-79zM69 -244l-96 96l96 96l96 -96z" />
    <glyph glyph-name="uniFE92" unicode="&#x628;" horiz-adv-x="309" arabic-form="medial" 
d="M253 203q3 -31 14.5 -41.5t46.5 -10.5v-151q-79 0 -127 39q-51 -39 -129 -39h-63v151h63q37 0 50 9.5t11 31.5l-11 123l134 13l11 -123v-2zM44 -147l96 96l96 -96l-96 -96z" />
    <glyph glyph-name="uniFE94" unicode="&#x629;" horiz-adv-x="547" arabic-form="final" 
d="M262 657l-85 -84l-85 84l85 86zM466 657l-85 -84l-85 84l85 86zM533 151h19v-151h-19q-109 0 -177 89q-21 -3 -58.5 -9t-40.5 -6q-59 -8 -117.5 32.5t-79.5 103.5q-26 77 10.5 153t111.5 101l127 41v34h135v-306q0 -34 26 -58t63 -24zM246 225q4 0 13.5 2t24 4t25.5 4
v122l-85 -30q-23 -8 -32.5 -25.5t-4.5 -37.5q4 -18 21 -30.5t38 -8.5z" />
    <glyph glyph-name="uniFE96" unicode="&#x62a;" horiz-adv-x="981" arabic-form="final" 
d="M476 436l-85 -84l-85 84l85 86zM680 436l-85 -84l-85 84l85 86zM986 151v-151q-79 0 -127 39q-51 -39 -129 -39h-241q-164 0 -223.5 5.5t-104.5 24.5q-69 30 -96 97t-5 150l38 146l130 -39l-39 -153q-7 -28 -1.5 -40.5t27.5 -22.5q21 -9 72.5 -13t201.5 -4h241
q36 0 49.5 9t11.5 29v3l-11 123l135 13l11 -123v-6q3 -29 14.5 -38.5t45.5 -9.5z" />
    <glyph glyph-name="uniFE97" unicode="&#x62a;" horiz-adv-x="414" arabic-form="initial" 
d="M120 488l-85 85l85 85l85 -85zM324 488l-85 85l85 85l85 -85zM-5 0v151h154q51 0 68.5 18.5t4.5 66.5l-39 149l129 39l42 -157q31 -116 -29.5 -191.5t-175.5 -75.5h-154z" />
    <glyph glyph-name="uniFE98" unicode="&#x62a;" horiz-adv-x="426" arabic-form="medial" 
d="M192 491l-85 -84l-85 84l85 86zM396 491l-85 -84l-85 84l85 86zM431 151v-151q-78 0 -126 39q-51 -39 -130 -39h-180v151h180q38 0 50.5 9.5t10.5 31.5l-11 123l135 13l11 -123q0 -6 1 -9q2 -27 13.5 -36t45.5 -9z" />
    <glyph glyph-name="uniFE9A" unicode="&#x62b;" horiz-adv-x="981" arabic-form="final" 
d="M565 538l-69 -70l-69 70l69 69zM479 389l-85 -85l-85 85l85 85zM597 304l-85 85l85 85l85 -85zM986 151v-151q-79 0 -127 39q-51 -39 -129 -39h-241q-164 0 -223.5 5.5t-104.5 24.5q-69 30 -96 97t-5 150l38 146l130 -39l-39 -153q-7 -28 -1.5 -40.5t27.5 -22.5
q21 -9 72.5 -13t201.5 -4h241q36 0 49.5 9t11.5 29v3l-11 123l135 13l11 -123v-6q3 -29 14.5 -38.5t45.5 -9.5z" />
    <glyph glyph-name="uniFE9B" unicode="&#x62b;" horiz-adv-x="414" arabic-form="initial" 
d="M196 650l-70 70l70 69l69 -69zM93 486l-84 85l84 85l86 -85zM297 486l-85 85l85 85l85 -85zM-5 0v151h154q51 0 68.5 18.5t4.5 66.5l-39 149l129 39l42 -157q31 -116 -29.5 -191.5t-175.5 -75.5h-154z" />
    <glyph glyph-name="uniFE9C" unicode="&#x62b;" horiz-adv-x="426" arabic-form="medial" 
d="M272 639l-69 -70l-70 70l70 69zM186 490l-85 -85l-85 85l85 85zM304 405l-85 85l85 85l85 -85zM431 151v-151q-78 0 -126 39q-51 -39 -130 -39h-180v151h180q38 0 50.5 9.5t10.5 31.5l-11 123l135 13l11 -123q0 -6 1 -9q2 -27 13.5 -36t45.5 -9z" />
    <glyph glyph-name="uniFE9E" unicode="&#x62c;" horiz-adv-x="740" arabic-form="final" 
d="M708 151h37v-151h-37q-68 0 -121 38t-78 101l-169 -47q-93 -24 -129 -74.5t-21 -113.5q15 -60 74.5 -90t128.5 -11l253 70l35 -147l-259 -71q-122 -31 -225 27.5t-136 178.5q-33 125 32 232t212 146l201 50l-156 77q-34 18 -70 8.5t-56 -43.5l-17 -31l-118 74l20 35
q53 88 137 112.5t170 -22.5l259 -145l-19 -174l-11 -3q23 -26 63 -26zM413 -141l-96 96l96 96l96 -96z" />
    <glyph glyph-name="uniFE9F" unicode="&#x62c;" horiz-adv-x="676" arabic-form="initial" 
d="M374 427l252 -145l-19 -174l-290 -78q-113 -30 -317 -30h-5v151h6q187 0 282 25l180 42l-155 76q-34 18 -70 8.5t-56 -43.5l-17 -31l-118 74l20 35q49 88 135.5 113.5t171.5 -23.5zM224 -143l96 96l96 -96l-96 -96z" />
    <glyph glyph-name="uniFEA0" unicode="&#x62c;" horiz-adv-x="684" arabic-form="medial" 
d="M625 151h64v-151h-64q-49 0 -91.5 25t-68.5 68l-151 -47q-152 -46 -314 -46h-5v151h6q125 1 274 40l184 47l-159 70q-36 17 -69.5 7t-53.5 -43l-18 -32l-117 74l19 35q53 88 137.5 112.5t168.5 -21.5l255 -135l-18 -150q9 -4 21 -4zM224 -143l96 96l96 -96l-96 -96z" />
    <glyph glyph-name="uniFEA2" unicode="&#x62d;" horiz-adv-x="740" arabic-form="final" 
d="M708 151h37v-151h-37q-68 0 -121 38t-78 101l-169 -47q-93 -24 -129 -74.5t-21 -113.5q15 -60 74.5 -90t128.5 -11l253 70l35 -147l-259 -71q-122 -31 -225 27.5t-136 178.5q-33 125 32 232t212 146l201 50l-156 77q-34 18 -70 8.5t-56 -43.5l-17 -31l-118 74l20 35
q53 88 137 112.5t170 -22.5l259 -145l-19 -174l-11 -3q23 -26 63 -26z" />
    <glyph glyph-name="uniFEA3" unicode="&#x62d;" horiz-adv-x="676" arabic-form="initial" 
d="M374 427l252 -145l-19 -174l-290 -78q-113 -30 -317 -30h-5v151h6q187 0 282 25l180 42l-155 76q-34 18 -70 8.5t-56 -43.5l-17 -31l-118 74l20 35q49 88 135.5 113.5t171.5 -23.5z" />
    <glyph glyph-name="uniFEA4" unicode="&#x62d;" horiz-adv-x="684" arabic-form="medial" 
d="M625 151h64v-151h-64q-49 0 -91.5 25t-68.5 68l-151 -47q-152 -46 -314 -46h-5v151h6q125 1 274 40l184 47l-159 70q-36 17 -69.5 7t-53.5 -43l-18 -32l-117 74l19 35q53 88 137.5 112.5t168.5 -21.5l255 -135l-18 -150q9 -4 21 -4z" />
    <glyph glyph-name="uniFEA6" unicode="&#x62e;" horiz-adv-x="740" arabic-form="final" 
d="M403 665l-96 -96l-97 96l97 97zM708 151h37v-151h-37q-68 0 -121 38t-78 101l-169 -47q-93 -24 -129 -74.5t-21 -113.5q15 -60 74.5 -90t128.5 -11l253 70l35 -147l-259 -71q-122 -31 -225 27.5t-136 178.5q-33 125 32 232t212 146l201 50l-156 77q-34 18 -70 8.5
t-56 -43.5l-17 -31l-118 74l20 35q53 88 137 112.5t170 -22.5l259 -145l-19 -174l-11 -3q23 -26 63 -26z" />
    <glyph glyph-name="uniFEA7" unicode="&#x62e;" horiz-adv-x="676" arabic-form="initial" 
d="M362 615l-96 -96l-96 96l96 96zM374 427l252 -145l-19 -174l-290 -78q-113 -30 -317 -30h-5v151h6q187 0 282 25l180 42l-155 76q-34 18 -70 8.5t-56 -43.5l-17 -31l-118 74l20 35q49 88 135.5 113.5t171.5 -23.5z" />
    <glyph glyph-name="uniFEA8" unicode="&#x62e;" horiz-adv-x="684" arabic-form="medial" 
d="M361 615l-96 -96l-96 96l96 96zM625 151h64v-151h-64q-49 0 -91.5 25t-68.5 68l-151 -47q-152 -46 -314 -46h-5v151h6q125 1 274 40l184 47l-159 70q-36 17 -69.5 7t-53.5 -43l-18 -32l-117 74l19 35q53 88 137.5 112.5t168.5 -21.5l255 -135l-18 -150q9 -4 21 -4z" />
    <glyph glyph-name="uniFEAA" unicode="&#x62f;" horiz-adv-x="596" arabic-form="final" 
d="M552 151h49v-151h-49q-66 0 -108 44q-53 -44 -140 -44h-68q-78 0 -128 42t-52 103l-2 64h125q0 -26 1 -39q1 -11 8.5 -15t24.5 -4h109q31 0 41 11t6 30q0 3 -2 9l-74 292l131 37l74 -294q14 -53 23.5 -69t30.5 -16z" />
    <glyph glyph-name="uniFEAC" unicode="&#x630;" horiz-adv-x="596" arabic-form="final" 
d="M456 672l-96 -96l-96 96l96 96zM552 151h49v-151h-49q-66 0 -108 44q-53 -44 -140 -44h-68q-78 0 -128 42t-52 103l-2 64h125q0 -26 1 -39q1 -11 8.5 -15t24.5 -4h109q31 0 41 11t6 30q0 3 -2 9l-74 292l131 37l74 -294q14 -53 23.5 -69t30.5 -16z" />
    <glyph glyph-name="uniFEAE" unicode="&#x631;" horiz-adv-x="343" arabic-form="final" 
d="M342 151h6v-151h-6q-14 0 -20 1q1 -55 -16.5 -95.5t-57 -70t-89 -50t-124.5 -41.5l-35 147q125 34 159 55.5t26 79.5l-40 288l133 20l12 -87q10 -62 20.5 -79t31.5 -17z" />
    <glyph glyph-name="uniFEB0" unicode="&#x632;" horiz-adv-x="343" arabic-form="final" 
d="M299 502l-96 -96l-96 96l96 97zM342 151h6v-151h-6q-14 0 -20 1q1 -55 -16.5 -95.5t-57 -70t-89 -50t-124.5 -41.5l-35 147q125 34 159 55.5t26 79.5l-40 288l133 20l12 -87q10 -62 20.5 -79t31.5 -17z" />
    <glyph glyph-name="uniFEB2" unicode="&#x633;" horiz-adv-x="1266" arabic-form="final" 
d="M1271 151v-151q-82 0 -141 54q-52 -54 -133 -54q-76 0 -126 50q-52 -50 -122 -50q-35 0 -67 16q3 -107 -62 -163.5t-204 -88.5q-106 -25 -189.5 4t-126 99.5t-49.5 174t38 229.5l128 -50q-59 -172 -12.5 -256.5t181.5 -52.5q108 25 137.5 45.5t21.5 80.5l-41 275l133 22
l17 -114q9 -40 29.5 -54.5t61.5 -14.5q35 0 47.5 12t12.5 35v124h127v-124q0 -5 1.5 -10.5t6 -14.5t17 -14.5t31.5 -5.5q40 0 54 11t8 31l-33 123l122 36l33 -123l2 -8q10 -34 36 -53.5t61 -19.5z" />
    <glyph glyph-name="uniFEB3" unicode="&#x633;" horiz-adv-x="774" arabic-form="initial" 
d="M712 275q33 -117 -22.5 -196t-162.5 -79q-70 0 -120 45q-50 -45 -122 -45q-69 0 -119 47q-50 -47 -124 -47h-47v151h47q36 0 48.5 11.5t12.5 34.5v2v124h126v-124q0 -48 56 -48q36 0 48 11.5t12 34.5v2v124h127v-124v-4q0 -44 55 -44q41 0 55 18.5t1 66.5l-40 149l129 39
z" />
    <glyph glyph-name="uniFEB4" unicode="&#x633;" horiz-adv-x="790" arabic-form="medial" 
d="M795 151v-151q-82 0 -141 54q-52 -54 -133 -54q-71 0 -123 52q-52 -52 -130 -52q-69 0 -118 51q-53 -51 -125 -51h-30v151h30q37 0 49 11.5t12 36.5v124h127v-124q3 -48 55 -48q37 0 49 12t12 36v124h126v-124q0 -2 0.5 -5.5t3.5 -11t8.5 -13.5t17 -10.5t27.5 -4.5
q74 0 62 42l-33 123l122 36l33 -123l2 -8q10 -34 36 -53.5t61 -19.5z" />
    <glyph glyph-name="uniFEB6" unicode="&#x634;" horiz-adv-x="1266" arabic-form="final" 
d="M940 649l-69 -70l-69 70l69 68zM854 499l-85 -84l-85 84l85 86zM972 415l-85 84l85 86l85 -86zM1271 151v-151q-82 0 -141 54q-52 -54 -133 -54q-76 0 -126 50q-52 -50 -122 -50q-35 0 -67 16q3 -107 -62 -163.5t-204 -88.5q-106 -25 -189.5 4t-126 99.5t-49.5 174
t38 229.5l128 -50q-59 -172 -12.5 -256.5t181.5 -52.5q108 25 137.5 45.5t21.5 80.5l-41 275l133 22l17 -114q9 -40 29.5 -54.5t61.5 -14.5q35 0 47.5 12t12.5 35v124h127v-124q0 -5 1.5 -10.5t6 -14.5t17 -14.5t31.5 -5.5q40 0 54 11t8 31l-33 123l122 36l33 -123l2 -8
q10 -34 36 -53.5t61 -19.5z" />
    <glyph glyph-name="uniFEB7" unicode="&#x634;" horiz-adv-x="774" arabic-form="initial" 
d="M474 652l-68 -69l-70 69l70 69zM389 503l-86 -85l-84 85l84 85zM506 418l-84 85l84 85l86 -85zM712 275q33 -117 -22.5 -196t-162.5 -79q-70 0 -120 45q-50 -45 -122 -45q-69 0 -119 47q-50 -47 -124 -47h-47v151h47q36 0 48.5 11.5t12.5 34.5v2v124h126v-124
q0 -48 56 -48q36 0 48 11.5t12 34.5v2v124h127v-124v-4q0 -44 55 -44q41 0 55 18.5t1 66.5l-40 149l129 39z" />
    <glyph glyph-name="uniFEB8" unicode="&#x634;" horiz-adv-x="790" arabic-form="medial" 
d="M467 627l-69 -70l-69 70l69 68zM381 477l-85 -84l-85 84l85 86zM499 393l-84 84l84 86l86 -86zM795 151v-151q-82 0 -141 54q-52 -54 -133 -54q-71 0 -123 52q-52 -52 -130 -52q-69 0 -118 51q-53 -51 -125 -51h-30v151h30q37 0 49 11.5t12 36.5v124h127v-124
q3 -48 55 -48q37 0 49 12t12 36v124h126v-124q0 -2 0.5 -5.5t3.5 -11t8.5 -13.5t17 -10.5t27.5 -4.5q74 0 62 42l-33 123l122 36l33 -123l2 -8q10 -34 36 -53.5t61 -19.5z" />
    <glyph glyph-name="uniFEBA" unicode="&#x635;" horiz-adv-x="1328" arabic-form="final" 
d="M1319 151h14v-151h-14q-69 0 -137 47q-58 -47 -130 -47h-320h-17q-18 0 -33 4q-1 -100 -66 -154.5t-200 -85.5q-106 -25 -189.5 4t-126 99.5t-49.5 174t38 229.5l128 -50q-59 -172 -12.5 -256.5t181.5 -52.5q108 25 137.5 45.5t21.5 80.5l-41 275l133 22q5 -32 11 -75
q12 -70 24 -89.5t39 -19.5h21h1l62 85q42 58 67 89t57 60.5t63 41t70 11.5q90 0 150 -65t60 -161q0 -24 -4 -41q23 -20 61 -20zM1052 151q29 0 52.5 19.5t23.5 41.5q0 33 -21 54t-55 21q-32 0 -60 -26.5t-86 -109.5h146z" />
    <glyph glyph-name="uniFEBB" unicode="&#x635;" horiz-adv-x="812" arabic-form="initial" 
d="M552 438q90 0 150 -65t60 -161q0 -86 -62.5 -149t-147.5 -63h-320q-59 0 -102 40q-52 -38 -130 -40h-5v151h5q37 1 55 12t21 41l11 124l134 -13l-11 -122q-3 -42 23 -42l62 85q42 58 67 89t57 60.5t63 41t70 11.5zM552 151q29 0 52.5 19.5t23.5 41.5q0 33 -21 54t-55 21
q-32 0 -60 -26.5t-86 -109.5h146z" />
    <glyph glyph-name="uniFEBC" unicode="&#x635;" horiz-adv-x="828" arabic-form="medial" 
d="M819 151h14v-151h-14q-69 0 -137 47q-58 -47 -130 -47h-320q-59 0 -102 40q-52 -38 -130 -40h-5v151h5q37 1 55 12t21 41l11 124l134 -13l-11 -122q-3 -42 23 -42l62 85q42 58 67 89t57 60.5t63 41t70 11.5q90 0 150 -65t60 -161q0 -24 -4 -41q23 -20 61 -20zM552 151
q29 0 52.5 19.5t23.5 41.5q0 33 -21 54t-55 21q-32 0 -60 -26.5t-86 -109.5h146z" />
    <glyph glyph-name="uniFEBE" unicode="&#x636;" horiz-adv-x="1328" arabic-form="final" 
d="M1129 607l-97 -96l-96 96l96 96zM1319 151h14v-151h-14q-69 0 -137 47q-58 -47 -130 -47h-320h-17q-18 0 -33 4q-1 -100 -66 -154.5t-200 -85.5q-106 -25 -189.5 4t-126 99.5t-49.5 174t38 229.5l128 -50q-59 -172 -12.5 -256.5t181.5 -52.5q108 25 137.5 45.5t21.5 80.5
l-41 275l133 22q5 -32 11 -75q12 -70 24 -89.5t39 -19.5h21h1l62 85q42 58 67 89t57 60.5t63 41t70 11.5q90 0 150 -65t60 -161q0 -24 -4 -41q23 -20 61 -20zM1052 151q29 0 52.5 19.5t23.5 41.5q0 33 -21 54t-55 21q-32 0 -60 -26.5t-86 -109.5h146z" />
    <glyph glyph-name="uniFEBF" unicode="&#x636;" horiz-adv-x="812" arabic-form="initial" 
d="M629 581l-96 -96l-96 96l96 96zM552 438q90 0 150 -65t60 -161q0 -86 -62.5 -149t-147.5 -63h-320q-59 0 -102 40q-52 -38 -130 -40h-5v151h5q37 1 55 12t21 41l11 124l134 -13l-11 -122q-3 -42 23 -42l62 85q42 58 67 89t57 60.5t63 41t70 11.5zM552 151q29 0 52.5 19.5
t23.5 41.5q0 33 -21 54t-55 21q-32 0 -60 -26.5t-86 -109.5h146z" />
    <glyph glyph-name="uniFEC0" unicode="&#x636;" horiz-adv-x="828" arabic-form="medial" 
d="M624 592l-96 -96l-96 96l96 96zM819 151h14v-151h-14q-69 0 -137 47q-58 -47 -130 -47h-320q-59 0 -102 40q-52 -38 -130 -40h-5v151h5q37 1 55 12t21 41l11 124l134 -13l-11 -122q-3 -42 23 -42l62 85q42 58 67 89t57 60.5t63 41t70 11.5q90 0 150 -65t60 -161
q0 -24 -4 -41q23 -20 61 -20zM552 151q29 0 52.5 19.5t23.5 41.5q0 33 -21 54t-55 21q-32 0 -60 -26.5t-86 -109.5h146z" />
    <glyph glyph-name="uniFEC2" unicode="&#x637;" horiz-adv-x="707" arabic-form="final" 
d="M698 151h14v-151h-14q-60 0 -121 37q-53 -37 -116 -37h-411v151h92l28 39l-19 502l135 6l13 -341q73 81 162 81q90 0 150 -65t60 -161q0 -28 -8 -55q15 -6 35 -6zM461 151q29 0 52.5 19.5t23.5 41.5q0 33 -21 54t-55 21q-32 0 -60 -26.5t-86 -109.5h146z" />
    <glyph glyph-name="uniFEC3" unicode="&#x637;" horiz-adv-x="666" arabic-form="initial" 
d="M406 438q90 0 150 -65t60 -161q0 -86 -62.5 -149t-147.5 -63h-411v151h92l28 39l-19 502l135 6l13 -341q74 81 162 81zM406 151q29 0 52.5 19.5t23.5 41.5q0 33 -21 54t-55 21q-32 0 -60 -26.5t-86 -109.5h146z" />
    <glyph glyph-name="uniFEC4" unicode="&#x637;" horiz-adv-x="682" arabic-form="medial" 
d="M673 151h14v-151h-14q-69 0 -137 47q-58 -47 -130 -47h-411v151h92l28 39l-19 502l135 6l13 -341q74 81 162 81q90 0 150 -65t60 -161q0 -24 -4 -41q23 -20 61 -20zM406 151q29 0 52.5 19.5t23.5 41.5q0 33 -21 54t-55 21q-32 0 -60 -26.5t-86 -109.5h146z" />
    <glyph glyph-name="uniFEC6" unicode="&#x638;" horiz-adv-x="707" arabic-form="final" 
d="M576 610l-96 -96l-96 96l96 97zM698 151h14v-151h-14q-60 0 -121 37q-53 -37 -116 -37h-411v151h92l28 39l-19 502l135 6l13 -341q73 81 162 81q90 0 150 -65t60 -161q0 -28 -8 -55q15 -6 35 -6zM461 151q29 0 52.5 19.5t23.5 41.5q0 33 -21 54t-55 21q-32 0 -60 -26.5
t-86 -109.5h146z" />
    <glyph glyph-name="uniFEC7" unicode="&#x638;" horiz-adv-x="666" arabic-form="initial" 
d="M507 610l-96 -96l-96 96l96 97zM406 438q90 0 150 -65t60 -161q0 -86 -62.5 -149t-147.5 -63h-411v151h92l28 39l-19 502l135 6l13 -341q74 81 162 81zM406 151q29 0 52.5 19.5t23.5 41.5q0 33 -21 54t-55 21q-32 0 -60 -26.5t-86 -109.5h146z" />
    <glyph glyph-name="uniFEC8" unicode="&#x638;" horiz-adv-x="682" arabic-form="medial" 
d="M502 610l-96 -96l-96 96l96 97zM673 151h14v-151h-14q-69 0 -137 47q-58 -47 -130 -47h-411v151h92l28 39l-19 502l135 6l13 -341q74 81 162 81q90 0 150 -65t60 -161q0 -24 -4 -41q23 -20 61 -20zM406 151q29 0 52.5 19.5t23.5 41.5q0 33 -21 54t-55 21q-32 0 -60 -26.5
t-86 -109.5h146z" />
    <glyph glyph-name="uniFECA" unicode="&#x639;" horiz-adv-x="626" arabic-form="final" 
d="M461 156q53 -5 170 -5v-151q-158 0 -215.5 11t-97.5 62l-18 23q-119 -50 -114 -128q3 -40 36.5 -67t77.5 -24l293 25l12 -151l-295 -25q-100 -7 -175.5 60t-83.5 169q-15 169 170 246l-106 140l38 119l246 38q37 5 71.5 -8t57.5 -40t36 -59.5t10.5 -69.5t-21.5 -67
q-32 -62 -92 -98zM442 363q-158 -19 -159 -18l80 -101q82 27 90 102q4 8 0.5 13t-11.5 4z" />
    <glyph glyph-name="uniFECB" unicode="&#x639;" horiz-adv-x="536" arabic-form="initial" 
d="M314 13q-2 -1 -5 -1t-4 -1q-6 0 -9 -1q-34 -4 -106.5 -6.5t-127.5 -3.5h-55h-12v151h10q33 0 76 1q-6 17 -9 34q-17 90 32 164.5t136 90.5q27 4 71.5 -1.5t75.5 -13.5l31 -7l-36 -147q-9 2 -22.5 6t-43.5 9.5t-45 4.5q-32 -2 -52 -24t-15 -51q4 -24 23.5 -40t44.5 -16
q10 0 18 2v-1l170 32l26 -148z" />
    <glyph glyph-name="uniFECC" unicode="&#x639;" horiz-adv-x="524" arabic-form="medial" 
d="M529 151v-151q-117 0 -179 6.5t-109 31.5q-117 -38 -228 -38h-18v151h18q64 0 115 3l-95 128l39 119l244 36q59 8 107 -26t62.5 -87t-5.5 -113q-14 -33 -40 -59q27 -1 89 -1zM201 285l81 -102q77 31 90 104q3 8 -0.5 12.5t-11.5 3.5z" />
    <glyph glyph-name="uniFECE" unicode="&#x63a;" horiz-adv-x="626" arabic-form="final" 
d="M442 631l-96 -96l-96 96l96 96zM461 156q53 -5 170 -5v-151q-158 0 -215.5 11t-97.5 62l-18 23q-119 -50 -114 -128q3 -40 36.5 -67t77.5 -24l293 25l12 -151l-295 -25q-100 -7 -175.5 60t-83.5 169q-15 169 170 246l-106 140l38 119l246 38q37 5 71.5 -8t57.5 -40
t36 -59.5t10.5 -69.5t-21.5 -67q-32 -62 -92 -98zM442 363q-158 -19 -159 -18l80 -101q82 27 90 102q4 8 0.5 13t-11.5 4z" />
    <glyph glyph-name="uniFECF" unicode="&#x63a;" horiz-adv-x="536" arabic-form="initial" 
d="M343 583l-96 -96l-96 96l96 96zM314 13q-2 -1 -5 -1t-4 -1q-6 0 -9 -1q-34 -4 -106.5 -6.5t-127.5 -3.5h-55h-12v151h10q33 0 76 1q-6 17 -9 34q-17 90 32 164.5t136 90.5q27 4 71.5 -1.5t75.5 -13.5l31 -7l-36 -147q-9 2 -22.5 6t-43.5 9.5t-45 4.5q-32 -2 -52 -24
t-15 -51q4 -24 23.5 -40t44.5 -16q10 0 18 2v-1l170 32l26 -148z" />
    <glyph glyph-name="uniFED0" unicode="&#x63a;" horiz-adv-x="524" arabic-form="medial" 
d="M371 598l-97 -96l-96 96l96 96zM529 151v-151q-117 0 -179 6.5t-109 31.5q-117 -38 -228 -38h-18v151h18q64 0 115 3l-95 128l39 119l244 36q59 8 107 -26t62.5 -87t-5.5 -113q-14 -33 -40 -59q27 -1 89 -1zM201 285l81 -102q77 31 90 104q3 8 -0.5 12.5t-11.5 3.5z" />
    <glyph glyph-name="uniFED2" unicode="&#x641;" horiz-adv-x="979" arabic-form="final" 
d="M857 609l-96 -96l-96 96l96 96zM926 151h58v-151h-58q-88 0 -188 36q-108 -36 -202 -36h-52q-161 0 -219.5 5.5t-103.5 24.5q-69 30 -96 97t-5 150l38 146l130 -39l-39 -153q-7 -28 -1.5 -40.5t27.5 -22.5q21 -9 72.5 -13t201.5 -4h47q17 0 27 1q-30 40 -26 78l6 59
q9 87 74 139.5t149 43.5q80 -9 130 -74.5t45 -148.5l-3 -47q-1 -25 -19 -51h7zM672 224q19 -25 62 -43q58 17 69 37l4 32q4 24 -13.5 46t-44.5 26q-28 3 -50 -14t-24 -44z" />
    <glyph glyph-name="uniFED3" unicode="&#x641;" horiz-adv-x="495" arabic-form="initial" 
d="M321 771l-96 -96l-96 96l96 96zM444 207q7 -107 -50.5 -157t-211.5 -50h-187v151h189q88 0 110.5 8.5t19.5 41.5q-36 -3 -97 -3q-82 0 -132 47t-51 130q-1 96 46 161t134 71q89 7 149.5 -55t67.5 -166zM157 386q3 -48 60 -48q44 0 86 4l-3 33q-11 99 -79 96
q-32 -1 -49.5 -25.5t-14.5 -59.5z" />
    <glyph glyph-name="uniFED4" unicode="&#x641;" horiz-adv-x="490" arabic-form="medial" 
d="M360 636l-96 -96l-96 96l96 96zM437 151h58v-151h-58q-90 0 -188 36q-108 -36 -202 -36h-52v151h52q17 0 27 1q-30 40 -26 78l5 59q10 87 75 139.5t149 43.5q80 -9 129.5 -74.5t44.5 -148.5l-3 -47q-1 -25 -19 -51h8zM182 224q21 -25 63 -43q58 17 69 37l4 32
q3 25 -14 46.5t-44 25.5q-28 3 -50 -14t-24 -44z" />
    <glyph glyph-name="uniFED6" unicode="&#x642;" horiz-adv-x="750" arabic-form="final" 
d="M373 469l-84 85l84 85l86 -85zM577 469l-84 85l84 85l86 -85zM416 -236q-106 -25 -189.5 4t-126 99.5t-49.5 174t38 229.5l128 -50q-59 -172 -12.5 -256.5t181.5 -52.5q42 9 70 16t58.5 17.5t45.5 21.5t14 24l-1 9h-100q-84 0 -136.5 51t-59.5 138q-8 97 48 171t145 78
t150 -61.5t72 -173.5l6 -52h57v-151h-44v-17q-6 -91 -73 -137.5t-222 -81.5zM473 151h88l-3 36q-11 103 -82 100q-32 -1 -49.5 -26t-15.5 -61q2 -26 16 -37.5t46 -11.5z" />
    <glyph glyph-name="uniFED7" unicode="&#x642;" horiz-adv-x="495" arabic-form="initial" 
d="M208 747l-85 -84l-85 84l85 86zM412 747l-85 -84l-85 84l85 86zM444 207q7 -107 -50.5 -157t-211.5 -50h-187v151h189q88 0 110.5 8.5t19.5 41.5q-36 -3 -97 -3q-82 0 -132 47t-51 130q-1 96 46 161t134 71q89 7 149.5 -55t67.5 -166zM157 386q3 -48 60 -48q44 0 86 4
l-3 33q-11 99 -79 96q-32 -1 -49.5 -25.5t-14.5 -59.5z" />
    <glyph glyph-name="uniFED8" unicode="&#x642;" horiz-adv-x="490" arabic-form="medial" 
d="M245 643l-85 -85l-85 85l85 85zM449 643l-85 -85l-85 85l85 85zM437 151h58v-151h-58q-90 0 -188 36q-108 -36 -202 -36h-52v151h52q17 0 27 1q-30 40 -26 78l5 59q10 87 75 139.5t149 43.5q80 -9 129.5 -74.5t44.5 -148.5l-3 -47q-1 -25 -19 -51h8zM182 224
q21 -25 63 -43q58 17 69 37l4 32q3 25 -14 46.5t-44 25.5q-28 3 -50 -14t-24 -44z" />
    <glyph glyph-name="uniFEDA" unicode="&#x643;" horiz-adv-x="938" arabic-form="final" 
d="M923 151h20v-151h-20q-73 0 -125 44q-50 -44 -131 -44h-178q-164 0 -223.5 5.5t-104.5 24.5q-69 30 -96 97t-5 150l38 146l130 -39l-39 -153q-7 -28 -1.5 -40.5t27.5 -22.5q21 -9 72.5 -13t201.5 -4h178q37 0 49.5 11.5t11.5 33.5l-19 496l134 6l19 -489q1 -33 16 -45.5
t45 -12.5zM520 391q25 -23 13 -55.5t-47 -32.5h-89v59h54q15 0 3 12l-47 47l12 50l98 33l19 -57l-53 -17z" />
    <glyph glyph-name="uniFEDB" unicode="&#x643;" horiz-adv-x="489" arabic-form="initial" 
d="M193 521l154 -228q41 -63 43.5 -126t-31.5 -104q-47 -63 -145 -63h-219v151h221q17 0 26 7q21 16 3 45l-220 311l30 114l362 133l47 -141z" />
    <glyph glyph-name="uniFEDC" unicode="&#x643;" horiz-adv-x="514" arabic-form="medial" 
d="M505 151h14v-151h-14q-80 0 -147 62q-47 -62 -144 -62h-219v151h221q17 0 26 7q21 16 3 45l-220 311l30 114l362 133l47 -141l-271 -99l154 -228q15 -25 17 -29q41 -66 70.5 -89.5t70.5 -23.5z" />
    <glyph glyph-name="uniFEDE" unicode="&#x644;" horiz-adv-x="748" arabic-form="final" 
d="M733 151h20v-151h-20q-31 0 -55 7q-6 -105 -68.5 -158t-194.5 -85q-87 -18 -156 -6.5t-117 58t-72 112t-20 155t38 187.5l129 -50q-60 -170 -13 -257t180 -53q40 10 57.5 15t41 14t31.5 16.5t17.5 20.5t11 29.5t0.5 40.5l-25 646l135 6l19 -489q1 -33 16 -45.5t45 -12.5z
" />
    <glyph glyph-name="uniFEDF" unicode="&#x644;" horiz-adv-x="263" arabic-form="initial" 
d="M213 203q5 -87 -48.5 -145t-146.5 -58h-25v151h25q37 0 49.5 11.5t11.5 33.5l-19 496l134 6z" />
    <glyph glyph-name="uniFEE0" unicode="&#x644;" horiz-adv-x="289" arabic-form="medial" 
d="M274 151h20v-151h-20q-73 0 -125 44q-50 -44 -131 -44h-25v151h25q37 0 49.5 11.5t11.5 33.5l-19 496l134 6l19 -489q1 -33 16 -45.5t45 -12.5z" />
    <glyph glyph-name="uniFEE2" unicode="&#x645;" horiz-adv-x="612" arabic-form="final" 
d="M617 151v-151q-75 0 -124 46q-31 -38 -75.5 -48.5t-90.5 12.5l-142 73l19 -378l-135 -5l-19 504l92 62l30 -15l42 82q34 67 101 88.5t131 -13.5q48 -26 74.5 -77t27.5 -113q0 -67 69 -67zM404 133q54 111 -6 144q-24 13 -47.5 1.5t-40.5 -46.5l-21 -41l111 -57q3 -1 3 -3
q0 1 1 2z" />
    <glyph glyph-name="uniFEE3" unicode="&#x645;" horiz-adv-x="536" arabic-form="initial" 
d="M385 408q77 -42 96 -142t-32 -194q-28 -51 -79.5 -69.5t-106.5 7.5l-110 57q-61 -67 -147 -67h-11v151h11q49 0 71 37l74 143q36 68 102.5 90t131.5 -13zM342 133q25 48 25.5 85.5t-30.5 58.5q-51 28 -89 -45l-21 -41l111 -57l4 -2v1z" />
    <glyph glyph-name="uniFEE4" unicode="&#x645;" horiz-adv-x="551" arabic-form="medial" 
d="M556 151v-151q-76 0 -124 46q-32 -37 -77 -47.5t-92 11.5l-110 57q-61 -67 -147 -67h-11v151h11q49 0 71 37l74 143q36 68 102.5 90t131.5 -13q48 -26 74 -77t27 -113q0 -67 70 -67zM342 133q25 48 25.5 85.5t-30.5 58.5q-51 28 -89 -45l-21 -41l111 -57l4 -2v1z" />
    <glyph glyph-name="uniFEE6" unicode="&#x646;" horiz-adv-x="733" arabic-form="final" 
d="M447 340l-96 -96l-96 96l96 96zM711 151h27v-151h-23q-18 0 -33 4q-1 -100 -66 -154.5t-200 -85.5q-106 -25 -189.5 4t-126 99.5t-49.5 174t38 229.5l128 -50q-59 -172 -12.5 -256.5t181.5 -52.5q108 25 137.5 45.5t21.5 80.5l-41 275l133 22q5 -32 11 -75
q12 -70 24 -89.5t39 -19.5z" />
    <glyph glyph-name="uniFEE7" unicode="&#x646;" horiz-adv-x="339" arabic-form="initial" 
d="M127 477l-97 96l97 96l96 -96zM-5 0v151h79q52 0 69.5 18t4.5 67l-40 149l130 39l40 -149q32 -120 -27.5 -197.5t-176.5 -77.5h-79z" />
    <glyph glyph-name="uniFEE8" unicode="&#x646;" horiz-adv-x="309" arabic-form="medial" 
d="M230 492l-96 -96l-96 96l96 96zM314 151v-151q-79 0 -127 39q-51 -39 -129 -39h-63v151h63q37 0 50 9.5t11 31.5l-11 123l134 13l11 -123v-2q3 -31 14.5 -41.5t46.5 -10.5z" />
    <glyph glyph-name="uniFEEA" unicode="&#x647;" horiz-adv-x="547" arabic-form="final" 
d="M533 151h19v-151h-19q-109 0 -177 89q-21 -3 -58.5 -9t-40.5 -6q-59 -8 -117.5 32.5t-79.5 103.5q-26 77 10.5 153t111.5 101l127 41v34h135v-306q0 -34 26 -58t63 -24zM246 225q4 0 13.5 2t24 4t25.5 4v122l-85 -30q-23 -8 -32.5 -25.5t-4.5 -37.5q4 -18 21 -30.5
t38 -8.5z" />
    <glyph glyph-name="uniFEEB" unicode="&#x647;" horiz-adv-x="680" arabic-form="initial" 
d="M523 352q70 -36 96 -114.5t-8 -150.5q-34 -73 -105.5 -100t-143.5 6l-105 49q-90 -42 -200 -42h-62v151h62h15q-34 45 -40.5 101.5t19.5 111.5q28 58 80 90l39 84zM285 246q10 22 2 44.5t-29 33.5q-25 12 -47 6t-32 -25q-13 -21 -6 -43t32 -34l52 -26q14 14 28 44z
M492 145q10 18 2.5 40.5t-31.5 34.5l-40 21q-4 -28 -17 -57q-9 -20 -26 -44l36 -18q22 -11 44 -4.5t32 27.5z" />
    <glyph glyph-name="uniFEEC" unicode="&#x647;" horiz-adv-x="491" arabic-form="medial" 
d="M441 151h55v-151h-55q-18 0 -30 -10t-12 -24v-138l-67 -67q-98 -2 -173 65t-97 174h-67v151h74q13 50 36.5 123.5t40.5 121.5l17 49l82 41l72 -20q50 -14 83 -62.5t37 -106t-17 -113.5q-10 -23 -22 -38q23 5 43 5zM263 325q-32 -86 -54 -159q74 21 96 79q9 22 0.5 45.5
t-25.5 28.5zM269 -93v59q0 45 18 84q-43 -23 -92 -35q16 -84 74 -108z" />
    <glyph glyph-name="uniFEEE" unicode="&#x648;" horiz-adv-x="528" arabic-form="final" 
d="M533 151v-151h-42q0 -113 -76.5 -164t-278.5 -92l-27 148q159 33 201.5 51t43.5 57h-102q-84 0 -136.5 51t-60.5 138q-8 97 48 171t145 78q90 4 151 -61.5t72 -173.5l6 -52h56zM190 200q2 -26 16 -37.5t46 -11.5h88l-4 36q-11 103 -81 100q-32 -1 -50 -26t-15 -61z" />
    <glyph glyph-name="uniFEF0" unicode="&#x649;" horiz-adv-x="718" arabic-form="final" 
d="M723 151v-151q-31 0 -44 1q2 -94 -61 -149.5t-202 -87.5q-106 -25 -189.5 4t-126 99.5t-49.5 174t38 229.5l128 -50q-59 -172 -12.5 -256t181.5 -53q103 24 133 42.5t25 60.5q-1 7 -25 19l-108 34l42 144q146 -41 189.5 -51t80.5 -10z" />
    <glyph glyph-name="uniFEF2" unicode="&#x64a;" horiz-adv-x="718" arabic-form="final" 
d="M723 151v-151q-31 0 -44 1q2 -94 -61 -149.5t-202 -87.5q-106 -25 -189.5 4t-126 99.5t-49.5 174t38 229.5l128 -50q-59 -172 -12.5 -256t181.5 -53q103 24 133 42.5t25 60.5q-1 7 -25 19l-108 34l42 144q146 -41 189.5 -51t80.5 -10zM173 -360l85 86l85 -86l-85 -84z
M377 -360l85 86l85 -86l-85 -84z" />
    <glyph glyph-name="uniFEF3" unicode="&#x64a;" horiz-adv-x="414" arabic-form="initial" 
d="M-5 0v151h154q51 0 68.5 18.5t4.5 66.5l-39 149l129 39l42 -157q31 -116 -29.5 -191.5t-175.5 -75.5h-154zM4 -233l-85 85l85 85l85 -85zM208 -233l-85 85l85 85l85 -85z" />
    <glyph glyph-name="uniFEF4" unicode="&#x64a;" horiz-adv-x="426" arabic-form="medial" 
d="M372 196q2 -27 13.5 -36t45.5 -9v-151q-78 0 -126 39q-51 -39 -130 -39h-180v151h180q38 0 50.5 9.5t10.5 31.5l-11 123l135 13l11 -123q0 -6 1 -9zM4 -150l85 85l85 -85l-85 -85zM208 -150l85 85l85 -85l-85 -85z" />
    <glyph glyph-name=".notdef" horiz-adv-x="300" 
d="M33 -22v544h234v-544h-234zM67 22h166v456h-166v-456z" />
    <glyph glyph-name=".null" 
 />
    <glyph glyph-name="nonmarkingreturn" horiz-adv-x="333" 
 />
    <glyph glyph-name="CR" unicode="&#xd;" horiz-adv-x="300" 
 />
    <glyph glyph-name="space" unicode=" " horiz-adv-x="217" 
 />
    <glyph glyph-name="exclam" unicode="!" horiz-adv-x="285" 
d="M80 218l-17 469h159l-17 -469h-125zM142 -34q-36 0 -60.5 25t-24.5 61q0 35 24.5 59.5t60.5 24.5q35 0 60 -24.5t25 -59.5q0 -36 -25 -61t-60 -25z" />
    <glyph glyph-name="quotedbl" unicode="&#x22;" horiz-adv-x="413" 
d="M40 468l-15 231h158l-18 -231h-125zM246 468l-16 231h158l-17 -231h-125z" />
    <glyph glyph-name="numbersign" unicode="#" horiz-adv-x="685" 
d="M645 391h-92l-13 -91h69v-135h-90l-21 -135l-158 1l21 134h-92l-21 -135l-159 1l21 134h-70v135h90l14 91h-68v135h89l21 135h159l-21 -135h92l21 135h158l-21 -135h71v-135zM381 300l14 91h-92l-13 -91h91z" />
    <glyph glyph-name="dollar" unicode="$" horiz-adv-x="599" 
d="M577 188q0 -87 -56.5 -140.5t-153.5 -62.5l2 -65h-139l2 75q-76 20 -118.5 72.5t-42.5 126.5v31h150v-24q0 -34 32 -58.5t86 -24.5q44 0 64.5 19.5t20.5 45.5q0 7 -1.5 13.5t-5.5 12.5t-8 10.5t-12 9.5t-14.5 8.5t-18.5 8.5t-20 8.5t-23.5 10t-25.5 10.5q-98 40 -132 64
q-84 58 -84 156q0 71 41.5 120.5t111.5 68.5l-2 94h139l-2 -86q93 -14 149.5 -71.5t56.5 -143.5v-25h-151v18q0 36 -29.5 63t-80.5 27q-39 0 -61 -17t-22 -46q0 -32 31 -53t111 -49q29 -10 36.5 -13t37 -15t41 -21t33.5 -26t31.5 -34.5t18 -43t8.5 -54.5z" />
    <glyph glyph-name="percent" unicode="%" horiz-adv-x="762" 
d="M197 385q-66 0 -112.5 47t-46.5 115q0 67 46.5 113.5t112.5 46.5q65 0 111.5 -46.5t46.5 -113.5q0 -68 -46 -115t-112 -47zM135 -1l376 702h112l-376 -702h-112zM197 465q32 0 54 24t22 58q0 33 -22.5 56.5t-53.5 23.5q-32 0 -54.5 -23.5t-22.5 -56.5q0 -34 22.5 -58
t54.5 -24zM565 -7q-66 0 -112.5 47t-46.5 114t46.5 114t112.5 47q65 0 111.5 -47t46.5 -114t-46 -114t-112 -47zM565 73q32 0 54 23.5t22 57.5t-22 57.5t-54 23.5t-54.5 -23.5t-22.5 -57.5t22.5 -57.5t54.5 -23.5z" />
    <glyph glyph-name="ampersand" unicode="&#x26;" horiz-adv-x="710" 
d="M678 0h-179l-43 46q-95 -54 -199 -54q-94 0 -157.5 44t-63.5 133q0 116 131 190q-49 58 -64.5 91t-15.5 71q0 74 59 124t152 50q96 0 158 -52t62 -135q0 -111 -130 -190q38 -40 84 -93q50 49 80 94l108 -61q-46 -78 -98 -130q1 -2 3 -4q12 -14 58 -64t55 -60zM302 563
q-28 1 -44 -17t-16 -40q0 -11 10 -26.5t42 -53.5q68 38 68 78q0 24 -15.5 41t-44.5 18zM286 115q33 6 78 30q-20 22 -56 59l-45 48q-65 -35 -71 -69q-5 -32 23 -53.5t71 -14.5z" />
    <glyph glyph-name="quotesingle" unicode="'" horiz-adv-x="207" 
d="M40 468l-15 231h158l-18 -231h-125z" />
    <glyph glyph-name="parenleft" unicode="(" horiz-adv-x="396" 
d="M341 -134l-96 -106q-93 94 -144 221t-51 264q0 138 52.5 266.5t147.5 224.5l96 -108q-161 -159 -161 -383q0 -220 156 -379z" />
    <glyph glyph-name="parenright" unicode=")" horiz-adv-x="396" 
d="M55 -134q157 160 157 379q0 223 -162 383l96 108q95 -96 147.5 -224.5t52.5 -266.5q0 -137 -51 -264t-144 -221z" />
    <glyph glyph-name="asterisk" unicode="*" horiz-adv-x="520" 
d="M470 411l-100 -32l62 -86l-110 -80l-62 85l-62 -85l-110 80l62 86l-100 32l42 128l101 -33v107h134v-107l101 33z" />
    <glyph glyph-name="plus" unicode="+" horiz-adv-x="432" 
d="M410 362v-118h-135v-135h-118v135h-134v118h134v135h118v-135h135z" />
    <glyph glyph-name="comma" unicode="," horiz-adv-x="217" 
d="M28 -103l20 257h142l-59 -257h-103z" />
    <glyph glyph-name="hyphen" unicode="-" horiz-adv-x="335" 
d="M22 224v135h292v-135h-292z" />
    <glyph glyph-name="period" unicode="." horiz-adv-x="351" 
d="M176 -3q-36 0 -61 25t-25 61q0 35 24.5 59.5t61.5 24.5q35 0 59.5 -24.5t24.5 -59.5t-25 -60.5t-59 -25.5z" />
    <glyph glyph-name="slash" unicode="/" horiz-adv-x="433" 
d="M11 1l235 687h158l-234 -687h-159z" />
    <glyph glyph-name="zero" unicode="0" horiz-adv-x="577" 
d="M280 -11q-112 0 -177 62.5t-65 170.5v243q0 107 65 168.5t177 61.5t177 -62t65 -168v-243q0 -108 -65 -170.5t-177 -62.5zM280 125q39 0 61.5 24t22.5 65v257q0 41 -22.5 65t-61.5 24q-38 0 -60.5 -24t-22.5 -65v-257q0 -41 22.5 -65t60.5 -24z" />
    <glyph glyph-name="one" unicode="1" horiz-adv-x="348" 
d="M143 688h159v-688h-158v542l-116 -28l-1 122z" />
    <glyph glyph-name="two" unicode="2" horiz-adv-x="578" 
d="M254 136h268v-136h-481v126q88 78 202 206q108 122 108 159q0 30 -21.5 49t-55.5 19q-35 0 -56.5 -19t-21.5 -51v-35h-160v60q5 82 72 131.5t166 49.5q108 0 172.5 -58t64.5 -143q0 -76 -82 -174q-81 -98 -175 -184z" />
    <glyph glyph-name="three" unicode="3" horiz-adv-x="538" 
d="M483 328q20 -46 20 -102q0 -52 -20 -99q-25 -63 -82.5 -99.5t-135.5 -36.5q-77 0 -135 37.5t-85 102.5q-17 43 -17 96h160q0 -34 12 -58q17 -43 64 -43q46 0 64 40q15 27 15 65q0 45 -15 70q-21 39 -65 39q-16 0 -67 -37l-81 116l169 133h-240v136h448v-147l-120 -100
q69 -19 111 -113z" />
    <glyph glyph-name="four" unicode="4" horiz-adv-x="612" 
d="M568 313v-139h-59v-174h-158v174h-323v111l178 403h168l-164 -375h141v159h158v-159h59z" />
    <glyph glyph-name="five" unicode="5" horiz-adv-x="537" 
d="M487 306q21 -96 1 -168q-19 -68 -77.5 -107.5t-153.5 -39.5q-78 0 -132 36.5t-75 98.5q-5 16 -8.5 34t-4.5 28l-1 10h162q3 -19 8 -28q16 -40 65 -40q45 0 66 42q10 16 11 46.5t-9 51.5q-16 41 -64 41q-26 0 -49 -14t-24 -35h-164v426h449v-136h-291v-133q45 29 100 29
q73 0 125 -36t66 -106z" />
    <glyph glyph-name="six" unicode="6" horiz-adv-x="533" 
d="M496 286q10 -93 0 -141q-13 -66 -75 -108.5t-151 -42.5q-84 0 -154 46.5t-77 129.5q-2 15 -2 70l-3 276q-1 82 62 130.5t168 48.5q101 0 163 -48t62 -129v-17h-159v6q0 23 -18.5 38t-48.5 15q-31 0 -50.5 -15.5t-19.5 -38.5v-101q37 36 106 36q72 0 129.5 -36.5
t67.5 -118.5zM344 182q1 11 1 41q0 28 -1 40q-1 23 -21 41t-54 18t-53.5 -18t-21.5 -41q0 -7 -0.5 -19.5t-0.5 -19.5t0.5 -21t0.5 -21q1 -23 23.5 -38.5t51.5 -15.5t51.5 15.5t23.5 38.5z" />
    <glyph glyph-name="seven" unicode="7" horiz-adv-x="513" 
d="M107 0l216 552h-171v-63h-128l1 199h465v-137l-215 -551h-168z" />
    <glyph glyph-name="eight" unicode="8" horiz-adv-x="537" 
d="M483 306q24 -46 24 -102q0 -53 -23 -97q-27 -53 -82.5 -84t-131.5 -31q-73 0 -131 29.5t-86 85.5q-23 43 -23 98q0 57 24 102q17 32 47 53q-27 21 -44 52q-21 40 -21 86q0 73 43 122q66 81 190 81q125 0 189 -81q44 -53 44 -122q0 -49 -24 -90q-16 -26 -44 -47
q30 -19 49 -55zM202 528q-8 -16 -8 -40t11 -43q20 -32 63 -32q45 0 66 32q12 19 12 44q0 21 -9 39q-20 37 -69 37q-48 0 -66 -37zM330 157q17 25 17 62q0 29 -10 48q-19 43 -68 43q-48 0 -67 -42q-9 -20 -9 -51q0 -36 14 -57q20 -32 62 -32q40 0 61 29z" />
    <glyph glyph-name="nine" unicode="9" horiz-adv-x="533" 
d="M499 169q1 -82 -62 -130.5t-168 -48.5q-101 0 -163 48t-62 129v17h159v-6q0 -23 18.5 -38t48.5 -15q31 0 50.5 15.5t19.5 38.5v101q-37 -36 -106 -36q-72 0 -129.5 36.5t-67.5 118.5q-10 93 0 141q13 66 75 108.5t151 42.5q84 0 154 -46.5t77 -129.5q2 -15 2 -70z
M339 422q0 6 0.5 19t0.5 20t-0.5 21t-0.5 21q-1 23 -23.5 38.5t-51.5 15.5t-51.5 -15.5t-23.5 -38.5q-1 -11 -1 -41q0 -28 1 -40q1 -23 21 -41t54 -18t53.5 18t21.5 41z" />
    <glyph glyph-name="colon" unicode=":" horiz-adv-x="351" 
d="M176 273q-36 0 -61 25t-25 61q0 35 24.5 59.5t61.5 24.5q35 0 59.5 -24.5t24.5 -59.5t-25 -60.5t-59 -25.5zM176 -3q-36 0 -61 25t-25 61q0 35 24.5 59.5t61.5 24.5q35 0 59.5 -24.5t24.5 -59.5t-25 -60.5t-59 -25.5z" />
    <glyph glyph-name="semicolon" unicode=";" horiz-adv-x="366" 
d="M191 273q-36 0 -60.5 25t-24.5 61q0 35 24.5 59.5t60.5 24.5q35 0 59.5 -24.5t24.5 -59.5t-25 -60.5t-59 -25.5zM100 -103l20 257h142l-59 -257h-103z" />
    <glyph glyph-name="equal" unicode="=" horiz-adv-x="429" 
d="M22 340v122h384v-122h-384zM22 149v122h384v-122h-384z" />
    <glyph glyph-name="question" unicode="?" horiz-adv-x="527" 
d="M184 220v34q0 36 14.5 66.5t29 44.5t40.5 35q2 2 10.5 9t11 9t9.5 8t9.5 9t8 9t7.5 10.5t4.5 10.5t3.5 12t1 13q0 28 -15.5 45t-41.5 17q-29 0 -46 -19t-17 -48v-23l-158 8v15q0 93 62.5 152t162.5 59q96 0 154.5 -55t58.5 -143q0 -41 -14 -73.5t-28.5 -48t-39.5 -36.5
q-3 -3 -11.5 -9.5t-12 -9.5l-10.5 -9t-10.5 -9.5t-8.5 -9.5t-7.5 -11t-5.5 -11.5t-4 -13t-1 -13.5v-24h-156zM265 -3q-36 0 -61 25.5t-25 60.5t25 59.5t61 24.5q35 0 59.5 -24.5t24.5 -59.5t-25 -60.5t-59 -25.5z" />
    <glyph glyph-name="at" unicode="@" horiz-adv-x="834" 
d="M475 687q106 0 186 -52.5t116 -139t24 -186.5q-11 -95 -64.5 -151.5t-138.5 -56.5q-75 0 -112 43q-39 -43 -117 -43q-49 0 -80.5 26.5t-40.5 69.5q-7 37 0 84q6 46 20 81q18 50 55 76t82 26t80 -24l3 23h105l-26 -189q-5 -33 3.5 -55t33.5 -22q50 0 66 104
q18 128 -39 193.5t-166 65.5q-120 0 -201.5 -75t-97.5 -203q-16 -124 43 -189.5t171 -65.5q102 0 145 39l69 -101q-35 -30 -96.5 -48.5t-126.5 -18.5q-74 0 -140 28.5t-114 78.5t-71.5 124.5t-12.5 159.5q21 174 142.5 286t299.5 112zM396 188q30 0 49 36q12 21 16 58
q3 36 0 58q-6 34 -43 34q-34 0 -51 -32q-11 -19 -17 -65q-6 -37 0 -53q8 -36 46 -36z" />
    <glyph glyph-name="A" unicode="A" horiz-adv-x="677" 
d="M487 0l-35 119h-227l-35 -119h-170l218 688h201l218 -688h-170zM260 240h156l-79 265z" />
    <glyph glyph-name="B" unicode="B" horiz-adv-x="626" 
d="M478 355q98 -47 98 -160q0 -98 -67.5 -146t-176.5 -48h-271v687h263q119 0 180.5 -45t61.5 -146t-88 -142zM219 552v-139h105q41 0 64 18t23 51t-23 51.5t-64 18.5h-105zM332 137q86 0 86 74q0 35 -22 54t-63 19h-114v-147h113z" />
    <glyph glyph-name="C" unicode="C" horiz-adv-x="648" 
d="M329 -18q-119 0 -194.5 68.5t-75.5 164.5v245q0 97 76 166t194 69q120 0 195 -69t75 -166v-10l-163 -8l-1 35q-1 30 -28 56t-78 26q-50 0 -78 -26.5t-28 -55.5v-270q0 -30 28 -59.5t78 -29.5q52 0 78.5 23.5t27.5 53.5l3 34l161 -5v-9q0 -100 -69.5 -166.5t-200.5 -66.5z
" />
    <glyph glyph-name="D" unicode="D" horiz-adv-x="628" 
d="M61 0v688h261q116 0 186 -58.5t70 -155.5v-260q0 -97 -70 -155.5t-186 -58.5h-261zM219 136h109q40 0 65 28.5t27 75.5v207q0 48 -25 76.5t-68 28.5h-108v-416z" />
    <glyph glyph-name="E" unicode="E" horiz-adv-x="595" 
d="M546 552h-327v-136h216v-135h-216v-145h327v-136h-485v688h485v-136z" />
    <glyph glyph-name="F" unicode="F" horiz-adv-x="543" 
d="M521 552h-302v-136h216v-135h-216v-281h-158v688h460v-136z" />
    <glyph glyph-name="G" unicode="G" horiz-adv-x="632" 
d="M321 -18q-115 0 -188.5 61.5t-73.5 151.5v251q0 112 72 180.5t190 68.5q116 0 188.5 -54t72.5 -138v-50h-158v33q0 35 -27 54t-76 19q-46 0 -74.5 -29.5t-28.5 -78.5v-224q0 -48 31 -78.5t79 -30.5q49 0 74.5 15.5t25.5 57.5v53h-118v127h272v-152q0 -106 -71.5 -171.5
t-189.5 -65.5z" />
    <glyph glyph-name="H" unicode="H" horiz-adv-x="644" 
d="M434 688h158v-688h-158v277h-206v-277h-158v688h158v-275h206v275z" />
    <glyph glyph-name="I" unicode="I" horiz-adv-x="280" 
d="M61 0v688h158v-688h-158z" />
    <glyph glyph-name="J" unicode="J" horiz-adv-x="607" 
d="M292 -18q-115 0 -184 62.5t-69 166.5v69h159v-69q0 -42 25 -67.5t69 -25.5q43 0 70.5 25.5t27.5 67.5v477h157v-477q0 -103 -70.5 -166t-184.5 -63z" />
    <glyph glyph-name="K" unicode="K" horiz-adv-x="652" 
d="M61 1v687h158v-281l215 281h179l-226 -301l234 -386h-177l-165 278l-60 -79v-199h-158z" />
    <glyph glyph-name="L" unicode="L" horiz-adv-x="573" 
d="M61 0v688h158v-552h332v-136h-490z" />
    <glyph glyph-name="M" unicode="M" horiz-adv-x="722" 
d="M507 688h155v-688h-159v469l-99 -203h-85l-100 203v-469h-158v688h154l146 -236z" />
    <glyph glyph-name="N" unicode="N" horiz-adv-x="671" 
d="M452 688h158v-687h-150l-242 400l1 -400h-158v687h150l242 -401z" />
    <glyph glyph-name="O" unicode="O" horiz-adv-x="658" 
d="M329 -18q-119 0 -194.5 68.5t-75.5 164.5v245q0 97 76 166t194 69q120 0 195 -69t75 -166v-245q0 -97 -75 -165t-195 -68zM329 118q51 0 78 29t27 60v270q0 30 -27 56t-78 26q-50 0 -77.5 -26.5t-27.5 -55.5v-270q0 -30 27.5 -59.5t77.5 -29.5z" />
    <glyph glyph-name="P" unicode="P" horiz-adv-x="602" 
d="M355 688q101 0 163 -60t62 -158q0 -97 -64 -155.5t-168 -58.5h-129v-256h-158v688h294zM330 383q41 0 66.5 23t25.5 60q0 39 -25.5 62.5t-66.5 23.5h-111v-169h111z" />
    <glyph glyph-name="Q" unicode="Q" horiz-adv-x="619" 
d="M599 460v-245q0 -64 -36 -119l33 -32l-95 -97l-43 41q-60 -26 -129 -26q-119 0 -194.5 68.5t-75.5 164.5v245q0 97 76 166t194 69q120 0 195 -69t75 -166zM224 207q0 -30 27.5 -59.5t77.5 -29.5q51 0 78 29t27 60v270q0 30 -27 56t-78 26q-50 0 -77.5 -26.5t-27.5 -55.5
v-270z" />
    <glyph glyph-name="R" unicode="R" horiz-adv-x="620" 
d="M580 470q0 -72 -37 -124.5t-102 -74.5l130 -271h-169l-113 256h-70v-256h-158v688h294q101 0 163 -60t62 -158zM219 552v-169h111q41 0 66.5 23t25.5 60q0 39 -25.5 62.5t-66.5 23.5h-111z" />
    <glyph glyph-name="S" unicode="S" horiz-adv-x="636" 
d="M322 -17q-122 0 -194 57.5t-72 153.5v31h156v-24q0 -34 33 -58.5t89 -24.5q45 0 66 19.5t21 45.5q0 7 -1.5 13.5t-6 12.5t-8.5 10.5t-12.5 9.5t-14.5 8.5t-18.5 8.5t-20.5 8.5t-24.5 10t-26.5 10.5q-101 40 -136 63q-88 59 -88 157q0 91 69 145.5t178 54.5
q115 0 189.5 -60t74.5 -158v-25h-155v18q0 36 -31 63t-84 27q-40 0 -62.5 -17t-22.5 -46q0 -32 32 -53t115 -49q97 -33 137 -62q76 -54 76 -145q0 -96 -70.5 -150.5t-187.5 -54.5z" />
    <glyph glyph-name="T" unicode="T" horiz-adv-x="581" 
d="M559 688v-136h-176v-552h-159v552h-202v136h537z" />
    <glyph glyph-name="U" unicode="U" horiz-adv-x="660" 
d="M330 -18q-119 0 -194.5 68t-75.5 165v473h164v-481q0 -30 28 -59.5t78 -29.5q51 0 78 29t27 60v481h165v-473q0 -97 -75 -165t-195 -68z" />
    <glyph glyph-name="V" unicode="V" horiz-adv-x="619" 
d="M433 688h166l-208 -688h-164l-207 688h170l122 -475z" />
    <glyph glyph-name="W" unicode="W" horiz-adv-x="1033" 
d="M846 688h166l-208 -688h-164l-124 414l-125 -414h-164l-207 688h170l122 -475l121 475h170l123 -477z" />
    <glyph glyph-name="X" unicode="X" horiz-adv-x="649" 
d="M31 0l195 344l-195 344h173l121 -224l121 224h172l-194 -344l194 -344h-171l-122 223l-122 -223h-172z" />
    <glyph glyph-name="Y" unicode="Y" horiz-adv-x="619" 
d="M230 2v250l-210 436h172l117 -268l117 268h173l-212 -436v-250h-157z" />
    <glyph glyph-name="Z" unicode="Z" horiz-adv-x="569" 
d="M40 0v144l314 408h-314v136h489v-144l-315 -408h315v-136h-489z" />
    <glyph glyph-name="bracketleft" unicode="[" horiz-adv-x="323" 
d="M29 -153v946h239v-136h-81v-674h81v-136h-239z" />
    <glyph glyph-name="backslash" unicode="\" horiz-adv-x="433" 
d="M422 1h-159l-234 687h158z" />
    <glyph glyph-name="bracketright" unicode="]" horiz-adv-x="297" 
d="M268 792v-946h-239v136h80v674h-80v136h239z" />
    <glyph glyph-name="underscore" unicode="_" horiz-adv-x="432" 
d="M12 1v118h409v-118h-409z" />
    <glyph glyph-name="a" unicode="a" horiz-adv-x="582" 
d="M291 515q98 0 164 -48.5t66 -120.5v-346h-158v69q-31 -77 -136 -77q-78 0 -124 36t-46 106q0 74 52 114t152 40h102v30q0 28 -18.5 44.5t-51.5 16.5q-29 0 -48 -12t-21 -32l-158 20q2 68 65.5 114t159.5 46zM275 102q38 0 63 19t25 54v33h-67q-80 0 -80 -54
q0 -23 15.5 -37.5t43.5 -14.5z" />
    <glyph glyph-name="b" unicode="b" horiz-adv-x="558" 
d="M323 516q90 0 132.5 -47t42.5 -130v-171q0 -83 -42.5 -130t-131.5 -47q-62 0 -105 40v-31h-158v688h158v-212q42 40 104 40zM346 168v171q0 28 -18 46.5t-46 18.5q-29 0 -46 -18t-17 -47v-171q0 -31 16.5 -47.5t46.5 -16.5q28 0 46 17t18 47z" />
    <glyph glyph-name="c" unicode="c" horiz-adv-x="575" 
d="M293 -7q-80 0 -139.5 39.5t-85.5 110.5q-18 47 -18 114q0 61 18 113q25 67 85 106t140 39q81 0 142.5 -40t82.5 -101q9 -24 9 -48l-155 -24q-3 22 -5 27q-6 22 -26.5 36.5t-47.5 14.5q-55 0 -72 -49q-11 -25 -11 -75q0 -49 10 -75q17 -53 73 -53q57 0 74 55q2 6 3 19
l155 -25q0 -19 -7 -40q-23 -68 -84 -106t-141 -38z" />
    <glyph glyph-name="d" unicode="d" horiz-adv-x="572" 
d="M352 688h159v-688h-159v44q-43 -53 -117 -53q-174 0 -174 177v170q0 83 42 130.5t131 47.5q75 0 118 -54v226zM339 168v170q0 31 -16.5 48t-46.5 17q-28 0 -46 -17.5t-18 -47.5v-170q0 -28 18 -46.5t46 -18.5q29 0 46 18t17 47z" />
    <glyph glyph-name="e" unicode="e" horiz-adv-x="576" 
d="M518 215h-317v-14q0 -32 25 -55t61 -23q31 0 53.5 16.5t28.5 41.5l138 -29q-12 -68 -72 -113.5t-148 -45.5q-92 0 -159 53t-67 149v120q0 89 62.5 147t161.5 58q98 0 165.5 -59t67.5 -146v-100zM285 386q-36 0 -60 -21.5t-24 -55.5v-10h169v10q0 34 -25 55.5t-60 21.5z
" />
    <glyph glyph-name="f" unicode="f" horiz-adv-x="374" 
d="M300 582q-27 -1 -37.5 -13.5t-10.5 -38.5v-88h100v-118h-100v-324h-158v324h-71v118h71v102q0 82 47 115.5t159 28.5h52v-106h-52z" />
    <glyph glyph-name="g" unicode="g" horiz-adv-x="558" 
d="M339 509h158v-456q0 -69 -23.5 -120t-62 -76.5t-87.5 -40t-100.5 -11.5t-101.5 9l7 140q52 -11 95.5 -11t75 22t37.5 64q-41 -38 -102 -38q-174 0 -174 177v170q0 83 42 130.5t131 47.5q63 0 105 -40v33zM276 103q29 0 46 18t17 47v170q0 31 -16.5 48t-46.5 17
q-28 0 -46 -17.5t-18 -47.5v-170q0 -28 18 -46.5t46 -18.5z" />
    <glyph glyph-name="h" unicode="h" horiz-adv-x="558" 
d="M323 516q90 0 132.5 -47t42.5 -130v-339h-152v339q0 28 -18 46.5t-46 18.5q-29 0 -46 -18t-17 -47v-339h-158v688h158v-212q42 40 104 40z" />
    <glyph glyph-name="i" unicode="i" horiz-adv-x="328" 
d="M167 555q-35 0 -59.5 24.5t-24.5 59.5t24.5 59t59.5 24q34 0 58 -24.5t24 -58.5q0 -35 -24 -59.5t-58 -24.5zM84 0v509h158v-509h-158z" />
    <glyph glyph-name="j" unicode="j" horiz-adv-x="328" 
d="M184 555q-36 0 -60 24.5t-24 59.5t24 59t60 24q33 0 57.5 -24.5t24.5 -58.5t-24.5 -59t-57.5 -25zM-11 -205v132q67 -4 92 12t25 64l-3 506h159v-503q0 -130 -55.5 -173t-217.5 -38z" />
    <glyph glyph-name="k" unicode="k" horiz-adv-x="554" 
d="M61 1v687h158v-333l124 153h181l-140 -183l155 -324h-167l-97 228l-56 -78v-150h-158z" />
    <glyph glyph-name="l" unicode="l" horiz-adv-x="306" 
d="M219 136h65v-136h-223v688h158v-552z" />
    <glyph glyph-name="m" unicode="m" horiz-adv-x="837" 
d="M601 516q90 0 132.5 -47t42.5 -130v-339h-152v339q0 28 -18 46.5t-46 18.5q-29 0 -46 -18t-17 -47v-339h-151v339q0 28 -18 46.5t-46 18.5q-29 0 -46 -18t-17 -47v-339h-158v509h158v-32q41 39 104 39q109 0 150 -71q42 71 128 71z" />
    <glyph glyph-name="n" unicode="n" horiz-adv-x="558" 
d="M323 516q174 0 174 -177v-339h-151v339q0 28 -18 46.5t-46 18.5q-29 0 -46 -18t-17 -47v-339h-158v509h158v-32q41 39 104 39z" />
    <glyph glyph-name="o" unicode="o" horiz-adv-x="576" 
d="M288 -9q-97 0 -162 54.5t-65 132.5v154q0 77 66.5 130.5t160.5 53.5q95 0 161 -53.5t66 -130.5v-154q0 -79 -65 -133t-162 -54zM288 115q38 0 57 21.5t19 51.5v133q0 27 -20.5 47.5t-55.5 20.5q-34 0 -55 -21t-21 -47v-133q0 -29 19.5 -51t56.5 -22z" />
    <glyph glyph-name="p" unicode="p" horiz-adv-x="558" 
d="M322 516q90 0 132.5 -47t42.5 -130v-171q0 -83 -42.5 -130t-131.5 -47q-63 0 -104 39v-235h-158v722h158v-40q41 39 103 39zM345 168v171q0 28 -18 46.5t-46 18.5q-26 0 -42 -14t-20 -38v-198q8 -50 63 -50q28 0 45.5 17t17.5 47z" />
    <glyph glyph-name="q" unicode="q" horiz-adv-x="559" 
d="M339 517h159v-722h-159v235q-41 -39 -104 -39q-174 0 -174 177v170q0 83 42 130.5t131 47.5q63 0 105 -40v41zM276 103q29 0 46 18t17 47v170q0 31 -16.5 48t-46.5 17q-28 0 -46 -17.5t-18 -47.5v-170q0 -28 18 -46.5t46 -18.5z" />
    <glyph glyph-name="r" unicode="r" horiz-adv-x="427" 
d="M347 507q41 0 61 -18l-25 -147q-20 16 -71 8q-30 -4 -52 -25.5t-22 -55.5v-269h-159v509h159v-80q43 78 109 78z" />
    <glyph glyph-name="s" unicode="s" horiz-adv-x="561" 
d="M281 -7q-101 0 -161 46.5t-60 121.5v8h145v-12q0 -21 21 -34t54 -13q28 0 45.5 10.5t17.5 27.5q0 19 -26.5 28t-77.5 19t-85 26q-95 42 -95 129q0 76 59 120.5t156 44.5q98 0 158 -46.5t60 -122.5v-10h-147v10q0 21 -19 34t-50 13q-28 0 -46.5 -11t-18.5 -29
q0 -19 22.5 -28t72 -17.5t79.5 -18.5q118 -40 118 -137q0 -77 -60.5 -118t-161.5 -41z" />
    <glyph glyph-name="t" unicode="t" horiz-adv-x="378" 
d="M355 380h-107v-189q0 -58 47 -58h47v-133q-42 -3 -78 -3q-86 0 -126.5 27.5t-41.5 101.5v254h-73v119h73v143h152v-143h107v-119z" />
    <glyph glyph-name="u" unicode="u" horiz-adv-x="558" 
d="M339 509h158v-509h-158v32q-41 -39 -104 -39q-174 0 -174 177v339h151v-339q0 -28 18 -46.5t46 -18.5q29 0 46 18t17 47v339z" />
    <glyph glyph-name="v" unicode="v" horiz-adv-x="539" 
d="M184 0l-161 509h171l75 -334l77 334h169l-160 -509h-171z" />
    <glyph glyph-name="w" unicode="w" horiz-adv-x="831" 
d="M638 509h170l-160 -509h-151l-81 273l-82 -273h-151l-160 509h170l76 -334l76 334h141l76 -334z" />
    <glyph glyph-name="x" unicode="x" horiz-adv-x="567" 
d="M23 0l168 254l-168 255h170l85 -134l85 134h180l-167 -255l167 -254h-170l-85 134l-85 -134h-180z" />
    <glyph glyph-name="y" unicode="y" horiz-adv-x="532" 
d="M51 -205v132h11q63 0 90.5 13t34.5 52l-164 512h169l76 -318l75 318h166l-171 -522q-19 -55 -36 -86t-47 -56.5t-75.5 -35t-115.5 -9.5h-13z" />
    <glyph glyph-name="z" unicode="z" horiz-adv-x="521" 
d="M55 0v144l217 222h-211v143h398v-144l-224 -222h230v-143h-410z" />
    <glyph glyph-name="braceleft" unicode="{" horiz-adv-x="388" 
d="M228 -153q-60 0 -94 33t-34 91v200q0 87 -70 89v124q70 2 70 88v197q0 58 34 91t94 33h105v-136h-29q-19 0 -32.5 -17.5t-13.5 -42.5v-148q0 -102 -64 -127q64 -25 64 -128v-152q0 -25 13.5 -42t32.5 -17h29v-136h-105z" />
    <glyph glyph-name="bar" unicode="|" horiz-adv-x="344" 
d="M100 -106v806h144v-806h-144z" />
    <glyph glyph-name="braceright" unicode="}" horiz-adv-x="389" 
d="M160 -153h-105v136h29q19 0 32.5 17t13.5 42v152q0 102 64 128q-64 25 -64 127v148q0 25 -13.5 42.5t-32.5 17.5h-29v136h105q61 0 95 -33t34 -91v-197q0 -86 69 -88v-124q-69 -2 -69 -89v-200q0 -58 -34.5 -91t-94.5 -33z" />
    <glyph glyph-name="uni00A0" unicode="&#xa0;" horiz-adv-x="217" 
 />
    <glyph glyph-name="guillemotleft" unicode="&#xab;" horiz-adv-x="486" 
d="M221 411q-55 -52 -55 -129q0 -73 51 -126l-84 -82q-85 88 -85 208q0 127 93 215zM429 411q-55 -52 -55 -129q0 -73 51 -126l-84 -82q-85 88 -85 208q0 128 92 215z" />
    <glyph glyph-name="guillemotright" unicode="&#xbb;" horiz-adv-x="487" 
d="M57 411l81 86q93 -88 93 -215q0 -120 -85 -208l-85 82q52 54 52 126q0 76 -56 129zM266 411l81 86q92 -87 92 -215q0 -120 -85 -208l-84 82q51 53 51 126q0 77 -55 129z" />
    <glyph glyph-name="multiply" unicode="&#xd7;" horiz-adv-x="426" 
d="M392 398l-95 -95l95 -95l-84 -84l-95 95l-95 -95l-84 84l95 95l-95 95l84 84l95 -95l95 95z" />
    <glyph glyph-name="divide" unicode="&#xf7;" horiz-adv-x="429" 
d="M213 403q-34 0 -58 24t-24 59q0 33 24 56.5t58 23.5q33 0 57 -23.5t24 -56.5q0 -34 -24 -58.5t-57 -24.5zM22 244v122h384v-122h-384zM213 36q-34 0 -58 24t-24 59q0 33 24 56.5t58 23.5q33 0 57 -23.5t24 -56.5q0 -34 -24 -58.5t-57 -24.5z" />
    <glyph glyph-name="uni060C" unicode="&#x60c;" horiz-adv-x="346" 
d="M194 165q27 -7 45 -29t18 -52q0 -35 -25 -60.5t-59 -25.5q-36 0 -61 25.5t-25 60.5q0 24 13 45l75 162l63 -29z" />
    <glyph glyph-name="uni061B" unicode="&#x61b;" horiz-adv-x="346" 
d="M173 274q-36 0 -60.5 25t-24.5 61q0 22 9 38l78 169l64 -29l-45 -97q27 -7 45 -29t18 -52q0 -35 -25 -60.5t-59 -25.5zM173 167q35 0 59.5 -24.5t24.5 -59.5t-25 -60.5t-59 -25.5q-36 0 -60.5 25t-24.5 61q0 35 24.5 59.5t60.5 24.5z" />
    <glyph glyph-name="uni061F" unicode="&#x61f;" horiz-adv-x="550" 
d="M345 200h-134v35q-1 26 -9 37.5t-42 39.5q-60 48 -81.5 81.5t-21.5 87.5q0 93 63.5 159t154.5 66q90 0 154 -67t64 -160v-40h-134v40q0 31 -24.5 53t-59.5 22q-36 0 -60 -21.5t-24 -51.5q0 -26 16.5 -44.5t52.5 -43.5q34 -24 47 -33.5t24 -28.5t12.5 -37.5t1.5 -58.5v-35
zM277 -34q-36 0 -60.5 25t-24.5 60t24.5 59.5t60.5 24.5q35 0 59.5 -24.5t24.5 -59.5t-24.5 -60t-59.5 -25z" />
    <glyph glyph-name="uni0640" unicode="&#x640;" horiz-adv-x="300" 
d="M-5 0v151h310v-151h-310z" />
    <glyph glyph-name="uni064B" unicode="&#x64b;" 
d="M16 548l-16 74l237 57l17 -74zM16 415l-16 75l237 57l17 -75z" />
    <glyph glyph-name="uni064C" unicode="&#x64c;" 
d="M372 700q9 -51 -19.5 -89.5t-85.5 -52.5l-221 -54l-15 66l8 2q22 7 33 24t6 36q-5 20 -23 30t-43 4l-12 59q53 13 90 -12.5t44 -68.5q4 -23 -2 -46l40 11l-14 55q-11 44 9.5 78.5t65.5 44.5q51 12 90.5 -13.5t48.5 -73.5zM250 631q31 9 46 22.5t12 31.5t-18.5 28t-39.5 4
q-35 -7 -27 -38l13 -52z" />
    <glyph glyph-name="uni064D" unicode="&#x64d;" 
d="M16 -372l-16 74l237 57l17 -74zM16 -504l-16 74l237 57l17 -74z" />
    <glyph glyph-name="uni064E" unicode="&#x64e;" 
d="M16 501l-16 74l237 57l17 -74z" />
    <glyph glyph-name="uni064F" unicode="&#x64f;" 
d="M301 685q10 -51 -20 -90t-89 -53l-176 -42l-16 74l87 21l-13 52q-11 43 12 78.5t69 46.5q51 11 94.5 -14.5t51.5 -72.5zM175 616q30 7 44 21t11 32q-3 19 -18.5 28.5t-39.5 4.5q-38 -9 -28 -40l13 -50z" />
    <glyph glyph-name="uni0650" unicode="&#x650;" 
d="M16 -387l-16 74l237 57l17 -74z" />
    <glyph glyph-name="uni0651" unicode="&#x651;" 
d="M4 615l14 56l57 -16l-11 -51q-6 -27 27 -27q9 0 15 3t8 6t2 5l3 67h55l3 -67q0 -2 2 -5t8.5 -6t15.5 -3q17 0 23.5 6.5t3.5 17.5l-17 71l59 18l21 -75q13 -46 -14 -80.5t-76 -34.5q-37 0 -56 21q-21 -21 -56 -21q-47 0 -73.5 34.5t-13.5 80.5z" />
    <glyph glyph-name="uni0652" unicode="&#x652;" 
d="M129 500q-53 0 -91 38.5t-38 93.5q0 54 38 92.5t91 38.5t91 -38.5t38 -92.5q0 -55 -38 -93.5t-91 -38.5zM129 573q26 0 43.5 17t17.5 42q0 23 -18 40.5t-43 17.5t-43 -17.5t-18 -40.5q0 -25 17.5 -42t43.5 -17z" />
    <glyph glyph-name="uni0653" unicode="&#x653;" 
d="M0 585v24q0 50 33.5 77.5t83.5 17.5l101 -19q37 -6 37 21v4l68 5v-24q0 -50 -33.5 -77.5t-83.5 -17.5l-101 19q-37 6 -37 -21v-4z" />
    <glyph glyph-name="uni0654" unicode="&#x654;" 
d="M295 562l-110 -26q-1 0 -4 -1t-5 -1l-160 -37l-16 73l68 16q-10 18 -14 36q-13 57 22.5 100.5t91.5 40.5l80 -12l-13 -74q-7 1 -18.5 3t-34.5 4.5t-31 0.5q-18 -4 -27.5 -17t-5.5 -30q4 -14 17.5 -22.5t29.5 -6.5l113 27z" />
    <glyph glyph-name="uni0655" unicode="&#x655;" 
d="M294 -360l-109 -26l-4 -1l-165 -39l-16 74l68 16q-10 18 -14 36q-14 57 21.5 100.5t92.5 39.5l80 -12l-13 -73q-7 1 -18.5 3t-34.5 4.5t-31 0.5q-42 -11 -33 -47q3 -14 18 -22.5t30 -6.5l112 27z" />
    <glyph glyph-name="uni0656" unicode="&#x656;" 
d="M2 -400v162h64v-162h-64z" />
    <glyph glyph-name="uni0660" unicode="&#x660;" horiz-adv-x="392" 
d="M196 112l-126 126l126 126q64 -62 126 -126q-62 -64 -126 -126z" />
    <glyph glyph-name="uni0661" unicode="&#x661;" horiz-adv-x="369" 
d="M164 -7l-64 655l135 14l64 -655z" />
    <glyph glyph-name="uni0662" unicode="&#x662;" horiz-adv-x="618" 
d="M537 499q8 -81 -48.5 -142t-139.5 -61h-23q-28 0 -56 9l29 -294l-135 -15l-64 656l135 15l17 -179q4 -23 16.5 -32t35.5 -9h45q26 0 40.5 10t12.5 29l-17 166l135 15z" />
    <glyph glyph-name="uni0663" unicode="&#x663;" horiz-adv-x="849" 
d="M768 492q7 -81 -50 -140.5t-138 -59.5h-10q-66 0 -118 47q-53 -47 -122 -47h-20q-19 0 -39 5l28 -290l-135 -14l-64 655l135 14l16 -168q6 -50 53 -50h26q22 0 37.5 11.5t14.5 28.5v2l-14 139l135 14l14 -146q5 -49 53 -49h10q23 0 38.5 12t14.5 30l-16 162l135 14z" />
    <glyph glyph-name="uni0664" unicode="&#x664;" horiz-adv-x="552" 
d="M290 151h182v-151h-186q-77 0 -131.5 57t-54.5 136q0 123 132 185q-86 56 -86 155q0 68 39.5 115t112.5 69l127 38l39 -145l-127 -37q-56 -16 -56 -44q0 -16 13.5 -26t51.5 -21l112 -35l3 -143l-142 -44q-47 -15 -65 -29t-19 -34q-1 -22 14.5 -34t40.5 -12z" />
    <glyph glyph-name="uni0665" unicode="&#x665;" horiz-adv-x="736" 
d="M338 -9q-142 0 -201 90t-24 249q25 108 59.5 173t87.5 88q53 19 109.5 9.5t111 -50t95.5 -92.5t63.5 -116.5t14.5 -123.5q-31 -227 -316 -227zM338 142q171 0 183 96q5 42 -32 100t-89.5 93.5t-85.5 20.5q-39 -17 -69 -156q-20 -92 -0.5 -123t93.5 -31z" />
    <glyph glyph-name="uni0666" unicode="&#x666;" horiz-adv-x="624" 
d="M409 -7l-45 509q-202 -16 -324 23l42 145q56 -18 139 -21t139 3l55 6l76 -67l53 -584z" />
    <glyph glyph-name="uni0667" unicode="&#x667;" horiz-adv-x="734" 
d="M528 662l126 -50l-224 -619h-127l-223 619l126 50l161 -446z" />
    <glyph glyph-name="uni0668" unicode="&#x668;" horiz-adv-x="734" 
d="M206 -12l-126 50l224 622h127l223 -622l-126 -50l-160 446z" />
    <glyph glyph-name="uni0669" unicode="&#x669;" horiz-adv-x="653" 
d="M573 8l-135 -15l-27 251h-100q-89 0 -150 62t-61 152t61.5 154t149.5 64q83 0 142.5 -59t69.5 -150zM311 390h84l-7 61q-4 34 -25 55.5t-52 21.5q-32 0 -54 -21t-22 -49q0 -27 22 -47.5t54 -20.5z" />
    <glyph glyph-name="uni066A" unicode="&#x66a;" horiz-adv-x="544" 
d="M105 518q-37 0 -61.5 25t-24.5 61q0 35 25 59.5t61 24.5q35 0 59.5 -25t24.5 -59q0 -36 -24.5 -61t-59.5 -25zM75 1l234 687h159l-235 -687h-158zM441 0q-37 0 -61.5 25t-24.5 61q0 35 24.5 59.5t61.5 24.5q35 0 59.5 -24.5t24.5 -59.5q0 -36 -24.5 -61t-59.5 -25z" />
    <glyph glyph-name="uni066B" unicode="&#x66b;" horiz-adv-x="409" 
d="M133 -114l-93 40l216 536l93 -40z" />
    <glyph glyph-name="uni066C" unicode="&#x66c;" horiz-adv-x="320" 
d="M166 -133l-96 34l84 238l96 -34z" />
    <glyph glyph-name="uni066D" unicode="&#x66d;" horiz-adv-x="520" 
d="M470 411l-100 -32l62 -86l-110 -80l-62 85l-62 -85l-110 80l62 86l-100 32l42 128l101 -33v107h134v-107l101 33z" />
    <glyph glyph-name="uni066E" unicode="&#x66e;" horiz-adv-x="977" 
d="M916 285q23 -87 -3 -155.5t-97 -99.5q-43 -20 -101.5 -25t-225.5 -5q-164 0 -223.5 5.5t-104.5 24.5q-69 30 -96 97t-5 150l38 146l130 -39l-39 -153q-7 -28 -1.5 -40.5t27.5 -22.5q21 -9 72.5 -13t201.5 -4q105 0 163.5 2.5t76.5 5.5t33 10q26 11 30 25t-6 52l-38 139
l130 39z" />
    <glyph glyph-name="uni066F" unicode="&#x66f;" horiz-adv-x="763" 
d="M416 -236q-106 -25 -189.5 4t-126 99.5t-49.5 174t38 229.5l128 -50q-59 -172 -12.5 -256.5t181.5 -52.5q102 21 146.5 39.5t43.5 49.5l-1 15q-58 -7 -101 -7q-81 0 -135 52.5t-61 136.5q-8 96 47.5 170.5t144.5 78.5q90 4 151 -61t72 -173l17 -162q7 -67 -5 -112.5
t-49.5 -78.5t-93 -54.5t-146.5 -41.5zM474 160q36 0 89 8l-3 26q-5 51 -27 77t-56 25q-32 -1 -49.5 -26t-15.5 -61q5 -49 62 -49z" />
    <glyph glyph-name="uni0670" unicode="&#x670;" 
d="M2 500v162h64v-162h-64z" />
    <glyph glyph-name="uni06A1" unicode="&#x6a1;" horiz-adv-x="984" 
d="M933 207q7 -107 -50.5 -157t-211.5 -50h-187q-161 0 -219.5 5.5t-103.5 24.5q-69 30 -96 97t-5 150l38 146l130 -39l-39 -153q-7 -28 -1.5 -40.5t27.5 -22.5q21 -9 72.5 -13t201.5 -4h184q88 0 110.5 8.5t19.5 41.5q-36 -3 -97 -3q-82 0 -132 47t-51 130q-1 96 46 161
t134 71q89 7 149.5 -55t67.5 -166zM646 386q3 -48 60 -48q44 0 86 4l-3 33q-11 99 -79 96q-32 -1 -49.5 -25.5t-14.5 -59.5z" />
    <glyph glyph-name="uni06BA" unicode="&#x6ba;" horiz-adv-x="732" 
d="M416 -236q-106 -25 -189.5 4t-126 99.5t-49.5 174t38 229.5l128 -50q-59 -172 -12.5 -256.5t181.5 -52.5q108 25 137.5 45.5t21.5 80.5l-41 275l133 22l41 -276q18 -129 -46 -194.5t-216 -100.5z" />
    <glyph glyph-name="uni06F0" unicode="&#x6f0;" horiz-adv-x="571" 
d="M491 231q0 -84 -57.5 -144t-138.5 -60t-138 60t-57 144t57 144t138 60t138.5 -60t57.5 -144zM364 231q0 26 -20.5 44t-48.5 18q-27 0 -48 -18.5t-21 -43.5q0 -26 20.5 -43.5t48.5 -17.5t48.5 17.5t20.5 43.5z" />
    <glyph glyph-name="uni06F1" unicode="&#x6f1;" horiz-adv-x="369" 
d="M164 -7l-64 655l135 14l64 -655z" />
    <glyph glyph-name="uni06F2" unicode="&#x6f2;" horiz-adv-x="618" 
d="M537 499q8 -81 -48.5 -142t-139.5 -61h-23q-28 0 -56 9l29 -294l-135 -15l-64 656l135 15l17 -179q4 -23 16.5 -32t35.5 -9h45q26 0 40.5 10t12.5 29l-17 166l135 15z" />
    <glyph glyph-name="uni06F3" unicode="&#x6f3;" horiz-adv-x="849" 
d="M768 492q7 -81 -50 -140.5t-138 -59.5h-10q-66 0 -118 47q-53 -47 -122 -47h-20q-19 0 -39 5l28 -290l-135 -14l-64 655l135 14l16 -168q6 -50 53 -50h26q22 0 37.5 11.5t14.5 28.5v2l-14 139l135 14l14 -146q5 -49 53 -49h10q23 0 38.5 12t14.5 30l-16 162l135 14z" />
    <glyph glyph-name="uni06F4" unicode="&#x6f4;" horiz-adv-x="753" 
d="M669 444v-152h-366q-17 0 -33 3l28 -288l-135 -14l-46 477q0 1 -0.5 5t-0.5 6l-16 168l135 14l17 -175q3 -25 13.5 -34t31.5 -10q-10 35 -10 65q0 90 62.5 153.5t149.5 63.5q27 0 69 -14t70 -26.5t30 -14.5l-59 -134q-87 34 -110 37q-32 7 -55 -14t-23 -51
q0 -27 17.5 -46t41.5 -19h189z" />
    <glyph glyph-name="uni06F5" unicode="&#x6f5;" horiz-adv-x="803" 
d="M391 746q70 -78 103.5 -115.5t77.5 -89t60.5 -73.5t39 -58t28.5 -53.5t13.5 -48.5t8.5 -54.5t1 -61.5q0 -81 -53 -136.5t-131 -55.5h-11q-67 0 -116 44q-50 -44 -118 -44h-11q-77 0 -130 56t-53 136q0 89 13.5 139t56 110.5t146.5 175.5l-25 28zM539 151q22 0 35.5 11.5
t13.5 29.5q0 46 -3.5 70.5t-23 61.5t-51.5 75.5t-99 112.5q-91 -101 -123 -144t-42.5 -77.5t-10.5 -98.5q0 -18 13.5 -29.5t34.5 -11.5h11q21 0 35.5 12.5t14.5 28.5v61h135v-55q3 -47 49 -47h11z" />
    <glyph glyph-name="uni06F6" unicode="&#x6f6;" horiz-adv-x="660" 
d="M482 352h1q-5 -8 -11 -14l-256 -380l-111 84l151 223q-29 9 -58 27q-75 48 -93 139.5t33 165.5q12 17 47 45.5t64 48.5l29 20l67 -132q-82 -47 -96 -67q-35 -53 17 -89q24 -19 56.5 -14t49.5 29l97 143l111 -84z" />
    <glyph glyph-name="uni06F7" unicode="&#x6f7;" horiz-adv-x="734" 
d="M528 662l126 -50l-224 -619h-127l-223 619l126 50l161 -446z" />
    <glyph glyph-name="uni06F8" unicode="&#x6f8;" horiz-adv-x="734" 
d="M206 -12l-126 50l224 622h127l223 -622l-126 -50l-160 446z" />
    <glyph glyph-name="uni06F9" unicode="&#x6f9;" horiz-adv-x="653" 
d="M573 8l-135 -15l-27 251h-100q-89 0 -150 62t-61 152t61.5 154t149.5 64q83 0 142.5 -59t69.5 -150zM311 390h84l-7 61q-4 34 -25 55.5t-52 21.5q-32 0 -54 -21t-22 -49q0 -27 22 -47.5t54 -20.5z" />
    <glyph glyph-name="uni2009" unicode="&#x2009;" horiz-adv-x="150" 
 />
    <glyph glyph-name="uni200A" unicode="&#x200a;" horiz-adv-x="75" 
 />
    <glyph glyph-name="uni200B" unicode="&#x200b;" 
 />
    <glyph glyph-name="uni200C" unicode="&#x200c;" 
 />
    <glyph glyph-name="uni200D" unicode="&#x200d;" 
 />
    <glyph glyph-name="uni200E" unicode="&#x200e;" horiz-adv-x="101" 
 />
    <glyph glyph-name="uni200F" unicode="&#x200f;" horiz-adv-x="101" 
 />
    <glyph glyph-name="quoteleft" unicode="&#x2018;" horiz-adv-x="218" 
d="M190 803l-21 -257h-141l58 257h104z" />
    <glyph glyph-name="quoteright" unicode="&#x2019;" horiz-adv-x="217" 
d="M28 547l20 257h142l-59 -257h-103z" />
    <glyph glyph-name="quotedblleft" unicode="&#x201c;" horiz-adv-x="435" 
d="M190 803l-21 -257h-141l58 257h104zM407 803l-21 -257h-141l58 257h104z" />
    <glyph glyph-name="quotedblright" unicode="&#x201d;" horiz-adv-x="435" 
d="M28 547l20 257h142l-59 -257h-103zM245 547l20 257h142l-59 -257h-103z" />
    <glyph glyph-name="quotedblbase" unicode="&#x201e;" horiz-adv-x="435" 
d="M28 -103l20 257h142l-59 -257h-103zM245 -103l20 257h142l-59 -257h-103z" />
    <glyph glyph-name="guilsinglleft" unicode="&#x2039;" horiz-adv-x="290" 
d="M227 411q-56 -53 -56 -129q0 -73 51 -126l-84 -82q-85 88 -85 208q0 127 93 215z" />
    <glyph glyph-name="guilsinglright" unicode="&#x203a;" horiz-adv-x="289" 
d="M63 411l81 86q92 -87 92 -215q0 -120 -85 -208l-84 82q51 53 51 126q0 77 -55 129z" />
    <glyph glyph-name="minus" unicode="&#x2212;" horiz-adv-x="429" 
d="M22 244v122h384v-122h-384z" />
    <glyph glyph-name="notequal" unicode="&#x2260;" horiz-adv-x="429" 
d="M406 340h-113l-26 -69h139v-122h-186l-30 -78h-120l30 78h-78v122h124l27 69h-151v122h198l29 77h121l-30 -77h66v-122z" />
    <glyph glyph-name="dotabove-ar" unicode="&#xfbb2;" 
d="M96 340l-96 96l96 96l96 -96z" />
    <glyph glyph-name="dotbelow-ar" unicode="&#xfbb3;" 
d="M96 -242l-96 96l96 96l96 -96z" />
    <glyph glyph-name="twodotshorizontalabove-ar" unicode="&#xfbb4;" 
d="M85 453l-85 85l85 85l85 -85zM289 453l-85 85l85 85l85 -85z" />
    <glyph glyph-name="twodotshorizontalbelow-ar" unicode="&#xfbb5;" 
d="M85 -203l-85 84l85 86l85 -86zM289 -203l-85 84l85 86l85 -86z" />
    <glyph glyph-name="threedotsupabove-ar" unicode="&#xfbb6;" 
d="M187 617l-70 70l70 69l69 -69zM85 453l-85 85l85 85l85 -85zM288 453l-85 85l85 85l85 -85z" />
    <glyph glyph-name="threedotsdownbelow-ar" unicode="&#xfbb9;" 
d="M85 -236l-85 84l85 86l85 -86zM288 -236l-85 84l85 86l85 -86zM187 -369l-70 70l70 69l69 -69z" />
    <glyph glyph-name="uniFD3E" unicode="&#xfd3e;" horiz-adv-x="396" 
d="M341 -134l-96 -106q-93 94 -144 221t-51 264q0 138 52.5 266.5t147.5 224.5l96 -108q-161 -159 -161 -383q0 -220 156 -379z" />
    <glyph glyph-name="uniFD3F" unicode="&#xfd3f;" horiz-adv-x="396" 
d="M55 -134q157 160 157 379q0 223 -162 383l96 108q95 -96 147.5 -224.5t52.5 -266.5q0 -137 -51 -264t-144 -221z" />
    <glyph glyph-name="uniFEFF" unicode="&#xfeff;" 
 />
    <glyph glyph-name="b.bowl" horiz-adv-x="330" 
d="M156 -9q-71 0 -113.5 49t-42.5 128v171q0 79 42.5 128t112.5 49q90 0 132.5 -47t42.5 -130v-171q0 -83 -42.5 -130t-131.5 -47zM115 104q28 0 45.5 17t17.5 47v171q0 29 -17.5 47t-45.5 18q-29 0 -46 -18t-17 -47v-171q0 -31 16.5 -47.5t46.5 -16.5z" />
    <glyph glyph-name="d.bowl" horiz-adv-x="330" 
d="M174 516q71 0 113.5 -49t42.5 -129v-170q0 -79 -42 -128t-113 -49q-90 0 -132.5 47t-42.5 130v170q0 83 42.5 130.5t131.5 47.5zM215 403q-28 0 -45.5 -17.5t-17.5 -47.5v-170q0 -28 18 -46.5t46 -18.5q29 0 46 18t17 47v170q0 31 -17 48t-47 17z" />
    <glyph glyph-name="n.curve" horiz-adv-x="330" 
d="M178 0v339q0 29 -17.5 47t-45.5 18q-29 0 -46 -18t-17 -47v-60h-52v60q0 79 42.5 128t112.5 49q90 0 132.5 -47t42.5 -130v-339h-152z" />
    <glyph glyph-name="uni0627.001" horiz-adv-x="178" 
d="M30 143l-22 549l135 6l19 -491z" />
    <glyph glyph-name="uni0627.002" horiz-adv-x="322" 
d="M111 -4l-23 596l135 6l23 -596z" />
    <glyph glyph-name="uniFE8E.001" horiz-adv-x="288" 
d="M283 0q-108 0 -154.5 52.5t-51.5 179.5l-14 360l135 6l14 -366q2 -57 12 -69t59 -12h10v-151h-10z" />
    <glyph glyph-name="uniFE8E.002" horiz-adv-x="335" 
d="M133 196l-83 435l132 27l83 -435zM104 0v151h236v-151h-236z" />
    <glyph glyph-name="uni066E.001" horiz-adv-x="488" 
d="M0 0v151q152 0 201.5 4t71.5 14q26 11 30 25t-6 52l-38 139l130 39l38 -139q23 -87 -3 -155.5t-97 -99.5q-43 -20 -101.5 -25t-225.5 -5z" />
    <glyph glyph-name="uni066E.fina.001" horiz-adv-x="489" 
d="M489 0q-164 0 -223.5 5.5t-104.5 24.5q-69 30 -96 97t-5 150l38 146l130 -39l-39 -153q-7 -28 -1.5 -40.5t27.5 -22.5q21 -9 72.5 -13t201.5 -4v-151z" />
    <glyph glyph-name="uni066E.fina.001.003" horiz-adv-x="491" 
d="M246 0q-95 3 -149 59t-46 146l11 123l135 -13l-11 -123q-2 -22 10.5 -31t49.5 -10h245v-151h-245z" />
    <glyph glyph-name="uni066E.fina.002" horiz-adv-x="492" 
d="M497 151v-151q-79 0 -127 39q-51 -39 -129 -39h-241v151h241q37 0 50 9.5t11 31.5l-11 123l134 13l11 -123v-2q3 -31 14.5 -41.5t46.5 -10.5z" />
    <glyph glyph-name="uni066E.medi.001" horiz-adv-x="426" 
d="M431 151v-151q-78 0 -126 39q-51 -39 -130 -39h-180v151h180q38 0 50.5 9.5t10.5 31.5l-11 123l135 13l11 -123q0 -6 1 -9q2 -27 13.5 -36t45.5 -9z" />
    <glyph glyph-name="uni066E.init.001" horiz-adv-x="414" 
d="M-5 0v151h154q51 0 68.5 18.5t4.5 66.5l-39 149l129 39l42 -157q31 -116 -29.5 -191.5t-175.5 -75.5h-154z" />
    <glyph glyph-name="uni066E.init.002" horiz-adv-x="339" 
d="M108 385l130 39l40 -149q32 -120 -27.5 -197.5t-176.5 -77.5h-79v151h79q52 0 69.5 18t4.5 67z" />
    <glyph glyph-name="uniFE92.alt" horiz-adv-x="309" 
d="M314 151v-151q-79 0 -127 39q-51 -39 -129 -39h-63v151h63q37 0 50 9.5t11 31.5l-11 123l134 13l11 -123v-2q3 -31 14.5 -41.5t46.5 -10.5zM-25 -147l96 96l96 -96l-96 -96z" />
    <glyph glyph-name="uniFE91.alt" horiz-adv-x="380" 
d="M319 275q33 -120 -26.5 -197.5t-176.5 -77.5h-121v151h121q52 0 69.5 18t4.5 67l-40 149l129 39zM58 -148l96 96l96 -96l-96 -96z" />
    <glyph glyph-name="uniFB59.alt" horiz-adv-x="426" 
d="M431 151v-151q-78 0 -126 39q-51 -39 -130 -39h-180v151h180q38 0 50.5 9.5t10.5 31.5l-11 123l135 13l11 -123q0 -6 1 -9q2 -27 13.5 -36t45.5 -9zM9 -60l86 -86l-86 -84l-84 84zM128 -146l84 86l86 -86l-86 -84zM42 -293l70 69l68 -69l-68 -70z" />
    <glyph glyph-name="uniFB58.alt" horiz-adv-x="455" 
d="M-5 0v151h195q51 0 68.5 18.5t4.5 66.5l-39 149l130 39l42 -157q31 -116 -30 -191.5t-176 -75.5h-195zM87 -63l85 -85l-85 -85l-85 85zM205 -148l85 85l85 -85l-85 -85zM119 -296l70 69l69 -69l-69 -69z" />
    <glyph glyph-name="uniFEA2.001" horiz-adv-x="734" 
d="M646 -127l35 -147l-259 -71q-122 -31 -225 27.5t-136 178.5q-33 125 32 232t212 146l201 50l-156 77q-34 18 -70 8.5t-56 -43.5l-17 -31l-118 74l20 35q53 88 137 112.5t170 -22.5l259 -145l-19 -174l-316 -88q-93 -24 -129 -74.5t-21 -113.5q15 -60 74.5 -90t128.5 -11z
" />
    <glyph glyph-name="uniFEA2.002" horiz-adv-x="256" 
d="M219 0q-95 0 -157 69.5t-62 169.5h135q0 -38 22 -63t62 -25h37v-151h-37z" />
    <glyph glyph-name="uniFEAE.001" horiz-adv-x="187" 
d="M187 0q-85 0 -125 61.5t-62 218.5l127 21q9 -70 17 -101.5t16.5 -40t26.5 -8.5h5v-151h-5z" />
    <glyph glyph-name="uniFEBC.001" horiz-adv-x="16" 
d="M7 0q-40 0 -79 15.5t-58 31.5l-19 16l91 111q23 -23 65 -23h14v-151h-14z" />
    <glyph glyph-name="uniFEBC.002" horiz-adv-x="233" 
d="M233 151v-151q-60 0 -103 40q-52 -38 -130 -40h-5v151h5q37 1 55 12t21 41l11 124l134 -13l-11 -122q-3 -42 23 -42z" />
    <glyph glyph-name="uniFEBC.003" horiz-adv-x="579" 
d="M319 438q90 0 150 -65t60 -161q0 -86 -62.5 -149t-147.5 -63h-320v106l-19 18l19 26v1h1l62 85q42 58 67 89t57 60.5t63 41t70 11.5zM319 151q29 0 52.5 19.5t23.5 41.5q0 33 -21 54t-55 21q-32 0 -60 -26.5t-86 -109.5h146z" />
    <glyph glyph-name="uniFEDC.001" horiz-adv-x="259" 
d="M250 0q-78 0 -138.5 54.5t-111.5 157.5l102 65q44 -75 74.5 -100.5t73.5 -25.5h14v-151h-14z" />
    <glyph glyph-name="uniFEDB.001" horiz-adv-x="489" 
d="M193 521l154 -228q41 -63 43.5 -126t-31.5 -104q-47 -63 -145 -63h-219v151h221q17 0 26 7q21 16 3 45l-220 311l30 114l362 133l47 -141z" />
    <glyph glyph-name="uniFEDE.001" horiz-adv-x="209" 
d="M194 0q-83 0 -136.5 55t-57.5 146l133 8q1 -33 16 -45.5t45 -12.5h20v-151h-20z" />
    <glyph glyph-name="uniFEE0.001" horiz-adv-x="289" 
d="M274 151h20v-151h-20q-73 0 -125 44q-50 -44 -131 -44h-23v151h23q37 0 49.5 11.5t11.5 33.5l-19 496l134 6l19 -489q1 -33 16 -45.5t45 -12.5z" />
    <glyph glyph-name="uniFEDF.001" horiz-adv-x="263" 
d="M-5 0v151h23q37 0 49.5 11.5t11.5 33.5l-19 496l134 6l19 -495q5 -87 -48.5 -145t-146.5 -58h-23z" />
    <glyph glyph-name="uniFEE4.001" horiz-adv-x="179" 
d="M184 0q-88 0 -136 59.5t-48 158.5h115q0 -67 69 -67v-151z" />
    <glyph glyph-name="uniFB9F.001" horiz-adv-x="229" 
d="M211 0q-80 0 -134.5 79.5t-75.5 233.5l132 21q12 -85 21 -121.5t20 -49t33 -12.5h27v-151h-23z" />
    <glyph glyph-name="uniFEF4.alt" horiz-adv-x="426" 
d="M431 151v-151q-78 0 -126 39q-51 -39 -130 -39h-180v151h180q38 0 50.5 9.5t10.5 31.5l-11 123l135 13l11 -123q0 -6 1 -9q2 -27 13.5 -36t45.5 -9zM-83 -150l85 85l85 -85l-85 -85zM121 -150l85 85l85 -85l-85 -85z" />
    <glyph glyph-name="uniFEF3.alt" horiz-adv-x="455" 
d="M396 267q31 -116 -30 -191.5t-176 -75.5h-195v151h195q51 0 68.5 18.5t4.5 66.5l-39 149l130 39zM-1 -148l85 85l85 -85l-85 -85zM203 -148l85 85l85 -85l-85 -85z" />
    <glyph glyph-name="uniFBFF.alt" horiz-adv-x="426" 
d="M431 151v-151q-78 0 -126 39q-51 -39 -130 -39h-180v151h180q38 0 50.5 9.5t10.5 31.5l-11 123l135 13l11 -123q0 -6 1 -9q2 -27 13.5 -36t45.5 -9zM-83 -150l85 85l85 -85l-85 -85zM121 -150l85 85l85 -85l-85 -85z" />
    <glyph glyph-name="uniFBFE.alt" horiz-adv-x="455" 
d="M396 267q31 -116 -30 -191.5t-176 -75.5h-195v151h195q51 0 68.5 18.5t4.5 66.5l-39 149l130 39zM-1 -148l85 85l85 -85l-85 -85zM203 -148l85 85l85 -85l-85 -85z" />
    <glyph glyph-name="uni0640.001" horiz-adv-x="160" 
d="M0 0v151h160v-151h-160z" />
    <glyph glyph-name="uni0640.002" horiz-adv-x="65" 
d="M0 0v151h70v-151h-70z" />
    <glyph glyph-name="uni0640.003" 
d="M-2 0v151h4v-151h-4z" />
    <glyph glyph-name="uni0640.004" horiz-adv-x="42" 
d="M-5 0v151h52v-151h-52z" />
    <glyph glyph-name="period.001" horiz-adv-x="351" 
d="M176 -1q-36 0 -60 24.5t-24 59.5t24 59t60 24q34 0 58 -24.5t24 -58.5q0 -35 -24 -59.5t-58 -24.5z" />
    <glyph glyph-name="sareyaar" 
d="M16 483l-7 76q13 1 54.5 3.5t66.5 5t25 5.5q0 4 -59 15q-67 11 -84.5 38t4.5 88q22 55 64 75.5t95 3.5l38 -12l-21 -73l-38 12q-59 19 -78 -35q-4 -11 2.5 -15t32.5 -10q62 -12 85 -28t23 -58q0 -53 -40 -68.5t-163 -22.5z" />
    <glyph glyph-name="dotcenterar" 
d="M96 -138l-96 96l96 96l96 -96z" />
    <glyph glyph-name="threedotsdownbelowar.002" 
d="M70 -221l-70 69l70 69l68 -69zM241 -221l-69 69l69 69l69 -69zM155 -317l-69 70l69 68l69 -68z" />
    <glyph glyph-name="threedotsupabovear.001" 
d="M85 453l-85 85l85 85l85 -85z" />
    <glyph glyph-name="threedotsupabovear.002" 
d="M70 617l-70 70l70 69l68 -69z" />
    <glyph glyph-name="waslaar" 
d="M241 717q43 0 72.5 -32t29.5 -79q0 -41 -30.5 -72t-71.5 -31h-138q-13 0 -21 -6t-25 -29l-57 43q25 34 43 49t41 19l32 44q23 31 35 46t37.5 31.5t52.5 16.5zM241 580q14 0 25.5 8t11.5 23q0 14 -11 23t-26 9q-16 0 -29.5 -10.5t-34.5 -39.5l-10 -13h74z" />
    <glyph glyph-name="miniKehehar" 
d="M0 0v60h54q14 0 2 11l-46 47l12 50l98 33l18 -56l-52 -18l36 -39q24 -22 12.5 -55t-45.5 -33h-89z" />
    <glyph glyph-name="gafsarkashabovear" 
d="M26 512l-33 92l244 88l33 -92z" />
    <glyph glyph-name="uni0654064F" 
d="M15 790l-16 74l88 21l-14 52q-11 43 12 78.5t69 46.5q51 12 94.5 -14t51.5 -73q10 -50 -20 -89t-89 -53zM143 952l13 -50l18 4q61 15 55 54q-3 18 -18.5 27.5t-39.5 4.5q-36 -9 -28 -40zM170 609l113 27l17 -74l-110 -26q-2 0 -5 -1t-4 -1l-160 -37l-16 73l68 16
q-10 18 -14 36q-13 57 22.5 100.5t91.5 40.5l80 -12l-13 -74q-7 1 -18.5 3t-34.5 4.5t-31 0.5q-18 -4 -27.5 -17t-5.5 -30q4 -14 17.5 -22.5t29.5 -6.5z" />
    <glyph glyph-name="uni0654064C" 
d="M396 984q9 -51 -19.5 -89.5t-85.5 -52.5l-221 -54l-15 66l11 3q20 7 30 23.5t6 34.5q-5 20 -23 30.5t-43 4.5l-12 59q53 12 90 -13.5t44 -67.5q4 -23 -2 -46l40 11l-14 55q-11 44 9.5 78.5t65.5 44.5q50 12 90 -13.5t49 -73.5zM274 915q31 9 46 22.5t12 31.5t-18.5 28
t-39.5 4q-35 -7 -27 -38l13 -52zM220 609l113 27l16 -74l-110 -26q-2 0 -5 -1t-4 -1l-160 -37l-16 73l69 16q-11 16 -15 36q-13 57 22.5 100.5t92.5 40.5l79 -12l-13 -74q-7 1 -18.5 3t-34.5 4.5t-31 0.5q-18 -4 -27.5 -17t-5.5 -30q4 -14 18 -22.5t30 -6.5z" />
    <glyph glyph-name="uni0654064E" 
d="M267 849l-237 -57l-16 74l237 57zM295 562l-110 -26q-1 0 -4 -1t-5 -1l-160 -37l-16 73l68 16q-10 18 -14 36q-13 57 22.5 100.5t91.5 40.5l80 -12l-13 -74q-7 1 -18.5 3t-34.5 4.5t-31 0.5q-18 -4 -27.5 -17t-5.5 -30q4 -14 17.5 -22.5t29.5 -6.5l113 27z" />
    <glyph glyph-name="uni0654064B" 
d="M274 971l-237 -57l-17 74l238 57zM274 839l-237 -57l-17 74l238 57zM295 562l-110 -26q-1 0 -4 -1t-5 -1l-160 -37l-16 73l68 16q-10 18 -14 36q-13 57 22.5 100.5t91.5 40.5l80 -12l-13 -74q-7 1 -18.5 3t-34.5 4.5t-31 0.5q-18 -4 -27.5 -17t-5.5 -30q4 -14 17.5 -22.5
t29.5 -6.5l113 27z" />
    <glyph glyph-name="uni06540652" 
d="M147 808q-53 0 -91 39t-38 93t38 92.5t91 38.5t91 -38.5t38 -92.5t-38 -93t-91 -39zM147 998q-25 0 -43 -17t-18 -41t18 -41t43 -17t42.5 17t17.5 41t-17.5 41t-42.5 17zM295 562l-110 -26q-1 0 -4 -1t-5 -1l-160 -37l-16 73l68 16q-10 18 -14 36q-13 57 22.5 100.5
t91.5 40.5l80 -12l-13 -74q-7 1 -18.5 3t-34.5 4.5t-31 0.5q-18 -4 -27.5 -17t-5.5 -30q4 -14 17.5 -22.5t29.5 -6.5l113 27z" />
    <glyph glyph-name="uni06550650" 
d="M185 -386l-4 -1l-165 -39l-16 74l68 16q-10 18 -14 36q-14 57 21.5 100.5t92.5 39.5l80 -12l-13 -73q-7 1 -18.5 3t-34.5 4.5t-31 0.5q-42 -11 -33 -47q3 -14 18 -22.5t30 -6.5l112 27l16 -74zM27 -491l237 57l17 -74l-238 -57z" />
    <glyph glyph-name="uni0655064D" 
d="M185 -386l-4 -1l-165 -39l-16 74l68 16q-10 18 -14 36q-14 57 21.5 100.5t92.5 39.5l80 -12l-13 -73q-7 1 -18.5 3t-34.5 4.5t-31 0.5q-42 -11 -33 -47q3 -14 18 -22.5t30 -6.5l112 27l16 -74zM27 -473l237 57l17 -74l-238 -57zM27 -606l237 57l17 -74l-238 -57z" />
    <glyph glyph-name="uni0653.001" 
d="M0 585v24q0 50 33.5 77.5t83.5 17.5l101 -19q37 -6 37 21v4l68 5v-24q0 -50 -33.5 -77.5t-83.5 -17.5l-101 19q-37 6 -37 -21v-4z" />
    <glyph glyph-name="uni06510670" 
d="M116 698v162h64v-162h-64zM4 615l14 56l57 -16l-11 -51q-6 -27 27 -27q9 0 15 3t8 6t2 5l3 67h55l3 -67q0 -2 2 -5t8.5 -6t15.5 -3q17 0 23.5 6.5t3.5 17.5l-17 71l59 18l21 -75q13 -46 -14 -80.5t-76 -34.5q-37 0 -56 21q-21 -21 -56 -21q-47 0 -73.5 34.5t-13.5 80.5z
" />
    <glyph glyph-name="uni0651064F" 
d="M11 722l-17 74l88 21l-14 52q-11 44 12 79.5t69 45.5q52 12 95 -14t52 -73q9 -51 -21 -89.5t-89 -53.5zM138 884l13 -50l18 4q30 7 44 21t11 32q-2 19 -17.5 28.5t-40.5 4.5q-36 -9 -28 -40zM294 615q13 -46 -14 -80.5t-76 -34.5q-37 0 -56 21q-21 -21 -56 -21
q-47 0 -73.5 34.5t-13.5 80.5l14 56l58 -16l-11 -51q-6 -27 26 -27q9 0 15 3t8.5 6t2.5 5l2 67h56l2 -67q0 -2 2.5 -5t8.5 -6t15 -3q18 0 24 6.5t3 17.5l-17 71l59 18z" />
    <glyph glyph-name="uni0651064C" 
d="M368 901q9 -51 -19.5 -89.5t-85.5 -52.5l-221 -54l-15 65l8 2q22 7 33 24.5t6 35.5q-5 20 -22.5 30.5t-42.5 4.5l-13 59q52 12 89.5 -13.5t45.5 -67.5q3 -24 -3 -46l40 11l-14 55q-11 44 9.5 78.5t65.5 44.5q51 12 91 -13.5t48 -73.5zM219 880l13 -52l14 4q30 8 45.5 22
t12.5 32t-18.5 28t-39.5 4q-35 -7 -27 -38zM319 690l21 -75q13 -46 -14 -80.5t-76 -34.5q-37 0 -56 21q-21 -21 -56 -21q-46 0 -73 34.5t-14 80.5l14 56l58 -16l-11 -51q-6 -27 26 -27q9 0 15.5 3t8.5 6t2 5l2 67h56l2 -67q0 -2 2.5 -5t8.5 -6t15 -3q18 0 24 6.5t3 17.5
l-17 71z" />
    <glyph glyph-name="uni0651064E" 
d="M29 724l-16 74l237 57l16 -74zM4 615l14 56l57 -16l-11 -51q-6 -27 27 -27q9 0 15 3t8 6t2 5l3 67h55l3 -67q0 -2 2 -5t8.5 -6t15.5 -3q17 0 23.5 6.5t3.5 17.5l-17 71l59 18l21 -75q13 -46 -14 -80.5t-76 -34.5q-37 0 -56 21q-21 -21 -56 -21q-47 0 -73.5 34.5
t-13.5 80.5z" />
    <glyph glyph-name="uni0651064B.1" 
d="M35 846l-16 74l238 57l16 -74zM35 714l-16 74l238 57l16 -74zM4 615l14 56l57 -16l-11 -51q-6 -27 27 -27q9 0 15 3t8 6t2 5l3 67h55l3 -67q0 -2 2 -5t8.5 -6t15.5 -3q17 0 23.5 6.5t3.5 17.5l-17 71l59 18l21 -75q13 -46 -14 -80.5t-76 -34.5q-37 0 -56 21
q-21 -21 -56 -21q-47 0 -73.5 34.5t-13.5 80.5z" />
    <glyph glyph-name="uni06510650" 
d="M7 765l14 57l57 -17l-10 -50q-7 -28 26 -28q9 0 15 3t8 6t2 5l3 67h56l2 -67q0 -2 2 -5t8.5 -6t15.5 -3q17 0 23.5 7t3.5 17l-17 71l59 18l21 -74q13 -46 -14 -81t-76 -35q-37 0 -56 21q-21 -21 -56 -21q-47 0 -73.5 34.5t-13.5 80.5zM40 501l-16 74l238 57l16 -74z" />
    <glyph glyph-name="uni0651064D" 
d="M5 894l14 56l58 -16l-11 -51q-6 -27 26 -27q13 0 19.5 4.5t6.5 9.5l2 67h56l2 -67q0 -2 2.5 -5t8.5 -6t15 -3q18 0 24 6.5t3 17.5l-17 71l59 18l21 -75q13 -46 -14 -80.5t-76 -34.5q-37 0 -56 21q-21 -21 -56 -21q-47 0 -73.5 34.5t-13.5 80.5zM39 631l-16 74l237 57
l16 -74zM39 499l-16 74l237 57l16 -74z" />
    </font>
</defs>
</svg>
