<?xml version="1.0" standalone="no"?>
<!DOCTYPE svg PUBLIC "-//W3C//DTD SVG 1.1//EN" "http://www.w3.org/Graphics/SVG/1.1/DTD/svg11.dtd" >
<svg xmlns="http://www.w3.org/2000/svg" xmlns:xlink="http://www.w3.org/1999/xlink" version="1.1">
<metadata>
Created by FontForge 20190801 at Fri Jul 19 03:27:03 2019
 By www-data
Copyright (c) 2019 by www.fontiran.com (Moslem Ebrahimi). All rights reserved.
</metadata>
<defs>
<font id="Dana-FaNum-Regular" horiz-adv-x="0" >
  <font-face 
    font-family="Dana-FaNum"
    font-weight="400"
    font-stretch="normal"
    units-per-em="1000"
    panose-1="0 0 5 0 0 0 0 0 0 0"
    ascent="800"
    descent="-200"
    x-height="468"
    cap-height="660"
    bbox="-123 -593 1380.72 1049"
    underline-thickness="19"
    underline-position="-268"
    unicode-range="U+000D-FEFF"
  />
<missing-glyph horiz-adv-x="300" 
d="M38 -14v528h224v-528h-224zM62 14h176v472h-176v-472z" />
    <glyph glyph-name="uni06C0" unicode="&#x647;&#x654;" horiz-adv-x="442" 
d="M115 555q11 1 32 2.5t33 2.5t29 2.5t26.5 3.5t19 4.5t14 6t4.5 7.5q0 11 -13 15.5t-56 13.5q-61 12 -76 32.5t3 72.5q20 49 58.5 67.5t86.5 3.5l37 -11l-12 -44l-38 12q-69 21 -95 -45q-9 -21 -1.5 -29t46.5 -16q30 -6 44 -10t29 -12t20.5 -20t5.5 -30q0 -22 -11 -35.5
t-36.5 -21t-57.5 -11t-85 -7.5h-4zM302 357q49 -48 70 -90t21 -93q0 -72 -50.5 -123.5t-120.5 -51.5q-71 0 -121.5 51.5t-50.5 123.5q0 86 77 161l41 40l-34 33l53 61zM222 81q41 0 69 27t28 66q0 29 -13.5 55t-54.5 66l-28 27l-40 -39q-59 -59 -59 -109q0 -38 28.5 -65.5
t69.5 -27.5z" />
    <glyph glyph-name="uniFBA5" unicode="&#xfeea;&#x654;" horiz-adv-x="518" arabic-form="final" 
d="M164 563l32.5 2.5l32.5 2.5t29 3t26 3.5t19.5 4.5t14 6.5t4.5 7.5q0 11 -13 15.5t-56 13.5q-61 12 -76 32.5t3 72.5q20 49 58 67.5t86 3.5l37 -12l-11 -43l-38 12q-69 21 -95 -45q-9 -22 -1.5 -29.5t46.5 -15.5q57 -12 78 -24.5t21 -47.5q0 -43 -48 -57q-30 -9 -146 -18z
M504 84h19v-84h-19q-51 0 -94.5 25t-70.5 67q-70 -10 -111 -18q-52 -7 -102 27.5t-68 86.5q-21 65 9.5 127.5t94.5 83.5l147 49v45h76v-294q0 -48 34.5 -81.5t84.5 -33.5zM222 158q3 0 19.5 3t35.5 6.5t34 5.5q-2 18 -2 26v165l-123 -42q-35 -12 -50.5 -41.5t-5.5 -62.5
q8 -28 35 -46.5t57 -13.5z" />
    <glyph glyph-name="uniFEF5" unicode="&#xfedf;&#xfe82;" horiz-adv-x="552" arabic-form="isolated" 
d="M93 708q-25 5 -39 -5t-14 -31v-6l-41 -3v17q0 43 28.5 65.5t72.5 14.5l101 -19q25 -4 39 6t14 30v7l41 2v-17q0 -43 -28.5 -65.5t-72.5 -14.5zM502 168q3 -67 -38.5 -117.5t-127.5 -50.5h-242v84h242q54 0 73 24t17 56l-19 494l76 4zM203 155l-75 -15l-78 470l74 15z" />
    <glyph glyph-name="uniFEF6" unicode="&#xfee0;&#xfe82;" horiz-adv-x="606" arabic-form="final" 
d="M100 692q-25 4 -39 -5.5t-14 -30.5v-6l-41 -3v17q0 43 28.5 65.5t72.5 14.5l101 -19q25 -4 39 5.5t14 30.5v6l41 3v-17q0 -43 -28.5 -65.5t-72.5 -14.5zM591 84h20v-84h-20q-76 0 -124 55q-45 -55 -131 -55h-242v84h242q54 0 73 24t17 56l-19 494l76 4l19 -494v-7
q10 -77 89 -77zM203 155l-75 -15l-78 470l74 15z" />
    <glyph glyph-name="uniFEF7" unicode="&#xfedf;&#xfe84;" horiz-adv-x="552" arabic-form="isolated" 
d="M161 697q-2 0 -5.5 -0.5t-5.5 -1.5l-151 -36l-9 43l83 20q-21 21 -27 50q-11 46 16 82.5t73 38.5q12 1 32 -1.5t35 -5.5l14 -3l-7 -43q-7 1 -17 3t-35 4.5t-30 -0.5q-24 -5 -36 -23.5t-7 -41.5q5 -22 25.5 -34t42.5 -7l101 24l9 -43zM502 168q3 -67 -38.5 -117.5
t-127.5 -50.5h-242v84h242q54 0 73 24t17 56l-19 494l76 4zM203 155l-75 -15l-78 470l74 15z" />
    <glyph glyph-name="uniFEF8" unicode="&#xfee0;&#xfe84;" horiz-adv-x="606" arabic-form="final" 
d="M253 765l9 -44l-263 -63l-9 44l82 20q-21 22 -26 49q-11 46 16 82.5t73 38.5q12 1 32 -1.5t35 -5.5l14 -3l-7 -43q-7 1 -17 3t-35 4.5t-30 -0.5q-24 -4 -36 -23t-7 -42q4 -20 21.5 -32t38.5 -10zM591 84h20v-84h-20q-76 0 -124 55q-45 -55 -131 -55h-242v84h242
q54 0 73 24t17 56l-19 494l76 4l19 -494v-7q10 -77 89 -77zM203 155l-75 -15l-78 470l74 15z" />
    <glyph glyph-name="uniFEF9" unicode="&#xfedf;&#xfe88;" horiz-adv-x="552" arabic-form="isolated" 
d="M502 168q3 -67 -38.5 -117.5t-127.5 -50.5h-242v84h242q54 0 73 24t17 56l-19 494l76 4zM203 155l-75 -15l-78 470l74 15zM192 -182l101 24l9 -44l-263 -63l-9 44l83 20q-21 22 -27 49q-11 46 16 82.5t73 38.5q12 1 32.5 -1.5t34.5 -5.5l14 -3l-7 -43q-7 1 -17 3t-35 4.5
t-30 -0.5q-24 -4 -36 -23t-7 -42q5 -22 25 -33.5t43 -6.5z" />
    <glyph glyph-name="uniFEFA" unicode="&#xfee0;&#xfe88;" horiz-adv-x="606" arabic-form="final" 
d="M591 84h20v-84h-20q-76 0 -124 55q-45 -55 -131 -55h-242v84h242q54 0 73 24t17 56l-19 494l76 4l19 -494v-7q10 -77 89 -77zM203 155l-75 -15l-78 470l74 15zM202 -182l101 24l9 -44l-263 -63l-9 44l83 20q-21 22 -27 49q-11 46 16.5 82.5t72.5 38.5q12 1 32.5 -1.5
t34.5 -5.5l15 -3l-8 -43q-7 1 -16.5 3t-34.5 4.5t-31 -0.5q-23 -5 -35.5 -23.5t-7.5 -41.5q5 -22 25 -33.5t43 -6.5z" />
    <glyph glyph-name="uniFEFB" unicode="&#xfedf;&#xfe8e;" horiz-adv-x="552" arabic-form="isolated" 
d="M502 168q3 -67 -38.5 -117.5t-127.5 -50.5h-242v84h242q54 0 73 24t17 56l-19 494l76 4zM203 155l-75 -15l-78 470l74 15z" />
    <glyph glyph-name="uniFEFC" unicode="&#xfee0;&#xfe8e;" horiz-adv-x="606" arabic-form="final" 
d="M591 84h20v-84h-20q-76 0 -124 55q-45 -55 -131 -55h-242v84h242q54 0 73 24t17 56l-19 494l76 4l19 -494v-7q10 -77 89 -77zM203 155l-75 -15l-78 470l74 15z" />
    <glyph glyph-name="uni06440671" unicode="&#xfedf;&#xfb51;" horiz-adv-x="552" 
d="M210 681h-140q-16 0 -25.5 -7t-26.5 -30l-34 26q21 29 37 41.5t37 14.5l36 48q22 30 34 44.5t35 29.5t47 15q37 0 62.5 -27t25.5 -67q0 -35 -26.5 -61.5t-61.5 -26.5zM210 820q-21 0 -38 -14.5t-42 -49.5l-22 -30h102q19 0 34 13t15 32q0 21 -14.5 35t-34.5 14zM502 168
q3 -67 -38.5 -117.5t-127.5 -50.5h-242v84h242q54 0 73 24t17 56l-19 494l76 4zM203 155l-75 -15l-78 470l74 15z" />
    <glyph glyph-name="uni06440671.fina" unicode="&#xfee0;&#xfb51;" horiz-adv-x="606" 
d="M210 681h-140q-16 0 -25.5 -7t-26.5 -30l-34 26q21 29 37 41.5t37 14.5l36 48q22 30 34 44.5t35 29.5t47 15q37 0 62.5 -27t25.5 -67q0 -35 -26.5 -61.5t-61.5 -26.5zM210 820q-21 0 -38 -14.5t-42 -49.5l-22 -30h102q19 0 34 13t15 32q0 21 -14.5 35t-34.5 14zM591 84
h20v-84h-20q-76 0 -124 55q-45 -55 -131 -55h-242v84h242q54 0 73 24t17 56l-19 494l76 4l19 -494v-7q10 -77 89 -77zM203 155l-75 -15l-78 470l74 15z" />
    <glyph glyph-name="uniFDF2.001" unicode="&#xfedf;&#xfee0;&#xfeea;" horiz-adv-x="1060" 
d="M663 1049v-163h-39v163h39zM589 709q-40 0 -62 28t-11 67l12 49l35 -10l-10 -46q-5 -19 4.5 -30.5t31.5 -11.5q18 0 27 8t9 20l1 60h34l2 -60q0 -12 9 -20t27 -8q23 0 32.5 11.5t4.5 29.5l-16 66l35 10l19 -68q11 -39 -11 -67t-64 -28q-37 0 -54 25q-20 -25 -55 -25z
M990 168q3 -67 -38.5 -117.5t-127.5 -50.5h-33q-78 0 -124 56q-44 -56 -131 -56h-32q-51 0 -94.5 25t-70.5 67q-70 -10 -111 -18q-52 -7 -102 27.5t-68 86.5q-21 65 9.5 127.5t94.5 83.5l147 49v45h76v-294q0 -48 34.5 -81.5t84.5 -33.5h32q54 0 73 24t17 56l-19 494l76 4
l19 -494v-8q10 -76 89 -76h33q54 0 73 24t17 56l-19 494l76 4zM222 158q3 0 19.5 3t35.5 6.5t34 5.5q-2 18 -2 26v165l-123 -42q-35 -12 -50.5 -41.5t-5.5 -62.5q8 -28 35 -46.5t57 -13.5z" />
    <glyph glyph-name="uni0621" unicode="&#x621;" horiz-adv-x="478" arabic-form="isolated" 
d="M428 56l-137 -26q-1 0 -2.5 -0.5t-2.5 -0.5l-223 -42l-13 75l103 19q-25 31 -32 71q-11 63 23 114t95 62q16 3 49.5 -1t58.5 -10l25 -6l-18 -73q-8 2 -21 5t-41 7.5t-40 3.5q-34 -4 -52.5 -29.5t-13.5 -57.5t32 -50t62 -11l135 25z" />
    <glyph glyph-name="uni0622" unicode="&#x622;" horiz-adv-x="295" arabic-form="isolated" 
d="M0 584v17q0 43 28.5 65.5t72.5 14.5l101 -19q25 -4 39 5.5t14 30.5v6l41 3v-17q0 -43 -28.5 -65.5t-72.5 -14.5l-101 19q-25 4 -39 -5.5t-14 -30.5v-6zM129 -3l-21 559l76 4l21 -559z" />
    <glyph glyph-name="uni0623" unicode="&#x623;" horiz-adv-x="295" arabic-form="isolated" 
d="M174 636q-1 0 -2.5 -0.5t-2.5 -0.5l-157 -37l-9 43l83 20q-21 21 -28 50q-10 46 17 82t73 38q12 1 32.5 -1.5t34.5 -5.5l14 -3l-7 -43q-7 1 -18 3t-33 4.5t-31 0.5q-24 -5 -36 -24t-7 -42q5 -22 25 -33.5t43 -6.5l101 24l9 -44zM108 556l76 4l21 -559l-76 -4z" />
    <glyph glyph-name="uni0624" unicode="&#x624;" horiz-adv-x="491" arabic-form="isolated" 
d="M117 410l-9 43l83 20q-21 21 -27 50q-11 46 16 82t73 38q12 1 32 -1.5t35 -5.5l14 -3l-7 -43q-7 1 -18 3t-33 4.5t-31 0.5q-24 -5 -36 -24t-7 -42q5 -22 25 -33.5t43 -6.5l101 24l9 -44l-101 -24q-1 0 -2.5 -0.5t-2.5 -0.5zM439 5q5 -53 -5 -90.5t-31 -63t-66.5 -45.5
t-94.5 -33t-132 -30l-15 83q180 36 228 63.5t40 107.5l-1 15q-64 -12 -131 -12q-69 0 -114.5 43.5t-51.5 114.5q-6 80 40.5 145t124.5 68q77 4 129.5 -53t62.5 -151zM231 84q68 0 122 12l-6 60q-7 63 -37.5 98t-76.5 33t-71 -39t-21 -84q2 -37 26 -58.5t64 -21.5z" />
    <glyph glyph-name="uni0625" unicode="&#x625;" horiz-adv-x="252" arabic-form="isolated" 
d="M182 1l-75 -4l-26 661l76 4zM269 -223l-102 -24h-2l-160 -38l-9 43l83 20q-21 21 -27 50q-11 45 16.5 81.5t72.5 38.5q12 1 32.5 -1.5t34.5 -4.5l15 -3l-8 -44q-7 1 -17.5 3t-33 4.5t-31.5 0.5q-23 -5 -35.5 -24t-7.5 -42q5 -22 25 -33.5t43 -6.5l101 24z" />
    <glyph glyph-name="uni0626" unicode="&#x626;" horiz-adv-x="697" arabic-form="isolated" 
d="M121 316l-10 43l84 20q-20 19 -28 50q-10 46 17 82t73 38q12 1 32 -1.5t35 -5.5l14 -2l-8 -44q-7 1 -17.5 3t-32.5 4.5t-31 0.5q-24 -5 -36.5 -24t-6.5 -42q4 -21 23.5 -33t42.5 -7l102 24l10 -44l-101 -24q-1 0 -2.5 -0.5t-2.5 -0.5zM464 69q104 -31 128 -47
q31 -21 37 -61q10 -65 -56.5 -116.5t-192.5 -80.5q-97 -22 -172.5 3t-113.5 89.5t-43 159.5t37 212l72 -29q-66 -188 -8 -288t211 -64q88 20 140 46.5t50 46.5q-1 11 -22.5 20t-72.5 24q-19 5 -29 8q-32 11 -53 20.5t-40.5 25.5t-27.5 36t-8 50t11 68q10 34 30.5 67t54.5 65
t77 42.5t100 -1.5l65 -18l-19 -82l-65 18q-41 11 -74.5 -0.5t-53 -37t-29 -44t-13.5 -32.5q-13 -49 4 -66t76 -34z" />
    <glyph glyph-name="uni0627" unicode="&#x627;" horiz-adv-x="252" arabic-form="isolated" 
d="M107 -3l-26 661l76 4l25 -661z" />
    <glyph glyph-name="uni0628" unicode="&#x628;" horiz-adv-x="918" arabic-form="isolated" 
d="M460 0v84q112 0 173 3t77.5 6t34.5 11q35 15 44.5 41t-4.5 77l-38 139l74 21l38 -139q20 -76 -1.5 -133.5t-82.5 -82.5q-36 -17 -91 -22t-224 -5zM459 0q-168 0 -223.5 5t-92.5 22q-60 26 -81.5 81.5t-2.5 130.5l37 141l73 -22l-37 -144q-11 -44 -1.5 -69.5t42.5 -40.5
q18 -7 36 -10.5t79 -6.5t171 -3v-84zM459 -210l-70 69l70 70l69 -70z" />
    <glyph glyph-name="uni0629" unicode="&#x629;" horiz-adv-x="443" arabic-form="isolated" 
d="M189 547l-62 -62l-61 62l61 62zM363 547l-62 -62l-62 62l62 62zM302 357q49 -48 70 -90t21 -93q0 -72 -50.5 -123.5t-120.5 -51.5q-71 0 -121.5 51.5t-50.5 123.5q0 86 77 161l41 40l-34 33l53 61zM222 81q41 0 69 27t28 66q0 29 -13.5 55t-54.5 66l-28 27l-40 -39
q-59 -59 -59 -109q0 -38 28.5 -65.5t69.5 -27.5z" />
    <glyph glyph-name="uni062A" unicode="&#x62a;" horiz-adv-x="918" arabic-form="isolated" 
d="M372 327l-62 61l62 62l62 -62zM546 327l-62 61l62 62l61 -62zM460 0v84q112 0 173 3t77.5 6t34.5 11q35 15 44.5 41t-4.5 77l-38 139l74 21l38 -139q20 -76 -1.5 -133.5t-82.5 -82.5q-36 -17 -91 -22t-224 -5zM459 0q-168 0 -223.5 5t-92.5 22q-60 26 -81.5 81.5
t-2.5 130.5l37 141l73 -22l-37 -144q-11 -44 -1.5 -69.5t42.5 -40.5q18 -7 36 -10.5t79 -6.5t171 -3v-84z" />
    <glyph glyph-name="uni062B" unicode="&#x62b;" horiz-adv-x="918" arabic-form="isolated" 
d="M458 456l-54 54l54 53l53 -53zM371 326l-62 62l62 62l62 -62zM544 326l-62 62l62 62l62 -62zM460 0v84q112 0 173 3t77.5 6t34.5 11q35 15 44.5 41t-4.5 77l-38 139l74 21l38 -139q20 -76 -1.5 -133.5t-82.5 -82.5q-36 -17 -91 -22t-224 -5zM459 0q-168 0 -223.5 5
t-92.5 22q-60 26 -81.5 81.5t-2.5 130.5l37 141l73 -22l-37 -144q-11 -44 -1.5 -69.5t42.5 -40.5q18 -7 36 -10.5t79 -6.5t171 -3v-84z" />
    <glyph glyph-name="uni062C" unicode="&#x62c;" horiz-adv-x="704" arabic-form="isolated" 
d="M369 -263l255 70l19 -82l-257 -71q-111 -28 -204.5 24.5t-122.5 158.5q-7 36 -9 74t13 78t40.5 74.5t72 64t107.5 45.5l273 72l-221 117q-46 25 -92.5 11.5t-73.5 -59.5l-18 -31l-66 41l19 34q45 76 118.5 97.5t149.5 -19.5l277 -154l-11 -98l-336 -93
q-60 -16 -100.5 -45t-55 -60t-19.5 -65t5 -60q19 -73 87.5 -109t149.5 -15zM379 -144l-69 70l69 69l69 -70z" />
    <glyph glyph-name="uni062D" unicode="&#x62d;" horiz-adv-x="704" arabic-form="isolated" 
d="M369 -263l255 70l19 -82l-257 -71q-111 -28 -204.5 24.5t-122.5 158.5q-7 36 -9 74t13 78t40.5 74.5t72 64t107.5 45.5l273 72l-221 117q-46 25 -92.5 11.5t-73.5 -59.5l-18 -31l-66 41l19 34q45 76 118.5 97.5t149.5 -19.5l277 -154l-11 -98l-336 -93
q-60 -16 -100.5 -45t-55 -60t-19.5 -65t5 -60q19 -73 87.5 -109t149.5 -15z" />
    <glyph glyph-name="uni062E" unicode="&#x62e;" horiz-adv-x="704" arabic-form="isolated" 
d="M341 591l-69 -69l-69 69l69 70zM369 -263l255 70l19 -82l-257 -71q-111 -28 -204.5 24.5t-122.5 158.5q-7 36 -9 74t13 78t40.5 74.5t72 64t107.5 45.5l273 72l-221 117q-46 25 -92.5 11.5t-73.5 -59.5l-18 -31l-66 41l19 34q45 76 118.5 97.5t149.5 -19.5l277 -154
l-11 -98l-336 -93q-60 -16 -100.5 -45t-55 -60t-19.5 -65t5 -60q19 -73 87.5 -109t149.5 -15z" />
    <glyph glyph-name="uni062F" unicode="&#x62f;" horiz-adv-x="521" arabic-form="isolated" 
d="M235 0q-74 0 -117.5 29.5t-48.5 77.5l-5 66h70q0 -30 4 -50q8 -39 85 -39h68q68 0 90 24.5t10 65.5q-15 47 -54 117t-71 116l-32 46l61 50q16 -21 40 -55.5t70.5 -117.5t59.5 -137q20 -82 -25.5 -137.5t-158.5 -55.5h-46z" />
    <glyph glyph-name="uni0630" unicode="&#x630;" horiz-adv-x="521" arabic-form="isolated" 
d="M252 548l-69 70l69 70l69 -70zM235 0q-74 0 -117.5 29.5t-48.5 77.5l-5 66h70q0 -30 4 -50q8 -39 85 -39h68q68 0 90 24.5t10 65.5q-15 47 -54 117t-71 116l-32 46l61 50q16 -21 40 -55.5t70.5 -117.5t59.5 -137q20 -82 -25.5 -137.5t-158.5 -55.5h-46z" />
    <glyph glyph-name="uni0631" unicode="&#x631;" horiz-adv-x="334" arabic-form="isolated" 
d="M20 -257l-20 82q114 31 144 46q66 34 64 105q-1 10 -2 21l-40 287l75 12l40 -289q7 -51 -4 -91t-30.5 -65t-60 -47t-75 -33.5t-91.5 -27.5z" />
    <glyph glyph-name="uni0632" unicode="&#x632;" horiz-adv-x="334" arabic-form="isolated" 
d="M190 389l-69 70l69 69l70 -70zM20 -257l-20 82q114 31 144 46q66 34 64 105q-1 10 -2 21l-40 287l75 12l40 -289q7 -51 -4 -91t-30.5 -65t-60 -47t-75 -33.5t-91.5 -27.5z" />
    <glyph glyph-name="uni0633" unicode="&#x633;" horiz-adv-x="1178" arabic-form="isolated" 
d="M1118 232q29 -107 -21 -169.5t-135 -62.5q-80 0 -122 55q-43 -55 -125 -55q-57 0 -97 28q0 -1 0.5 -3t0.5 -3q7 -51 -2 -91t-28 -66t-54.5 -46t-70 -31.5t-84.5 -23.5q-98 -23 -173 2.5t-113 89.5t-43 159.5t37 212.5l72 -29q-66 -188 -8.5 -288t211.5 -64q103 24 134 42
q59 35 47 121l-40 274l75 13q8 -57 18 -119q13 -52 40 -73t78 -21q90 0 90 81v124h71v-124q0 -81 86 -81q49 0 75.5 29t7.5 98l-40 149l73 21z" />
    <glyph glyph-name="uni0634" unicode="&#x634;" horiz-adv-x="1178" arabic-form="isolated" 
d="M888 578l-53 -55l-54 55l54 52zM810 455l-62 -61l-61 61l61 62zM921 394l-61 61l61 62l62 -62zM1118 232q29 -107 -21 -169.5t-135 -62.5q-80 0 -122 55q-43 -55 -125 -55q-57 0 -97 28q0 -1 0.5 -3t0.5 -3q7 -51 -2 -91t-28 -66t-54.5 -46t-70 -31.5t-84.5 -23.5
q-98 -23 -173 2.5t-113 89.5t-43 159.5t37 212.5l72 -29q-66 -188 -8.5 -288t211.5 -64q103 24 134 42q59 35 47 121l-40 274l75 13q8 -57 18 -119q13 -52 40 -73t78 -21q90 0 90 81v124h71v-124q0 -81 86 -81q49 0 75.5 29t7.5 98l-40 149l73 21z" />
    <glyph glyph-name="uni0635" unicode="&#x635;" horiz-adv-x="1241" arabic-form="isolated" 
d="M1010 371q77 0 129 -55.5t52 -137.5q0 -71 -54 -124.5t-127 -53.5h-308h-21q-34 0 -61 15q6 -50 -3.5 -88.5t-29 -63.5t-54.5 -44.5t-69 -31t-84 -23.5q-98 -23 -173 2.5t-113 89.5t-43 159.5t37 212.5l72 -29q-66 -188 -8.5 -288t211.5 -64q103 24 134 42q59 35 47 121
q-2 15 -9.5 68t-17 114.5t-11.5 78.5q0 2 -1 6.5t-1 6.5l75 13l10 -71q14 -83 32 -112.5t58 -29.5h23h2l73 99q72 103 119 145.5t114 42.5zM1010 84q41 0 73 29t32 65q0 47 -29.5 78t-75.5 31q-44 0 -77 -32t-94 -119l-38 -52h209z" />
    <glyph glyph-name="uni0636" unicode="&#x636;" horiz-adv-x="1241" arabic-form="isolated" 
d="M1072 523l-70 -69l-69 70l69 69zM1010 371q77 0 129 -55.5t52 -137.5q0 -71 -54 -124.5t-127 -53.5h-308h-21q-34 0 -61 15q6 -50 -3.5 -88.5t-29 -63.5t-54.5 -44.5t-69 -31t-84 -23.5q-98 -23 -173 2.5t-113 89.5t-43 159.5t37 212.5l72 -29q-66 -188 -8.5 -288
t211.5 -64q103 24 134 42q59 35 47 121q-2 15 -9.5 68t-17 114.5t-11.5 78.5q0 2 -1 6.5t-1 6.5l75 13l10 -71q14 -83 32 -112.5t58 -29.5h23h2l73 99q72 103 119 145.5t114 42.5zM1010 84q41 0 73 29t32 65q0 47 -29.5 78t-75.5 31q-44 0 -77 -32t-94 -119l-38 -52h209z
" />
    <glyph glyph-name="uni0637" unicode="&#x637;" horiz-adv-x="681" arabic-form="isolated" 
d="M450 371q77 0 129 -55.5t52 -137.5q0 -71 -54 -124.5t-127 -53.5h-400v84h94l32 43l-21 531l76 4l17 -436q55 76 99 110.5t103 34.5zM450 84q41 0 73 29t32 65q0 47 -29.5 78t-75.5 31q-44 0 -77 -32t-94 -119l-38 -52h209z" />
    <glyph glyph-name="uni0638" unicode="&#x638;" horiz-adv-x="681" arabic-form="isolated" 
d="M450 371q77 0 129 -55.5t52 -137.5q0 -71 -54 -124.5t-127 -53.5h-400v84h94l32 43l-21 531l76 4l17 -436q55 76 99 110.5t103 34.5zM527 550l-69 -69l-70 70l70 69zM450 84q41 0 73 29t32 65q0 47 -29.5 78t-75.5 31q-44 0 -77 -32t-94 -119l-38 -52h209z" />
    <glyph glyph-name="uni0639" unicode="&#x639;" horiz-adv-x="616" arabic-form="isolated" 
d="M559 -160l7 -85l-268 -27q-92 -10 -164.5 50t-82.5 154q-8 77 33 142t115 95q-38 39 -48 96q-14 76 28.5 138.5t116.5 75.5q24 4 65 -1t71 -12l29 -8l-20 -81q-11 3 -27.5 7t-52 9.5t-51.5 2.5q-44 -8 -68 -40.5t-17 -73.5q8 -41 43 -64.5t78 -16.5l170 31l14 -83
l-267 -49q-66 -12 -104.5 -57t-31.5 -102q6 -59 54 -97t109 -32z" />
    <glyph glyph-name="uni063A" unicode="&#x63a;" horiz-adv-x="616" arabic-form="isolated" 
d="M381 614l-69 -70l-69 70l69 69zM559 -160l7 -85l-268 -27q-92 -10 -164.5 50t-82.5 154q-8 77 33 142t115 95q-38 39 -48 96q-14 76 28.5 138.5t116.5 75.5q24 4 65 -1t71 -12l29 -8l-20 -81q-11 3 -27.5 7t-52 9.5t-51.5 2.5q-44 -8 -68 -40.5t-17 -73.5q8 -41 43 -64.5
t78 -16.5l170 31l14 -83l-267 -49q-66 -12 -104.5 -57t-31.5 -102q6 -59 54 -97t109 -32z" />
    <glyph glyph-name="uni0641" unicode="&#x641;" horiz-adv-x="922" arabic-form="isolated" 
d="M754 658l-69 -69l-70 69l70 70zM869 180q9 -100 -33 -140t-179 -40h-203q-165 0 -219.5 5t-91.5 22q-60 26 -81.5 81.5t-2.5 130.5l37 141l73 -22l-37 -144q-11 -44 -1.5 -69.5t42.5 -40.5q18 -7 36 -10.5t79 -6.5t171 -3h199q96 0 120 15.5t19 68.5q-59 -9 -126 -9
q-70 0 -114 40.5t-46 110.5q-2 80 39.5 140t118.5 65q77 4 129 -50.5t60 -147.5zM580 317q3 -37 27 -58.5t64 -21.5q59 0 119 10l-6 63q-7 62 -36.5 96t-74.5 32q-46 -2 -71 -38t-22 -83z" />
    <glyph glyph-name="uni0642" unicode="&#x642;" horiz-adv-x="689" arabic-form="isolated" 
d="M339 444l-62 61l62 62l62 -62zM512 444l-61 61l61 62l62 -62zM380 -236q-98 -23 -173 2.5t-113 89.5t-43 159.5t37 212.5l72 -29q-66 -188 -8.5 -288t211.5 -64q112 24 157.5 52t40.5 86l-4 34q-63 -12 -128 -12q-69 0 -115 43.5t-51 114.5q-7 80 39.5 144.5t124.5 68.5
q77 4 129.5 -53t62.5 -152l17 -161q12 -114 -44.5 -164t-211.5 -84zM429 91q60 0 122 13l-6 58q-7 64 -37.5 99t-76.5 33t-71 -39t-22 -84q3 -37 27 -58.5t64 -21.5z" />
    <glyph glyph-name="uni0643" unicode="&#x643;" horiz-adv-x="925" arabic-form="isolated" 
d="M590 504l185 -268q33 -54 30 -107t-39 -87q-39 -42 -105 -42h-206q-165 0 -220 5t-92 22q-60 26 -81.5 81.5t-2.5 130.5l37 141l73 -22l-37 -144q-11 -44 -1.5 -69.5t42.5 -40.5q18 -7 36 -10.5t79 -6.5t171 -3h203q24 0 39 12q22 15 26.5 40.5t-9.5 48.5l-223 315l17 64
l362 133l26 -79z" />
    <glyph glyph-name="uni0644" unicode="&#x644;" horiz-adv-x="669" arabic-form="isolated" 
d="M379 -237q-79 -17 -142 -6.5t-106 52.5t-64 102t-16.5 142t36.5 173l73 -28q-66 -188 -8 -289.5t210 -63.5q7 2 20 5q37 9 55 14.5t44 18t37 28t19 41.5t7 62l-25 644l75 4l25 -644q2 -53 -10 -93t-31.5 -65.5t-54 -45t-65.5 -29.5t-79 -22z" />
    <glyph glyph-name="uni0645" unicode="&#x645;" horiz-adv-x="533" arabic-form="isolated" 
d="M398 346q67 -36 82 -120.5t-29 -169.5q-21 -41 -62.5 -55.5t-83.5 6.5l-179 93l17 -397l-75 -3l-18 468l52 35l49 -26l55 107q28 54 84 72t108 -10zM391 90q29 57 24.5 109.5t-44.5 73.5q-30 16 -61.5 3.5t-49.5 -47.5l-44 -86l129 -67q31 -14 46 14z" />
    <glyph glyph-name="uni0646" unicode="&#x646;" horiz-adv-x="672" arabic-form="isolated" 
d="M326 216l-69 69l69 70l70 -70zM380 -236q-98 -23 -173 2.5t-113 89.5t-43 159.5t37 212.5l72 -29q-66 -188 -8.5 -288t211.5 -64q103 24 134 42q59 35 47 121l-40 274l75 13q34 -229 40 -275q7 -51 -2 -91t-28 -66t-54.5 -46t-70 -31.5t-84.5 -23.5z" />
    <glyph glyph-name="uni0647" unicode="&#x647;" horiz-adv-x="443" arabic-form="isolated" 
d="M302 357q49 -48 70 -90t21 -93q0 -72 -50.5 -123.5t-120.5 -51.5q-71 0 -121.5 51.5t-50.5 123.5q0 86 77 161l41 40l-34 33l53 61zM222 81q41 0 69 27t28 66q0 29 -13.5 55t-54.5 66l-28 27l-40 -39q-59 -59 -59 -109q0 -38 28.5 -65.5t69.5 -27.5z" />
    <glyph glyph-name="uni0648" unicode="&#x648;" horiz-adv-x="491" arabic-form="isolated" 
d="M439 5q5 -53 -5 -90.5t-31 -63t-66.5 -45.5t-94.5 -33t-132 -30l-15 83q180 36 228 63.5t40 107.5l-1 15q-64 -12 -131 -12q-69 0 -114.5 43.5t-51.5 114.5q-6 80 40.5 145t124.5 68q77 4 129.5 -53t62.5 -151zM231 84q68 0 122 12l-6 60q-7 63 -37.5 98t-76.5 33
t-71 -39t-21 -84q2 -37 26 -58.5t64 -21.5z" />
    <glyph glyph-name="uni0649" unicode="&#x649;" horiz-adv-x="697" arabic-form="isolated" 
d="M380 -236q-97 -22 -172.5 3t-113.5 89.5t-43 159.5t37 212l72 -29q-66 -188 -8 -288t211 -64q88 20 140 46.5t50 46.5q-1 11 -22.5 20t-72.5 24q-19 5 -29 8q-32 11 -53 20.5t-40.5 25.5t-27.5 36t-8 50t11 68q10 34 30.5 67t54.5 65t77 42.5t100 -1.5l65 -18l-19 -82
l-65 18q-41 11 -74.5 -0.5t-53 -37t-29 -44t-13.5 -32.5q-13 -49 4 -66t76 -34q104 -31 128 -47q31 -21 37 -61q10 -65 -56.5 -116.5t-192.5 -80.5z" />
    <glyph glyph-name="uni064A" unicode="&#x64a;" horiz-adv-x="697" arabic-form="isolated" 
d="M380 -236q-97 -22 -172.5 3t-113.5 89.5t-43 159.5t37 212l72 -29q-66 -188 -8 -288t211 -64q88 20 140 46.5t50 46.5q-1 11 -22.5 20t-72.5 24q-19 5 -29 8q-32 11 -53 20.5t-40.5 25.5t-27.5 36t-8 50t11 68q10 34 30.5 67t54.5 65t77 42.5t100 -1.5l65 -18l-19 -82
l-65 18q-41 11 -74.5 -0.5t-53 -37t-29 -44t-13.5 -32.5q-13 -49 4 -66t76 -34q104 -31 128 -47q31 -21 37 -61q10 -65 -56.5 -116.5t-192.5 -80.5z" />
    <glyph glyph-name="uni066E.init" unicode="&#x66e;" horiz-adv-x="309" 
d="M-5 0v84h79q136 0 102 128l-40 149l74 21l40 -149q29 -110 -25 -171.5t-151 -61.5h-79z" />
    <glyph glyph-name="uni066E.medi" unicode="&#x66e;" horiz-adv-x="309" 
d="M224 167q4 -45 24 -64t66 -19v-84q-84 0 -126 49q-46 -49 -130 -49h-63v84h63q49 0 71 19t19 56v3l-11 123l76 7l11 -123v-2z" />
    <glyph glyph-name="uni066E.fina" unicode="&#x66e;" horiz-adv-x="951" 
d="M866 167q4 -45 24 -64t66 -19v-84q-84 0 -126 49q-46 -49 -130 -49h-241q-168 0 -223.5 5t-92.5 22q-60 26 -81.5 81.5t-2.5 130.5l37 141l73 -22l-37 -144q-11 -44 -1.5 -69.5t42.5 -40.5q18 -7 36 -10.5t79 -6.5t171 -3h241q49 0 71 19t19 56v3l-11 123l76 7l11 -123
v-2z" />
    <glyph glyph-name="uni066F.fina" unicode="&#x66f;" horiz-adv-x="684" 
d="M380 -236q-98 -23 -173 2.5t-113 89.5t-43 159.5t37 212.5l72 -29q-66 -188 -8.5 -288t211.5 -64q106 23 154 51t43 82l-2 20h-129q-72 0 -116.5 42t-50.5 116q-6 81 40.5 145.5t124.5 67.5q77 4 129 -52.5t63 -152.5l8 -82h62v-84h-53l1 -24q1 -94 -57 -137.5
t-200 -74.5zM429 84h122l-8 73q-7 63 -37 97.5t-75 32.5q-47 -2 -72 -38.5t-21 -84.5q6 -80 91 -80z" />
    <glyph glyph-name="uni0671" unicode="&#x671;" horiz-adv-x="295" arabic-form="isolated" 
d="M217 783q38 0 63.5 -27t25.5 -68q0 -35 -27 -61.5t-62 -26.5h-139q-16 0 -25.5 -6.5t-26.5 -29.5l-34 26q21 29 37 41.5t38 14.5l34 47q19 25 26 34t24 26t32.5 23.5t33.5 6.5zM217 646q19 0 34 13t15 31q0 22 -14 35.5t-35 13.5t-37 -14.5t-43 -49.5l-21 -29h101z
M108 556l76 4l21 -559l-76 -4z" />
    <glyph glyph-name="uni067E" unicode="&#x67e;" horiz-adv-x="918" arabic-form="isolated" 
d="M460 0v84q112 0 173 3t77.5 6t34.5 11q35 15 44.5 41t-4.5 77l-38 139l74 21l38 -139q20 -76 -1.5 -133.5t-82.5 -82.5q-36 -17 -91 -22t-224 -5zM459 0q-168 0 -223.5 5t-92.5 22q-60 26 -81.5 81.5t-2.5 130.5l37 141l73 -22l-37 -144q-11 -44 -1.5 -69.5t42.5 -40.5
q18 -7 36 -10.5t79 -6.5t171 -3v-84zM376 -203l-61 62l61 62l62 -62zM549 -203l-61 62l61 62l62 -62zM463 -316l-53 54l53 53l53 -53z" />
    <glyph glyph-name="uni0686" unicode="&#x686;" horiz-adv-x="704" arabic-form="isolated" 
d="M369 -263l255 70l19 -82l-257 -71q-111 -28 -204.5 24.5t-122.5 158.5q-7 36 -9 74t13 78t40.5 74.5t72 64t107.5 45.5l273 72l-221 117q-46 25 -92.5 11.5t-73.5 -59.5l-18 -31l-66 41l19 34q45 76 118.5 97.5t149.5 -19.5l277 -154l-11 -98l-336 -93
q-60 -16 -100.5 -45t-55 -60t-19.5 -65t5 -60q19 -73 87.5 -109t149.5 -15zM494 7l-35 -67l-67 36l36 66zM242 -70l36 66l67 -35l-35 -67zM447 -105l-35 -67l-67 36l36 66z" />
    <glyph glyph-name="uni0698" unicode="&#x698;" horiz-adv-x="341" arabic-form="isolated" 
d="M191 507l-54 54l54 53l53 -53zM104 377l-61 62l61 62l62 -62zM277 377l-61 62l61 62l62 -62zM20 -257l-20 82q114 31 144 46q66 34 64 105q-1 10 -2 21l-40 287l75 12l40 -289q7 -51 -4 -91t-30.5 -65t-60 -47t-75 -33.5t-91.5 -27.5z" />
    <glyph glyph-name="uni06A1.init" unicode="&#x6a1;" horiz-adv-x="463" 
d="M410 180q9 -100 -33 -140t-180 -40h-202v84h204q96 0 120 15.5t19 68.5q-58 -9 -126 -9q-71 0 -114.5 40.5t-45.5 110.5q-3 80 38.5 140t119.5 65q77 5 129 -50t59 -148zM121 317q3 -37 27 -58.5t64 -21.5q59 0 119 10l-6 63q-7 62 -37 96t-75 32q-46 -2 -70.5 -38
t-21.5 -83z" />
    <glyph glyph-name="uni06A1.medi" unicode="&#x6a1;" horiz-adv-x="490" 
d="M437 84h58v-84h-58q-92 0 -189 38q-107 -38 -201 -38h-52v84h52q39 0 97 10q-71 53 -67 100l6 58q8 73 63.5 117t127.5 36q69 -7 111 -64.5t37 -125.5l-3 -43q-3 -41 -64 -82q38 -6 82 -6zM153 191q4 -14 28.5 -34t63.5 -36q88 31 98 60l4 35q4 37 -19 69t-64 36
q-40 5 -71.5 -19t-35.5 -64z" />
    <glyph glyph-name="uni06A1.fina" unicode="&#x6a1;" horiz-adv-x="949" 
d="M896 84h58v-84h-58q-92 0 -188 38q-107 -38 -202 -38h-52q-165 0 -219.5 5t-91.5 22q-60 26 -81.5 81.5t-2.5 130.5l37 141l73 -22l-37 -144q-11 -44 -1.5 -69.5t42.5 -40.5q18 -7 36 -10.5t79 -6.5t171 -3h47q39 0 97 10q-71 53 -67 100l6 58q9 73 64 117t127 36
q69 -7 111 -64.5t37 -125.5l-3 -43q-3 -41 -64 -82q38 -6 82 -6zM612 191q12 -35 93 -70q89 31 97 60l4 35q4 37 -19 69t-64 36q-40 5 -71 -19t-36 -64z" />
    <glyph glyph-name="uni06A4" unicode="&#x6a4;" horiz-adv-x="922" arabic-form="isolated" 
d="M735 748l-53 -54l-54 54l54 53zM656 626l-62 -62l-61 62l61 62zM768 564l-62 62l62 62l62 -62zM869 180q9 -100 -33 -140t-179 -40h-203q-165 0 -219.5 5t-91.5 22q-60 26 -81.5 81.5t-2.5 130.5l37 141l73 -22l-37 -144q-11 -44 -1.5 -69.5t42.5 -40.5q18 -7 36 -10.5
t79 -6.5t171 -3h199q96 0 120 15.5t19 68.5q-59 -9 -126 -9q-70 0 -114 40.5t-46 110.5q-2 80 39.5 140t118.5 65q77 4 129 -50.5t60 -147.5zM580 317q3 -37 27 -58.5t64 -21.5q59 0 119 10l-6 63q-7 62 -36.5 96t-74.5 32q-46 -2 -71 -38t-22 -83z" />
    <glyph glyph-name="uni06A9" unicode="&#x6a9;" horiz-adv-x="925" arabic-form="isolated" 
d="M590 504l185 -268q33 -54 30 -107t-39 -87q-39 -42 -105 -42h-206q-165 0 -220 5t-92 22q-60 26 -81.5 81.5t-2.5 130.5l37 141l73 -22l-37 -144q-11 -44 -1.5 -69.5t42.5 -40.5q18 -7 36 -10.5t79 -6.5t171 -3h203q24 0 39 12q22 15 26.5 40.5t-9.5 48.5l-223 315l17 64
l362 133l26 -79z" />
    <glyph glyph-name="uni06AF" unicode="&#x6af;" horiz-adv-x="925" arabic-form="isolated" 
d="M785 745l-244 -88l-19 53l243 88zM590 504l185 -268q33 -54 30 -107t-39 -87q-39 -42 -105 -42h-206q-165 0 -220 5t-92 22q-60 26 -81.5 81.5t-2.5 130.5l37 141l73 -22l-37 -144q-11 -44 -1.5 -69.5t42.5 -40.5q18 -7 36 -10.5t79 -6.5t171 -3h203q24 0 39 12
q22 15 26.5 40.5t-9.5 48.5l-223 315l17 64l362 133l26 -79z" />
    <glyph glyph-name="uni06CC" unicode="&#x6cc;" horiz-adv-x="697" arabic-form="isolated" 
d="M380 -236q-97 -22 -172.5 3t-113.5 89.5t-43 159.5t37 212l72 -29q-66 -188 -8 -288t211 -64q88 20 140 46.5t50 46.5q-1 11 -22.5 20t-72.5 24q-19 5 -29 8q-32 11 -53 20.5t-40.5 25.5t-27.5 36t-8 50t11 68q10 34 30.5 67t54.5 65t77 42.5t100 -1.5l65 -18l-19 -82
l-65 18q-41 11 -74.5 -0.5t-53 -37t-29 -44t-13.5 -32.5q-13 -49 4 -66t76 -34q104 -31 128 -47q31 -21 37 -61q10 -65 -56.5 -116.5t-192.5 -80.5z" />
    <glyph glyph-name="uniFB51" unicode="&#x671;" horiz-adv-x="280" arabic-form="final" 
d="M310 699q0 -35 -26.5 -61.5t-61.5 -26.5h-140q-16 0 -25.5 -7t-26.5 -30l-34 26q21 29 37 41.5t37 14.5l36 48q22 30 34 44.5t35 29.5t47 15q37 0 62.5 -27t25.5 -67zM222 750q-21 0 -38 -14.5t-42 -49.5l-22 -30h102q19 0 34 13t15 32q0 21 -14.5 35t-34.5 14zM175 198
q3 -73 20.5 -93.5t79.5 -20.5h10v-84h-10q-95 0 -133 43.5t-43 154.5l-14 358l76 4z" />
    <glyph glyph-name="uniFB57" unicode="&#x67e;" horiz-adv-x="951" arabic-form="final" 
d="M866 167q4 -45 24 -64t66 -19v-84q-84 0 -126 49q-46 -49 -130 -49h-241q-168 0 -223.5 5t-92.5 22q-60 26 -81.5 81.5t-2.5 130.5l37 141l73 -22l-37 -144q-11 -44 -1.5 -69.5t42.5 -40.5q18 -7 36 -10.5t79 -6.5t171 -3h241q49 0 71 19t19 56v3l-11 123l76 7l11 -123
v-2zM380 -81l62 -62l-62 -62l-62 62zM492 -143l61 62l62 -62l-62 -62zM467 -211q53 -52 53 -53l-13 -14q-13 -13 -27 -26l-13 -14l-9 9t-17.5 18t-19.5 19l-8 8z" />
    <glyph glyph-name="uniFB58" unicode="&#x67e;" horiz-adv-x="376" arabic-form="initial" 
d="M-5 0v84h146q136 0 101 128l-39 149l73 21l41 -153q29 -107 -26 -168t-150 -61h-146zM15 -203l-61 62l61 62l62 -62zM189 -203l-62 62l62 62l62 -62zM103 -316l-54 54l54 53l53 -53z" />
    <glyph glyph-name="uniFB59" unicode="&#x67e;" horiz-adv-x="399" arabic-form="medial" 
d="M314 163q5 -44 24.5 -61.5t65.5 -17.5v-84q-83 0 -126 49q-46 -49 -130 -49h-153v84h153q49 0 71 19t19 56v3l-11 123l76 7l11 -123v-6zM73 -78l62 -62l-62 -62l-61 62zM185 -140l61 62l62 -62l-62 -62zM106 -260l54 52l53 -52l-53 -55z" />
    <glyph glyph-name="uniFB6B" unicode="&#x6a4;" horiz-adv-x="949" arabic-form="final" 
d="M767 644l-53 -55l-54 55l54 52zM689 521l-62 -61l-62 61l62 62zM800 460l-61 61l61 62l62 -62zM896 84h58v-84h-58q-92 0 -188 38q-107 -38 -202 -38h-52q-165 0 -219.5 5t-91.5 22q-60 26 -81.5 81.5t-2.5 130.5l37 141l73 -22l-37 -144q-11 -44 -1.5 -69.5t42.5 -40.5
q18 -7 36 -10.5t79 -6.5t171 -3h47q39 0 97 10q-71 53 -67 100l6 58q9 73 64 117t127 36q69 -7 111 -64.5t37 -125.5l-3 -43q-3 -41 -64 -82q38 -6 82 -6zM612 191q12 -35 93 -70q89 31 97 60l4 35q4 37 -19 69t-64 36q-40 5 -71 -19t-36 -64z" />
    <glyph glyph-name="uniFB6C" unicode="&#x6a4;" horiz-adv-x="463" arabic-form="initial" 
d="M271 741l-53 -54l-53 54l53 52zM193 619l-62 -62l-61 62l61 62zM304 557l-61 62l61 62l62 -62zM410 180q9 -100 -33 -140t-180 -40h-202v84h204q96 0 120 15.5t19 68.5q-58 -9 -126 -9q-71 0 -114.5 40.5t-45.5 110.5q-3 80 38.5 140t119.5 65q77 5 129 -50t59 -148z
M121 317q3 -37 27 -58.5t64 -21.5q59 0 119 10l-6 63q-7 62 -37 96t-75 32q-46 -2 -70.5 -38t-21.5 -83z" />
    <glyph glyph-name="uniFB6D" unicode="&#x6a4;" horiz-adv-x="490" arabic-form="medial" 
d="M304 637l-53 -55l-53 55l53 52zM226 514l-62 -61l-61 61l61 62zM338 453l-62 61l62 62l62 -62zM437 84h58v-84h-58q-92 0 -189 38q-107 -38 -201 -38h-52v84h52q39 0 97 10q-71 53 -67 100l6 58q8 73 63.5 117t127.5 36q69 -7 111 -64.5t37 -125.5l-3 -43q-3 -41 -64 -82
q38 -6 82 -6zM153 191q4 -14 28.5 -34t63.5 -36q88 31 98 60l4 35q4 37 -19 69t-64 36q-40 5 -71.5 -19t-35.5 -64z" />
    <glyph glyph-name="uniFB7B" unicode="&#x686;" horiz-adv-x="730" arabic-form="final" 
d="M698 84h37v-84h-37q-68 0 -119 41.5t-69 107.5l-208 -58q-60 -16 -100.5 -45t-55 -60t-19.5 -65t5 -60q19 -73 87.5 -109t149.5 -15l255 70l19 -82l-257 -71q-111 -28 -204.5 24.5t-122.5 158.5q-7 36 -9 74t13 78t40.5 74.5t72 64t107.5 45.5l273 72l-221 117
q-46 25 -92.5 11.5t-73.5 -59.5l-18 -31l-66 41l19 34q45 76 118.5 97.5t149.5 -19.5l277 -154l-11 -98l-54 -15q11 -38 41.5 -61.5t72.5 -23.5zM472 7l-35 -68l-67 37l36 66zM220 -70l36 66l66 -35l-35 -67zM425 -105l-35 -67l-68 36l36 66z" />
    <glyph glyph-name="uniFB7C" unicode="&#x686;" horiz-adv-x="646" arabic-form="initial" 
d="M341 364l255 -154l-12 -98l-293 -83q-105 -29 -291 -29h-5v84h5q177 0 272 27l235 63l-203 116q-44 27 -91 13t-75 -61l-17 -31l-66 41l19 34q44 77 118 99.5t149 -21.5zM223 -77l62 -62l-62 -62l-62 62zM335 -139l61 62l62 -62l-62 -62zM256 -260l54 53l53 -53l-53 -54z
" />
    <glyph glyph-name="uniFB7D" unicode="&#x686;" horiz-adv-x="674" arabic-form="medial" 
d="M614 84h65v-84h-65q-49 0 -89 28t-58 73l-177 -56q-145 -45 -290 -45h-5v84h5q134 2 268 42l240 70l-207 107q-48 26 -93 12t-72 -60l-18 -32l-66 41l19 34q46 77 119.5 98.5t146.5 -19.5l258 -143l-12 -96l-41 -13q24 -41 72 -41zM226 -75l62 -62l-62 -61l-62 61z
M338 -137l61 62l62 -62l-62 -61zM259 -257l54 53l53 -53l-53 -54z" />
    <glyph glyph-name="uniFB8B" unicode="&#x698;" horiz-adv-x="398" arabic-form="final" 
d="M256 561l-53 -55l-54 55l54 52zM178 438l-62 -61l-61 61l61 62zM289 377l-61 61l61 62l62 -62zM403 84v-84h-72q-29 0 -50 6q16 -119 -49.5 -171t-211.5 -92l-20 82q114 31 144 46q66 34 64 105q-1 10 -2 21l-40 287l75 12l5 -36v-3q1 -6 7 -50q12 -78 26.5 -100.5
t51.5 -22.5h72z" />
    <glyph glyph-name="uniFB8F" unicode="&#x6a9;" horiz-adv-x="963" arabic-form="final" 
d="M954 84h14v-84h-14q-86 0 -159 85q-11 -26 -30 -43q-37 -42 -105 -42h-206q-165 0 -219.5 5t-91.5 22q-60 26 -81.5 81.5t-2.5 130.5l37 141l73 -22l-37 -144q-11 -44 -1.5 -69.5t42.5 -40.5q18 -7 36 -10.5t79 -6.5t171 -3h202q23 0 40 12q22 15 26.5 40.5t-10.5 48.5
l-223 315l17 64l362 133l27 -79l-311 -114l185 -268l6 -9q53 -82 90.5 -112.5t83.5 -30.5z" />
    <glyph glyph-name="uniFB90" unicode="&#x6a9;" horiz-adv-x="465" arabic-form="initial" 
d="M130 504l185 -268q33 -54 30 -107t-39 -87q-39 -42 -105 -42h-206v84h207q24 0 39 12q22 15 26.5 40.5t-9.5 48.5l-223 315l17 64l362 133l26 -79z" />
    <glyph glyph-name="uniFB91" unicode="&#x6a9;" horiz-adv-x="503" arabic-form="medial" 
d="M494 84h14v-84h-14q-86 0 -158 85q-11 -26 -30 -43q-39 -42 -105 -42h-206v84h207q24 0 39 12q22 15 26.5 40.5t-9.5 48.5l-223 315l17 64l362 133l26 -79l-310 -114l185 -268q1 -2 4 -6.5t4 -6.5q52 -80 89 -109.5t82 -29.5z" />
    <glyph glyph-name="uniFB93" unicode="&#x6af;" horiz-adv-x="963" arabic-form="final" 
d="M784 744l-244 -88l-19 53l244 88zM954 84h14v-84h-14q-86 0 -159 85q-11 -26 -30 -43q-37 -42 -105 -42h-206q-165 0 -219.5 5t-91.5 22q-60 26 -81.5 81.5t-2.5 130.5l37 141l73 -22l-37 -144q-11 -44 -1.5 -69.5t42.5 -40.5q18 -7 36 -10.5t79 -6.5t171 -3h202
q23 0 40 12q22 15 26.5 40.5t-10.5 48.5l-223 315l17 64l362 133l27 -79l-311 -114l185 -268l6 -9q53 -82 90.5 -112.5t83.5 -30.5z" />
    <glyph glyph-name="uniFB94" unicode="&#x6af;" horiz-adv-x="465" arabic-form="initial" 
d="M330 742l-244 -88l-19 54l243 88zM130 504l185 -268q33 -54 30 -107t-39 -87q-39 -42 -105 -42h-206v84h207q24 0 39 12q22 15 26.5 40.5t-9.5 48.5l-223 315l17 64l362 133l26 -79z" />
    <glyph glyph-name="uniFB95" unicode="&#x6af;" horiz-adv-x="503" arabic-form="medial" 
d="M330 742l-244 -88l-19 54l243 88zM494 84h14v-84h-14q-86 0 -158 85q-11 -26 -30 -43q-39 -42 -105 -42h-206v84h207q24 0 39 12q22 15 26.5 40.5t-9.5 48.5l-223 315l17 64l362 133l26 -79l-310 -114l185 -268q1 -2 4 -6.5t4 -6.5q52 -80 89 -109.5t82 -29.5z" />
    <glyph glyph-name="uniFB9F" unicode="&#x6ba;" horiz-adv-x="703" arabic-form="final" 
d="M679 84h29v-84h-27q-34 0 -61 15q6 -50 -3.5 -88.5t-29 -63.5t-54.5 -44.5t-69 -31t-84 -23.5q-98 -23 -173 2.5t-113 89.5t-43 159.5t37 212.5l72 -29q-66 -188 -8.5 -288t211.5 -64q103 24 134 42q59 35 47 121q-2 15 -9.5 68t-17 114.5t-11.5 78.5q0 2 -1 6.5t-1 6.5
l75 13l10 -71q14 -83 32 -112.5t58 -29.5z" />
    <glyph glyph-name="uniFBFD" unicode="&#x6cc;" horiz-adv-x="679" arabic-form="final" 
d="M684 84v-84q-37 0 -79 5q7 -13 8 -25q7 -48 -7 -84t-48 -61t-75.5 -41t-102.5 -30q-98 -23 -173 2.5t-113 89.5t-43 159.5t37 212.5l72 -29q-66 -188 -8 -287.5t211 -64.5q43 10 66 16t50 17t38.5 23t18 31t1.5 44q-7 33 -114 73q-48 15 -51 16l24 81q11 -3 39 -11.5
t38.5 -11.5t33.5 -10t33.5 -9.5t29.5 -7t30.5 -6.5t27.5 -4t29 -3t27 -1z" />
    <glyph glyph-name="uniFBFE" unicode="&#x6cc;" horiz-adv-x="376" arabic-form="initial" 
d="M-5 0v84h146q136 0 101 128l-39 149l73 21l41 -153q29 -107 -26 -168t-150 -61h-146zM12 -206l-62 62l62 62l62 -62zM186 -206l-62 62l62 62l62 -62z" />
    <glyph glyph-name="uniFBFF" unicode="&#x6cc;" horiz-adv-x="399" arabic-form="medial" 
d="M314 163q5 -44 24.5 -61.5t65.5 -17.5v-84q-83 0 -126 49q-46 -49 -130 -49h-153v84h153q49 0 71 19t19 56v3l-11 123l76 7l11 -123v-6zM16 -145l61 62l62 -62l-62 -62zM189 -145l62 62l62 -62l-62 -62z" />
    <glyph glyph-name="uniFDF2" unicode="&#xfdf2;" horiz-adv-x="1292" arabic-form="isolated" 
d="M665 1044v-163h-39v163h39zM590 704q-40 0 -61 28t-11 67l12 49l35 -10l-11 -45q-5 -19 4.5 -31t31.5 -12q18 0 27 8.5t9 20.5l2 59h34l1 -59q0 -12 9.5 -20.5t27.5 -8.5q23 0 32 11.5t4 29.5l-16 66l36 10l18 -68q11 -38 -11 -66.5t-63 -28.5q-37 0 -55 25
q-18 -25 -55 -25zM971 662l19 -494q3 -67 -38.5 -117.5t-127.5 -50.5h-34q-76 0 -124 55q-45 -55 -131 -55h-31q-51 0 -94.5 25t-70.5 67q-70 -10 -111 -18q-52 -7 -102 27.5t-68 86.5q-21 65 9.5 127.5t94.5 83.5l147 49v45h76v-294q0 -48 34.5 -81.5t84.5 -33.5h31
q54 0 73 24t17 56l-19 494l76 4l19 -494v-7q10 -77 89 -77h34q54 0 73 24t17 56l-19 494zM1197 662l25 -661l-75 -4l-26 661zM222 158q3 0 19.5 3t35.5 6.5t34 5.5q-2 18 -2 26v165l-123 -42q-35 -12 -50.5 -41.5t-5.5 -62.5q8 -28 35 -46.5t57 -13.5z" />
    <glyph glyph-name="uniFDFC" unicode="&#xfdfc;" horiz-adv-x="1430" arabic-form="isolated" 
d="M594 662l25 -644q2 -53 -10 -93t-31.5 -65.5t-54 -45t-65.5 -29.5t-79 -22q-79 -17 -142 -6.5t-106 52.5t-64 102t-16.5 142t36.5 173l73 -28q-66 -188 -8 -289.5t210 -63.5q7 2 20 5q37 9 55 14.5t44 18t37 28t19 41.5t7 62l-25 644zM909 -42q-93 1 -130 44.5t-42 153.5
l-18 460l76 4l18 -464q2 -73 20 -93.5t80 -20.5h75q136 0 102 127l-40 149l73 22l40 -149q30 -110 -24 -171.5t-151 -61.5h-79zM1378 7q7 -51 -4 -91t-31 -65t-60 -46.5t-75 -33.5t-92 -28l-19 82q114 31 144 46q66 34 64 105q-1 10 -2 21l-40 287l75 12zM736 -203l61 62
l62 -62l-62 -61zM909 -203l62 62l62 -62l-62 -61z" />
    <glyph glyph-name="uniFE82" unicode="&#x622;" horiz-adv-x="280" arabic-form="final" 
d="M0 583v17q0 43 28.5 65.5t72.5 14.5l101 -19q25 -4 39 5.5t14 30.5v6l41 3v-17q0 -43 -28.5 -65.5t-72.5 -14.5l-101 19q-25 4 -39 -5.5t-14 -30.5v-6zM275 0q-95 0 -133 43.5t-43 154.5l-14 358l76 4l14 -362q3 -73 20.5 -93.5t79.5 -20.5h10v-84h-10z" />
    <glyph glyph-name="uniFE84" unicode="&#x623;" horiz-adv-x="280" arabic-form="final" 
d="M178 644q-2 0 -5.5 -0.5t-5.5 -1.5l-151 -36l-9 43l83 20q-21 21 -28 50q-10 46 17 82.5t73 38.5q12 1 32.5 -1.5t34.5 -5.5l14 -3l-7 -43q-7 1 -17 3t-35 4.5t-30 -0.5q-24 -5 -36 -23.5t-7 -41.5q5 -22 25.5 -34t42.5 -7l101 24l9 -43zM275 84h10v-84h-10
q-95 0 -133 43.5t-43 154.5l-14 358l76 4l14 -362q3 -73 20.5 -93.5t79.5 -20.5z" />
    <glyph glyph-name="uniFE86" unicode="&#x624;" horiz-adv-x="487" arabic-form="final" 
d="M122 410l-10 43l84 20q-20 19 -28 50q-10 46 17 82t73 38q12 1 32 -1.5t34 -5.5l15 -3l-8 -43q-7 1 -17.5 3t-32.5 4.5t-31 0.5q-24 -5 -36.5 -24t-6.5 -42q4 -21 23.5 -33t42.5 -7l102 24l10 -44l-101 -24q-1 0 -2.5 -0.5t-2.5 -0.5zM492 84v-84h-52q3 -37 -1.5 -66
t-14 -51.5t-31.5 -40.5t-45.5 -31t-63 -25.5t-77.5 -21.5t-97 -21l-15 83q182 37 229.5 64t38.5 107v3h-131q-72 0 -116.5 42t-50.5 116q-6 81 40.5 145.5t124.5 67.5q77 4 129.5 -53t62.5 -152l9 -82h61zM232 84h122l-8 73q-7 63 -37 97.5t-75 32.5q-47 -2 -72 -38.5
t-21 -84.5q6 -80 91 -80z" />
    <glyph glyph-name="uniFE88" unicode="&#x625;" horiz-adv-x="271" arabic-form="final" 
d="M266 84h10v-84h-10q-95 0 -133 43.5t-43 154.5l-18 460l76 4l18 -464q2 -73 20 -93.5t80 -20.5zM164 -191l101 24l9 -43l-101 -25q-2 0 -5.5 -0.5t-5.5 -1.5l-151 -36l-9 43l83 20q-21 21 -27 50q-11 45 16.5 82t72.5 39q12 1 32.5 -1.5t34.5 -5.5l15 -3l-8 -43
q-7 1 -16.5 3t-34.5 4.5t-31 -0.5q-23 -5 -35.5 -24t-7.5 -41t25.5 -34t42.5 -7z" />
    <glyph glyph-name="uniFE8A" unicode="&#x626;" horiz-adv-x="679" arabic-form="final" 
d="M222 212l-10 44l83 20q-20 20 -27 49q-11 46 16.5 83t73.5 38q12 1 32 -1.5t34 -5.5l15 -3l-8 -43q-7 1 -16.5 3t-34.5 4.5t-30 -0.5q-24 -5 -36.5 -23.5t-6.5 -41.5q4 -19 21 -31t38 -11l109 26l10 -44zM684 84v-84q-37 0 -79 5q7 -13 8 -25q7 -48 -7 -84t-48 -61
t-75.5 -41t-102.5 -30q-98 -23 -173 2.5t-113 89.5t-43 159.5t37 212.5l72 -29q-66 -188 -8 -287.5t211 -64.5q43 10 66 16t50 17t38.5 23t18 31t1.5 44q-7 33 -114 73q-48 15 -51 16l24 81q11 -3 39 -11.5t38.5 -11.5t33.5 -10t33.5 -9.5t29.5 -7t30.5 -6.5t27.5 -4t29 -3
t27 -1z" />
    <glyph glyph-name="uniFE8B" unicode="&#x626;" horiz-adv-x="309" arabic-form="initial" 
d="M21 428l-9 44l83 20q-21 21 -27 50q-11 45 16.5 81.5t72.5 38.5q12 1 32.5 -1.5t34.5 -5.5l15 -3l-8 -43q-7 1 -16.5 3t-34.5 4.5t-31 -0.5q-23 -5 -35.5 -23.5t-7.5 -41.5q5 -22 25 -33.5t43 -6.5l101 24l9 -44zM210 382l40 -149q29 -110 -25 -171.5t-151 -61.5h-79v84
h79q136 0 102 128l-40 149z" />
    <glyph glyph-name="uniFE8C" unicode="&#x626;" horiz-adv-x="309" arabic-form="medial" 
d="M22 360l-9 43l83 20q-21 21 -27 50q-11 45 16.5 81.5t72.5 38.5q12 1 32.5 -1.5t35.5 -5.5l14 -2l-8 -44q-7 1 -17.5 3t-33 4.5t-31.5 0.5q-23 -5 -35.5 -24t-7.5 -42q5 -21 25.5 -33t42.5 -7l101 24l10 -44l-102 -24h-2zM224 167q4 -45 24 -64t66 -19v-84q-84 0 -126 49
q-46 -49 -130 -49h-63v84h63q49 0 71 19t19 56v3l-11 123l76 7l11 -123v-2z" />
    <glyph glyph-name="uniFE8E" unicode="&#x627;" horiz-adv-x="271" arabic-form="final" 
d="M266 0q-95 0 -133 43.5t-43 154.5l-18 460l76 4l18 -464q2 -73 20 -93.5t80 -20.5h10v-84h-10z" />
    <glyph glyph-name="uniFE90" unicode="&#x628;" horiz-adv-x="951" arabic-form="final" 
d="M866 167q4 -45 24 -64t66 -19v-84q-84 0 -126 49q-46 -49 -130 -49h-241q-168 0 -223.5 5t-92.5 22q-60 26 -81.5 81.5t-2.5 130.5l37 141l73 -22l-37 -144q-11 -44 -1.5 -69.5t42.5 -40.5q18 -7 36 -10.5t79 -6.5t171 -3h241q49 0 71 19t19 56v3l-11 123l76 7l11 -123
v-2zM397 -140l70 69l69 -69l-69 -70z" />
    <glyph glyph-name="uniFE91" unicode="&#x628;" horiz-adv-x="309" arabic-form="initial" 
d="M-5 0v84h79q136 0 102 128l-40 149l74 21l40 -149q29 -110 -25 -171.5t-151 -61.5h-79zM66 -211l-70 70l70 69l69 -70z" />
    <glyph glyph-name="uniFE92" unicode="&#x628;" horiz-adv-x="309" arabic-form="medial" 
d="M224 167q4 -45 24 -64t66 -19v-84q-84 0 -126 49q-46 -49 -130 -49h-63v84h63q49 0 71 19t19 56v3l-11 123l76 7l11 -123v-2zM50 -141l70 70l69 -70l-69 -69z" />
    <glyph glyph-name="uniFE94" unicode="&#x629;" horiz-adv-x="518" arabic-form="final" 
d="M227 590l-62 -62l-62 62l62 62zM400 590l-62 -62l-61 62l61 62zM504 84h19v-84h-19q-51 0 -94.5 25t-70.5 67q-70 -10 -111 -18q-52 -7 -102 27.5t-68 86.5q-21 65 9.5 127.5t94.5 83.5l147 49v45h76v-294q0 -48 34.5 -81.5t84.5 -33.5zM222 158q3 0 19.5 3t35.5 6.5
t34 5.5q-2 18 -2 26v165l-123 -42q-35 -12 -50.5 -41.5t-5.5 -62.5q8 -28 35 -46.5t57 -13.5z" />
    <glyph glyph-name="uniFE96" unicode="&#x62a;" horiz-adv-x="951" arabic-form="final" 
d="M439 388l-62 -61l-62 61l62 62zM612 388l-61 -61l-62 61l62 62zM866 167q4 -45 24 -64t66 -19v-84q-84 0 -126 49q-46 -49 -130 -49h-241q-168 0 -223.5 5t-92.5 22q-60 26 -81.5 81.5t-2.5 130.5l37 141l73 -22l-37 -144q-11 -44 -1.5 -69.5t42.5 -40.5q18 -7 36 -10.5
t79 -6.5t171 -3h241q49 0 71 19t19 56v3l-11 123l76 7l11 -123v-2z" />
    <glyph glyph-name="uniFE97" unicode="&#x62a;" horiz-adv-x="376" arabic-form="initial" 
d="M124 459l-62 61l62 62l62 -62zM297 459l-61 61l61 62l62 -62zM-5 0v84h146q136 0 101 128l-39 149l73 21l41 -153q29 -107 -26 -168t-150 -61h-146z" />
    <glyph glyph-name="uniFE98" unicode="&#x62a;" horiz-adv-x="399" arabic-form="medial" 
d="M168 445l-62 -61l-61 61l61 62zM342 445l-62 -61l-61 61l61 62zM314 163q5 -44 24.5 -61.5t65.5 -17.5v-84q-83 0 -126 49q-46 -49 -130 -49h-153v84h153q49 0 71 19t19 56v3l-11 123l76 7l11 -123v-6z" />
    <glyph glyph-name="uniFE9A" unicode="&#x62b;" horiz-adv-x="951" arabic-form="final" 
d="M517 485l-53 -55l-54 55l54 52zM439 362l-62 -61l-62 61l62 62zM550 301l-61 61l61 62l62 -62zM866 167q4 -45 24 -64t66 -19v-84q-84 0 -126 49q-46 -49 -130 -49h-241q-168 0 -223.5 5t-92.5 22q-60 26 -81.5 81.5t-2.5 130.5l37 141l73 -22l-37 -144
q-11 -44 -1.5 -69.5t42.5 -40.5q18 -7 36 -10.5t79 -6.5t171 -3h241q49 0 71 19t19 56v3l-11 123l76 7l11 -123v-2z" />
    <glyph glyph-name="uniFE9B" unicode="&#x62b;" horiz-adv-x="376" arabic-form="initial" 
d="M179 587l-53 54l53 53l54 -53zM92 457l-61 62l61 62l62 -62zM266 457l-62 62l62 62l62 -62zM-5 0v84h146q136 0 101 128l-39 149l73 21l41 -153q29 -107 -26 -168t-150 -61h-146z" />
    <glyph glyph-name="uniFE9C" unicode="&#x62b;" horiz-adv-x="399" arabic-form="medial" 
d="M231 567l-53 -54l-53 54l53 53zM153 445l-62 -62l-61 62l61 62zM264 383l-61 62l61 62l62 -62zM314 163q5 -44 24.5 -61.5t65.5 -17.5v-84q-83 0 -126 49q-46 -49 -130 -49h-153v84h153q49 0 71 19t19 56v3l-11 123l76 7l11 -123v-6z" />
    <glyph glyph-name="uniFE9E" unicode="&#x62c;" horiz-adv-x="730" arabic-form="final" 
d="M698 84h37v-84h-37q-68 0 -119 41.5t-69 107.5l-208 -58q-60 -16 -100.5 -45t-55 -60t-19.5 -65t5 -60q19 -73 87.5 -109t149.5 -15l255 70l19 -82l-257 -71q-111 -28 -204.5 24.5t-122.5 158.5q-7 36 -9 74t13 78t40.5 74.5t72 64t107.5 45.5l273 72l-221 117
q-46 25 -92.5 11.5t-73.5 -59.5l-18 -31l-66 41l19 34q45 76 118.5 97.5t149.5 -19.5l277 -154l-11 -98l-54 -15q11 -38 41.5 -61.5t72.5 -23.5zM373 -146l-69 69l69 70l70 -70z" />
    <glyph glyph-name="uniFE9F" unicode="&#x62c;" horiz-adv-x="646" arabic-form="initial" 
d="M341 364l255 -154l-12 -98l-293 -83q-105 -29 -291 -29h-5v84h5q177 0 272 27l235 63l-203 116q-44 27 -91 13t-75 -61l-17 -31l-66 41l19 34q44 77 118 99.5t149 -21.5zM236 -135l69 70l70 -70l-70 -69z" />
    <glyph glyph-name="uniFEA0" unicode="&#x62c;" horiz-adv-x="674" arabic-form="medial" 
d="M614 84h65v-84h-65q-49 0 -89 28t-58 73l-177 -56q-145 -45 -290 -45h-5v84h5q134 2 268 42l240 70l-207 107q-48 26 -93 12t-72 -60l-18 -32l-66 41l19 34q46 77 119.5 98.5t146.5 -19.5l258 -143l-12 -96l-41 -13q24 -41 72 -41zM236 -135l69 70l70 -70l-70 -69z" />
    <glyph glyph-name="uniFEA2" unicode="&#x62d;" horiz-adv-x="730" arabic-form="final" 
d="M698 84h37v-84h-37q-68 0 -119 41.5t-69 107.5l-208 -58q-60 -16 -100.5 -45t-55 -60t-19.5 -65t5 -60q19 -73 87.5 -109t149.5 -15l255 70l19 -82l-257 -71q-111 -28 -204.5 24.5t-122.5 158.5q-7 36 -9 74t13 78t40.5 74.5t72 64t107.5 45.5l273 72l-221 117
q-46 25 -92.5 11.5t-73.5 -59.5l-18 -31l-66 41l19 34q45 76 118.5 97.5t149.5 -19.5l277 -154l-11 -98l-54 -15q11 -38 41.5 -61.5t72.5 -23.5z" />
    <glyph glyph-name="uniFEA3" unicode="&#x62d;" horiz-adv-x="646" arabic-form="initial" 
d="M341 364l255 -154l-12 -98l-293 -83q-105 -29 -291 -29h-5v84h5q177 0 272 27l235 63l-203 116q-44 27 -91 13t-75 -61l-17 -31l-66 41l19 34q44 77 118 99.5t149 -21.5z" />
    <glyph glyph-name="uniFEA4" unicode="&#x62d;" horiz-adv-x="674" arabic-form="medial" 
d="M614 84h65v-84h-65q-49 0 -89 28t-58 73l-177 -56q-145 -45 -290 -45h-5v84h5q134 2 268 42l240 70l-207 107q-48 26 -93 12t-72 -60l-18 -32l-66 41l19 34q46 77 119.5 98.5t146.5 -19.5l258 -143l-12 -96l-41 -13q24 -41 72 -41z" />
    <glyph glyph-name="uniFEA6" unicode="&#x62e;" horiz-adv-x="730" arabic-form="final" 
d="M342 591l-69 -69l-70 69l70 70zM698 84h37v-84h-37q-68 0 -119 41.5t-69 107.5l-208 -58q-60 -16 -100.5 -45t-55 -60t-19.5 -65t5 -60q19 -73 87.5 -109t149.5 -15l255 70l19 -82l-257 -71q-111 -28 -204.5 24.5t-122.5 158.5q-7 36 -9 74t13 78t40.5 74.5t72 64
t107.5 45.5l273 72l-221 117q-46 25 -92.5 11.5t-73.5 -59.5l-18 -31l-66 41l19 34q45 76 118.5 97.5t149.5 -19.5l277 -154l-11 -98l-54 -15q11 -38 41.5 -61.5t72.5 -23.5z" />
    <glyph glyph-name="uniFEA7" unicode="&#x62e;" horiz-adv-x="646" arabic-form="initial" 
d="M311 540l-69 -69l-70 69l70 70zM341 364l255 -154l-12 -98l-293 -83q-105 -29 -291 -29h-5v84h5q177 0 272 27l235 63l-203 116q-44 27 -91 13t-75 -61l-17 -31l-66 41l19 34q44 77 118 99.5t149 -21.5z" />
    <glyph glyph-name="uniFEA8" unicode="&#x62e;" horiz-adv-x="674" arabic-form="medial" 
d="M310 540l-69 -69l-70 69l70 70zM614 84h65v-84h-65q-49 0 -89 28t-58 73l-177 -56q-145 -45 -290 -45h-5v84h5q134 2 268 42l240 70l-207 107q-48 26 -93 12t-72 -60l-18 -32l-66 41l19 34q46 77 119.5 98.5t146.5 -19.5l258 -143l-12 -96l-41 -13q24 -41 72 -41z" />
    <glyph glyph-name="uniFEAA" unicode="&#x62f;" horiz-adv-x="585" arabic-form="final" 
d="M541 84h49v-84h-49q-67 0 -108 56q-48 -56 -159 -56h-39q-74 0 -117.5 29.5t-48.5 77.5l-5 66h70q0 -30 4 -50q8 -39 85 -39h61q67 0 89.5 24t11.5 65v1l-75 294l74 20l75 -295q8 -29 12.5 -44t14 -32.5t23 -25t32.5 -7.5z" />
    <glyph glyph-name="uniFEAC" unicode="&#x630;" horiz-adv-x="585" arabic-form="final" 
d="M402 614l-69 -70l-70 70l70 70zM541 84h49v-84h-49q-67 0 -108 56q-48 -56 -159 -56h-39q-74 0 -117.5 29.5t-48.5 77.5l-5 66h70q0 -30 4 -50q8 -39 85 -39h61q67 0 89.5 24t11.5 65v1l-75 294l74 20l75 -295q8 -29 12.5 -44t14 -32.5t23 -25t32.5 -7.5z" />
    <glyph glyph-name="uniFEAE" unicode="&#x631;" horiz-adv-x="333" arabic-form="final" 
d="M331 84h7v-84h-7q-29 0 -50 6q16 -119 -49.5 -171t-211.5 -92l-20 82q114 31 144 46q66 34 64 105q-1 10 -2 21l-40 287l75 12l5 -36v-3q1 -6 7 -50q12 -78 26.5 -100.5t51.5 -22.5z" />
    <glyph glyph-name="uniFEB0" unicode="&#x632;" horiz-adv-x="333" arabic-form="final" 
d="M260 458l-70 -69l-69 70l69 69zM331 84h7v-84h-7q-29 0 -50 6q16 -119 -49.5 -171t-211.5 -92l-20 82q114 31 144 46q66 34 64 105q-1 10 -2 21l-40 287l75 12l5 -36v-3q1 -6 7 -50q12 -78 26.5 -100.5t51.5 -22.5z" />
    <glyph glyph-name="uniFEB2" unicode="&#x633;" horiz-adv-x="1245" arabic-form="final" 
d="M1123 185q12 -45 47 -73t80 -28v-84q-87 0 -144 68q-44 -68 -138 -68q-84 0 -126 58q-46 -58 -124 -58q-58 0 -101 35q2 -10 2 -13q7 -51 -2 -91t-28 -66t-54.5 -46t-70 -31.5t-84.5 -23.5q-98 -23 -173 2.5t-113 89.5t-43 159.5t37 212.5l72 -29q-66 -188 -8.5 -288
t211.5 -64q103 24 134 42q59 35 47 121l-40 274l75 13l17 -112q11 -54 39.5 -77t79.5 -23q91 0 91 80v124h71v-124q0 -79 86 -79q57 0 78.5 25t11.5 59l-33 123l69 20l33 -123v-3z" />
    <glyph glyph-name="uniFEB3" unicode="&#x633;" horiz-adv-x="752" arabic-form="initial" 
d="M692 233q30 -107 -20.5 -170t-136.5 -63q-76 0 -121 55q-43 -55 -125 -55q-75 0 -121 56q-44 -56 -126 -56h-47v84h47q90 0 90 81v124h71v-124v-6q0 -34 22.5 -54.5t63.5 -20.5q86 0 90 73v8v124h71v-124v-8q1 -34 23 -53.5t62 -19.5q50 0 76.5 29.5t7.5 98.5l-40 149
l73 21z" />
    <glyph glyph-name="uniFEB4" unicode="&#x633;" horiz-adv-x="794" arabic-form="medial" 
d="M672 185q12 -45 47 -73t80 -28v-84q-87 0 -144 68q-44 -68 -138 -68q-77 0 -123 61q-44 -61 -130 -61q-76 0 -119 61q-45 -61 -128 -61h-22v84h22q91 0 91 81v124h71v-124q14 -78 85 -81q91 0 91 81v124h71v-124q0 -4 0.5 -10.5t5.5 -19.5t13.5 -23t25.5 -18t41 -8
q57 0 78.5 25t11.5 59l-33 123l69 20l33 -123q0 -1 1 -3v-2z" />
    <glyph glyph-name="uniFEB6" unicode="&#x634;" horiz-adv-x="1245" arabic-form="final" 
d="M841 521q-3 3 -8.5 9t-17.5 18t-19 20l-8 7l53 53q53 -52 53 -53l-13 -13q-13 -14 -27 -28zM816 453l-62 -61l-61 61l61 62zM928 392l-62 61l62 62l61 -62zM1123 185q12 -45 47 -73t80 -28v-84q-87 0 -144 68q-44 -68 -138 -68q-84 0 -126 58q-46 -58 -124 -58
q-58 0 -101 35q2 -10 2 -13q7 -51 -2 -91t-28 -66t-54.5 -46t-70 -31.5t-84.5 -23.5q-98 -23 -173 2.5t-113 89.5t-43 159.5t37 212.5l72 -29q-66 -188 -8.5 -288t211.5 -64q103 24 134 42q59 35 47 121l-40 274l75 13l17 -112q11 -54 39.5 -77t79.5 -23q91 0 91 80v124h71
v-124q0 -79 86 -79q57 0 78.5 25t11.5 59l-33 123l69 20l33 -123v-3z" />
    <glyph glyph-name="uniFEB7" unicode="&#x634;" horiz-adv-x="752" arabic-form="initial" 
d="M467 576l-53 -54l-54 54l54 53zM389 454l-62 -62l-62 62l62 62zM500 392l-62 62l62 62l62 -62zM692 233q30 -107 -20.5 -170t-136.5 -63q-76 0 -121 55q-43 -55 -125 -55q-75 0 -121 56q-44 -56 -126 -56h-47v84h47q90 0 90 81v124h71v-124v-6q0 -34 22.5 -54.5
t63.5 -20.5q86 0 90 73v8v124h71v-124v-8q1 -34 23 -53.5t62 -19.5q50 0 76.5 29.5t7.5 98.5l-40 149l73 21z" />
    <glyph glyph-name="uniFEB8" unicode="&#x634;" horiz-adv-x="794" arabic-form="medial" 
d="M448 562l-53 -54l-54 54l54 53zM370 440l-62 -61l-62 61l62 62zM481 379l-62 61l62 62l62 -62zM672 185q12 -45 47 -73t80 -28v-84q-87 0 -144 68q-44 -68 -138 -68q-77 0 -123 61q-44 -61 -130 -61q-76 0 -119 61q-45 -61 -128 -61h-22v84h22q91 0 91 81v124h71v-124
q14 -78 85 -81q91 0 91 81v124h71v-124q0 -4 0.5 -10.5t5.5 -19.5t13.5 -23t25.5 -18t41 -8q57 0 78.5 25t11.5 59l-33 123l69 20l33 -123q0 -1 1 -3v-2z" />
    <glyph glyph-name="uniFEBA" unicode="&#x635;" horiz-adv-x="1263" arabic-form="final" 
d="M1254 84h14v-84h-14q-70 0 -125 46q-51 -46 -119 -46h-308h-21q-34 0 -61 15q6 -50 -3.5 -88.5t-29 -63.5t-54.5 -44.5t-69 -31t-84 -23.5q-98 -23 -173 2.5t-113 89.5t-43 159.5t37 212.5l72 -29q-66 -188 -8.5 -288t211.5 -64q103 24 134 42q59 35 47 121
q-2 15 -9.5 68t-17 114.5t-11.5 78.5q0 2 -1 6.5t-1 6.5l75 13l10 -71q14 -83 32 -112.5t58 -29.5h23h3l72 99q37 52 58.5 79.5t51 56.5t59 40.5t64.5 11.5q77 0 129 -55.5t52 -137.5q0 -35 -14 -68q32 -26 77 -26zM1010 84q42 0 74 29t32 65q0 47 -30 78t-76 31
q-44 0 -77.5 -32.5t-92.5 -118.5l-38 -52h208z" />
    <glyph glyph-name="uniFEBB" unicode="&#x635;" horiz-adv-x="772" arabic-form="initial" 
d="M541 371q77 0 129 -55.5t52 -137.5q0 -71 -54 -124.5t-127 -53.5h-308q-63 0 -99 49q-47 -47 -134 -49h-5v84h5q98 2 105 84l11 124l76 -7l-11 -123v-3q-3 -36 11 -55.5t41 -19.5h2l73 99q72 103 119 145.5t114 42.5zM541 84q41 0 73 29t32 65q0 47 -29.5 78t-75.5 31
q-44 0 -77 -32t-94 -119l-38 -52h209z" />
    <glyph glyph-name="uniFEBC" unicode="&#x635;" horiz-adv-x="793" arabic-form="medial" 
d="M784 84h14v-84h-14q-68 0 -125 45q-51 -45 -118 -45h-308q-63 0 -99 49q-47 -47 -134 -49h-5v84h5q98 2 105 84l11 124l76 -7l-11 -123v-3q-3 -36 11 -55.5t41 -19.5h2l73 99q72 103 119 145.5t114 42.5q77 0 129 -55.5t52 -137.5q0 -36 -15 -68q31 -26 77 -26zM541 84
q41 0 73 29t32 65q0 47 -29.5 78t-75.5 31q-44 0 -77 -32t-94 -119l-38 -52h209z" />
    <glyph glyph-name="uniFEBE" unicode="&#x636;" horiz-adv-x="1263" arabic-form="final" 
d="M1063 524l-69 -69l-69 69l69 70zM1254 84h14v-84h-14q-70 0 -125 46q-51 -46 -119 -46h-308h-21q-34 0 -61 15q6 -50 -3.5 -88.5t-29 -63.5t-54.5 -44.5t-69 -31t-84 -23.5q-98 -23 -173 2.5t-113 89.5t-43 159.5t37 212.5l72 -29q-66 -188 -8.5 -288t211.5 -64
q103 24 134 42q59 35 47 121q-2 15 -9.5 68t-17 114.5t-11.5 78.5q0 2 -1 6.5t-1 6.5l75 13l10 -71q14 -83 32 -112.5t58 -29.5h23h3l72 99q37 52 58.5 79.5t51 56.5t59 40.5t64.5 11.5q77 0 129 -55.5t52 -137.5q0 -35 -14 -68q32 -26 77 -26zM1010 84q42 0 74 29t32 65
q0 47 -30 78t-76 31q-44 0 -77.5 -32.5t-92.5 -118.5l-38 -52h208z" />
    <glyph glyph-name="uniFEBF" unicode="&#x636;" horiz-adv-x="772" arabic-form="initial" 
d="M596 505l-70 -69l-69 69l69 70zM541 371q77 0 129 -55.5t52 -137.5q0 -71 -54 -124.5t-127 -53.5h-308q-63 0 -99 49q-47 -47 -134 -49h-5v84h5q98 2 105 84l11 124l76 -7l-11 -123v-3q-3 -36 11 -55.5t41 -19.5h2l73 99q72 103 119 145.5t114 42.5zM541 84q41 0 73 29
t32 65q0 47 -29.5 78t-75.5 31q-44 0 -77 -32t-94 -119l-38 -52h209z" />
    <glyph glyph-name="uniFEC0" unicode="&#x636;" horiz-adv-x="793" arabic-form="medial" 
d="M586 511l-69 -69l-70 69l70 70zM784 84h14v-84h-14q-68 0 -125 45q-51 -45 -118 -45h-308q-63 0 -99 49q-47 -47 -134 -49h-5v84h5q98 2 105 84l11 124l76 -7l-11 -123v-3q-3 -36 11 -55.5t41 -19.5h2l73 99q72 103 119 145.5t114 42.5q77 0 129 -55.5t52 -137.5
q0 -36 -15 -68q31 -26 77 -26zM541 84q41 0 73 29t32 65q0 47 -29.5 78t-75.5 31q-44 0 -77 -32t-94 -119l-38 -52h209z" />
    <glyph glyph-name="uniFEC2" unicode="&#x637;" horiz-adv-x="683" arabic-form="final" 
d="M674 84h14v-84h-14q-60 0 -115 38q-49 -38 -109 -38h-400v84h94l32 43l-21 531l76 4l17 -436q55 76 99 110.5t103 34.5q77 0 129 -55.5t52 -137.5q0 -41 -20 -78q30 -16 63 -16zM450 84q41 0 73 29t32 65q0 47 -29.5 78t-75.5 31q-44 0 -77 -32t-94 -119l-38 -52h209z
" />
    <glyph glyph-name="uniFEC3" unicode="&#x637;" horiz-adv-x="626" arabic-form="initial" 
d="M395 371q77 0 129 -55.5t52 -137.5q0 -71 -54 -124.5t-127 -53.5h-400v84h94l32 43l-21 531l76 4l17 -436q55 76 99 110.5t103 34.5zM395 84q41 0 73 29t32 65q0 47 -29.5 78t-75.5 31q-44 0 -77 -32t-94 -119l-38 -52h209z" />
    <glyph glyph-name="uniFEC4" unicode="&#x637;" horiz-adv-x="647" arabic-form="medial" 
d="M638 84h14v-84h-14q-68 0 -125 45q-51 -45 -118 -45h-400v84h94l32 43l-21 531l76 4l17 -436q55 76 99 110.5t103 34.5q77 0 129 -55.5t52 -137.5q0 -36 -15 -68q31 -26 77 -26zM395 84q41 0 73 29t32 65q0 47 -29.5 78t-75.5 31q-44 0 -77 -32t-94 -119l-38 -52h209z
" />
    <glyph glyph-name="uniFEC6" unicode="&#x638;" horiz-adv-x="683" arabic-form="final" 
d="M674 84h14v-84h-14q-60 0 -115 38q-49 -38 -109 -38h-400v84h94l32 43l-21 531l76 4l17 -436q55 76 99 110.5t103 34.5q77 0 129 -55.5t52 -137.5q0 -41 -20 -78q30 -16 63 -16zM527 550l-69 -69l-70 70l70 69zM450 84q41 0 73 29t32 65q0 47 -29.5 78t-75.5 31
q-44 0 -77 -32t-94 -119l-38 -52h209z" />
    <glyph glyph-name="uniFEC7" unicode="&#x638;" horiz-adv-x="626" arabic-form="initial" 
d="M395 371q77 0 129 -55.5t52 -137.5q0 -71 -54 -124.5t-127 -53.5h-400v84h94l32 43l-21 531l76 4l17 -436q55 76 99 110.5t103 34.5zM461 550l-70 -69l-69 70l69 69zM395 84q41 0 73 29t32 65q0 47 -29.5 78t-75.5 31q-44 0 -77 -32t-94 -119l-38 -52h209z" />
    <glyph glyph-name="uniFEC8" unicode="&#x638;" horiz-adv-x="647" arabic-form="medial" 
d="M638 84h14v-84h-14q-68 0 -125 45q-51 -45 -118 -45h-400v84h94l32 43l-21 531l76 4l17 -436q55 76 99 110.5t103 34.5q77 0 129 -55.5t52 -137.5q0 -36 -15 -68q31 -26 77 -26zM458 550l-69 -69l-70 70l70 69zM395 84q41 0 73 29t32 65q0 47 -29.5 78t-75.5 31
q-44 0 -77 -32t-94 -119l-38 -52h209z" />
    <glyph glyph-name="uniFECA" unicode="&#x639;" horiz-adv-x="596" arabic-form="final" 
d="M281 102q-163 -63 -154 -170q5 -54 47.5 -90t98.5 -32l293 25l6 -84l-294 -25q-87 -7 -153 51.5t-74 147.5q-9 86 40 142t145 93l-127 168l20 67l243 36q37 5 70 -11.5t50.5 -46t22 -65t-14.5 -67.5q-39 -78 -140 -113l13 -17q13 -18 59.5 -22.5t168.5 -4.5v-84
q-162 0 -205 9q-55 12 -84 51zM204 330l111 -144l4 1q105 31 124 104q11 28 -4.5 48t-42.5 16q-39 -5 -87 -11t-75 -10t-30 -4z" />
    <glyph glyph-name="uniFECB" unicode="&#x639;" horiz-adv-x="530" arabic-form="initial" 
d="M480 45l-171 -33l-25 -3q-36 -3 -105.5 -5.5t-120.5 -3.5h-52h-11v84h11q59 1 124 3q-22 33 -29 72q-14 77 28 139.5t116 75.5q24 4 65.5 -1t70.5 -13l29 -7l-20 -82q-10 3 -26 7t-50 9.5t-51 3.5q-44 -6 -69.5 -39t-18.5 -75q7 -40 39 -63.5t72 -18.5q2 0 5 0.5t4 0.5
l171 32z" />
    <glyph glyph-name="uniFECC" unicode="&#x639;" horiz-adv-x="511" arabic-form="medial" 
d="M516 84v-84q-122 0 -180.5 6.5t-97.5 33.5q-117 -40 -225 -40h-18v84h18q93 0 170 16l-127 169l21 66l243 35q73 10 117.5 -50.5t15.5 -129.5q-23 -57 -104 -102q39 -4 167 -4zM151 270l113 -148q106 39 128 110q10 25 -6 46t-42 17z" />
    <glyph glyph-name="uniFECE" unicode="&#x63a;" horiz-adv-x="596" arabic-form="final" 
d="M383 553l-70 -69l-69 69l69 70zM281 102q-163 -63 -154 -170q5 -54 47.5 -90t98.5 -32l293 25l6 -84l-294 -25q-87 -7 -153 51.5t-74 147.5q-9 86 40 142t145 93l-127 168l20 67l243 36q37 5 70 -11.5t50.5 -46t22 -65t-14.5 -67.5q-39 -78 -140 -113l13 -17
q13 -18 59.5 -22.5t168.5 -4.5v-84q-162 0 -205 9q-55 12 -84 51zM204 330l111 -144l4 1q105 31 124 104q11 28 -4.5 48t-42.5 16q-39 -5 -87 -11t-75 -10t-30 -4z" />
    <glyph glyph-name="uniFECF" unicode="&#x63a;" horiz-adv-x="530" arabic-form="initial" 
d="M325 506l-69 -69l-70 69l70 70zM480 45l-171 -33l-25 -3q-36 -3 -105.5 -5.5t-120.5 -3.5h-52h-11v84h11q59 1 124 3q-22 33 -29 72q-14 77 28 139.5t116 75.5q24 4 65.5 -1t70.5 -13l29 -7l-20 -82q-10 3 -26 7t-50 9.5t-51 3.5q-44 -6 -69.5 -39t-18.5 -75
q7 -40 39 -63.5t72 -18.5q2 0 5 0.5t4 0.5l171 32z" />
    <glyph glyph-name="uniFED0" unicode="&#x63a;" horiz-adv-x="511" arabic-form="medial" 
d="M336 516l-70 -70l-69 70l69 70zM516 84v-84q-122 0 -180.5 6.5t-97.5 33.5q-117 -40 -225 -40h-18v84h18q93 0 170 16l-127 169l21 66l243 35q73 10 117.5 -50.5t15.5 -129.5q-23 -57 -104 -102q39 -4 167 -4zM151 270l113 -148q106 39 128 110q10 25 -6 46t-42 17z" />
    <glyph glyph-name="uniFED2" unicode="&#x641;" horiz-adv-x="949" arabic-form="final" 
d="M797 524l-70 -69l-69 69l69 70zM896 84h58v-84h-58q-92 0 -188 38q-107 -38 -202 -38h-52q-165 0 -219.5 5t-91.5 22q-60 26 -81.5 81.5t-2.5 130.5l37 141l73 -22l-37 -144q-11 -44 -1.5 -69.5t42.5 -40.5q18 -7 36 -10.5t79 -6.5t171 -3h47q39 0 97 10q-71 53 -67 100
l6 58q9 73 64 117t127 36q69 -7 111 -64.5t37 -125.5l-3 -43q-3 -41 -64 -82q38 -6 82 -6zM612 191q12 -35 93 -70q89 31 97 60l4 35q4 37 -19 69t-64 36q-40 5 -71 -19t-36 -64z" />
    <glyph glyph-name="uniFED3" unicode="&#x641;" horiz-adv-x="463" arabic-form="initial" 
d="M288 663l-70 -69l-69 69l69 70zM410 180q9 -100 -33 -140t-180 -40h-202v84h204q96 0 120 15.5t19 68.5q-58 -9 -126 -9q-71 0 -114.5 40.5t-45.5 110.5q-3 80 38.5 140t119.5 65q77 5 129 -50t59 -148zM121 317q3 -37 27 -58.5t64 -21.5q59 0 119 10l-6 63q-7 62 -37 96
t-75 32q-46 -2 -70.5 -38t-21.5 -83z" />
    <glyph glyph-name="uniFED4" unicode="&#x641;" horiz-adv-x="490" arabic-form="medial" 
d="M328 550l-69 -69l-69 69l69 70zM437 84h58v-84h-58q-92 0 -189 38q-107 -38 -201 -38h-52v84h52q39 0 97 10q-71 53 -67 100l6 58q8 73 63.5 117t127.5 36q69 -7 111 -64.5t37 -125.5l-3 -43q-3 -41 -64 -82q38 -6 82 -6zM153 191q4 -14 28.5 -34t63.5 -36q88 31 98 60
l4 35q4 37 -19 69t-64 36q-40 5 -71.5 -19t-35.5 -64z" />
    <glyph glyph-name="uniFED6" unicode="&#x642;" horiz-adv-x="684" arabic-form="final" 
d="M341 426l-62 61l62 62l62 -62zM515 426l-62 61l62 62l62 -62zM380 -236q-98 -23 -173 2.5t-113 89.5t-43 159.5t37 212.5l72 -29q-66 -188 -8.5 -288t211.5 -64q106 23 154 51t43 82l-2 20h-129q-72 0 -116.5 42t-50.5 116q-6 81 40.5 145.5t124.5 67.5q77 4 129 -52.5
t63 -152.5l8 -82h62v-84h-53l1 -24q1 -94 -57 -137.5t-200 -74.5zM429 84h122l-8 73q-7 63 -37 97.5t-75 32.5q-47 -2 -72 -38.5t-21 -84.5q6 -80 91 -80z" />
    <glyph glyph-name="uniFED7" unicode="&#x642;" horiz-adv-x="463" arabic-form="initial" 
d="M192 641l-62 -62l-62 62l62 62zM365 641l-62 -62l-61 62l61 62zM410 180q9 -100 -33 -140t-180 -40h-202v84h204q96 0 120 15.5t19 68.5q-58 -9 -126 -9q-71 0 -114.5 40.5t-45.5 110.5q-3 80 38.5 140t119.5 65q77 5 129 -50t59 -148zM121 317q3 -37 27 -58.5t64 -21.5
q59 0 119 10l-6 63q-7 62 -37 96t-75 32q-46 -2 -70.5 -38t-21.5 -83z" />
    <glyph glyph-name="uniFED8" unicode="&#x642;" horiz-adv-x="490" arabic-form="medial" 
d="M236 553l-62 -61l-62 61l62 62zM409 553l-62 -61l-61 61l61 62zM437 84h58v-84h-58q-92 0 -189 38q-107 -38 -201 -38h-52v84h52q39 0 97 10q-71 53 -67 100l6 58q8 73 63.5 117t127.5 36q69 -7 111 -64.5t37 -125.5l-3 -43q-3 -41 -64 -82q38 -6 82 -6zM153 191
q4 -14 28.5 -34t63.5 -36q88 31 98 60l4 35q4 37 -19 69t-64 36q-40 5 -71.5 -19t-35.5 -64z" />
    <glyph glyph-name="uniFEDA" unicode="&#x643;" horiz-adv-x="963" arabic-form="final" 
d="M954 84h14v-84h-14q-86 0 -159 85q-11 -26 -30 -43q-37 -42 -105 -42h-206q-165 0 -219.5 5t-91.5 22q-60 26 -81.5 81.5t-2.5 130.5l37 141l73 -22l-37 -144q-11 -44 -1.5 -69.5t42.5 -40.5q18 -7 36 -10.5t79 -6.5t171 -3h202q23 0 40 12q22 15 26.5 40.5t-10.5 48.5
l-223 315l17 64l362 133l27 -79l-311 -114l185 -268l6 -9q53 -82 90.5 -112.5t83.5 -30.5z" />
    <glyph glyph-name="uniFEDB" unicode="&#x643;" horiz-adv-x="465" arabic-form="initial" 
d="M130 504l185 -268q33 -54 30 -107t-39 -87q-39 -42 -105 -42h-206v84h207q24 0 39 12q22 15 26.5 40.5t-9.5 48.5l-223 315l17 64l362 133l26 -79z" />
    <glyph glyph-name="uniFEDC" unicode="&#x643;" horiz-adv-x="503" arabic-form="medial" 
d="M494 84h14v-84h-14q-86 0 -158 85q-11 -26 -30 -43q-39 -42 -105 -42h-206v84h207q24 0 39 12q22 15 26.5 40.5t-9.5 48.5l-223 315l17 64l362 133l26 -79l-310 -114l185 -268q1 -2 4 -6.5t4 -6.5q52 -80 89 -109.5t82 -29.5z" />
    <glyph glyph-name="uniFEDE" unicode="&#x644;" horiz-adv-x="718" arabic-form="final" 
d="M703 84h20v-84h-20q-47 0 -84 22v-4q2 -53 -10 -93t-31.5 -65.5t-54 -45t-65.5 -29.5t-79 -22q-79 -17 -142 -6.5t-106 52.5t-64 102t-16.5 142t36.5 173l73 -28q-66 -188 -8 -289.5t210 -63.5q7 2 20 5q37 9 55 14.5t44 18t37 28t19 41.5t7 62l-25 644l75 4l19 -488
q5 -90 90 -90z" />
    <glyph glyph-name="uniFEDF" unicode="&#x644;" horiz-adv-x="234" arabic-form="initial" 
d="M184 168q3 -67 -38.5 -117.5t-127.5 -50.5h-25v84h25q54 0 73 24t17 56l-19 494l76 4z" />
    <glyph glyph-name="uniFEE0" unicode="&#x644;" horiz-adv-x="288" arabic-form="medial" 
d="M273 84h20v-84h-20q-76 0 -124 55q-45 -55 -131 -55h-25v84h25q54 0 73 24t17 56l-19 494l76 4l19 -494v-7q10 -77 89 -77z" />
    <glyph glyph-name="uniFEE2" unicode="&#x645;" horiz-adv-x="578" arabic-form="final" 
d="M483 173q3 -41 29.5 -65t70.5 -24v-84q-84 0 -129 62l-3 -6q-21 -41 -62.5 -55.5t-83.5 6.5l-179 93l17 -397l-75 -3l-18 468l52 35l49 -26l55 107q28 54 84 72t108 -10q44 -24 66 -70t19 -103zM391 90q29 57 24.5 109.5t-44.5 73.5q-30 16 -61.5 3.5t-49.5 -47.5
l-44 -86l129 -67q31 -14 46 14z" />
    <glyph glyph-name="uniFEE3" unicode="&#x645;" horiz-adv-x="506" arabic-form="initial" 
d="M371 345q66 -36 81 -120t-29 -170q-20 -39 -61 -54t-85 6l-128 66q-56 -73 -143 -73h-11v84h11q69 0 98 57l74 141q29 56 84.5 74t108.5 -11zM363 90q29 57 25 109t-44 73q-31 17 -62 4.5t-49 -48.5l-45 -86l130 -66q29 -14 45 14z" />
    <glyph glyph-name="uniFEE4" unicode="&#x645;" horiz-adv-x="550" arabic-form="medial" 
d="M456 184q0 -47 26 -73.5t73 -26.5v-84q-84 0 -129 61l-3 -6q-20 -39 -61 -54t-85 6l-128 66q-56 -73 -143 -73h-11v84h11q69 0 98 57l74 141q29 56 84.5 74t108.5 -11q41 -22 63 -65t22 -96zM363 90q29 57 25 109t-44 73q-31 17 -62 4.5t-49 -48.5l-45 -86l130 -66
q29 -14 45 14z" />
    <glyph glyph-name="uniFEE6" unicode="&#x646;" horiz-adv-x="703" arabic-form="final" 
d="M397 282l-69 -69l-70 69l70 70zM679 84h29v-84h-27q-34 0 -61 15q6 -50 -3.5 -88.5t-29 -63.5t-54.5 -44.5t-69 -31t-84 -23.5q-98 -23 -173 2.5t-113 89.5t-43 159.5t37 212.5l72 -29q-66 -188 -8.5 -288t211.5 -64q103 24 134 42q59 35 47 121q-2 15 -9.5 68t-17 114.5
t-11.5 78.5q0 2 -1 6.5t-1 6.5l75 13l10 -71q14 -83 32 -112.5t58 -29.5z" />
    <glyph glyph-name="uniFEE7" unicode="&#x646;" horiz-adv-x="309" arabic-form="initial" 
d="M132 451l-69 70l69 70l70 -70zM-5 0v84h79q136 0 102 128l-40 149l74 21l40 -149q29 -110 -25 -171.5t-151 -61.5h-79z" />
    <glyph glyph-name="uniFEE8" unicode="&#x646;" horiz-adv-x="309" arabic-form="medial" 
d="M199 446l-70 -69l-69 69l69 70zM224 167q4 -45 24 -64t66 -19v-84q-84 0 -126 49q-46 -49 -130 -49h-63v84h63q49 0 71 19t19 56v3l-11 123l76 7l11 -123v-2z" />
    <glyph glyph-name="uniFEEA" unicode="&#x647;" horiz-adv-x="518" arabic-form="final" 
d="M504 84h19v-84h-19q-51 0 -94.5 25t-70.5 67q-70 -10 -111 -18q-52 -7 -102 27.5t-68 86.5q-21 65 9.5 127.5t94.5 83.5l147 49v45h76v-294q0 -48 34.5 -81.5t84.5 -33.5zM222 158q3 0 19.5 3t35.5 6.5t34 5.5q-2 18 -2 26v165l-123 -42q-35 -12 -50.5 -41.5t-5.5 -62.5
q8 -28 35 -46.5t57 -13.5z" />
    <glyph glyph-name="uniFEEB" unicode="&#x647;" horiz-adv-x="637" arabic-form="initial" 
d="M496 289q59 -32 81.5 -96t-5.5 -124q-28 -61 -89.5 -84t-121.5 5l-119 54q-86 -44 -198 -44h-49v84h49q46 0 93 7q-61 31 -82.5 96t9.5 129q21 46 65 73l-21 11l35 75zM178 163l65 -31q38 27 56 69q16 34 3.5 68.5t-45.5 51.5q-35 17 -69.5 6t-51.5 -44q-18 -34 -6 -69
t48 -51zM505 102q15 30 3 63t-46 50l-80 42q5 -47 -15 -91q-16 -37 -49 -69l74 -35q31 -15 64.5 -3.5t48.5 43.5z" />
    <glyph glyph-name="uniFEEC" unicode="&#x647;" horiz-adv-x="478" arabic-form="medial" 
d="M433 84h50v-84h-50q-30 0 -50.5 -20t-20.5 -48v-134l-37 -38q-90 -1 -162 65t-85 175h-14h-69v84h69h19q10 46 35 124.5t45 133.5l20 56l45 23l74 -21q63 -18 88.5 -93t-4.5 -141q-26 -59 -87.5 -100.5t-144.5 -57.5q8 -67 45.5 -111t89.5 -55v90q0 63 41.5 107.5
t102.5 44.5zM239 330q-56 -150 -78 -238q126 24 160 108q16 35 2.5 72.5t-42.5 45.5z" />
    <glyph glyph-name="uniFEEE" unicode="&#x648;" horiz-adv-x="487" arabic-form="final" 
d="M492 84v-84h-52q3 -37 -1.5 -66t-14 -51.5t-31.5 -40.5t-45.5 -31t-63 -25.5t-77.5 -21.5t-97 -21l-15 83q182 37 229.5 64t38.5 107v3h-131q-72 0 -116.5 42t-50.5 116q-6 81 40.5 145.5t124.5 67.5q77 4 129.5 -53t62.5 -152l9 -82h61zM232 84h122l-8 73
q-7 63 -37 97.5t-75 32.5q-47 -2 -72 -38.5t-21 -84.5q6 -80 91 -80z" />
    <glyph glyph-name="uniFEF0" unicode="&#x649;" horiz-adv-x="679" arabic-form="final" 
d="M684 84v-84q-37 0 -79 5q7 -13 8 -25q7 -48 -7 -84t-48 -61t-75.5 -41t-102.5 -30q-98 -23 -173 2.5t-113 89.5t-43 159.5t37 212.5l72 -29q-66 -188 -8 -287.5t211 -64.5q43 10 66 16t50 17t38.5 23t18 31t1.5 44q-7 33 -114 73q-48 15 -51 16l24 81q11 -3 39 -11.5
t38.5 -11.5t33.5 -10t33.5 -9.5t29.5 -7t30.5 -6.5t27.5 -4t29 -3t27 -1z" />
    <glyph glyph-name="uniFEF2" unicode="&#x64a;" horiz-adv-x="679" arabic-form="final" 
d="M684 84v-84q-37 0 -79 5q7 -13 8 -25q7 -48 -7 -84t-48 -61t-75.5 -41t-102.5 -30q-98 -23 -173 2.5t-113 89.5t-43 159.5t37 212.5l72 -29q-66 -188 -8 -287.5t211 -64.5q43 10 66 16t50 17t38.5 23t18 31t1.5 44q-7 33 -114 73q-48 15 -51 16l24 81q11 -3 39 -11.5
t38.5 -11.5t33.5 -10t33.5 -9.5t29.5 -7t30.5 -6.5t27.5 -4t29 -3t27 -1z" />
    <glyph glyph-name="uniFEF3" unicode="&#x64a;" horiz-adv-x="376" arabic-form="initial" 
d="M-5 0v84h146q136 0 101 128l-39 149l73 21l41 -153q29 -107 -26 -168t-150 -61h-146zM12 -206l-62 62l62 62l62 -62zM186 -206l-62 62l62 62l62 -62z" />
    <glyph glyph-name="uniFEF4" unicode="&#x64a;" horiz-adv-x="399" arabic-form="medial" 
d="M314 163q5 -44 24.5 -61.5t65.5 -17.5v-84q-83 0 -126 49q-46 -49 -130 -49h-153v84h153q49 0 71 19t19 56v3l-11 123l76 7l11 -123v-6zM16 -145l61 62l62 -62l-62 -62zM189 -145l62 62l62 -62l-62 -62z" />
    <glyph glyph-name=".notdef" horiz-adv-x="300" 
d="M38 -14v528h224v-528h-224zM62 14h176v472h-176v-472z" />
    <glyph glyph-name=".null" 
 />
    <glyph glyph-name="nonmarkingreturn" horiz-adv-x="333" 
 />
    <glyph glyph-name="CR" unicode="&#xd;" horiz-adv-x="300" 
 />
    <glyph glyph-name="space" unicode=" " horiz-adv-x="256" 
 />
    <glyph glyph-name="exclam" unicode="!" horiz-adv-x="278" 
d="M104 175l-9 481h89l-9 -481h-71zM139 -28q-28 0 -47 19t-19 47q0 27 19 46t47 19q27 0 46 -19t19 -46q0 -28 -19 -47t-46 -19z" />
    <glyph glyph-name="quotedbl" unicode="&#x22;" horiz-adv-x="293" 
d="M38 486l-8 212h89l-9 -212h-72zM181 486l-8 212h90l-10 -212h-72z" />
    <glyph glyph-name="numbersign" unicode="#" horiz-adv-x="638" 
d="M574 399h-86l-22 -141h74v-76h-85l-25 -160l-89 1l25 159h-141l-25 -160l-89 1l25 159h-72v76h83l22 141h-71v77h83l25 159l89 -1l-25 -158h141l25 159l88 -1l-24 -158h74v-77zM377 258l22 141h-140l-22 -141h140z" />
    <glyph glyph-name="dollar" unicode="$" horiz-adv-x="559" 
d="M520 168q0 -79 -54 -126t-147 -52v-69h-78v72q-82 12 -128.5 59.5t-46.5 119.5v33h85v-28q0 -37 24 -64.5t66 -38.5l1 238q-83 35 -124.5 73t-41.5 108t44 114.5t121 55.5v84h78v-82q90 -8 143 -57.5t53 -128.5v-26h-86v21q0 43 -29.5 73.5t-81.5 38.5l-1 -219q1 0 3 -1
q38 -15 61 -25.5t53 -29t46 -37t28 -46t12 -60.5zM162 495q0 -33 18.5 -55t61.5 -42l-1 187q-79 -15 -79 -90zM319 66q56 4 85 30t29 69q0 36 -26.5 60.5t-88.5 53.5z" />
    <glyph glyph-name="percent" unicode="%" horiz-adv-x="776" 
d="M208 417q-59 0 -101 42t-42 103q0 60 42 102t101 42t100 -42t41 -102q0 -61 -41 -103t-100 -42zM167 -3l375 706h64l-374 -706h-65zM208 464q38 0 65 28.5t27 69.5q0 40 -27 68.5t-65 28.5q-39 0 -66.5 -28.5t-27.5 -68.5q0 -41 27 -69.5t67 -28.5zM569 -6q-59 0 -101 42
t-42 103q0 60 42 102t101 42t100 -42t41 -102t-41.5 -102.5t-99.5 -42.5zM569 41q38 0 65 28.5t27 69.5q0 40 -27 68.5t-65 28.5q-39 0 -66.5 -28.5t-27.5 -68.5q0 -41 27 -69.5t67 -28.5z" />
    <glyph glyph-name="ampersand" unicode="&#x26;" horiz-adv-x="655" 
d="M605 0h-101l-55 63q-88 -71 -195 -71q-85 0 -138.5 40t-53.5 116q0 66 36.5 111t101.5 86q-54 65 -71 99.5t-17 71.5q0 64 47 106t123 42q78 0 127 -42.5t49 -110.5q0 -60 -36.5 -103t-99.5 -83l28 -34q60 -72 104 -121q34 37 75 94l62 -36q-45 -68 -87 -114l21 -24
q12 -14 42 -47.5t38 -42.5zM284 589q-39 1 -62 -22.5t-23 -59.5q0 -19 13.5 -42t57.5 -77q50 33 75.5 60t25.5 61q0 35 -23.5 57.5t-63.5 22.5zM269 62q66 6 130 58q-16 19 -73 83q-9 10 -24.5 27t-27 29.5t-20.5 23.5q-49 -32 -76 -61t-29 -66q-3 -44 30.5 -71t89.5 -23z
" />
    <glyph glyph-name="quotesingle" unicode="'" horiz-adv-x="149" 
d="M38 486l-8 212h89l-9 -212h-72z" />
    <glyph glyph-name="parenleft" unicode="(" horiz-adv-x="346" 
d="M291 -158l-54 -60q-89 91 -138 211.5t-49 250.5q0 132 50 253.5t142 213.5l54 -60q-170 -168 -170 -407q0 -235 165 -402z" />
    <glyph glyph-name="parenright" unicode=")" horiz-adv-x="346" 
d="M55 -158q165 167 165 402q0 239 -170 407l54 60q92 -92 142 -213.5t50 -253.5q0 -130 -49 -250.5t-138 -211.5z" />
    <glyph glyph-name="asterisk" unicode="*" horiz-adv-x="502" 
d="M452 439l-139 -45l86 -119l-62 -44l-86 118l-86 -118l-62 44l86 119l-139 45l24 72l139 -45v147h76v-147l139 45z" />
    <glyph glyph-name="plus" unicode="+" horiz-adv-x="424" 
d="M390 336v-66h-145v-146h-67v146h-145v66h145v146h67v-146h145z" />
    <glyph glyph-name="comma" unicode="," horiz-adv-x="181" 
d="M37 -83l28 224h79l-48 -224h-59z" />
    <glyph glyph-name="hyphen" unicode="-" horiz-adv-x="317" 
d="M30 267v77h257v-77h-257z" />
    <glyph glyph-name="period" unicode="." horiz-adv-x="313" 
d="M156 -8q-28 0 -46.5 19.5t-18.5 47.5q0 27 18.5 45.5t46.5 18.5q27 0 46 -18.5t19 -45.5q0 -28 -19 -47.5t-46 -19.5z" />
    <glyph glyph-name="slash" unicode="/" horiz-adv-x="346" 
d="M19 2l190 657h89l-190 -657h-89z" />
    <glyph glyph-name="zero" unicode="0" horiz-adv-x="516" 
d="M436 231q0 -71 -49.5 -122t-118.5 -51t-118.5 51t-49.5 122t49 122t119 51t119 -51t49 -122zM365 231q0 39 -28.5 66.5t-68.5 27.5q-39 0 -68 -27.5t-29 -66.5t29 -66t68 -27q40 0 68.5 27t28.5 66z" />
    <glyph glyph-name="one" unicode="1" horiz-adv-x="310" 
d="M164 -4l-64 655l76 8l64 -655z" />
    <glyph glyph-name="two" unicode="2" horiz-adv-x="559" 
d="M478 494q7 -66 -41 -116t-117 -50h-34q-40 0 -79 21l33 -343l-76 -8l-64 656l76 8l17 -179q14 -71 82 -71h45q37 0 61 22t21 53l-17 166l76 9z" />
    <glyph glyph-name="three" unicode="3" horiz-adv-x="790" 
d="M709 490q6 -66 -42.5 -115t-115.5 -49h-10q-71 0 -118 57q-47 -57 -122 -57h-23q-40 0 -71 18l33 -340l-76 -8l-64 655l76 8l17 -171q5 -35 27 -56.5t55 -21.5h26q35 0 60 22.5t22 54.5l-14 141l76 8l14 -145q3 -37 25.5 -59t56.5 -22h10q35 0 60 22.5t22 54.5l-16 164
l76 8z" />
    <glyph glyph-name="four" unicode="4" horiz-adv-x="707" 
d="M625 410v-84h-351q-35 0 -67 16l32 -338l-76 -8l-46 479q0 1 -0.5 4t-0.5 5l-16 168l76 8l17 -175q11 -75 81 -75h26q-28 46 -28 99q0 77 53 130.5t129 52.5q15 0 36.5 -5t41.5 -12.5t38 -15l30 -12.5l11 -5l-33 -76q-3 1 -21 8.5t-35 14t-37 12.5t-31 7q-44 4 -75 -26
t-31 -73q0 -42 27.5 -70.5t67.5 -28.5h182z" />
    <glyph glyph-name="five" unicode="5" horiz-adv-x="744" 
d="M341 688q68 -75 103.5 -114.5t77 -89t58.5 -71.5t38 -55.5t26.5 -49t12 -44.5t7 -49.5t0.5 -56.5q0 -66 -44.5 -112t-109.5 -46h-11q-71 0 -116 55q-47 -55 -118 -55h-11q-65 0 -109.5 46t-44.5 112t4 98.5t29 82t66.5 99t128.5 146.5q-7 8 -21.5 24t-21.5 24zM510 84
q33 0 55.5 21.5t22.5 52.5q0 68 -11.5 105.5t-50.5 90.5t-144 171q-56 -62 -85.5 -95.5t-56.5 -69.5t-37 -53.5t-18 -45.5t-8.5 -46.5t-0.5 -56.5q0 -31 22 -52.5t56 -21.5h11q33 0 56 22t23 52v61h76v-57q3 -35 24.5 -56.5t54.5 -21.5h11z" />
    <glyph glyph-name="six" unicode="6" horiz-adv-x="609" 
d="M432 371l-4 -6l-263 -389l-62 48l180 266q-52 2 -97 32q-64 40 -79 116t29 140q12 17 44.5 43t59.5 43l26 17l38 -72q-87 -50 -106 -79q-25 -36 -17.5 -73.5t43.5 -62.5q34 -24 76 -18t67 39l100 148l62 -48z" />
    <glyph glyph-name="seven" unicode="7" horiz-adv-x="685" 
d="M534 659l71 -29l-227 -634h-72l-226 634l71 29l191 -537z" />
    <glyph glyph-name="eight" unicode="8" horiz-adv-x="685" 
d="M151 -7l-71 29l227 636h72l226 -636l-71 -29l-191 538z" />
    <glyph glyph-name="nine" unicode="9" horiz-adv-x="594" 
d="M514 4l-76 -8l-31 303h-125q-76 0 -129 53t-53 130t53 130.5t129 53.5q71 0 122.5 -51t59.5 -128zM282 381h116l-10 97q-5 46 -34.5 75.5t-71.5 29.5q-45 0 -75.5 -29.5t-30.5 -71.5t30.5 -71.5t75.5 -29.5z" />
    <glyph glyph-name="colon" unicode=":" horiz-adv-x="313" 
d="M156 268q-28 0 -46.5 19.5t-18.5 47.5q0 27 18.5 45.5t46.5 18.5q27 0 46 -18.5t19 -45.5q0 -28 -19 -47.5t-46 -19.5zM156 -8q-28 0 -46.5 19.5t-18.5 47.5q0 27 18.5 45.5t46.5 18.5q27 0 46 -18.5t19 -45.5q0 -28 -19 -47.5t-46 -19.5z" />
    <glyph glyph-name="semicolon" unicode=";" horiz-adv-x="323" 
d="M167 268q-28 0 -47 19.5t-19 47.5q0 27 19 45.5t47 18.5q27 0 46 -18.5t19 -45.5q0 -28 -19.5 -47.5t-45.5 -19.5zM100 -83l28 224h79l-48 -224h-59z" />
    <glyph glyph-name="equal" unicode="=" horiz-adv-x="406" 
d="M28 353v76h349v-76h-349zM28 185v76h349v-76h-349z" />
    <glyph glyph-name="question" unicode="?" horiz-adv-x="459" 
d="M186 184v45q0 26 6 46.5t21.5 39.5t23.5 26.5t29 25.5q2 2 12.5 11t13 11.5t11.5 11t11.5 13t8.5 13.5t8 16.5t4 17.5t2 21q0 43 -28 71.5t-71 28.5q-44 0 -73 -30t-29 -74v-31l-88 4v27q0 79 54.5 132t137.5 53q81 0 133.5 -50t52.5 -127q0 -30 -6.5 -54t-21.5 -44
t-24 -29t-29 -27q-3 -2 -11.5 -9.5t-12 -10.5t-11 -9.5t-10.5 -10.5t-8.5 -11t-8 -12.5t-5.5 -13t-4 -15.5t-1 -16v-40h-87zM232 -8q-28 0 -47 19.5t-19 47.5q0 27 19 45.5t47 18.5q27 0 46 -18.5t19 -45.5q0 -28 -19 -47.5t-46 -19.5z" />
    <glyph glyph-name="at" unicode="@" horiz-adv-x="798" 
d="M447 622q146 0 229.5 -98.5t65.5 -241.5q-11 -85 -57 -135.5t-116 -50.5q-72 0 -102 52q-33 -52 -111 -52q-46 0 -75 24t-35 64q-5 32 3 81q7 52 17 81q15 43 49.5 67t76.5 24q57 0 86 -35l5 33h60l-26 -197q-5 -37 10 -62t46 -25q36 0 60.5 33t33.5 93q18 126 -46.5 200
t-181.5 74q-121 0 -210.5 -78t-97.5 -218q-8 -124 54.5 -193t176.5 -69q49 0 91 11.5t62 28.5l39 -57q-30 -26 -85.5 -41t-112.5 -15q-138 0 -225 94.5t-76 246.5q11 164 123.5 262.5t268.5 98.5zM371 147q25 0 45 15t29 40q10 20 14 65t3 64q-2 24 -19 39t-43 15
q-53 0 -75 -46q-10 -22 -17 -75q-7 -48 -4 -62q3 -26 21 -40.5t46 -14.5z" />
    <glyph glyph-name="A" unicode="A" horiz-adv-x="582" 
d="M466 0l-49 155h-253l-48 -155h-95l213 660h113l214 -660h-95zM185 223h211l-106 336z" />
    <glyph glyph-name="B" unicode="B" horiz-adv-x="589" 
d="M415 342q109 -42 109 -160q0 -87 -57 -133.5t-150 -46.5h-242v658h235q98 0 152 -44.5t54 -130.5q0 -106 -101 -143zM164 583v-208h147q54 0 86 27.5t32 74.5q0 48 -32.5 77t-86.5 29h-146zM317 80q54 0 86 29.5t32 81.5q0 51 -32.5 80.5t-87.5 29.5h-151v-221h153z" />
    <glyph glyph-name="C" unicode="C" horiz-adv-x="600" 
d="M304 -12q-102 0 -168.5 59t-66.5 140v278q0 81 66.5 140.5t168.5 59.5q105 0 170 -59t65 -141v-18l-91 -5v32q-1 44 -40 79.5t-104 35.5q-62 0 -103 -36t-41 -79v-291q0 -43 41 -81t103 -38q65 0 104 34.5t40 77.5l1 30l90 -2v-17q0 -83 -62.5 -141t-172.5 -58z" />
    <glyph glyph-name="D" unicode="D" horiz-adv-x="590" 
d="M75 0v660h236q98 0 156.5 -51t58.5 -137v-285q0 -85 -58.5 -136t-156.5 -51h-236zM164 77h151q55 0 88 33.5t34 90.5v257q0 58 -33.5 91.5t-89.5 33.5h-150v-506z" />
    <glyph glyph-name="E" unicode="E" horiz-adv-x="569" 
d="M510 583h-346v-213h241v-76h-241v-217h346v-77h-435v660h435v-77z" />
    <glyph glyph-name="F" unicode="F" horiz-adv-x="518" 
d="M496 583h-332v-211h241v-77h-241v-295h-89v660h421v-77z" />
    <glyph glyph-name="G" unicode="G" horiz-adv-x="590" 
d="M298 -12q-102 0 -165.5 55.5t-63.5 140.5v265q0 97 63 156.5t166 59.5q101 0 164.5 -49t63.5 -125v-47h-89v39q0 47 -38.5 76t-100.5 29q-63 0 -101.5 -37.5t-38.5 -98.5v-252q0 -60 40 -97.5t103 -37.5q70 0 104 25.5t34 83.5v90h-141v72h228v-152q0 -90 -61 -143
t-167 -53z" />
    <glyph glyph-name="H" unicode="H" horiz-adv-x="624" 
d="M466 660h89v-660h-89v290h-297v-290h-90v660h90v-293h297v293z" />
    <glyph glyph-name="I" unicode="I" horiz-adv-x="238" 
d="M75 0v660h89v-660h-89z" />
    <glyph glyph-name="J" unicode="J" horiz-adv-x="568" 
d="M275 -14q-100 0 -160.5 55.5t-60.5 147.5v74h89v-75q0 -57 36 -91t96 -34q59 0 96 34.5t37 90.5v472h89v-471q0 -92 -61.5 -147.5t-160.5 -55.5z" />
    <glyph glyph-name="K" unicode="K" horiz-adv-x="585" 
d="M75 2v658h89v-320l279 320h101l-234 -279l249 -379h-101l-209 318l-85 -96v-222h-89z" />
    <glyph glyph-name="L" unicode="L" horiz-adv-x="524" 
d="M75 0v660h89v-583h338v-77h-427z" />
    <glyph glyph-name="M" unicode="M" horiz-adv-x="667" 
d="M505 660h88v-660h-89v544l-144 -263h-51l-145 259v-540h-89v660h88l171 -276z" />
    <glyph glyph-name="N" unicode="N" horiz-adv-x="627" 
d="M463 660h89v-658h-85l-304 497l1 -497h-89v658h86l303 -499z" />
    <glyph glyph-name="O" unicode="O" horiz-adv-x="608" 
d="M304 -12q-102 0 -168.5 59t-66.5 140v278q0 81 66.5 140.5t168.5 59.5q105 0 170 -59t65 -141v-278q0 -82 -65 -140.5t-170 -58.5zM304 64q64 0 103 37.5t39 81.5v291q0 44 -38.5 79.5t-103.5 35.5q-62 0 -102 -36t-40 -79v-291q0 -44 40 -81.5t102 -37.5z" />
    <glyph glyph-name="P" unicode="P" horiz-adv-x="552" 
d="M338 660q87 0 139.5 -52.5t52.5 -138.5q0 -85 -53.5 -136t-142.5 -51h-170v-282h-89v660h263zM325 353q52 0 84.5 31.5t32.5 82.5q0 52 -32 84t-85 32h-161v-230h161z" />
    <glyph glyph-name="Q" unicode="Q" horiz-adv-x="608" 
d="M539 465v-278q0 -69 -47 -122l46 -37l-52 -55l-55 44q-58 -29 -127 -29q-102 0 -168.5 59t-66.5 140v278q0 81 66.5 140.5t168.5 59.5q105 0 170 -59t65 -141zM351 177l72 -58q23 31 23 64v291q0 44 -38.5 79.5t-103.5 35.5q-62 0 -102 -36t-40 -79v-291q0 -44 40 -81.5
t102 -37.5q32 0 56 9l-61 49z" />
    <glyph glyph-name="R" unicode="R" horiz-adv-x="562" 
d="M530 469q0 -72 -39 -120t-107 -62l137 -287h-95l-129 282h-133v-282h-89v660h263q87 0 139.5 -52.5t52.5 -138.5zM164 583v-230h161q52 0 84.5 31.5t32.5 82.5q0 52 -32 84t-85 32h-161z" />
    <glyph glyph-name="S" unicode="S" horiz-adv-x="579" 
d="M294 -11q-109 0 -172.5 49.5t-63.5 133.5v33h87v-28q0 -50 42 -80.5t114 -30.5q64 0 97.5 27t33.5 72q0 42 -35 68.5t-126 64.5q-104 43 -137 68q-65 48 -65 127q0 80 58 126.5t156 46.5q105 0 168.5 -50.5t63.5 -136.5v-26h-87v21q0 51 -40 83t-109 32q-59 0 -91 -24.5
t-32 -69.5t34 -69.5t127 -59.5q39 -16 61.5 -26t53.5 -28.5t47.5 -37t29 -46t12.5 -60.5q0 -83 -61.5 -131t-165.5 -48z" />
    <glyph glyph-name="T" unicode="T" horiz-adv-x="525" 
d="M503 660v-77h-189v-583h-89v583h-203v77h481z" />
    <glyph glyph-name="U" unicode="U" horiz-adv-x="614" 
d="M307 -12q-103 0 -169 59t-66 140v473h93v-477q0 -44 39.5 -81.5t102.5 -37.5q64 0 103 37.5t39 81.5v477h93v-473q0 -82 -65 -140.5t-170 -58.5z" />
    <glyph glyph-name="V" unicode="V" horiz-adv-x="550" 
d="M437 660h92l-208 -660h-93l-207 660h95l161 -543z" />
    <glyph glyph-name="W" unicode="W" horiz-adv-x="966" 
d="M853 660h92l-208 -660h-93l-161 514l-162 -514h-93l-207 660h95l161 -543l160 543h95l161 -543z" />
    <glyph glyph-name="X" unicode="X" horiz-adv-x="556" 
d="M27 0l197 330l-197 330h96l155 -263l155 263h97l-196 -331l196 -329h-96l-155 261l-156 -261h-96z" />
    <glyph glyph-name="Y" unicode="Y" horiz-adv-x="535" 
d="M222 3v275l-201 382h96l150 -290l151 290h96l-203 -382v-275h-89z" />
    <glyph glyph-name="Z" unicode="Z" horiz-adv-x="498" 
d="M32 0v82l337 501h-337v77h435v-83l-338 -500h338v-77h-435z" />
    <glyph glyph-name="bracketleft" unicode="[" horiz-adv-x="264" 
d="M27 -127v860h181v-77h-92v-707h93v-76h-182z" />
    <glyph glyph-name="backslash" unicode="\" horiz-adv-x="346" 
d="M327 2h-89l-190 657h89z" />
    <glyph glyph-name="bracketright" unicode="]" horiz-adv-x="236" 
d="M209 733v-861h-181v77h92v707h-93v77h182z" />
    <glyph glyph-name="underscore" unicode="_" horiz-adv-x="389" 
d="M20 2v69h349v-69h-349z" />
    <glyph glyph-name="a" unicode="a" horiz-adv-x="528" 
d="M264 484q86 0 138 -43t52 -115v-326h-89v77q-32 -84 -147 -84q-69 0 -113 32.5t-44 98.5q0 68 50.5 106t142.5 38h111v45q0 45 -26 69.5t-75 24.5q-42 0 -68.5 -17.5t-30.5 -46.5l-89 11q5 57 57 93.5t131 36.5zM243 56q51 0 86.5 24.5t35.5 70.5v70h-93q-57 0 -89 -23
t-32 -64q0 -36 24 -57t68 -21z" />
    <glyph glyph-name="b" unicode="b" horiz-adv-x="524" 
d="M286 486q79 0 122 -40t43 -110v-192q0 -71 -43 -111.5t-121 -40.5q-81 0 -123 53v-45h-89v660h89v-227q42 53 122 53zM365 144v192q0 40 -28 63t-73 23t-72.5 -23t-27.5 -63v-192q0 -42 27.5 -64.5t73.5 -22.5q44 0 72 23t28 64z" />
    <glyph glyph-name="c" unicode="c" horiz-adv-x="524" 
d="M269 -6q-70 0 -121 36t-71 98q-14 45 -14 114q0 62 14 113q19 61 70.5 96t121.5 35q69 0 122 -35.5t69 -89.5q3 -8 5 -16t2.5 -14t0.5 -7l-88 -14q-3 19 -4 23q-8 34 -38 55t-70 21t-68.5 -21t-37.5 -58q-9 -28 -9 -89q0 -62 8 -89q10 -38 38 -59.5t69 -21.5t70.5 20
t37.5 56q2 8 2 16l88 -13q0 -13 -6 -30q-16 -58 -69 -92t-122 -34z" />
    <glyph glyph-name="d" unicode="d" horiz-adv-x="531" 
d="M367 660h89v-660h-89v54q-43 -62 -129 -62q-79 0 -121.5 40t-42.5 111v192q0 70 43 110.5t120 40.5q88 0 130 -62v236zM360 143v192q0 42 -27.5 64.5t-73.5 22.5q-44 0 -72 -23t-28 -64v-192q0 -40 28 -63.5t73 -23.5q44 0 72 23.5t28 63.5z" />
    <glyph glyph-name="e" unicode="e" horiz-adv-x="533" 
d="M466 205l-313 -1v-33q0 -45 33.5 -74t80.5 -29q41 0 73 21t39 54l78 -16q-11 -58 -64 -95.5t-126 -37.5q-78 0 -135.5 46t-57.5 128v143q0 77 55.5 127t136.5 50q85 0 142.5 -49.5t57.5 -127.5v-106zM266 413q-45 0 -79 -29.5t-34 -75.5v-39l230 1v38q0 47 -34 76t-83 29
z" />
    <glyph glyph-name="f" unicode="f" horiz-adv-x="331" 
d="M264 599q-44 -1 -60 -22.5t-16 -66.5v-90h115v-67h-115v-353h-89v353h-71v67h71v97q0 77 37 111t128 32h39v-61h-39z" />
    <glyph glyph-name="g" unicode="g" horiz-adv-x="523" 
d="M360 482h89v-463q0 -67 -24.5 -113t-67.5 -68t-93.5 -28.5t-110.5 -0.5l3 79q94 -13 149 18.5t55 110.5v28q-42 -53 -122 -53q-79 0 -121.5 40t-42.5 111v192q0 70 43 110.5t120 40.5q81 0 123 -53v49zM260 56q44 0 72 23.5t28 63.5v192q0 42 -27.5 64.5t-73.5 22.5
q-44 0 -72 -23t-28 -64v-192q0 -40 28 -63.5t73 -23.5z" />
    <glyph glyph-name="h" unicode="h" horiz-adv-x="524" 
d="M286 486q79 0 122 -40t43 -110v-336h-86v336q0 40 -28 63t-73 23t-72.5 -23t-27.5 -63v-336h-89v660h89v-227q42 53 122 53z" />
    <glyph glyph-name="i" unicode="i" horiz-adv-x="289" 
d="M146 553q-25 0 -43 18t-18 44q0 25 17.5 42t43.5 17q25 0 42.5 -17t17.5 -42q0 -26 -17.5 -44t-42.5 -18zM99 0v482h90v-482h-90z" />
    <glyph glyph-name="j" unicode="j" horiz-adv-x="290" 
d="M155 553q-25 0 -43 18t-18 44q0 25 17.5 42t43.5 17q25 0 42.5 -17t17.5 -42q0 -26 -17.5 -44t-42.5 -18zM-1 -202v75q58 -1 84.5 21t26.5 70l-1 518h89v-516q0 -94 -44 -131.5t-155 -36.5z" />
    <glyph glyph-name="k" unicode="k" horiz-adv-x="493" 
d="M75 2v658h89v-381l185 199h102l-131 -152l150 -324h-95l-117 268l-94 -106v-162h-89z" />
    <glyph glyph-name="l" unicode="l" horiz-adv-x="263" 
d="M164 77h77v-77h-166v660h89v-583z" />
    <glyph glyph-name="m" unicode="m" horiz-adv-x="810" 
d="M571 486q79 0 122 -39.5t43 -110.5v-336h-85v336q0 40 -28 63t-73 23t-73 -23t-28 -63v-336h-85v336q0 40 -28 63t-73 23t-72.5 -23t-27.5 -63v-336h-89v482h89v-49q42 53 122 53q111 0 149 -77q18 36 54.5 56.5t82.5 20.5z" />
    <glyph glyph-name="n" unicode="n" horiz-adv-x="523" 
d="M285 486q79 0 121.5 -40t42.5 -110v-336h-85v336q0 40 -28 63t-73 23t-72.5 -23t-27.5 -63v-336h-89v482h89v-49q42 53 122 53z" />
    <glyph glyph-name="o" unicode="o" horiz-adv-x="539" 
d="M270 -8q-86 0 -141 46.5t-55 116.5v170q0 68 56.5 114.5t139.5 46.5t139 -46t56 -115v-170q0 -71 -54.5 -117t-140.5 -46zM270 63q52 0 81 27t29 70v160q0 39 -31 67t-79 28t-79.5 -28t-31.5 -67v-160q0 -42 29.5 -69.5t81.5 -27.5z" />
    <glyph glyph-name="p" unicode="p" horiz-adv-x="524" 
d="M286 486q79 0 121.5 -40t42.5 -110v-192q0 -71 -43 -111.5t-120 -40.5q-81 0 -123 53v-247h-89v689h89v-54q42 53 122 53zM365 144v192q0 40 -28 63t-73 23t-72.5 -23t-27.5 -63v-192q0 -42 27.5 -64.5t73.5 -22.5q44 0 72 23t28 64z" />
    <glyph glyph-name="q" unicode="q" horiz-adv-x="525" 
d="M361 487h89v-689h-89v248q-43 -54 -123 -54q-79 0 -121.5 40t-42.5 111v192q0 70 43 110.5t120 40.5q82 0 124 -54v55zM360 143v192q0 42 -27.5 64.5t-73.5 22.5q-44 0 -72 -23t-28 -64v-192q0 -40 28 -63.5t73 -23.5q44 0 72 23.5t28 63.5z" />
    <glyph glyph-name="r" unicode="r" horiz-adv-x="368" 
d="M294 480q37 0 59 -15l-16 -84q-21 13 -61 9q-41 -2 -71.5 -33.5t-31.5 -79.5v-277h-89v482h89v-99q42 97 121 97z" />
    <glyph glyph-name="s" unicode="s" horiz-adv-x="508" 
d="M255 -4q-83 0 -135 39.5t-52 101.5v12h82v-14q0 -31 29.5 -51.5t74.5 -20.5q43 0 70 19.5t27 50.5q0 25 -21 39t-72 28t-73 23q-56 21 -86.5 48t-30.5 75q0 63 50 101t132 38t133 -39t51 -102v-9h-83v9q0 31 -28 51t-72 20q-43 0 -70 -18.5t-27 -48.5q0 -15 7.5 -26
t25 -19t33 -13t44 -13t44.5 -13q64 -20 98.5 -48.5t34.5 -80.5q0 -64 -51 -101.5t-135 -37.5z" />
    <glyph glyph-name="t" unicode="t" horiz-adv-x="335" 
d="M302 405h-115v-254q0 -39 17.5 -57.5t56.5 -18.5h36v-75q-38 -2 -53 -2q-74 0 -108 26.5t-34 93.5v287h-71v67h71v130h85v-130h115v-67z" />
    <glyph glyph-name="u" unicode="u" horiz-adv-x="523" 
d="M360 482h89v-482h-89v49q-42 -53 -122 -53q-79 0 -121.5 40t-42.5 111v335h85v-335q0 -40 28 -63.5t73 -23.5q44 0 72 23.5t28 63.5v335z" />
    <glyph glyph-name="v" unicode="v" horiz-adv-x="466" 
d="M185 0l-159 482h97l110 -381l110 381h96l-158 -482h-96z" />
    <glyph glyph-name="w" unicode="w" horiz-adv-x="766" 
d="M644 482h96l-158 -482h-86l-113 355l-113 -355h-86l-158 482h96l111 -381l110 381h81l110 -381z" />
    <glyph glyph-name="x" unicode="x" horiz-adv-x="479" 
d="M26 0l162 241l-162 241h96l115 -173l115 173h101l-161 -241l161 -241h-96l-115 173l-114 -173h-102z" />
    <glyph glyph-name="y" unicode="y" horiz-adv-x="467" 
d="M53 -201v75h10q57 1 81.5 22.5t43.5 90.5l-162 481h95l113 -372l112 372h94l-174 -513q-33 -94 -71 -125t-131 -31h-11z" />
    <glyph glyph-name="z" unicode="z" horiz-adv-x="474" 
d="M55 0v83l257 319h-252v80h356v-83l-262 -318h263v-81h-362z" />
    <glyph glyph-name="braceleft" unicode="{" horiz-adv-x="321" 
d="M191 -127q-102 0 -102 108v201q0 84 -59 88v72q59 4 59 86v196q0 109 102 109h75v-77h-36q-51 0 -51 -68v-170q0 -93 -56 -112q56 -19 56 -113v-175q0 -33 13.5 -51t37.5 -18h36v-76h-75z" />
    <glyph glyph-name="bar" unicode="|" horiz-adv-x="281" 
d="M100 -106v806h81v-806h-81z" />
    <glyph glyph-name="braceright" unicode="}" horiz-adv-x="322" 
d="M131 -127h-76v76h37q24 0 37.5 18t13.5 51v175q0 94 55 113q-55 18 -55 112v170q0 68 -51 68h-37v77h76q101 0 101 -109v-196q0 -82 59 -86v-72q-59 -4 -59 -88v-201q0 -108 -101 -108z" />
    <glyph glyph-name="uni00A0" unicode="&#xa0;" horiz-adv-x="256" 
 />
    <glyph glyph-name="guillemotleft" unicode="&#xab;" horiz-adv-x="459" 
d="M213 429q-63 -58 -63 -147q0 -83 58 -144l-48 -46q-77 80 -77 190q0 116 84 197zM371 429q-63 -58 -63 -147q0 -83 59 -144l-49 -46q-77 80 -77 190q0 117 85 197z" />
    <glyph glyph-name="guillemotright" unicode="&#xbb;" horiz-adv-x="462" 
d="M88 429l45 50q85 -80 85 -197q0 -110 -77 -190l-49 46q59 61 59 144q0 89 -63 147zM249 429l45 50q85 -80 85 -197q0 -110 -77 -190l-49 46q59 61 59 144q0 89 -63 147z" />
    <glyph glyph-name="multiply" unicode="&#xd7;" horiz-adv-x="420" 
d="M360 405l-103 -103l103 -102l-47 -48l-103 103l-103 -103l-47 48l103 102l-103 103l47 47l103 -103l103 103z" />
    <glyph glyph-name="divide" unicode="&#xf7;" horiz-adv-x="406" 
d="M201 392q-25 0 -42 17t-17 42q0 24 17 40.5t42 16.5q23 0 40 -16.5t17 -40.5q0 -25 -17 -42t-40 -17zM28 270v75h349v-75h-349zM201 93q-25 0 -42 17t-17 42q0 24 17 40.5t42 16.5q23 0 40 -17t17 -40q0 -25 -17 -42t-40 -17z" />
    <glyph glyph-name="uni060C" unicode="&#x60c;" horiz-adv-x="296" 
d="M162 125q22 -5 36.5 -23t14.5 -41q0 -28 -19 -47t-46 -19q-28 0 -47 19t-19 47q0 15 6 27l75 178l44 -19z" />
    <glyph glyph-name="uni061B" unicode="&#x61b;" horiz-adv-x="296" 
d="M149 271q-28 0 -47 19t-19 47q0 14 7 30l74 175l43 -19l-45 -122q22 -5 37 -23t15 -41q0 -27 -19 -46.5t-46 -19.5zM149 123q27 0 46 -18.5t19 -45.5q0 -28 -19.5 -47.5t-45.5 -19.5q-28 0 -47 19.5t-19 47.5q0 27 19 45.5t47 18.5z" />
    <glyph glyph-name="uni061F" unicode="&#x61f;" horiz-adv-x="523" 
d="M302 166h-76v51q0 23 -8.5 40.5t-17.5 26.5t-35 31q-34 28 -50 45t-29.5 46.5t-13.5 67.5q0 80 55 136t134 56t134 -57t55 -137v-40h-76v40q0 45 -33 77t-80 32t-80 -31.5t-33 -75.5q0 -26 13 -49t23.5 -32.5t36.5 -30.5q35 -27 48 -40t23 -38.5t10 -66.5v-51zM264 -30
q-28 0 -47 19t-19 47q0 27 19 45.5t47 18.5q27 0 46 -18.5t19 -45.5q0 -28 -19.5 -47t-45.5 -19z" />
    <glyph glyph-name="uni0640" unicode="&#x640;" horiz-adv-x="300" 
d="M-5 0v84h310v-84h-310z" />
    <glyph glyph-name="uni064B" unicode="&#x64b;" 
d="M9 527l-9 43l229 55l10 -44zM9 414l-9 44l229 55l10 -44z" />
    <glyph glyph-name="uni064C" unicode="&#x64c;" 
d="M329 676q8 -44 -17.5 -77.5t-78.5 -47.5l-200 -49l-9 40l8 2q22 8 34 25.5t9 37.5q-2 25 -21.5 40.5t-46.5 11.5l-7 36q44 7 75 -17.5t35 -63.5q3 -25 -9 -52l57 16l-17 68q-10 38 7.5 67t56.5 38q45 10 81 -12t43 -63zM223 595q36 9 54 28t14 44q-4 24 -25.5 36.5
t-50.5 5.5q-48 -9 -35 -54l17 -67z" />
    <glyph glyph-name="uni064D" unicode="&#x64d;" 
d="M9 -347l-9 44l229 54l10 -44zM9 -460l-9 44l229 55l10 -44z" />
    <glyph glyph-name="uni064E" unicode="&#x64e;" 
d="M9 502l-9 44l229 55l10 -44z" />
    <glyph glyph-name="uni064F" unicode="&#x64f;" 
d="M288 667q8 -43 -19 -77t-79 -47l-181 -43l-9 44l108 25l-18 63q-10 38 10 70t60 40q45 10 83 -12t45 -63zM180 586q35 9 52.5 28t12.5 44q-4 24 -25.5 37t-49.5 6q-23 -5 -34 -22t-4 -38l17 -62z" />
    <glyph glyph-name="uni0650" unicode="&#x650;" 
d="M9 -355l-9 44l229 54l10 -43z" />
    <glyph glyph-name="uni0651" unicode="&#x651;" 
d="M3 595l12 49l35 -10l-10 -45q-10 -43 36 -43q18 0 27 8t9 20l1 60h34l2 -60q0 -12 9 -20t27 -8q23 0 32.5 11.5t4.5 29.5l-17 66l36 10l19 -68q11 -39 -11 -67t-64 -28q-37 0 -55 25q-18 -25 -54 -25q-40 0 -62 28t-11 67z" />
    <glyph glyph-name="uni0652" unicode="&#x652;" 
d="M112 500q-46 0 -79 33t-33 80q0 46 33 79t79 33q45 0 77.5 -33t32.5 -79q0 -47 -32 -80t-78 -33zM112 543q28 0 49 20.5t21 49.5q0 28 -21 48.5t-49 20.5q-29 0 -50 -20.5t-21 -48.5q0 -29 20.5 -49.5t50.5 -20.5z" />
    <glyph glyph-name="uni0653" unicode="&#x653;" 
d="M0 585v17q0 43 28.5 65.5t72.5 14.5l101 -19q25 -4 39 5.5t14 30.5v6l41 3v-17q0 -43 -28.5 -65.5t-72.5 -14.5l-101 19q-25 4 -39 -5.5t-14 -30.5v-6z" />
    <glyph glyph-name="uni0654" unicode="&#x654;" 
d="M273 560l-102 -24h-2l-160 -38l-9 43l83 20q-21 21 -27 50q-11 45 16.5 81.5t72.5 38.5q12 1 32.5 -1.5t34.5 -5.5l15 -3l-8 -43q-7 1 -17.5 3t-33 4.5t-31.5 0.5q-23 -5 -35.5 -24t-7.5 -42q5 -22 25 -33.5t43 -6.5l101 24z" />
    <glyph glyph-name="uni0655" unicode="&#x655;" 
d="M271 -330l-101 -24q-1 0 -2.5 -0.5t-2.5 -0.5l-157 -37l-9 43l83 20q-21 21 -27 50q-11 45 16.5 81.5t72.5 38.5q12 1 32.5 -1.5t35.5 -5.5l14 -3l-8 -43q-7 1 -17.5 3t-33 4.5t-31.5 0.5q-23 -5 -35.5 -24t-7.5 -42q5 -22 25 -33.5t43 -6.5l101 24z" />
    <glyph glyph-name="uni0656" unicode="&#x656;" 
d="M1 -400v163h39v-163h-39z" />
    <glyph glyph-name="uni0660" unicode="&#x660;" horiz-adv-x="516" 
d="M436 231q0 -71 -49.5 -122t-118.5 -51t-118.5 51t-49.5 122t49 122t119 51t119 -51t49 -122zM365 231q0 39 -28.5 66.5t-68.5 27.5q-39 0 -68 -27.5t-29 -66.5t29 -66t68 -27q40 0 68.5 27t28.5 66z" />
    <glyph glyph-name="uni0661" unicode="&#x661;" horiz-adv-x="310" 
d="M164 -4l-64 655l76 8l64 -655z" />
    <glyph glyph-name="uni0662" unicode="&#x662;" horiz-adv-x="559" 
d="M478 494q7 -66 -41 -116t-117 -50h-34q-40 0 -79 21l33 -343l-76 -8l-64 656l76 8l17 -179q14 -71 82 -71h45q37 0 61 22t21 53l-17 166l76 9z" />
    <glyph glyph-name="uni0663" unicode="&#x663;" horiz-adv-x="790" 
d="M709 490q6 -66 -42.5 -115t-115.5 -49h-10q-71 0 -118 57q-47 -57 -122 -57h-23q-40 0 -71 18l33 -340l-76 -8l-64 655l76 8l17 -171q5 -35 27 -56.5t55 -21.5h26q35 0 60 22.5t22 54.5l-14 141l76 8l14 -145q3 -37 25.5 -59t56.5 -22h10q35 0 60 22.5t22 54.5l-16 164
l76 8z" />
    <glyph glyph-name="uni0664" unicode="&#x664;" horiz-adv-x="707" 
d="M625 410v-84h-351q-35 0 -67 16l32 -338l-76 -8l-46 479q0 1 -0.5 4t-0.5 5l-16 168l76 8l17 -175q11 -75 81 -75h26q-28 46 -28 99q0 77 53 130.5t129 52.5q15 0 36.5 -5t41.5 -12.5t38 -15l30 -12.5l11 -5l-33 -76q-3 1 -21 8.5t-35 14t-37 12.5t-31 7q-44 4 -75 -26
t-31 -73q0 -42 27.5 -70.5t67.5 -28.5h182z" />
    <glyph glyph-name="uni0665" unicode="&#x665;" horiz-adv-x="744" 
d="M341 688q68 -75 103.5 -114.5t77 -89t58.5 -71.5t38 -55.5t26.5 -49t12 -44.5t7 -49.5t0.5 -56.5q0 -66 -44.5 -112t-109.5 -46h-11q-71 0 -116 55q-47 -55 -118 -55h-11q-65 0 -109.5 46t-44.5 112t4 98.5t29 82t66.5 99t128.5 146.5q-7 8 -21.5 24t-21.5 24zM510 84
q33 0 55.5 21.5t22.5 52.5q0 68 -11.5 105.5t-50.5 90.5t-144 171q-56 -62 -85.5 -95.5t-56.5 -69.5t-37 -53.5t-18 -45.5t-8.5 -46.5t-0.5 -56.5q0 -31 22 -52.5t56 -21.5h11q33 0 56 22t23 52v61h76v-57q3 -35 24.5 -56.5t54.5 -21.5h11z" />
    <glyph glyph-name="uni0666" unicode="&#x666;" horiz-adv-x="609" 
d="M432 371l-4 -6l-263 -389l-62 48l180 266q-52 2 -97 32q-64 40 -79 116t29 140q12 17 44.5 43t59.5 43l26 17l38 -72q-87 -50 -106 -79q-25 -36 -17.5 -73.5t43.5 -62.5q34 -24 76 -18t67 39l100 148l62 -48z" />
    <glyph glyph-name="uni0667" unicode="&#x667;" horiz-adv-x="685" 
d="M534 659l71 -29l-227 -634h-72l-226 634l71 29l191 -537z" />
    <glyph glyph-name="uni0668" unicode="&#x668;" horiz-adv-x="685" 
d="M151 -7l-71 29l227 636h72l226 -636l-71 -29l-191 538z" />
    <glyph glyph-name="uni0669" unicode="&#x669;" horiz-adv-x="594" 
d="M514 4l-76 -8l-31 303h-125q-76 0 -129 53t-53 130t53 130.5t129 53.5q71 0 122.5 -51t59.5 -128zM282 381h116l-10 97q-5 46 -34.5 75.5t-71.5 29.5q-45 0 -75.5 -29.5t-30.5 -71.5t30.5 -71.5t75.5 -29.5z" />
    <glyph glyph-name="uni066A" unicode="&#x66a;" horiz-adv-x="435" 
d="M79 2l189 657h89l-189 -657h-89zM84 528q-28 0 -47 19t-19 47q0 27 19 45.5t47 18.5q27 0 46 -18.5t19 -45.5q0 -28 -19.5 -47t-45.5 -19zM352 1q-28 0 -47 19.5t-19 47.5q0 27 19 45.5t47 18.5q27 0 46 -18.5t19 -45.5q0 -28 -19 -47.5t-46 -19.5z" />
    <glyph glyph-name="uni066B" unicode="&#x66b;" horiz-adv-x="370" 
d="M94 -96l-54 23l216 536l54 -23z" />
    <glyph glyph-name="uni066C" unicode="&#x66c;" horiz-adv-x="280" 
d="M126 -126l-56 20l84 238l56 -20z" />
    <glyph glyph-name="uni066D" unicode="&#x66d;" horiz-adv-x="502" 
d="M452 439l-139 -45l86 -119l-62 -44l-86 118l-86 -118l-62 44l86 119l-139 45l24 72l139 -45v147h76v-147l139 45z" />
    <glyph glyph-name="uni066E" unicode="&#x66e;" horiz-adv-x="918" 
d="M460 0v84q112 0 173 3t77.5 6t34.5 11q35 15 44.5 41t-4.5 77l-38 139l74 21l38 -139q20 -76 -1.5 -133.5t-82.5 -82.5q-36 -17 -91 -22t-224 -5zM459 0q-168 0 -223.5 5t-92.5 22q-60 26 -81.5 81.5t-2.5 130.5l37 141l73 -22l-37 -144q-11 -44 -1.5 -69.5t42.5 -40.5
q18 -7 36 -10.5t79 -6.5t171 -3v-84z" />
    <glyph glyph-name="uni066F" unicode="&#x66f;" horiz-adv-x="689" 
d="M380 -236q-98 -23 -173 2.5t-113 89.5t-43 159.5t37 212.5l72 -29q-66 -188 -8.5 -288t211.5 -64q112 24 157.5 52t40.5 86l-4 34q-63 -12 -128 -12q-69 0 -115 43.5t-51 114.5q-7 80 39.5 144.5t124.5 68.5q77 4 129.5 -53t62.5 -152l17 -161q12 -114 -44.5 -164
t-211.5 -84zM429 91q60 0 122 13l-6 58q-7 64 -37.5 99t-76.5 33t-71 -39t-22 -84q3 -37 27 -58.5t64 -21.5z" />
    <glyph glyph-name="uni0670" unicode="&#x670;" 
d="M1 500v163h39v-163h-39z" />
    <glyph glyph-name="uni06A1" unicode="&#x6a1;" horiz-adv-x="922" 
d="M869 180q9 -100 -33 -140t-180 -40h-202q-165 0 -219.5 5t-91.5 22q-60 26 -81.5 81.5t-2.5 130.5l37 141l73 -22l-37 -144q-11 -44 -1.5 -69.5t42.5 -40.5q18 -7 36 -10.5t79 -6.5t171 -3h199q96 0 120 15.5t19 68.5q-59 -9 -126 -9q-71 0 -114.5 40.5t-45.5 110.5
q-3 80 38.5 140t119.5 65q77 5 129 -50t59 -148zM580 317q3 -37 27 -58.5t64 -21.5q59 0 119 10l-6 63q-8 62 -37.5 96t-74.5 32q-46 -2 -70.5 -38t-21.5 -83z" />
    <glyph glyph-name="uni06BA" unicode="&#x6ba;" horiz-adv-x="672" 
d="M380 -236q-98 -23 -173 2.5t-113 89.5t-43 159.5t37 212.5l72 -29q-66 -188 -8.5 -288t211.5 -64q103 24 134 42q59 35 47 121l-40 274l75 13q34 -229 40 -275q7 -51 -2 -91t-28 -66t-54.5 -46t-70 -31.5t-84.5 -23.5z" />
    <glyph glyph-name="uni06F0" unicode="&#x6f0;" horiz-adv-x="516" 
d="M436 231q0 -71 -49.5 -122t-118.5 -51t-118.5 51t-49.5 122t49 122t119 51t119 -51t49 -122zM365 231q0 39 -28.5 66.5t-68.5 27.5q-39 0 -68 -27.5t-29 -66.5t29 -66t68 -27q40 0 68.5 27t28.5 66z" />
    <glyph glyph-name="uni06F1" unicode="&#x6f1;" horiz-adv-x="310" 
d="M164 -4l-64 655l76 8l64 -655z" />
    <glyph glyph-name="uni06F2" unicode="&#x6f2;" horiz-adv-x="559" 
d="M478 494q7 -66 -41 -116t-117 -50h-34q-40 0 -79 21l33 -343l-76 -8l-64 656l76 8l17 -179q14 -71 82 -71h45q37 0 61 22t21 53l-17 166l76 9z" />
    <glyph glyph-name="uni06F3" unicode="&#x6f3;" horiz-adv-x="790" 
d="M709 490q6 -66 -42.5 -115t-115.5 -49h-10q-71 0 -118 57q-47 -57 -122 -57h-23q-40 0 -71 18l33 -340l-76 -8l-64 655l76 8l17 -171q5 -35 27 -56.5t55 -21.5h26q35 0 60 22.5t22 54.5l-14 141l76 8l14 -145q3 -37 25.5 -59t56.5 -22h10q35 0 60 22.5t22 54.5l-16 164
l76 8z" />
    <glyph glyph-name="uni06F4" unicode="&#x6f4;" horiz-adv-x="707" 
d="M625 410v-84h-351q-35 0 -67 16l32 -338l-76 -8l-46 479q0 1 -0.5 4t-0.5 5l-16 168l76 8l17 -175q11 -75 81 -75h26q-28 46 -28 99q0 77 53 130.5t129 52.5q15 0 36.5 -5t41.5 -12.5t38 -15l30 -12.5l11 -5l-33 -76q-3 1 -21 8.5t-35 14t-37 12.5t-31 7q-44 4 -75 -26
t-31 -73q0 -42 27.5 -70.5t67.5 -28.5h182z" />
    <glyph glyph-name="uni06F5" unicode="&#x6f5;" horiz-adv-x="744" 
d="M341 688q68 -75 103.5 -114.5t77 -89t58.5 -71.5t38 -55.5t26.5 -49t12 -44.5t7 -49.5t0.5 -56.5q0 -66 -44.5 -112t-109.5 -46h-11q-71 0 -116 55q-47 -55 -118 -55h-11q-65 0 -109.5 46t-44.5 112t4 98.5t29 82t66.5 99t128.5 146.5q-7 8 -21.5 24t-21.5 24zM510 84
q33 0 55.5 21.5t22.5 52.5q0 68 -11.5 105.5t-50.5 90.5t-144 171q-56 -62 -85.5 -95.5t-56.5 -69.5t-37 -53.5t-18 -45.5t-8.5 -46.5t-0.5 -56.5q0 -31 22 -52.5t56 -21.5h11q33 0 56 22t23 52v61h76v-57q3 -35 24.5 -56.5t54.5 -21.5h11z" />
    <glyph glyph-name="uni06F6" unicode="&#x6f6;" horiz-adv-x="609" 
d="M432 371l-4 -6l-263 -389l-62 48l180 266q-52 2 -97 32q-64 40 -79 116t29 140q12 17 44.5 43t59.5 43l26 17l38 -72q-87 -50 -106 -79q-25 -36 -17.5 -73.5t43.5 -62.5q34 -24 76 -18t67 39l100 148l62 -48z" />
    <glyph glyph-name="uni06F7" unicode="&#x6f7;" horiz-adv-x="685" 
d="M534 659l71 -29l-227 -634h-72l-226 634l71 29l191 -537z" />
    <glyph glyph-name="uni06F8" unicode="&#x6f8;" horiz-adv-x="685" 
d="M151 -7l-71 29l227 636h72l226 -636l-71 -29l-191 538z" />
    <glyph glyph-name="uni06F9" unicode="&#x6f9;" horiz-adv-x="594" 
d="M514 4l-76 -8l-31 303h-125q-76 0 -129 53t-53 130t53 130.5t129 53.5q71 0 122.5 -51t59.5 -128zM282 381h116l-10 97q-5 46 -34.5 75.5t-71.5 29.5q-45 0 -75.5 -29.5t-30.5 -71.5t30.5 -71.5t75.5 -29.5z" />
    <glyph glyph-name="uni2009" unicode="&#x2009;" horiz-adv-x="150" 
 />
    <glyph glyph-name="uni200A" unicode="&#x200a;" horiz-adv-x="75" 
 />
    <glyph glyph-name="uni200B" unicode="&#x200b;" 
 />
    <glyph glyph-name="uni200C" unicode="&#x200c;" 
 />
    <glyph glyph-name="uni200D" unicode="&#x200d;" 
 />
    <glyph glyph-name="uni200E" unicode="&#x200e;" horiz-adv-x="433" 
 />
    <glyph glyph-name="uni200F" unicode="&#x200f;" horiz-adv-x="433" 
 />
    <glyph glyph-name="quoteleft" unicode="&#x2018;" horiz-adv-x="182" 
d="M144 783l-27 -224h-80l48 224h59z" />
    <glyph glyph-name="quoteright" unicode="&#x2019;" horiz-adv-x="181" 
d="M37 560l28 224h79l-48 -224h-59z" />
    <glyph glyph-name="quotedblleft" unicode="&#x201c;" horiz-adv-x="363" 
d="M144 783l-27 -224h-80l48 224h59zM325 783l-27 -224h-80l48 224h59z" />
    <glyph glyph-name="quotedblright" unicode="&#x201d;" horiz-adv-x="363" 
d="M37 560l28 224h79l-48 -224h-59zM218 560l28 224h79l-48 -224h-59z" />
    <glyph glyph-name="quotedblbase" unicode="&#x201e;" horiz-adv-x="363" 
d="M37 -83l28 224h79l-48 -224h-59zM218 -83l28 224h79l-48 -224h-59z" />
    <glyph glyph-name="guilsinglleft" unicode="&#x2039;" horiz-adv-x="314" 
d="M221 429q-63 -60 -63 -147q0 -83 59 -144l-49 -46q-77 80 -77 190q0 115 85 197z" />
    <glyph glyph-name="guilsinglright" unicode="&#x203a;" horiz-adv-x="314" 
d="M93 429l45 50q85 -82 85 -197q0 -110 -77 -190l-49 46q59 61 59 144q0 87 -63 147z" />
    <glyph glyph-name="minus" unicode="&#x2212;" horiz-adv-x="406" 
d="M28 270v75h349v-75h-349z" />
    <glyph glyph-name="notequal" unicode="&#x2260;" horiz-adv-x="406" 
d="M377 353h-105l-38 -92h143v-76h-175l-34 -81h-79l34 81h-95v76h127l39 92h-166v76h198l31 73h78l-31 -73h73v-76z" />
    <glyph glyph-name="dotabove-ar" unicode="&#xfbb2;" 
d="M70 341l-69 69l69 70l70 -70z" />
    <glyph glyph-name="dotbelow-ar" unicode="&#xfbb3;" 
d="M70 -191l-69 69l69 70l70 -70z" />
    <glyph glyph-name="twodotshorizontalabove-ar" unicode="&#xfbb4;" 
d="M63 440l-62 62l62 62l62 -62zM236 440l-61 62l61 62l62 -62z" />
    <glyph glyph-name="twodotshorizontalbelow-ar" unicode="&#xfbb5;" 
d="M63 -133l-62 62l62 62l62 -62zM236 -133l-61 62l61 62l62 -62z" />
    <glyph glyph-name="threedotsupabove-ar" unicode="&#xfbb6;" 
d="M150 570l-54 54l54 53l53 -53zM63 440l-62 62l62 62l62 -62zM236 440l-62 62l62 62l62 -62z" />
    <glyph glyph-name="threedotsdownbelow-ar" unicode="&#xfbb9;" 
d="M63 -196l-62 62l62 62l62 -62zM236 -196l-62 62l62 62l62 -62zM150 -309l-54 54l54 53l53 -53z" />
    <glyph glyph-name="uniFD3E" unicode="&#xfd3e;" horiz-adv-x="346" 
d="M291 -158l-54 -60q-89 91 -138 211.5t-49 250.5q0 132 50 253.5t142 213.5l54 -60q-170 -168 -170 -407q0 -235 165 -402z" />
    <glyph glyph-name="uniFD3F" unicode="&#xfd3f;" horiz-adv-x="346" 
d="M55 -158q165 167 165 402q0 239 -170 407l54 60q92 -92 142 -213.5t50 -253.5q0 -130 -49 -250.5t-138 -211.5z" />
    <glyph glyph-name="uniFEFF" unicode="&#xfeff;" 
 />
    <glyph glyph-name="b.bowl" horiz-adv-x="319" 
d="M155 -8q-69 0 -112 41t-43 111v192q0 68 43 109t111 41q79 0 122 -40t43 -110v-192q0 -71 -43 -111.5t-121 -40.5zM133 57q44 0 72 23t28 64v192q0 40 -28 63t-73 23t-72.5 -23t-27.5 -63v-192q0 -42 27.5 -64.5t73.5 -22.5z" />
    <glyph glyph-name="d.bowl" horiz-adv-x="319" 
d="M164 486q69 0 112 -41t43 -110v-192q0 -69 -43 -110t-111 -41q-79 0 -122 40t-43 111v192q0 70 43 110.5t121 40.5zM186 422q-44 0 -72 -23t-28 -64v-192q0 -40 28 -63.5t72 -23.5q45 0 73 23t28 64v192q0 42 -27.5 64.5t-73.5 22.5z" />
    <glyph glyph-name="n.curve" horiz-adv-x="319" 
d="M233 0v336q0 40 -28 63t-73 23t-72.5 -23t-27.5 -63v-57h-32v57q0 68 43 109t111 41q79 0 122 -40t43 -110v-336h-86z" />
    <glyph glyph-name="uni0627.001" horiz-adv-x="157" 
d="M50 97l-22 561l76 4l20 -524z" />
    <glyph glyph-name="uni0627.002" horiz-adv-x="295" 
d="M129 -3l-21 559l76 4l21 -559z" />
    <glyph glyph-name="uniFE8E.001" horiz-adv-x="280" 
d="M275 0q-95 0 -133 43.5t-43 154.5l-14 358l76 4l14 -362q3 -73 20.5 -93.5t79.5 -20.5h10v-84h-10z" />
    <glyph glyph-name="uniFE8E.002" horiz-adv-x="318" 
d="M128 140l-78 470l74 15l79 -470zM94 0v84h229v-84h-229z" />
    <glyph glyph-name="uni066E.001" horiz-adv-x="458" 
d="M0 0v84q112 0 173 3t77.5 6t34.5 11q35 15 44.5 41t-4.5 77l-38 139l74 21l38 -139q20 -76 -1.5 -133.5t-82.5 -82.5q-36 -17 -91 -22t-224 -5z" />
    <glyph glyph-name="uni066E.fina.001" horiz-adv-x="459" 
d="M459 0q-168 0 -223.5 5t-92.5 22q-60 26 -81.5 81.5t-2.5 130.5l37 141l73 -22l-37 -144q-11 -44 -1.5 -69.5t42.5 -40.5q18 -7 36 -10.5t79 -6.5t171 -3v-84z" />
    <glyph glyph-name="uni066E.fina.001.003" horiz-adv-x="460" 
d="M217 0q-82 2 -127.5 47.5t-38.5 121.5l11 123l76 -7l-11 -123q-4 -39 18 -58t72 -20h243v-84h-243z" />
    <glyph glyph-name="uni066E.fina.002" horiz-adv-x="492" 
d="M407 167q4 -45 24 -64t66 -19v-84q-84 0 -126 49q-46 -49 -130 -49h-241v84h241q49 0 71 19t19 56v3l-11 123l76 7l11 -123v-2z" />
    <glyph glyph-name="uni066E.medi.001" horiz-adv-x="399" 
d="M314 163q5 -44 24.5 -61.5t65.5 -17.5v-84q-83 0 -126 49q-46 -49 -130 -49h-153v84h153q49 0 71 19t19 56v3l-11 123l76 7l11 -123v-6z" />
    <glyph glyph-name="uni066E.init.001" horiz-adv-x="376" 
d="M-5 0v84h146q136 0 101 128l-39 149l73 21l41 -153q29 -107 -26 -168t-150 -61h-146z" />
    <glyph glyph-name="uni066E.init.002" horiz-adv-x="309" 
d="M136 361l74 21l40 -149q29 -110 -25 -171.5t-151 -61.5h-79v84h79q136 0 102 128z" />
    <glyph glyph-name="uniFE92.alt" horiz-adv-x="309" 
d="M224 167q4 -45 24 -64t66 -19v-84q-84 0 -126 49q-46 -49 -130 -49h-63v84h63q49 0 71 19t19 56v3l-11 123l76 7l11 -123v-2zM-1 -141l69 70l69 -70l-69 -69z" />
    <glyph glyph-name="uniFE91.alt" horiz-adv-x="331" 
d="M271 233q30 -110 -24 -171.5t-151 -61.5h-101v84h101q136 0 102 128l-40 149l73 21zM47 -141l69 69l70 -70l-70 -69z" />
    <glyph glyph-name="uniFB59.alt" horiz-adv-x="399" 
d="M314 163q5 -44 24.5 -61.5t65.5 -17.5v-84q-83 0 -126 49q-46 -49 -130 -49h-153v84h153q49 0 71 19t19 56v3l-11 123l76 7l11 -123v-6zM10 -78l62 -62l-62 -62l-62 62zM121 -140l62 62l62 -62l-62 -62zM43 -260l54 52l53 -52l-53 -55z" />
    <glyph glyph-name="uniFB58.alt" horiz-adv-x="398" 
d="M339 229q29 -107 -26 -168t-150 -61h-168v84h168q136 0 101 128l-39 149l73 21zM65 -79l62 -62l-62 -62l-62 62zM176 -141l62 62l62 -62l-62 -62zM98 -262l54 53l53 -53l-53 -54z" />
    <glyph glyph-name="uniFEA2.001" horiz-adv-x="704" 
d="M369 -263l255 70l19 -82l-257 -71q-111 -28 -204.5 24.5t-122.5 158.5q-7 36 -9 74t13 78t40.5 74.5t72 64t107.5 45.5l273 72l-221 117q-46 25 -92.5 11.5t-73.5 -59.5l-18 -31l-66 41l19 34q45 76 118.5 97.5t149.5 -19.5l277 -154l-11 -98l-336 -93
q-60 -16 -100.5 -45t-55 -60t-19.5 -65t5 -60q19 -73 87.5 -109t149.5 -15z" />
    <glyph glyph-name="uniFEA2.002" horiz-adv-x="232" 
d="M195 0q-83 0 -139 59.5t-56 145.5h76q0 -51 33.5 -86t85.5 -35h37v-84h-37z" />
    <glyph glyph-name="uniFEAE.001" horiz-adv-x="159" 
d="M157 0q-77 0 -106.5 50.5t-49.5 197.5l71 12q15 -117 29 -146.5t56 -29.5h7v-84h-7z" />
    <glyph glyph-name="uniFEBC.001" horiz-adv-x="21" 
d="M12 0q-36 0 -70 13.5t-50 26.5l-15 14l51 62q31 -32 84 -32h14v-84h-14z" />
    <glyph glyph-name="uniFEBC.002" horiz-adv-x="233" 
d="M181 159q-3 -36 11 -55.5t41 -19.5v-84q-63 0 -99 49q-47 -47 -134 -49h-5v84h5q98 2 105 84l11 124l76 -7l-11 -123v-3z" />
    <glyph glyph-name="uniFEBC.003" horiz-adv-x="539" 
d="M308 371q77 0 129 -55.5t52 -137.5q0 -71 -54 -124.5t-127 -53.5h-308v61l-9 8l9 12v3h2l73 99q72 103 119 145.5t114 42.5zM308 84q41 0 73 29t32 65q0 47 -29.5 78t-75.5 31q-44 0 -77 -32t-94 -119l-38 -52h209z" />
    <glyph glyph-name="uniFEDC.001" horiz-adv-x="241" 
d="M232 0q-67 0 -120 46t-112 145l58 36q53 -82 90.5 -112.5t83.5 -30.5h14v-84h-14z" />
    <glyph glyph-name="uniFEDB.001" horiz-adv-x="465" 
d="M130 504l185 -268q33 -54 30 -107t-39 -87q-39 -42 -105 -42h-206v84h207q24 0 39 12q22 15 26.5 40.5t-9.5 48.5l-223 315l17 64l362 133l26 -79z" />
    <glyph glyph-name="uniFEDE.001" horiz-adv-x="179" 
d="M164 0q-66 0 -113 44t-51 125l74 5q5 -90 90 -90h20v-84h-20z" />
    <glyph glyph-name="uniFEE0.001" horiz-adv-x="288" 
d="M273 84h20v-84h-20q-76 0 -124 55q-45 -55 -131 -55h-23v84h23q54 0 73 24t17 56l-19 494l76 4l19 -494v-7q10 -77 89 -77z" />
    <glyph glyph-name="uniFEDF.001" horiz-adv-x="234" 
d="M-5 0v84h23q54 0 73 24t17 56l-19 494l76 4l19 -494q3 -67 -38.5 -117.5t-127.5 -50.5h-23z" />
    <glyph glyph-name="uniFEE4.001" horiz-adv-x="159" 
d="M164 0q-77 0 -120.5 50.5t-43.5 133.5h65q0 -47 26 -73.5t73 -26.5v-84z" />
    <glyph glyph-name="uniFB9F.001" horiz-adv-x="199" 
d="M177 0q-74 0 -115 69.5t-62 214.5l75 12q18 -130 36 -171t64 -41h29v-84h-27z" />
    <glyph glyph-name="uniFEF4.alt" horiz-adv-x="399" 
d="M314 163q5 -44 24.5 -61.5t65.5 -17.5v-84q-83 0 -126 49q-46 -49 -130 -49h-153v84h153q49 0 71 19t19 56v3l-11 123l76 7l11 -123v-6zM-53 -145l62 62l62 -62l-62 -62zM121 -145l61 62l62 -62l-62 -62z" />
    <glyph glyph-name="uniFEF3.alt" horiz-adv-x="398" 
d="M339 229q29 -107 -26 -168t-150 -61h-168v84h168q136 0 101 128l-39 149l73 21zM1 -144l62 62l62 -62l-62 -62zM175 -144l61 62l62 -62l-62 -62z" />
    <glyph glyph-name="uniFBFF.alt" horiz-adv-x="399" 
d="M314 163q5 -44 24.5 -61.5t65.5 -17.5v-84q-83 0 -126 49q-46 -49 -130 -49h-153v84h153q49 0 71 19t19 56v3l-11 123l76 7l11 -123v-6zM-53 -145l62 62l62 -62l-62 -62zM121 -145l61 62l62 -62l-62 -62z" />
    <glyph glyph-name="uniFBFE.alt" horiz-adv-x="398" 
d="M339 229q29 -107 -26 -168t-150 -61h-168v84h168q136 0 101 128l-39 149l73 21zM1 -144l62 62l62 -62l-62 -62zM175 -144l61 62l62 -62l-62 -62z" />
    <glyph glyph-name="uni0640.001" horiz-adv-x="160" 
d="M0 0v84h160v-84h-160z" />
    <glyph glyph-name="uni0640.002" horiz-adv-x="65" 
d="M0 0v84h70v-84h-70z" />
    <glyph glyph-name="uni0640.003" 
d="M-2 0v84h4v-84h-4z" />
    <glyph glyph-name="uni0640.004" horiz-adv-x="22" 
d="M-5 0v84h32v-84h-32z" />
    <glyph glyph-name="period.001" horiz-adv-x="313" 
d="M156 -3q-25 0 -42.5 18t-17.5 44q0 25 17.5 42t42.5 17t42.5 -17t17.5 -42q0 -26 -17.5 -44t-42.5 -18z" />
    <glyph glyph-name="sareyaar" 
d="M8 491l-3 45q14 1 44.5 3.5t45 4t33.5 4.5t27 7t8 10q0 10 -10 14.5t-42 11.5q-11 3 -17 4q-61 12 -76.5 32.5t3.5 71.5q20 50 58 68t87 3l36 -11l-11 -43l-38 11q-69 21 -95 -45q-9 -21 -1.5 -28.5t46.5 -16.5q31 -7 44.5 -10.5t29 -11t20.5 -19.5t5 -30q0 -15 -4.5 -26
t-16.5 -19t-25.5 -12.5t-38.5 -8t-47.5 -5t-60.5 -4.5h-1z" />
    <glyph glyph-name="dotcenterar" 
d="M70 -145l-69 69l69 70l70 -70z" />
    <glyph glyph-name="threedotsdownbelowar.002" 
d="M55 -188l-54 54l54 52l53 -52zM211 -188l-53 54l53 52l53 -52zM133 -282l-54 55l54 52l53 -52z" />
    <glyph glyph-name="threedotsupabovear.001" 
d="M63 440l-62 62l62 62l62 -62z" />
    <glyph glyph-name="threedotsupabovear.002" 
d="M55 570l-54 54l54 53l53 -53z" />
    <glyph glyph-name="waslaar" 
d="M226 709q38 0 63 -27.5t25 -67.5q0 -34 -26.5 -60.5t-61.5 -26.5h-140q-16 0 -25.5 -7t-26.5 -30l-34 26q21 29 37 41.5t37 14.5l35 47q23 31 35 45.5t35 29.5t47 15zM226 572q19 0 34 13t15 31q0 21 -14 35t-35 14t-38 -14.5t-42 -49.5l-22 -29h102z" />
    <glyph glyph-name="miniKehehar" 
d="M0 0v36h71q8 0 10 6.5t-5 13.5l-58 59l7 30l98 33l12 -34l-71 -24l50 -52q19 -17 10 -42.5t-35 -25.5h-89z" />
    <glyph glyph-name="gafsarkashabovear" 
d="M16 506l-20 54l244 88l19 -54z" />
    <glyph glyph-name="uni0654064F" 
d="M288 919q8 -44 -19.5 -77.5t-79.5 -46.5l-180 -43l-9 44l107 26l-17 62q-11 38 9.5 70t59.5 41q45 10 83.5 -12.5t45.5 -63.5zM149 832l30 7q36 8 53.5 27.5t12.5 43.5q-4 24 -25.5 37t-50.5 6q-23 -5 -33.5 -22t-4.5 -38zM172 580l101 24l9 -44l-101 -24q-1 0 -2.5 -0.5
t-2.5 -0.5l-157 -37l-9 43l83 20q-21 21 -27 50q-11 46 16 82t73 38q12 1 32 -1.5t35 -5.5l14 -3l-7 -43q-7 1 -18 3t-33 4.5t-31 0.5q-24 -5 -36 -24t-7 -42q5 -22 25 -33.5t43 -6.5z" />
    <glyph glyph-name="uni0654064C" 
d="M351 928q8 -44 -18 -77.5t-78 -46.5l-200 -49l-1 4l-8 35l3 1q23 7 36.5 25t11.5 40q-2 24 -22 39.5t-47 12.5l-6 36q44 7 74.5 -18t34.5 -64q3 -26 -10 -52l59 16l-18 68q-9 39 8.5 68t56.5 37q44 10 80.5 -12t43.5 -63zM245 847q76 21 67 72q-4 24 -25.5 37t-49.5 6
q-47 -11 -36 -55l17 -67zM204 580l102 24l10 -44l-101 -24q-1 0 -2.5 -0.5t-2.5 -0.5l-157 -37l-10 43l84 20q-20 19 -28 50q-10 46 17 82t73 38q12 1 32 -1.5t35 -5.5l14 -3l-8 -43q-7 1 -17.5 3t-32.5 4.5t-31 0.5q-24 -5 -36.5 -24t-6.5 -42q4 -21 23.5 -33t42.5 -7z" />
    <glyph glyph-name="uni0654064E" 
d="M252 812l-229 -55l-10 44l230 54zM273 560l-102 -24h-2l-160 -38l-9 43l83 20q-21 21 -27 50q-11 45 16.5 81.5t72.5 38.5q12 1 32.5 -1.5t34.5 -5.5l15 -3l-8 -43q-7 1 -17.5 3t-33 4.5t-31.5 0.5q-23 -5 -35.5 -24t-7.5 -42q5 -22 25 -33.5t43 -6.5l101 24z" />
    <glyph glyph-name="uni0654064B" 
d="M256 919l-230 -55l-9 44l229 54zM256 806l-230 -54l-9 43l229 55zM273 560l-102 -24h-2l-160 -38l-9 43l83 20q-21 21 -27 50q-11 45 16.5 81.5t72.5 38.5q12 1 32.5 -1.5t34.5 -5.5l15 -3l-8 -43q-7 1 -17.5 3t-33 4.5t-31.5 0.5q-23 -5 -35.5 -24t-7.5 -42
q5 -22 25 -33.5t43 -6.5l101 24z" />
    <glyph glyph-name="uni06540652" 
d="M136 769q-46 0 -78.5 33t-32.5 80q0 46 32.5 79t78.5 33t78.5 -33t32.5 -79q0 -47 -32.5 -80t-78.5 -33zM136 951q-29 0 -50 -20.5t-21 -48.5t21 -48.5t50 -20.5t49.5 20t20.5 49t-20.5 49t-49.5 20zM273 560l-102 -24h-2l-160 -38l-9 43l83 20q-21 21 -27 50
q-11 45 16.5 81.5t72.5 38.5q12 1 32.5 -1.5t34.5 -5.5l15 -3l-8 -43q-7 1 -17.5 3t-33 4.5t-31.5 0.5q-23 -5 -35.5 -24t-7.5 -42q5 -22 25 -33.5t43 -6.5l101 24z" />
    <glyph glyph-name="uni06550650" 
d="M170 -354q-1 0 -2.5 -0.5t-2.5 -0.5l-157 -37l-9 43l83 20q-21 21 -27 50q-11 45 16.5 81.5t72.5 38.5q12 1 32.5 -1.5t35.5 -5.5l14 -3l-8 -43q-7 1 -17.5 3t-33 4.5t-31.5 0.5q-23 -5 -35.5 -24t-7.5 -42q5 -22 25 -33.5t43 -6.5l101 24l9 -44zM22 -460l229 55l10 -44
l-229 -54z" />
    <glyph glyph-name="uni0655064D" 
d="M170 -354q-1 0 -2.5 -0.5t-2.5 -0.5l-157 -37l-9 43l83 20q-21 21 -27 50q-11 45 16.5 81.5t72.5 38.5q12 1 32.5 -1.5t35.5 -5.5l14 -3l-8 -43q-7 1 -17.5 3t-33 4.5t-31.5 0.5q-23 -5 -35.5 -24t-7.5 -42q5 -22 25 -33.5t43 -6.5l101 24l9 -44zM22 -437l229 55l10 -44
l-229 -54zM22 -549l229 55l10 -44l-229 -55z" />
    <glyph glyph-name="uni0653.001" 
d="M0 585v17q0 43 28.5 65.5t72.5 14.5l101 -19q25 -4 39 5.5t14 30.5v6l41 3v-17q0 -43 -28.5 -65.5t-72.5 -14.5l-101 19q-25 4 -39 -5.5t-14 -30.5v-6z" />
    <glyph glyph-name="uni06510670" 
d="M111 677v163h39v-163h-39zM3 595l12 49l35 -10l-10 -45q-10 -43 36 -43q18 0 27 8t9 20l1 60h34l2 -60q0 -12 9 -20t27 -8q23 0 32.5 11.5t4.5 29.5l-17 66l36 10l19 -68q11 -39 -11 -67t-64 -28q-37 0 -55 25q-18 -25 -54 -25q-40 0 -62 28t-11 67z" />
    <glyph glyph-name="uni0651064F" 
d="M276 852q8 -43 -18.5 -76.5t-79.5 -47.5l-180 -43l-9 44l107 26l-17 62q-11 38 9.5 70t59.5 41q45 10 83 -12.5t45 -63.5zM137 765l31 7q36 8 53.5 27.5t12.5 43.5q-4 24 -25.5 37t-50.5 6q-23 -5 -33.5 -22t-4.5 -38zM246 663l19 -68q11 -39 -11 -67t-64 -28
q-37 0 -55 25q-18 -25 -54 -25q-40 0 -62 28t-11 67l12 49l35 -10l-10 -45q-10 -43 36 -43q18 0 27 8t9 20l1 60h34l2 -60q0 -12 9 -20t27 -8q23 0 32.5 11.5t4.5 29.5l-17 66z" />
    <glyph glyph-name="uni0651064C" 
d="M319 854q8 -43 -18 -77t-78 -47l-201 -49l-8 39l3 1q23 7 36.5 25t11.5 40q-3 25 -22.5 40t-46.5 12l-7 36q44 7 75 -18t35 -64q3 -26 -10 -52l59 16l-18 68q-9 39 8.5 68t56.5 37q44 10 80.5 -12t43.5 -63zM213 773q76 21 67 72q-4 24 -25.5 36.5t-50.5 6.5
q-46 -11 -35 -55l17 -67zM269 663l19 -68q11 -39 -11 -67t-64 -28q-37 0 -55 25q-18 -25 -54 -25q-40 0 -62 28t-11 67l12 49l35 -10l-10 -45q-10 -43 36 -43q17 0 26.5 8.5t9.5 19.5l1 60h34l1 -60q0 -11 9.5 -19.5t27.5 -8.5q23 0 32.5 11.5t4.5 29.5l-17 66z" />
    <glyph glyph-name="uni0651064E" 
d="M17 691l-10 44l229 54l10 -44zM3 595l12 49l35 -10l-10 -45q-10 -43 36 -43q18 0 27 8t9 20l1 60h34l2 -60q0 -12 9 -20t27 -8q23 0 32.5 11.5t4.5 29.5l-17 66l36 10l19 -68q11 -39 -11 -67t-64 -28q-37 0 -55 25q-18 -25 -54 -25q-40 0 -62 28t-11 67z" />
    <glyph glyph-name="uni0651064B.1" 
d="M20 798l-9 44l229 54l9 -43zM20 686l-9 43l229 55l9 -44zM3 595l12 49l35 -10l-10 -45q-10 -43 36 -43q18 0 27 8t9 20l1 60h34l2 -60q0 -12 9 -20t27 -8q23 0 32.5 11.5t4.5 29.5l-17 66l36 10l19 -68q11 -39 -11 -67t-64 -28q-37 0 -55 25q-18 -25 -54 -25
q-40 0 -62 28t-11 67z" />
    <glyph glyph-name="uni06510650" 
d="M14 721l12 48l35 -9l-11 -46q-5 -19 4.5 -31t31.5 -12q18 0 27 8.5t9 20.5l2 60h34l1 -60q0 -12 9.5 -20.5t27.5 -8.5q23 0 32 11.5t4 29.5l-16 67l36 10l18 -68q11 -39 -11 -67t-63 -28q-37 0 -55 24q-18 -24 -55 -24q-40 0 -61 28t-11 67zM32 502l-10 44l229 55l10 -44
z" />
    <glyph glyph-name="uni0651064D" 
d="M8 825l12 48l35 -9l-10 -46q-5 -19 4.5 -31t31.5 -12q17 0 26.5 8.5t9.5 20.5l1 60h34l2 -60q0 -12 9.5 -20.5t26.5 -8.5q23 0 32.5 11.5t4.5 30.5l-17 66l36 10l19 -68q11 -39 -11 -67t-64 -28q-36 0 -55 24q-19 -24 -54 -24q-40 0 -62 28t-11 67zM27 609l-10 44l229 54
l10 -43zM27 497l-10 43l229 55l10 -44z" />
    </font>
</defs>
</svg>
