<?xml version="1.0" standalone="no"?>
<!DOCTYPE svg PUBLIC "-//W3C//DTD SVG 1.1//EN" "http://www.w3.org/Graphics/SVG/1.1/DTD/svg11.dtd" >
<svg xmlns="http://www.w3.org/2000/svg" xmlns:xlink="http://www.w3.org/1999/xlink" version="1.1">
<metadata>
Created by FontForge 20190801 at Wed Jul 17 18:49:44 2019
 By www-data
Copyright (c) 2019 by www.fontiran.com (Moslem Ebrahimi). All rights reserved.
</metadata>
<defs>
<font id="Dana-Light" horiz-adv-x="0" >
  <font-face 
    font-family="Dana Light"
    font-weight="300"
    font-stretch="normal"
    units-per-em="1000"
    panose-1="0 0 4 0 0 0 0 0 0 0"
    ascent="800"
    descent="-200"
    x-height="457"
    cap-height="651"
    bbox="-116 -569 1336.31 1032"
    underline-thickness="17"
    underline-position="-266"
    unicode-range="U+000D-FEFF"
  />
<missing-glyph horiz-adv-x="300" 
d="M40 -12v524h220v-524h-220zM60 12h180v476h-180v-476z" />
    <glyph glyph-name="uni06C0" unicode="&#x647;&#x654;" horiz-adv-x="425" 
d="M106 530q14 1 35.5 3t34.5 3t29.5 3t26 4t19 5t13.5 7t4 9q0 14 -12.5 18.5t-60.5 14.5q-59 12 -73.5 31t3.5 68q19 48 56 65.5t84 3.5l37 -12l-10 -34l-37 11q-70 22 -101 -48q-10 -24 -2 -32.5t50 -17.5q25 -5 35.5 -8t25.5 -8.5t21 -11.5t10.5 -16t4.5 -24
q0 -38 -37 -49.5t-136 -19.5q-12 -1 -18 -1zM288 341q47 -47 67.5 -87t20.5 -89q0 -68 -48 -117t-115 -49t-115 49t-48 117q0 82 75 154l49 47l-37 37l41 46zM213 63q45 0 75 29.5t30 72.5q0 31 -14 58.5t-56 69.5l-32 32l-48 -47q-60 -60 -60 -113q0 -42 30.5 -72t74.5 -30
z" />
    <glyph glyph-name="uniFBA5" unicode="&#xfeea;&#x654;" horiz-adv-x="509" arabic-form="final" 
d="M156 543q14 1 35.5 3t34.5 3t29.5 3t26 4t19 5t13.5 7t4 9q0 12 -13 18t-48 13q-3 0 -4 0.5t-3 1t-4 0.5q-60 12 -74.5 31t3.5 68q20 48 56.5 65.5t83.5 3.5l37 -12l-9 -34l-37 11q-71 22 -101 -48q-11 -24 -2.5 -32.5t50.5 -17.5q39 -9 55 -14t28.5 -18t12.5 -36
q0 -27 -21 -40.5t-53.5 -18.5t-97.5 -10h-6t-5.5 -0.5t-6.5 -0.5zM495 65h19v-65h-19q-50 0 -93 25t-67 68q-19 -3 -65 -10.5t-51 -8.5q-50 -7 -97.5 25.5t-63.5 82.5q-20 61 9 120t89 78l153 50v49h59v-289q0 -52 37 -88.5t90 -36.5zM215 139q26 6 97 16q-3 18 -3 35v176
l-134 -46q-38 -13 -55.5 -46t-6.5 -69q9 -31 39 -51.5t63 -14.5z" />
    <glyph glyph-name="uniFEF5" unicode="&#xfedf;&#xfe82;" horiz-adv-x="538" arabic-form="isolated" 
d="M82 705q-27 5 -42 -6t-15 -34v-7l-33 -2v15q0 41 27 62t69 13l101 -19q27 -4 42.5 7t15.5 34v7l33 2v-15q0 -40 -27.5 -62t-69.5 -14zM488 158q2 -38 -11 -72.5t-51 -60t-95 -25.5h-240v65h240q58 0 79 27t20 63l-19 494l58 3zM185 136l-58 -12l-77 480l58 12z" />
    <glyph glyph-name="uniFEF6" unicode="&#xfee0;&#xfe82;" horiz-adv-x="601" arabic-form="final" 
d="M91 686q-27 4 -42.5 -7t-15.5 -34v-7l-32 -2v15q0 41 27 62t69 14l101 -19q27 -5 42.5 6t15.5 34v7l32 2v-15q0 -41 -27 -62t-69 -13zM586 65h20v-65h-20q-79 0 -123 61q-42 -61 -132 -61h-240v65h240q58 0 79 27t20 63l-19 494l58 3l19 -488q2 -53 30 -76t68 -23z
M185 136l-58 -12l-77 480l58 12z" />
    <glyph glyph-name="uniFEF7" unicode="&#xfedf;&#xfe84;" horiz-adv-x="538" arabic-form="isolated" 
d="M156 692q-1 0 -4 -0.5t-4 -1.5l-152 -36l-8 35l89 21q-24 20 -32 53q-10 43 14.5 77.5t67.5 37.5q12 1 32.5 -1t34.5 -5l15 -3l-6 -35q-7 1 -17.5 3t-32.5 4.5t-31 0.5q-25 -5 -38.5 -25.5t-7.5 -45.5q5 -22 24.5 -35t42.5 -10l104 25l7 -35zM488 158q2 -38 -11 -72.5
t-51 -60t-95 -25.5h-240v65h240q58 0 79 27t20 63l-19 494l58 3zM185 136l-58 -12l-77 480l58 12z" />
    <glyph glyph-name="uniFEF8" unicode="&#xfee0;&#xfe84;" horiz-adv-x="601" arabic-form="final" 
d="M156 692l-7 -1l-153 -37l-8 35l89 21q-25 21 -32 54q-10 43 14.5 77t67.5 37q12 1 32.5 -1t34.5 -5l15 -3l-6 -34q-7 1 -16.5 3t-34 4.5t-30.5 -0.5q-25 -5 -38.5 -25.5t-7.5 -45.5q5 -22 24.5 -35t42.5 -10l104 25l7 -35zM586 65h20v-65h-20q-79 0 -123 61
q-42 -61 -132 -61h-240v65h240q58 0 79 27t20 63l-19 494l58 3l19 -488q2 -53 30 -76t68 -23zM185 136l-58 -12l-77 480l58 12z" />
    <glyph glyph-name="uniFEF9" unicode="&#xfedf;&#xfe88;" horiz-adv-x="538" arabic-form="isolated" 
d="M488 158q2 -38 -11 -72.5t-51 -60t-95 -25.5h-240v65h240q58 0 79 27t20 63l-19 494l58 3zM185 136l-58 -12l-77 480l58 12zM186 -183l98 23l8 -35l-259 -61l-7 34l89 21q-25 21 -33 54q-10 43 15 77t68 38q12 1 32 -1t35 -5l14 -3l-6 -35q-7 1 -16.5 3t-34 4.5
t-30.5 -0.5q-25 -5 -38 -25t-8 -45q6 -24 27 -37t46 -7z" />
    <glyph glyph-name="uniFEFA" unicode="&#xfee0;&#xfe88;" horiz-adv-x="601" arabic-form="final" 
d="M586 65h20v-65h-20q-79 0 -123 61q-42 -61 -132 -61h-240v65h240q58 0 79 27t20 63l-19 494l58 3l19 -488q2 -53 30 -76t68 -23zM185 136l-58 -12l-77 480l58 12zM198 -183l99 23l7 -35l-259 -61l-7 34l89 21q-25 21 -33 54q-10 43 15 77t68 38q12 1 32 -1t35 -5l14 -3
l-6 -35q-7 1 -16.5 3t-34 4.5t-30.5 -0.5q-25 -5 -38 -25t-8 -45q6 -24 27 -37t46 -7z" />
    <glyph glyph-name="uniFEFB" unicode="&#xfedf;&#xfe8e;" horiz-adv-x="538" arabic-form="isolated" 
d="M488 158q2 -38 -11 -72.5t-51 -60t-95 -25.5h-240v65h240q58 0 79 27t20 63l-19 494l58 3zM185 136l-58 -12l-77 480l58 12z" />
    <glyph glyph-name="uniFEFC" unicode="&#xfee0;&#xfe8e;" horiz-adv-x="601" arabic-form="final" 
d="M586 65h20v-65h-20q-79 0 -123 61q-42 -61 -132 -61h-240v65h240q58 0 79 27t20 63l-19 494l58 3l19 -488q2 -53 30 -76t68 -23zM185 136l-58 -12l-77 480l58 12z" />
    <glyph glyph-name="uni06440671" unicode="&#xfedf;&#xfb51;" horiz-adv-x="538" 
d="M204 675h-140q-16 0 -26 -7t-28 -30l-27 20q20 27 35 39t37 14l35 48q23 31 34.5 45t34 29t45.5 15q36 0 60 -26t24 -64q0 -33 -25.5 -58t-58.5 -25zM204 813q-23 0 -40.5 -15.5t-44.5 -52.5l-25 -34h110q20 0 36 14t16 34q0 23 -15 38.5t-37 15.5zM488 158
q2 -38 -11 -72.5t-51 -60t-95 -25.5h-240v65h240q58 0 79 27t20 63l-19 494l58 3zM185 136l-58 -12l-77 480l58 12z" />
    <glyph glyph-name="uni06440671.fina" unicode="&#xfee0;&#xfb51;" horiz-adv-x="601" 
d="M204 675h-140q-16 0 -26 -7t-28 -30l-27 20q20 27 35 39t37 14l35 48q23 31 34.5 45t34 29t45.5 15q36 0 60 -26t24 -64q0 -33 -25.5 -58t-58.5 -25zM204 813q-23 0 -40.5 -15.5t-44.5 -52.5l-25 -34h110q20 0 36 14t16 34q0 23 -15 38.5t-37 15.5zM586 65h20v-65h-20
q-79 0 -123 61q-42 -61 -132 -61h-240v65h240q58 0 79 27t20 63l-19 494l58 3l19 -488q2 -53 30 -76t68 -23zM185 136l-58 -12l-77 480l58 12z" />
    <glyph glyph-name="uniFDF2.001" unicode="&#xfedf;&#xfee0;&#xfeea;" horiz-adv-x="1043" 
d="M651 1032v-163h-32v163h32zM581 698q-39 0 -59 26t-10 63l11 47l29 -8l-10 -44q-5 -21 5 -34t34 -13q19 0 29 9.5t10 23.5l1 57h28l1 -57q0 -14 10 -23.5t30 -9.5q49 0 39 46l-17 65l30 8l18 -66q10 -38 -10.5 -64t-59.5 -26q-37 0 -55 26q-18 -26 -54 -26zM973 158
q4 -61 -35 -109.5t-122 -48.5h-33q-80 0 -124 61q-42 -61 -132 -61h-32q-50 0 -93 25t-67 68q-19 -3 -65 -10.5t-51 -8.5q-50 -7 -97.5 25.5t-63.5 82.5q-20 61 9 120t89 78l153 50v49h59v-289q0 -52 37 -88.5t90 -36.5h32q59 0 80 27.5t19 62.5l-19 494l59 3l19 -494v-7
q12 -86 98 -86h33q58 0 79 27.5t19 62.5l-19 494l59 3zM215 139q26 6 97 16q-3 18 -3 35v176l-134 -46q-38 -13 -55.5 -46t-6.5 -69q9 -31 39 -51.5t63 -14.5z" />
    <glyph glyph-name="uni0621" unicode="&#x621;" horiz-adv-x="475" arabic-form="isolated" 
d="M415 118l10 -58l-365 -70l-10 58l117 22q-32 32 -41 79q-11 59 22 107.5t91 58.5q16 3 48.5 -1.5t56.5 -9.5l25 -6l-14 -56q-9 2 -22 5t-42 7.5t-42 2.5q-36 -5 -56.5 -33t-14.5 -63t34 -55t64 -15z" />
    <glyph glyph-name="uni0622" unicode="&#x622;" horiz-adv-x="287" arabic-form="isolated" 
d="M0 572v15q0 41 27 62t69 14l101 -19q27 -5 42.5 6t15.5 34v7l33 2v-15q0 -41 -27 -62t-70 -13l-101 19q-26 4 -41.5 -7t-15.5 -34v-7zM135 -2l-21 548l59 3l21 -548z" />
    <glyph glyph-name="uni0623" unicode="&#x623;" horiz-adv-x="287" arabic-form="isolated" 
d="M170 622l-4 -1l-155 -37l-8 35l89 21q-25 21 -33 54q-10 43 15 77t68 37q12 2 32.5 0t35.5 -5l14 -3l-7 -35q-7 1 -16.5 3t-34 4.5t-30.5 -0.5q-25 -5 -38 -25.5t-7 -45.5q5 -23 26 -36t46 -7l99 23l7 -35zM114 546l59 3l21 -548l-59 -3z" />
    <glyph glyph-name="uni0624" unicode="&#x624;" horiz-adv-x="476" arabic-form="isolated" 
d="M111 391l-7 35l88 21q-25 21 -32 54q-10 43 15 77t68 37q12 1 32 -1t35 -5l14 -3l-6 -35q-7 1 -17.5 3t-32.5 4.5t-31 0.5q-25 -5 -38 -25.5t-8 -45.5q6 -22 25 -35t42 -10l104 25l8 -35l-99 -24q-2 -1 -7 -1zM425 -5q5 -51 -5.5 -87.5t-31 -61t-66 -44t-91.5 -31.5
t-128 -28l-12 64q181 37 232 66t43 115l-3 25q-65 -13 -137 -13q-66 0 -109.5 41t-48.5 108q-6 75 37.5 137.5t118.5 65.5q74 4 124 -50.5t60 -145.5zM226 65q61 0 131 13l-7 69q-7 67 -40.5 104.5t-82.5 35.5q-50 -2 -77 -42.5t-23 -90.5q3 -41 29.5 -65t69.5 -24z" />
    <glyph glyph-name="uni0625" unicode="&#x625;" horiz-adv-x="237" arabic-form="isolated" 
d="M167 1l-59 -3l-25 651l59 3zM250 -179l8 -35l-259 -61l-8 34l90 21q-25 21 -33 54q-10 42 15 77t67 38q12 1 32.5 -1t35.5 -5l14 -3l-6 -35q-7 1 -16.5 3t-34 4.5t-30.5 -0.5q-26 -5 -39 -25t-7 -45q5 -24 26.5 -37t46.5 -7z" />
    <glyph glyph-name="uni0626" unicode="&#x626;" horiz-adv-x="684" arabic-form="isolated" 
d="M120 300l-7 35l89 21q-25 21 -33 54q-10 43 15 77t68 37q12 1 32 -1t34 -5l15 -3l-6 -34q-7 1 -16.5 3t-34 4.5t-30.5 -0.5q-25 -5 -38 -25.5t-8 -45.5q6 -22 25 -35t42 -10l104 25l8 -35l-99 -24q-1 0 -3 -0.5t-3 -0.5zM453 50q104 -31 127 -46q28 -19 33 -55
q7 -59 -57.5 -108t-185.5 -77q-95 -22 -168 2.5t-110 87t-41.5 155t36.5 206.5l57 -22q-68 -193 -6.5 -297.5t219.5 -67.5q92 22 145.5 51.5t51.5 53.5q-1 14 -23.5 24t-86.5 29q-12 3 -18 5q-31 10 -51 18.5t-39.5 23t-27.5 33.5t-8 47.5t11 65.5q7 23 19.5 47.5t34.5 52.5
t50.5 45.5t65.5 26.5t81 -5l65 -18l-15 -64l-65 18q-43 12 -78.5 0t-56.5 -39.5t-30.5 -46.5t-14.5 -34q-15 -55 4.5 -75t81.5 -37z" />
    <glyph glyph-name="uni0627" unicode="&#x627;" horiz-adv-x="237" arabic-form="isolated" 
d="M108 -2l-25 651l59 3l25 -651z" />
    <glyph glyph-name="uni0628" unicode="&#x628;" horiz-adv-x="901" arabic-form="isolated" 
d="M841 231q21 -73 0.5 -127t-78.5 -78q-35 -16 -89 -21t-223 -5t-223.5 5t-89.5 21q-57 24 -77 77t-2 125l37 140l57 -17l-37 -142q-13 -49 -2 -77.5t48 -45.5q18 -8 35.5 -11.5t78.5 -6.5t175 -3q115 0 176 3t77 6.5t35 11.5q38 17 49 46.5t-3 82.5l-38 139l56 16z
M391 -139l59 60l60 -60l-60 -59z" />
    <glyph glyph-name="uni0629" unicode="&#x629;" horiz-adv-x="426" arabic-form="isolated" 
d="M178 525l-53 -53l-53 53l53 53zM343 525l-53 -53l-53 53l53 53zM288 341q47 -47 67.5 -87t20.5 -89q0 -68 -48 -117t-115 -49t-115 49t-48 117q0 82 75 154l49 47l-37 37l41 46zM213 63q45 0 75 29.5t30 72.5q0 31 -14 58.5t-56 69.5l-32 32l-48 -47q-60 -60 -60 -113
q0 -42 30.5 -72t74.5 -30z" />
    <glyph glyph-name="uni062A" unicode="&#x62a;" horiz-adv-x="901" arabic-form="isolated" 
d="M421 375l-53 -53l-53 53l53 53zM586 375l-53 -53l-53 53l53 53zM841 231q21 -73 0.5 -127t-78.5 -78q-35 -16 -89 -21t-223 -5t-223.5 5t-89.5 21q-57 24 -77 77t-2 125l37 140l57 -17l-37 -142q-13 -49 -2 -77.5t48 -45.5q18 -8 35.5 -11.5t78.5 -6.5t175 -3
q115 0 176 3t77 6.5t35 11.5q38 17 49 46.5t-3 82.5l-38 139l56 16z" />
    <glyph glyph-name="uni062B" unicode="&#x62b;" horiz-adv-x="901" arabic-form="isolated" 
d="M495 488l-46 -47l-48 47l48 46zM419 374l-53 -53l-53 53l53 53zM531 321l-53 53l53 53l53 -53zM841 231q21 -73 0.5 -127t-78.5 -78q-35 -16 -89 -21t-223 -5t-223.5 5t-89.5 21q-57 24 -77 77t-2 125l37 140l57 -17l-37 -142q-13 -49 -2 -77.5t48 -45.5
q18 -8 35.5 -11.5t78.5 -6.5t175 -3q115 0 176 3t77 6.5t35 11.5q38 17 49 46.5t-3 82.5l-38 139l56 16z" />
    <glyph glyph-name="uni062C" unicode="&#x62c;" horiz-adv-x="695" arabic-form="isolated" 
d="M642 261l-10 -76l-341 -94q-52 -14 -89.5 -37.5t-56.5 -48.5t-28 -54.5t-8.5 -54t6.5 -47.5q20 -77 91.5 -115t156.5 -16l254 70l15 -63l-257 -71q-108 -27 -198 23.5t-118 153.5q-6 32 -8.5 67.5t11.5 74t37.5 72.5t69 63.5t107.5 45.5l293 79l-238 128
q-50 27 -99.5 12.5t-78.5 -63.5l-18 -32l-51 31l19 34q43 73 113.5 94t142.5 -19zM368 -144l-59 60l59 60l60 -61z" />
    <glyph glyph-name="uni062D" unicode="&#x62d;" horiz-adv-x="695" arabic-form="isolated" 
d="M291 91q-52 -14 -89.5 -37.5t-56.5 -48.5t-28 -54.5t-8.5 -54t6.5 -47.5q20 -77 91.5 -115t156.5 -16l254 70l15 -63l-257 -71q-108 -27 -198 23.5t-118 153.5q-6 32 -8.5 67.5t11.5 74t37.5 72.5t69 63.5t107.5 45.5l293 79l-238 128q-50 27 -99.5 12.5t-78.5 -63.5
l-18 -32l-51 31l19 34q43 73 113.5 94t142.5 -19l283 -157l-10 -76z" />
    <glyph glyph-name="uni062E" unicode="&#x62e;" horiz-adv-x="695" arabic-form="isolated" 
d="M322 570l-60 -59l-59 59l59 60zM291 91q-52 -14 -89.5 -37.5t-56.5 -48.5t-28 -54.5t-8.5 -54t6.5 -47.5q20 -77 91.5 -115t156.5 -16l254 70l15 -63l-257 -71q-108 -27 -198 23.5t-118 153.5q-6 32 -8.5 67.5t11.5 74t37.5 72.5t69 63.5t107.5 45.5l293 79l-238 128
q-50 27 -99.5 12.5t-78.5 -63.5l-18 -32l-51 31l19 34q43 73 113.5 94t142.5 -19l283 -157l-10 -76z" />
    <glyph glyph-name="uni062F" unicode="&#x62f;" horiz-adv-x="508" arabic-form="isolated" 
d="M235 0q-73 0 -115 25.5t-48 70.5l-5 67h54q0 -31 5 -54q10 -44 100 -44h52q78 0 103.5 27.5t13.5 73.5q-14 48 -54 119t-73 117l-32 47l48 39q16 -21 39.5 -55.5t69.5 -116.5t59 -135q19 -78 -24 -129.5t-157 -51.5h-36z" />
    <glyph glyph-name="uni0630" unicode="&#x630;" horiz-adv-x="508" arabic-form="isolated" 
d="M243 543l-59 59l59 60l60 -60zM235 0q-73 0 -115 25.5t-48 70.5l-5 67h54q0 -31 5 -54q10 -44 100 -44h52q78 0 103.5 27.5t13.5 73.5q-14 48 -54 119t-73 117l-32 47l48 39q16 -21 39.5 -55.5t69.5 -116.5t59 -135q19 -78 -24 -129.5t-157 -51.5h-36z" />
    <glyph glyph-name="uni0631" unicode="&#x631;" horiz-adv-x="323" arabic-form="isolated" 
d="M15 -257l-15 63q112 31 140 44q74 36 74 110q0 13 -2 28l-40 288l59 9l39 -289q9 -62 -6.5 -106t-59.5 -72t-81 -42t-108 -33z" />
    <glyph glyph-name="uni0632" unicode="&#x632;" horiz-adv-x="323" arabic-form="isolated" 
d="M187 387l-60 59l60 60l59 -60zM15 -257l-15 63q112 31 140 44q74 36 74 110q0 13 -2 28l-40 288l59 9l39 -289q9 -62 -6.5 -106t-59.5 -72t-81 -42t-108 -33z" />
    <glyph glyph-name="uni0633" unicode="&#x633;" horiz-adv-x="1163" arabic-form="isolated" 
d="M1103 220q21 -75 1 -124t-59.5 -72.5t-89.5 -23.5q-82 0 -123 59q-40 -59 -125 -59q-66 0 -108 37q1 -15 3 -25q7 -51 -2.5 -90.5t-28.5 -63.5t-55 -43.5t-67 -29.5t-79 -21q-96 -22 -169 2.5t-109.5 87t-41 155t36.5 206.5l57 -22q-68 -193 -7 -297.5t220 -67.5
q101 24 131 41q69 38 56 133l-40 274l58 10l17 -114q14 -58 43.5 -82.5t84.5 -24.5q98 0 98 91v123h56v-123q0 -91 94 -91q53 0 82 32t9 107l-40 149l57 16z" />
    <glyph glyph-name="uni0634" unicode="&#x634;" horiz-adv-x="1163" arabic-form="isolated" 
d="M875 556l-47 -47l-47 47l47 46zM799 442l-54 -53l-52 53l52 53zM910 389l-53 53l53 53l53 -53zM1103 220q21 -75 1 -124t-59.5 -72.5t-89.5 -23.5q-82 0 -123 59q-40 -59 -125 -59q-66 0 -108 37q1 -15 3 -25q7 -51 -2.5 -90.5t-28.5 -63.5t-55 -43.5t-67 -29.5t-79 -21
q-96 -22 -169 2.5t-109.5 87t-41 155t36.5 206.5l57 -22q-68 -193 -7 -297.5t220 -67.5q101 24 131 41q69 38 56 133l-40 274l58 10l17 -114q14 -58 43.5 -82.5t84.5 -24.5q98 0 98 91v123h56v-123q0 -91 94 -91q53 0 82 32t9 107l-40 149l57 16z" />
    <glyph glyph-name="uni0635" unicode="&#x635;" horiz-adv-x="1221" arabic-form="isolated" 
d="M998 352q74 0 123.5 -52.5t49.5 -130.5q0 -68 -51.5 -118.5t-121.5 -50.5h-304h-23q-42 0 -70 22q0 -2 0.5 -5.5t0.5 -4.5q7 -51 -2.5 -90.5t-28.5 -63.5t-55 -43.5t-67 -29.5t-79 -21q-96 -22 -169 2.5t-109.5 87t-41 155t36.5 206.5l57 -22q-68 -193 -7 -297.5
t220 -67.5q101 24 131 41q69 38 56 133q-2 19 -18 126.5t-19 128.5l-3 19l58 10q4 -28 10 -65q14 -89 34 -122.5t64 -33.5h24h4l74 103q36 51 56 77t49 55t58 40.5t63 11.5zM998 65q45 0 79.5 32t34.5 72q0 51 -32.5 84.5t-81.5 33.5q-47 0 -82 -34.5t-95 -121.5l-48 -66
h225z" />
    <glyph glyph-name="uni0636" unicode="&#x636;" horiz-adv-x="1221" arabic-form="isolated" 
d="M1051 500l-60 -59l-59 59l59 60zM998 352q74 0 123.5 -52.5t49.5 -130.5q0 -68 -51.5 -118.5t-121.5 -50.5h-304h-23q-42 0 -70 22q0 -2 0.5 -5.5t0.5 -4.5q7 -51 -2.5 -90.5t-28.5 -63.5t-55 -43.5t-67 -29.5t-79 -21q-96 -22 -169 2.5t-109.5 87t-41 155t36.5 206.5
l57 -22q-68 -193 -7 -297.5t220 -67.5q101 24 131 41q69 38 56 133q-2 19 -18 126.5t-19 128.5l-3 19l58 10q4 -28 10 -65q14 -89 34 -122.5t64 -33.5h24h4l74 103q36 51 56 77t49 55t58 40.5t63 11.5zM998 65q45 0 79.5 32t34.5 72q0 51 -32.5 84.5t-81.5 33.5
q-47 0 -82 -34.5t-95 -121.5l-48 -66h225z" />
    <glyph glyph-name="uni0637" unicode="&#x637;" horiz-adv-x="669" arabic-form="isolated" 
d="M446 352q74 0 123.5 -52.5t49.5 -130.5q0 -68 -51.5 -118.5t-121.5 -50.5h-396v65h96l31 43l-21 541l59 3l18 -465q61 87 106.5 126t106.5 39zM446 65q45 0 79.5 32t34.5 72q0 51 -32.5 84.5t-81.5 33.5q-47 0 -82 -34.5t-95 -121.5l-48 -66h225z" />
    <glyph glyph-name="uni0638" unicode="&#x638;" horiz-adv-x="669" arabic-form="isolated" 
d="M446 352q74 0 123.5 -52.5t49.5 -130.5q0 -68 -51.5 -118.5t-121.5 -50.5h-396v65h96l31 43l-21 541l59 3l18 -465q61 87 106.5 126t106.5 39zM511 533l-60 -59l-59 60l59 59zM446 65q45 0 79.5 32t34.5 72q0 51 -32.5 84.5t-81.5 33.5q-47 0 -82 -34.5t-95 -121.5
l-48 -66h225z" />
    <glyph glyph-name="uni0639" unicode="&#x639;" horiz-adv-x="607" arabic-form="isolated" 
d="M552 -179l5 -65l-268 -27q-89 -10 -158.5 47t-79.5 147q-8 79 36 143t121 90q-47 40 -57 102q-13 72 27 131t111 72q23 4 63 -1.5t69 -12.5l29 -7l-15 -63q-11 3 -28 7t-53.5 9.5t-53.5 2.5q-48 -9 -74 -44.5t-18 -80.5q8 -46 46.5 -71.5t84.5 -16.5l170 31l11 -65
l-267 -49q-69 -13 -109.5 -60.5t-33.5 -108.5q7 -63 57.5 -103.5t115.5 -33.5z" />
    <glyph glyph-name="uni063A" unicode="&#x63a;" horiz-adv-x="607" arabic-form="isolated" 
d="M364 592l-60 -59l-59 59l59 60zM552 -179l5 -65l-268 -27q-89 -10 -158.5 47t-79.5 147q-8 79 36 143t121 90q-47 40 -57 102q-13 72 27 131t111 72q23 4 63 -1.5t69 -12.5l29 -7l-15 -63q-11 3 -28 7t-53.5 9.5t-53.5 2.5q-48 -9 -74 -44.5t-18 -80.5q8 -46 46.5 -71.5
t84.5 -16.5l170 31l11 -65l-267 -49q-69 -13 -109.5 -60.5t-33.5 -108.5q7 -63 57.5 -103.5t115.5 -33.5z" />
    <glyph glyph-name="uni0641" unicode="&#x641;" horiz-adv-x="904" arabic-form="isolated" 
d="M734 628l-59 -59l-60 60l60 60zM851 173q6 -68 -6 -102.5t-56.5 -52.5t-135.5 -18h-207q-165 0 -219 5t-89 21q-57 24 -77 77t-2 125l37 140l57 -17l-37 -142q-13 -49 -2 -77.5t48 -45.5q18 -8 35.5 -11.5t78.5 -6.5t175 -3h203q69 0 99 8.5t38 26.5t4 59
q-57 -11 -134 -11q-67 0 -109 39t-45 105q-3 76 37.5 134t114.5 62q73 4 123 -48.5t58 -142.5zM561 297q3 -41 30 -65t70 -24q71 0 128 13l-6 71q-7 66 -39.5 102.5t-81.5 34.5q-50 -3 -77 -42.5t-24 -89.5z" />
    <glyph glyph-name="uni0642" unicode="&#x642;" horiz-adv-x="668" arabic-form="isolated" 
d="M331 432l-53 53l53 53l53 -53zM496 432l-53 53l53 53l53 -53zM370 -236q-96 -22 -169 2.5t-109.5 87t-41 155t36.5 206.5l57 -22q-68 -193 -7 -297.5t220 -67.5q58 13 92.5 24t62 28t37.5 41t7 59l-4 40q-70 -14 -136 -14q-65 0 -108.5 41t-49.5 108q-6 76 38 138t119 65
q74 4 124 -50.5t59 -145.5l17 -161q6 -57 -4.5 -95.5t-43.5 -65t-78 -43t-119 -33.5zM416 71q63 0 131 15l-7 67q-7 67 -40 104.5t-83 35.5t-76.5 -42.5t-23.5 -90.5q3 -41 29.5 -65t69.5 -24z" />
    <glyph glyph-name="uni0643" unicode="&#x643;" horiz-adv-x="836" arabic-form="isolated" 
d="M786 158q2 -38 -11 -72.5t-51 -60t-95 -25.5h-178q-169 0 -223.5 5t-89.5 21q-57 24 -77 77t-2 125l37 140l57 -17l-37 -142q-13 -49 -2 -77.5t48 -45.5q18 -8 35.5 -11.5t78.5 -6.5t175 -3h178q58 0 79 27t20 63l-19 494l58 3zM477 295q17 -17 9.5 -40t-31.5 -23h-89v30
h75q9 0 11 7.5t-5 13.5l-61 63l6 25l98 33l9 -28l-76 -25z" />
    <glyph glyph-name="uni0644" unicode="&#x644;" horiz-adv-x="653" arabic-form="isolated" 
d="M369 -237q-95 -23 -168 1t-109.5 86.5t-41.5 155.5t37 207l56 -22q-42 -130 -31.5 -220.5t75.5 -130.5t168 -14q91 23 114 34q71 34 75 123v22l-25 644l59 3l25 -644q2 -52 -11 -92t-32 -63.5t-55 -42.5t-63 -27.5t-73 -19.5z" />
    <glyph glyph-name="uni0645" unicode="&#x645;" horiz-adv-x="515" arabic-form="isolated" 
d="M384 328q63 -34 77.5 -114.5t-27.5 -162.5q-19 -37 -57.5 -50.5t-77.5 5.5l-190 99l17 -403l-59 -2l-17 458l40 26l55 -29l59 115q25 50 78 67t102 -9zM387 78q31 60 25 115.5t-49 78.5q-31 17 -65 4.5t-52 -48.5l-50 -99l134 -69q17 -8 33 -3t24 21z" />
    <glyph glyph-name="uni0646" unicode="&#x646;" horiz-adv-x="655" arabic-form="isolated" 
d="M319 210l-59 59l59 60l60 -60zM370 -236q-96 -22 -169 2.5t-109.5 87t-41 155t36.5 206.5l57 -22q-68 -193 -7 -297.5t220 -67.5q101 24 131 41q69 38 56 133l-40 274l58 10q34 -230 40 -274q7 -51 -2.5 -90.5t-28.5 -63.5t-55 -43.5t-67 -29.5t-79 -21z" />
    <glyph glyph-name="uni0647" unicode="&#x647;" horiz-adv-x="426" arabic-form="isolated" 
d="M288 341q47 -47 67.5 -87t20.5 -89q0 -68 -48 -117t-115 -49t-115 49t-48 117q0 82 75 154l49 47l-37 37l41 46zM213 63q45 0 75 29.5t30 72.5q0 31 -14 58.5t-56 69.5l-32 32l-48 -47q-60 -60 -60 -113q0 -42 30.5 -72t74.5 -30z" />
    <glyph glyph-name="uni0648" unicode="&#x648;" horiz-adv-x="476" arabic-form="isolated" 
d="M425 -5q5 -51 -5.5 -87.5t-31 -61t-66 -44t-91.5 -31.5t-128 -28l-12 64q181 37 232 66t43 115l-3 25q-65 -13 -137 -13q-66 0 -109.5 41t-48.5 108q-6 75 37.5 137.5t118.5 65.5q74 4 124 -50.5t60 -145.5zM226 65q61 0 131 13l-7 69q-7 67 -40.5 104.5t-82.5 35.5
q-50 -2 -77 -42.5t-23 -90.5q3 -41 29.5 -65t69.5 -24z" />
    <glyph glyph-name="uni0649" unicode="&#x649;" horiz-adv-x="684" arabic-form="isolated" 
d="M370 -236q-95 -22 -168 2.5t-110 87t-41.5 155t36.5 206.5l57 -22q-68 -193 -6.5 -297.5t219.5 -67.5q92 22 145.5 51.5t51.5 53.5q-1 14 -23.5 24t-86.5 29q-12 3 -18 5q-31 10 -51 18.5t-39.5 23t-27.5 33.5t-8 47.5t11 65.5q7 23 19.5 47.5t34.5 52.5t50.5 45.5
t65.5 26.5t81 -5l65 -18l-15 -64l-65 18q-43 12 -78.5 0t-56.5 -39.5t-30.5 -46.5t-14.5 -34q-15 -55 4.5 -75t81.5 -37q104 -31 127 -46q28 -19 33 -55q7 -59 -57.5 -108t-185.5 -77z" />
    <glyph glyph-name="uni064A" unicode="&#x64a;" horiz-adv-x="684" arabic-form="isolated" 
d="M370 -236q-95 -22 -168 2.5t-110 87t-41.5 155t36.5 206.5l57 -22q-68 -193 -6.5 -297.5t219.5 -67.5q92 22 145.5 51.5t51.5 53.5q-1 14 -23.5 24t-86.5 29q-12 3 -18 5q-31 10 -51 18.5t-39.5 23t-27.5 33.5t-8 47.5t11 65.5q7 23 19.5 47.5t34.5 52.5t50.5 45.5
t65.5 26.5t81 -5l65 -18l-15 -64l-65 18q-43 12 -78.5 0t-56.5 -39.5t-30.5 -46.5t-14.5 -34q-15 -55 4.5 -75t81.5 -37q104 -31 127 -46q28 -19 33 -55q7 -59 -57.5 -108t-185.5 -77zM259 -397l-53 53l53 53l53 -53zM424 -397l-53 53l53 53l54 -53z" />
    <glyph glyph-name="uni066E.init" unicode="&#x66e;" horiz-adv-x="301" 
d="M-5 0v65h79q64 0 97.5 32t13.5 108l-40 149l56 16l40 -149q14 -57 6.5 -99t-34 -69t-62 -40t-77.5 -13h-79z" />
    <glyph glyph-name="uni066E.medi" unicode="&#x66e;" horiz-adv-x="309" 
d="M215 157q5 -50 27 -71t72 -21v-65q-86 0 -125 54q-43 -54 -131 -54h-63v65h63q53 0 77.5 22t21.5 64v2l-11 123l58 5l11 -123v-1z" />
    <glyph glyph-name="uni066E.fina" unicode="&#x66e;" horiz-adv-x="943" 
d="M849 157q5 -50 27 -71t72 -21v-65q-87 0 -126 54q-41 -54 -130 -54h-241q-169 0 -223.5 5t-89.5 21q-57 24 -77 77t-2 125l37 140l57 -17l-37 -142q-13 -49 -2 -77.5t48 -45.5q18 -8 35.5 -11.5t78.5 -6.5t175 -3h241q52 0 77 22t21 63v3l-11 123l59 5l11 -123v-1z" />
    <glyph glyph-name="uni066F.fina" unicode="&#x66f;" horiz-adv-x="665" 
d="M370 -236q-96 -22 -169 2.5t-109.5 87t-41 155t36.5 206.5l57 -22q-68 -193 -7 -297.5t220 -67.5q110 25 157.5 55t41.5 93l-3 24h-137q-69 0 -111 39.5t-47 109.5q-6 76 38 138t119 65q74 4 123.5 -50t59.5 -146l9 -91h63v-65h-56l2 -26q2 -49 -11 -83t-46 -57.5
t-76 -39t-113 -30.5zM416 65h132l-9 83q-7 68 -39.5 104.5t-81.5 34.5q-51 -2 -78 -42t-23 -91q8 -89 99 -89z" />
    <glyph glyph-name="uni0671" unicode="&#x671;" horiz-adv-x="287" arabic-form="isolated" 
d="M215 764q36 0 60 -25.5t24 -64.5q0 -33 -25.5 -58t-58.5 -25h-140q-17 0 -27 -7t-27 -30l-27 21q20 27 35 38.5t36 13.5l36 49q22 30 34 44.5t34.5 29t45.5 14.5zM215 627q21 0 36.5 14.5t15.5 34.5q0 23 -15 38.5t-37 15.5t-39 -16t-45 -53l-25 -34h109zM114 546l59 3
l21 -548l-59 -3z" />
    <glyph glyph-name="uni067E" unicode="&#x67e;" horiz-adv-x="901" arabic-form="isolated" 
d="M841 231q21 -73 0.5 -127t-78.5 -78q-35 -16 -89 -21t-223 -5t-223.5 5t-89.5 21q-57 24 -77 77t-2 125l37 140l57 -17l-37 -142q-13 -49 -2 -77.5t48 -45.5q18 -8 35.5 -11.5t78.5 -6.5t175 -3q115 0 176 3t77 6.5t35 11.5q38 17 49 46.5t-3 82.5l-38 139l56 16z
M371 -87l53 -54l-53 -52l-53 52zM483 -141l53 54l53 -54l-53 -52zM406 -253l47 46l47 -46l-47 -48z" />
    <glyph glyph-name="uni0686" unicode="&#x686;" horiz-adv-x="695" arabic-form="isolated" 
d="M642 261l-10 -76l-341 -94q-52 -14 -89.5 -37.5t-56.5 -48.5t-28 -54.5t-8.5 -54t6.5 -47.5q20 -77 91.5 -115t156.5 -16l254 70l15 -63l-257 -71q-108 -27 -198 23.5t-118 153.5q-6 32 -8.5 67.5t11.5 74t37.5 72.5t69 63.5t107.5 45.5l293 79l-238 128
q-50 27 -99.5 12.5t-78.5 -63.5l-18 -32l-51 31l19 34q43 73 113.5 94t142.5 -19zM477 -6l-30 -59l-59 32l31 58q58 -30 58 -31zM477 -6zM242 -78l31 58l59 -30l-31 -59q-4 2 -10 5.5t-19 10t-22 11.5zM342 -144l31 58l58 -30l-30 -59q-4 2 -10 5.5t-19 10t-22 11.5z" />
    <glyph glyph-name="uni0698" unicode="&#x698;" horiz-adv-x="328" arabic-form="isolated" 
d="M189 493l-8 8t-15 15.5t-17 17.5l-7 6l47 47q46 -46 46 -47l-11 -12q-12 -11 -24 -23zM106 373l-53 53l53 53l53 -53zM271 373l-53 53l53 53l53 -53zM15 -257l-15 63q112 31 140 44q74 36 74 110q0 13 -2 28l-40 288l59 9l39 -289q9 -62 -6.5 -106t-59.5 -72t-81 -42
t-108 -33z" />
    <glyph glyph-name="uni06A1.init" unicode="&#x6a1;" horiz-adv-x="454" 
d="M400 173q6 -68 -5.5 -102.5t-56.5 -52.5t-136 -18h-207v65h208q69 0 99 8.5t38 26.5t4 59q-55 -11 -134 -11q-67 0 -108.5 39t-44.5 105q-3 76 37 134t115 62q73 4 122.5 -48.5t57.5 -142.5zM111 297q3 -41 29.5 -65t69.5 -24q71 0 128 13l-6 71q-7 66 -39.5 102.5
t-81.5 34.5q-50 -3 -77 -42.5t-23 -89.5z" />
    <glyph glyph-name="uni06A1.medi" unicode="&#x6a1;" horiz-adv-x="490" 
d="M437 65h58v-65h-58q-91 0 -189 39q-104 -39 -201 -39h-52v65h52q53 0 120 16q-85 55 -81 103l5 57q9 69 61.5 110.5t120.5 34.5q66 -7 105.5 -61.5t34.5 -118.5l-3 -43q-4 -43 -80 -86q50 -12 107 -12zM144 181q3 -15 31 -37t71 -41q97 35 106 67l3 36q4 41 -21 75.5
t-69 39.5q-43 5 -77 -21t-39 -69z" />
    <glyph glyph-name="uni06A1.fina" unicode="&#x6a1;" horiz-adv-x="941" 
d="M888 65h58v-65h-58q-91 0 -189 39q-106 -39 -201 -39h-52q-165 0 -219 5t-89 21q-57 24 -77 77t-2 125l37 140l57 -17l-37 -142q-13 -49 -2 -77.5t48 -45.5q18 -8 35.5 -11.5t78.5 -6.5t175 -3h47q53 0 120 16q-87 55 -82 103l6 57q8 69 60.5 111t120.5 34
q67 -7 106.5 -61.5t34.5 -118.5l-3 -43q-4 -43 -80 -86q50 -12 107 -12zM595 181q3 -15 31 -37t71 -41q96 34 105 67l4 36q4 41 -21 75.5t-69 39.5q-43 5 -77 -21t-39 -69z" />
    <glyph glyph-name="uni06A4" unicode="&#x6a4;" horiz-adv-x="904" arabic-form="isolated" 
d="M716 709l-46 -47l-47 47l47 46zM640 595l-53 -53l-53 53l53 53zM752 542l-53 53l53 53l53 -53zM851 173q6 -68 -6 -102.5t-56.5 -52.5t-135.5 -18h-207q-165 0 -219 5t-89 21q-57 24 -77 77t-2 125l37 140l57 -17l-37 -142q-13 -49 -2 -77.5t48 -45.5q18 -8 35.5 -11.5
t78.5 -6.5t175 -3h203q69 0 99 8.5t38 26.5t4 59q-57 -11 -134 -11q-67 0 -109 39t-45 105q-3 76 37.5 134t114.5 62q73 4 123 -48.5t58 -142.5zM561 297q3 -41 30 -65t70 -24q71 0 128 13l-6 71q-7 66 -39.5 102.5t-81.5 34.5q-50 -3 -77 -42.5t-24 -89.5z" />
    <glyph glyph-name="uni06A9" unicode="&#x6a9;" horiz-adv-x="909" arabic-form="isolated" 
d="M562 499l194 -279q31 -50 26.5 -101t-41.5 -83q-34 -36 -94 -36h-202q-165 0 -218.5 5t-88.5 21q-57 24 -77 77t-2 125l37 140l57 -17l-37 -142q-13 -49 -2 -77.5t48 -45.5q18 -8 35.5 -11.5t78.5 -6.5t175 -3h197q27 0 43 13q25 17 31 46.5t-11 55.5l-223 316l13 49
l362 133l21 -61z" />
    <glyph glyph-name="uni06AF" unicode="&#x6af;" horiz-adv-x="909" arabic-form="isolated" 
d="M777 728l-243 -88l-16 42l244 88zM562 499l194 -279q31 -50 26.5 -101t-41.5 -83q-34 -36 -94 -36h-202q-165 0 -218.5 5t-88.5 21q-57 24 -77 77t-2 125l37 140l57 -17l-37 -142q-13 -49 -2 -77.5t48 -45.5q18 -8 35.5 -11.5t78.5 -6.5t175 -3h197q27 0 43 13
q25 17 31 46.5t-11 55.5l-223 316l13 49l362 133l21 -61z" />
    <glyph glyph-name="uni06CC" unicode="&#x6cc;" horiz-adv-x="684" arabic-form="isolated" 
d="M370 -236q-95 -22 -168 2.5t-110 87t-41.5 155t36.5 206.5l57 -22q-68 -193 -6.5 -297.5t219.5 -67.5q92 22 145.5 51.5t51.5 53.5q-1 14 -23.5 24t-86.5 29q-12 3 -18 5q-31 10 -51 18.5t-39.5 23t-27.5 33.5t-8 47.5t11 65.5q7 23 19.5 47.5t34.5 52.5t50.5 45.5
t65.5 26.5t81 -5l65 -18l-15 -64l-65 18q-43 12 -78.5 0t-56.5 -39.5t-30.5 -46.5t-14.5 -34q-15 -55 4.5 -75t81.5 -37q104 -31 127 -46q28 -19 33 -55q7 -59 -57.5 -108t-185.5 -77z" />
    <glyph glyph-name="uniFB51" unicode="&#x671;" horiz-adv-x="278" arabic-form="final" 
d="M304 684q0 -33 -25.5 -58t-58.5 -25h-141q-16 0 -26 -7t-27 -30l-28 21q20 27 35.5 38.5t36.5 13.5l36 49q23 31 34.5 44.5t34 28.5t45.5 15q36 0 60 -26t24 -64zM220 739q-23 0 -40.5 -15.5t-44.5 -52.5l-25 -34h110q20 0 36 14.5t16 34.5q0 22 -15 37.5t-37 15.5z
M165 189q3 -78 22.5 -101t85.5 -23h10v-65h-10q-92 0 -127.5 41t-39.5 148l-14 357l59 3z" />
    <glyph glyph-name="uniFB57" unicode="&#x67e;" horiz-adv-x="943" arabic-form="final" 
d="M849 157q5 -50 27 -71t72 -21v-65q-87 0 -126 54q-41 -54 -130 -54h-241q-169 0 -223.5 5t-89.5 21q-57 24 -77 77t-2 125l37 140l57 -17l-37 -142q-13 -49 -2 -77.5t48 -45.5q18 -8 35.5 -11.5t78.5 -6.5t175 -3h241q52 0 77 22t21 63v3l-11 123l59 5l11 -123v-1z
M376 -89l53 -53l-53 -53l-53 53zM488 -142l52 53l54 -53l-54 -53zM458 -208q47 -46 47 -47l-11 -11l-24 -24l-12 -12l-8 8t-15 15.5t-17 16.5l-7 7z" />
    <glyph glyph-name="uniFB58" unicode="&#x67e;" horiz-adv-x="365" arabic-form="initial" 
d="M-5 0v65h144q29 0 51.5 6.5t41 22.5t22 43t-5.5 68l-39 149l57 16l40 -152q14 -57 6.5 -98t-34.5 -67.5t-62 -39.5t-77 -13h-144zM18 -192l-53 52l53 54l53 -54zM183 -192l-53 52l53 54l53 -54zM101 -300l-47 48l47 46l46 -46z" />
    <glyph glyph-name="uniFB59" unicode="&#x67e;" horiz-adv-x="391" arabic-form="medial" 
d="M297 157q5 -50 27 -71t72 -21v-65q-87 0 -126 54q-41 -54 -130 -54h-145v65h145q53 0 77.5 21.5t20.5 63.5v3l-11 123l59 5l11 -123v-1zM69 -85l53 -54l-53 -52l-53 52zM181 -139l52 54l54 -54l-54 -52zM104 -251l47 46l47 -46l-47 -48z" />
    <glyph glyph-name="uniFB6B" unicode="&#x6a4;" horiz-adv-x="941" arabic-form="final" 
d="M751 613l-47 -48l-47 48l47 46zM675 498l-53 -52l-53 52l53 54zM786 446l-52 52l52 54l54 -54zM888 65h58v-65h-58q-91 0 -189 39q-106 -39 -201 -39h-52q-165 0 -219 5t-89 21q-57 24 -77 77t-2 125l37 140l57 -17l-37 -142q-13 -49 -2 -77.5t48 -45.5q18 -8 35.5 -11.5
t78.5 -6.5t175 -3h47q53 0 120 16q-87 55 -82 103l6 57q8 69 60.5 111t120.5 34q67 -7 106.5 -61.5t34.5 -118.5l-3 -43q-4 -43 -80 -86q50 -12 107 -12zM595 181q3 -15 31 -37t71 -41q96 34 105 67l4 36q4 41 -21 75.5t-69 39.5q-43 5 -77 -21t-39 -69z" />
    <glyph glyph-name="uniFB6C" unicode="&#x6a4;" horiz-adv-x="454" arabic-form="initial" 
d="M215 652l-8 8t-15 15.5t-17 16.5l-7 7l47 47q47 -46 47 -47l-12 -11l-24 -24zM186 585l-54 -53l-52 53l52 53zM297 532l-53 53l53 53l53 -53zM400 173q6 -68 -5.5 -102.5t-56.5 -52.5t-136 -18h-207v65h208q69 0 99 8.5t38 26.5t4 59q-55 -11 -134 -11q-67 0 -108.5 39
t-44.5 105q-3 76 37 134t115 62q73 4 122.5 -48.5t57.5 -142.5zM111 297q3 -41 29.5 -65t69.5 -24q71 0 128 13l-6 71q-7 66 -39.5 102.5t-81.5 34.5q-50 -3 -77 -42.5t-23 -89.5z" />
    <glyph glyph-name="uniFB6D" unicode="&#x6a4;" horiz-adv-x="490" arabic-form="medial" 
d="M297 605l-46 -48l-47 48l47 46zM221 490l-53 -52l-53 52l53 54zM333 438l-53 52l53 54l53 -54zM437 65h58v-65h-58q-91 0 -189 39q-104 -39 -201 -39h-52v65h52q53 0 120 16q-85 55 -81 103l5 57q9 69 61.5 110.5t120.5 34.5q66 -7 105.5 -61.5t34.5 -118.5l-3 -43
q-4 -43 -80 -86q50 -12 107 -12zM144 181q3 -15 31 -37t71 -41q97 35 106 67l3 36q4 41 -21 75.5t-69 39.5q-43 5 -77 -21t-39 -69z" />
    <glyph glyph-name="uniFB7B" unicode="&#x686;" horiz-adv-x="727" arabic-form="final" 
d="M695 65h37v-65h-37q-68 0 -118.5 43t-64.5 109l-221 -61q-52 -14 -89.5 -37.5t-56.5 -48.5t-28 -54.5t-8.5 -54t6.5 -47.5q20 -77 91.5 -115t156.5 -16l254 70l15 -63l-257 -71q-108 -27 -198 23.5t-118 153.5q-6 32 -8.5 67.5t11.5 74t37.5 72.5t69 63.5t107.5 45.5
l293 79l-238 128q-50 27 -99.5 12.5t-78.5 -63.5l-18 -32l-51 31l19 34q43 73 113.5 94t142.5 -19l283 -157l-10 -76l-63 -17q9 -45 43.5 -74t82.5 -29zM455 -5l-31 -59l-59 32l31 58zM219 -77l32 58l58 -30l-31 -59zM319 -143l32 58l58 -30l-31 -59z" />
    <glyph glyph-name="uniFB7C" unicode="&#x686;" horiz-adv-x="637" arabic-form="initial" 
d="M331 346l256 -157l-9 -76l-294 -84q-48 -14 -103.5 -21t-86.5 -7.5t-94 -0.5h-5v65h5q173 0 269 27l248 69l-214 128q-48 29 -98 14t-80 -65l-17 -32l-51 31l18 34q42 74 113.5 95.5t142.5 -20.5zM222 -84l53 -54l-53 -52l-53 52zM334 -138l53 54l53 -54l-53 -52z
M257 -250l47 46l47 -46l-47 -48z" />
    <glyph glyph-name="uniFB7D" unicode="&#x686;" horiz-adv-x="671" arabic-form="medial" 
d="M611 65h65v-65h-65q-49 0 -88 29t-54 75l-186 -60q-140 -44 -283 -44h-5v65h5q135 2 267 42l253 77l-219 118q-51 28 -99 13t-78 -65l-18 -32l-51 31l19 34q44 74 114 94.5t141 -19.5l258 -144l-9 -75l-52 -17q10 -25 33 -41t52 -16zM229 -81l53 -54l-53 -52l-53 52z
M341 -135l53 54l53 -54l-53 -52zM265 -247l47 46l46 -46l-46 -48z" />
    <glyph glyph-name="uniFB8B" unicode="&#x698;" horiz-adv-x="395" arabic-form="final" 
d="M249 540l-47 -48l-47 48l47 46zM173 425l-53 -52l-53 52l53 54zM285 373l-53 52l53 54l53 -54zM400 65v-65h-72q-37 0 -60 10l2 -14q9 -62 -6.5 -106t-59.5 -72t-81 -42t-108 -33l-15 63q112 31 140 44q74 36 74 110q0 13 -2 28l-40 288l59 9l16 -119q10 -63 26 -82
t55 -19h72z" />
    <glyph glyph-name="uniFB8F" unicode="&#x6a9;" horiz-adv-x="951" arabic-form="final" 
d="M942 65h14v-65h-14q-88 0 -163 94q-11 -36 -37 -58q-34 -36 -94 -36h-202q-165 0 -219 5t-89 21q-57 24 -77 77t-2 125l37 140l57 -17l-37 -142q-13 -49 -2 -77.5t48 -45.5q18 -8 35.5 -11.5t78.5 -6.5t175 -3h197q27 0 44 13q25 17 31 46.5t-11 55.5l-223 316l13 49
l361 133l21 -61l-321 -118l194 -279q4 -6 6 -10q55 -83 93.5 -114t85.5 -31z" />
    <glyph glyph-name="uniFB90" unicode="&#x6a9;" horiz-adv-x="459" arabic-form="initial" 
d="M112 499l194 -279q31 -50 26.5 -101t-41.5 -83q-34 -36 -94 -36h-202v65h203q27 0 43 13q25 17 31 46.5t-11 55.5l-223 316l13 49l362 133l21 -61z" />
    <glyph glyph-name="uniFB91" unicode="&#x6a9;" horiz-adv-x="500" arabic-form="medial" 
d="M491 65h14v-65h-14q-87 0 -163 94q-11 -35 -37 -58q-34 -36 -94 -36h-202v65h203q27 0 43 13q25 17 31 46.5t-11 55.5l-223 316l13 49l362 133l21 -61l-322 -118l194 -279q4 -6 6 -10q55 -83 93.5 -114t85.5 -31z" />
    <glyph glyph-name="uniFB93" unicode="&#x6af;" horiz-adv-x="951" arabic-form="final" 
d="M777 727l-244 -88l-15 42l243 88zM942 65h14v-65h-14q-88 0 -163 94q-11 -36 -37 -58q-34 -36 -94 -36h-202q-165 0 -219 5t-89 21q-57 24 -77 77t-2 125l37 140l57 -17l-37 -142q-13 -49 -2 -77.5t48 -45.5q18 -8 35.5 -11.5t78.5 -6.5t175 -3h197q27 0 44 13
q25 17 31 46.5t-11 55.5l-223 316l13 49l361 133l21 -61l-321 -118l194 -279q4 -6 6 -10q55 -83 93.5 -114t85.5 -31z" />
    <glyph glyph-name="uniFB94" unicode="&#x6af;" horiz-adv-x="459" arabic-form="initial" 
d="M330 726l-243 -88l-15 42l243 88zM112 499l194 -279q31 -50 26.5 -101t-41.5 -83q-34 -36 -94 -36h-202v65h203q27 0 43 13q25 17 31 46.5t-11 55.5l-223 316l13 49l362 133l21 -61z" />
    <glyph glyph-name="uniFB95" unicode="&#x6af;" horiz-adv-x="500" arabic-form="medial" 
d="M330 726l-243 -88l-15 42l243 88zM491 65h14v-65h-14q-87 0 -163 94q-11 -35 -37 -58q-34 -36 -94 -36h-202v65h203q27 0 43 13q25 17 31 46.5t-11 55.5l-223 316l13 49l362 133l21 -61l-322 -118l194 -279q4 -6 6 -10q55 -83 93.5 -114t85.5 -31z" />
    <glyph glyph-name="uniFB9F" unicode="&#x6ba;" horiz-adv-x="694" arabic-form="final" 
d="M670 65h29v-65h-28q-42 0 -70 22q0 -2 0.5 -5.5t0.5 -4.5q7 -51 -2.5 -90.5t-28.5 -63.5t-55 -43.5t-67 -29.5t-79 -21q-96 -22 -169 2.5t-109.5 87t-41 155t36.5 206.5l57 -22q-68 -193 -7 -297.5t220 -67.5q101 24 131 41q69 38 56 133q-2 19 -18 126.5t-19 128.5
l-3 19l58 10q4 -28 10 -65q14 -89 34 -122.5t64 -33.5z" />
    <glyph glyph-name="uniFBFD" unicode="&#x6cc;" horiz-adv-x="668" arabic-form="final" 
d="M673 65v-65q-47 0 -97 8q15 -20 18 -39q7 -47 -6.5 -82t-48.5 -58t-73 -37t-96 -28q-96 -22 -169 2.5t-109.5 87t-41 155t36.5 206.5l57 -22q-68 -193 -7 -297.5t220 -67.5q110 26 142 47q49 31 37 92q-9 43 -133 86q-7 3 -21 7t-21 7l18 62q14 -4 51 -15t53 -15.5
t47 -12.5t50.5 -11.5t45 -6.5t47.5 -3z" />
    <glyph glyph-name="uniFBFE" unicode="&#x6cc;" horiz-adv-x="365" arabic-form="initial" 
d="M-5 0v65h144q29 0 51.5 6.5t41 22.5t22 43t-5.5 68l-39 149l57 16l40 -152q14 -57 6.5 -98t-34.5 -67.5t-62 -39.5t-77 -13h-144zM14 -196l-53 53l53 53l53 -53zM179 -196l-53 53l53 53l53 -53z" />
    <glyph glyph-name="uniFBFF" unicode="&#x6cc;" horiz-adv-x="391" arabic-form="medial" 
d="M297 157q5 -50 27 -71t72 -21v-65q-87 0 -126 54q-41 -54 -130 -54h-145v65h145q53 0 77.5 21.5t20.5 63.5v3l-11 123l59 5l11 -123v-1zM21 -144l53 53l53 -53l-53 -53zM186 -144l53 53l53 -53l-53 -53z" />
    <glyph glyph-name="uniFDF2" unicode="&#xfdf2;" horiz-adv-x="1261" arabic-form="isolated" 
d="M652 1030v-163h-32v163h32zM582 696q-39 0 -59 26t-10 63l12 47l28 -8l-10 -44q-5 -21 5 -34t34 -13q19 0 29 9.5t10 23.5l1 58h28l1 -58q0 -14 10.5 -23.5t29.5 -9.5q25 0 34.5 13t4.5 33l-16 65l29 8l18 -66q10 -37 -10.5 -63.5t-59.5 -26.5q-36 0 -55 26
q-19 -26 -54 -26zM954 652l19 -494q2 -38 -11 -72.5t-51 -60t-95 -25.5h-33q-79 0 -123 61q-42 -61 -132 -61h-33q-50 0 -93 25t-67 68q-19 -3 -65 -10.5t-51 -8.5q-50 -7 -97.5 25.5t-63.5 82.5q-20 61 9 120t89 78l153 50v49h59v-289q0 -52 37 -88.5t90 -36.5h33
q58 0 79 27t20 63l-19 494l58 3l19 -488q2 -53 30 -76t68 -23h33q58 0 79 27t20 63l-19 494zM1166 652l25 -651l-59 -3l-25 651zM215 139q26 6 97 16q-3 18 -3 35v176l-134 -46q-38 -13 -55.5 -46t-6.5 -69q9 -31 39 -51.5t63 -14.5z" />
    <glyph glyph-name="uniFDFC" unicode="&#xfdfc;" horiz-adv-x="1386" arabic-form="isolated" 
d="M578 652l25 -644q2 -52 -11 -92t-32 -63.5t-55 -42.5t-63 -27.5t-73 -19.5q-95 -23 -168 1t-109.5 86.5t-41.5 155.5t37 207l56 -22q-42 -130 -31.5 -220.5t75.5 -130.5t168 -14q91 23 114 34q71 34 75 123v22l-25 644zM887 -51q-89 1 -123.5 42t-39.5 147l-18 460l59 3
l18 -463q3 -77 23 -100t86 -23h74q64 0 97.5 31.5t12.5 107.5l-40 149l57 16l40 -149q29 -106 -23.5 -163.5t-143.5 -57.5h-79zM1333 -4q9 -62 -6.5 -106t-59.5 -72t-81 -42t-108 -33l-15 63q111 31 139 44q74 35 75 107q0 15 -2 31l-40 288l59 9zM724 -210l53 53l54 -53
l-54 -53zM890 -210l52 53l54 -53l-54 -53z" />
    <glyph glyph-name="uniFE82" unicode="&#x622;" horiz-adv-x="278" arabic-form="final" 
d="M0 571v15q0 41 27 62t69 13l101 -19q27 -4 42.5 7t15.5 34v7l33 2v-15q0 -41 -27 -62t-70 -14l-101 19q-26 5 -41.5 -6t-15.5 -34v-7zM273 0q-92 0 -127.5 41t-39.5 148l-14 357l59 3l14 -360q3 -78 22.5 -101t85.5 -23h10v-65h-10z" />
    <glyph glyph-name="uniFE84" unicode="&#x623;" horiz-adv-x="278" arabic-form="final" 
d="M266 691l8 -35l-259 -61l-7 34l89 21q-25 21 -33 54q-10 43 15 77t68 38q12 1 32 -1t35 -5l14 -3l-6 -35q-7 1 -16.5 3t-34 4.5t-30.5 -0.5q-25 -5 -38 -25t-8 -45q6 -24 27 -37t46 -7zM273 65h10v-65h-10q-92 0 -127.5 41t-39.5 148l-14 357l59 3l14 -360
q3 -78 22.5 -101t85.5 -23z" />
    <glyph glyph-name="uniFE86" unicode="&#x624;" horiz-adv-x="475" arabic-form="final" 
d="M117 391l-8 35l89 21q-25 21 -33 54q-10 43 15 77t68 37q12 1 32.5 -1t35.5 -5l14 -3l-7 -35q-7 1 -17 3t-32 4.5t-31 0.5q-25 -5 -38.5 -25.5t-7.5 -45.5q5 -22 24.5 -35t42.5 -10l104 25l7 -35l-98 -24q-1 0 -4 -0.5t-4 -1.5zM480 65v-65h-55v-3q13 -122 -54.5 -167
t-267.5 -87l-12 64q168 35 211 55q58 26 65 79q2 20 -1 48l-1 11h-139q-69 0 -111 39.5t-47 109.5q-6 76 38 138t119 65q74 4 123.5 -50t59.5 -146l10 -91h62zM226 65h132l-9 83q-7 68 -39.5 104.5t-81.5 34.5q-51 -2 -78 -42t-23 -91q6 -89 99 -89z" />
    <glyph glyph-name="uniFE88" unicode="&#x625;" horiz-adv-x="267" arabic-form="final" 
d="M262 65h10v-65h-10q-92 0 -127 41t-40 148l-18 460l59 2l18 -462q2 -77 22 -100.5t86 -23.5zM163 -193l99 23l7 -35l-258 -61l-8 35l88 21q-24 20 -31 53q-10 43 14.5 77.5t67.5 37.5q12 1 32.5 -1t35.5 -5l14 -3l-7 -35q-7 1 -16.5 3t-33.5 4.5t-30 -0.5q-26 -5 -39 -25
t-7 -45q5 -24 26 -37t46 -7z" />
    <glyph glyph-name="uniFE8A" unicode="&#x626;" horiz-adv-x="668" arabic-form="final" 
d="M214 201l-7 35l88 21q-24 20 -32 53q-10 43 15 77.5t68 37.5q12 1 32 -1t34 -5l15 -3l-6 -35q-7 1 -17.5 3t-32.5 4.5t-31 0.5q-25 -5 -38.5 -25.5t-7.5 -45.5q6 -23 25 -35.5t42 -9.5l104 25l8 -35l-99 -24q-2 -1 -7 -1zM673 65v-65q-47 0 -97 8q15 -20 18 -39
q7 -47 -6.5 -82t-48.5 -58t-73 -37t-96 -28q-96 -22 -169 2.5t-109.5 87t-41 155t36.5 206.5l57 -22q-68 -193 -7 -297.5t220 -67.5q110 26 142 47q49 31 37 92q-9 43 -133 86q-7 3 -21 7t-21 7l18 62q14 -4 51 -15t53 -15.5t47 -12.5t50.5 -11.5t45 -6.5t47.5 -3z" />
    <glyph glyph-name="uniFE8B" unicode="&#x626;" horiz-adv-x="301" arabic-form="initial" 
d="M21 419l-8 35l90 21q-25 21 -33 54q-10 43 15 77t67 37q12 2 32.5 -0.5t35.5 -5.5l14 -3l-6 -34q-7 1 -16.5 3t-34 4.5t-30.5 -0.5q-26 -5 -39 -25.5t-7 -45.5q5 -22 24 -34.5t42 -10.5l105 25l8 -35l-99 -24q-1 0 -3 -0.5t-3 -0.5zM201 370l40 -149q14 -57 6.5 -99
t-34 -69t-62 -40t-77.5 -13h-79v65h79q64 0 97.5 32t13.5 108l-40 149z" />
    <glyph glyph-name="uniFE8C" unicode="&#x626;" horiz-adv-x="309" arabic-form="medial" 
d="M22 354l-7 34l89 21q-25 21 -33 54q-10 43 15 77t68 38q12 1 32 -1t34 -5l15 -3l-6 -35q-7 1 -16.5 3t-34 4.5t-30.5 -0.5q-25 -5 -38 -25t-8 -45q6 -24 27 -37t46 -7l98 23l8 -35zM215 157q5 -50 27 -71t72 -21v-65q-86 0 -125 54q-43 -54 -131 -54h-63v65h63
q53 0 77.5 22t21.5 64v2l-11 123l58 5l11 -123v-1z" />
    <glyph glyph-name="uniFE8E" unicode="&#x627;" horiz-adv-x="267" arabic-form="final" 
d="M262 0q-92 0 -127 41t-40 148l-18 460l59 2l18 -462q2 -77 22 -100.5t86 -23.5h10v-65h-10z" />
    <glyph glyph-name="uniFE90" unicode="&#x628;" horiz-adv-x="943" arabic-form="final" 
d="M849 157q5 -50 27 -71t72 -21v-65q-87 0 -126 54q-41 -54 -130 -54h-241q-169 0 -223.5 5t-89.5 21q-57 24 -77 77t-2 125l37 140l57 -17l-37 -142q-13 -49 -2 -77.5t48 -45.5q18 -8 35.5 -11.5t78.5 -6.5t175 -3h241q52 0 77 22t21 63v3l-11 123l59 5l11 -123v-1z
M397 -138l59 60l60 -60l-60 -60z" />
    <glyph glyph-name="uniFE91" unicode="&#x628;" horiz-adv-x="301" arabic-form="initial" 
d="M-5 0v65h79q64 0 97.5 32t13.5 108l-40 149l56 16l40 -149q14 -57 6.5 -99t-34 -69t-62 -40t-77.5 -13h-79zM65 -199l-60 59l60 60l59 -60z" />
    <glyph glyph-name="uniFE92" unicode="&#x628;" horiz-adv-x="309" arabic-form="medial" 
d="M215 157q5 -50 27 -71t72 -21v-65q-86 0 -125 54q-43 -54 -131 -54h-63v65h63q53 0 77.5 22t21.5 64v2l-11 123l58 5l11 -123v-1zM55 -139l59 60l60 -60l-60 -60z" />
    <glyph glyph-name="uniFE94" unicode="&#x629;" horiz-adv-x="509" arabic-form="final" 
d="M214 571l-53 -53l-53 53l53 53zM379 571l-53 -53l-53 53l53 53zM495 65h19v-65h-19q-50 0 -93 25t-67 68q-19 -3 -65 -10.5t-51 -8.5q-50 -7 -97.5 25.5t-63.5 82.5q-20 61 9 120t89 78l153 50v49h59v-289q0 -52 37 -88.5t90 -36.5zM215 139q26 6 97 16q-3 18 -3 35v176
l-134 -46q-38 -13 -55.5 -46t-6.5 -69q9 -31 39 -51.5t63 -14.5z" />
    <glyph glyph-name="uniFE96" unicode="&#x62a;" horiz-adv-x="943" arabic-form="final" 
d="M426 375l-53 -53l-53 53l53 53zM591 375l-53 -53l-53 53l53 53zM849 157q5 -50 27 -71t72 -21v-65q-87 0 -126 54q-41 -54 -130 -54h-241q-169 0 -223.5 5t-89.5 21q-57 24 -77 77t-2 125l37 140l57 -17l-37 -142q-13 -49 -2 -77.5t48 -45.5q18 -8 35.5 -11.5t78.5 -6.5
t175 -3h241q52 0 77 22t21 63v3l-11 123l59 5l11 -123v-1z" />
    <glyph glyph-name="uniFE97" unicode="&#x62a;" horiz-adv-x="365" arabic-form="initial" 
d="M125 452l-53 53l53 54l53 -54zM290 452l-53 53l53 54l53 -54zM-5 0v65h144q29 0 51.5 6.5t41 22.5t22 43t-5.5 68l-39 149l57 16l40 -152q14 -57 6.5 -98t-34.5 -67.5t-62 -39.5t-77 -13h-144z" />
    <glyph glyph-name="uniFE98" unicode="&#x62a;" horiz-adv-x="391" arabic-form="medial" 
d="M159 432l-53 -53l-53 53l53 53zM324 432l-53 -53l-53 53l53 53zM297 157q5 -50 27 -71t72 -21v-65q-87 0 -126 54q-41 -54 -130 -54h-145v65h145q53 0 77.5 21.5t20.5 63.5v3l-11 123l59 5l11 -123v-1z" />
    <glyph glyph-name="uniFE9A" unicode="&#x62b;" horiz-adv-x="943" arabic-form="final" 
d="M501 469l-46 -47l-48 47l48 46zM425 355l-53 -53l-53 53l53 53zM537 302l-53 53l53 53l53 -53zM849 157q5 -50 27 -71t72 -21v-65q-87 0 -126 54q-41 -54 -130 -54h-241q-169 0 -223.5 5t-89.5 21q-57 24 -77 77t-2 125l37 140l57 -17l-37 -142q-13 -49 -2 -77.5
t48 -45.5q18 -8 35.5 -11.5t78.5 -6.5t175 -3h241q52 0 77 22t21 63v3l-11 123l59 5l11 -123v-1z" />
    <glyph glyph-name="uniFE9B" unicode="&#x62b;" horiz-adv-x="365" arabic-form="initial" 
d="M174 571l-47 47l47 47l47 -47zM92 451l-53 53l53 53l53 -53zM257 451l-53 53l53 53l53 -53zM-5 0v65h144q29 0 51.5 6.5t41 22.5t22 43t-5.5 68l-39 149l57 16l40 -152q14 -57 6.5 -98t-34.5 -67.5t-62 -39.5t-77 -13h-144z" />
    <glyph glyph-name="uniFE9C" unicode="&#x62b;" horiz-adv-x="391" arabic-form="medial" 
d="M171 499l-8 8t-15 15.5t-17 17.5l-7 6l47 47q47 -46 47 -47l-12 -12q-12 -11 -24 -23zM142 432l-53 -53l-53 53l53 53zM253 379l-52 53l52 53l54 -53zM297 157q5 -50 27 -71t72 -21v-65q-87 0 -126 54q-41 -54 -130 -54h-145v65h145q53 0 77.5 21.5t20.5 63.5v3l-11 123
l59 5l11 -123v-1z" />
    <glyph glyph-name="uniFE9E" unicode="&#x62c;" horiz-adv-x="727" arabic-form="final" 
d="M695 65h37v-65h-37q-68 0 -118.5 43t-64.5 109l-221 -61q-52 -14 -89.5 -37.5t-56.5 -48.5t-28 -54.5t-8.5 -54t6.5 -47.5q20 -77 91.5 -115t156.5 -16l254 70l15 -63l-257 -71q-108 -27 -198 23.5t-118 153.5q-6 32 -8.5 67.5t11.5 74t37.5 72.5t69 63.5t107.5 45.5
l293 79l-238 128q-50 27 -99.5 12.5t-78.5 -63.5l-18 -32l-51 31l19 34q43 73 113.5 94t142.5 -19l283 -157l-10 -76l-63 -17q9 -45 43.5 -74t82.5 -29zM362 -146l-60 60l60 60l59 -61z" />
    <glyph glyph-name="uniFE9F" unicode="&#x62c;" horiz-adv-x="637" arabic-form="initial" 
d="M331 346l256 -157l-9 -76l-294 -84q-48 -14 -103.5 -21t-86.5 -7.5t-94 -0.5h-5v65h5q173 0 269 27l248 69l-214 128q-48 29 -98 14t-80 -65l-17 -32l-51 31l18 34q42 74 113.5 95.5t142.5 -20.5zM241 -132l60 60l59 -60l-59 -60z" />
    <glyph glyph-name="uniFEA0" unicode="&#x62c;" horiz-adv-x="671" arabic-form="medial" 
d="M611 65h65v-65h-65q-49 0 -88 29t-54 75l-186 -60q-140 -44 -283 -44h-5v65h5q135 2 267 42l253 77l-219 118q-51 28 -99 13t-78 -65l-18 -32l-51 31l19 34q44 74 114 94.5t141 -19.5l258 -144l-9 -75l-52 -17q10 -25 33 -41t52 -16zM241 -132l60 60l59 -60l-59 -60z" />
    <glyph glyph-name="uniFEA2" unicode="&#x62d;" horiz-adv-x="727" arabic-form="final" 
d="M695 65h37v-65h-37q-68 0 -118.5 43t-64.5 109l-221 -61q-52 -14 -89.5 -37.5t-56.5 -48.5t-28 -54.5t-8.5 -54t6.5 -47.5q20 -77 91.5 -115t156.5 -16l254 70l15 -63l-257 -71q-108 -27 -198 23.5t-118 153.5q-6 32 -8.5 67.5t11.5 74t37.5 72.5t69 63.5t107.5 45.5
l293 79l-238 128q-50 27 -99.5 12.5t-78.5 -63.5l-18 -32l-51 31l19 34q43 73 113.5 94t142.5 -19l283 -157l-10 -76l-63 -17q9 -45 43.5 -74t82.5 -29z" />
    <glyph glyph-name="uniFEA3" unicode="&#x62d;" horiz-adv-x="637" arabic-form="initial" 
d="M331 346l256 -157l-9 -76l-294 -84q-48 -14 -103.5 -21t-86.5 -7.5t-94 -0.5h-5v65h5q173 0 269 27l248 69l-214 128q-48 29 -98 14t-80 -65l-17 -32l-51 31l18 34q42 74 113.5 95.5t142.5 -20.5z" />
    <glyph glyph-name="uniFEA4" unicode="&#x62d;" horiz-adv-x="671" arabic-form="medial" 
d="M611 65h65v-65h-65q-49 0 -88 29t-54 75l-186 -60q-140 -44 -283 -44h-5v65h5q135 2 267 42l253 77l-219 118q-51 28 -99 13t-78 -65l-18 -32l-51 31l19 34q44 74 114 94.5t141 -19.5l258 -144l-9 -75l-52 -17q10 -25 33 -41t52 -16z" />
    <glyph glyph-name="uniFEA6" unicode="&#x62e;" horiz-adv-x="727" arabic-form="final" 
d="M322 570l-59 -59l-60 59l60 60zM695 65h37v-65h-37q-68 0 -118.5 43t-64.5 109l-221 -61q-52 -14 -89.5 -37.5t-56.5 -48.5t-28 -54.5t-8.5 -54t6.5 -47.5q20 -77 91.5 -115t156.5 -16l254 70l15 -63l-257 -71q-108 -27 -198 23.5t-118 153.5q-6 32 -8.5 67.5t11.5 74
t37.5 72.5t69 63.5t107.5 45.5l293 79l-238 128q-50 27 -99.5 12.5t-78.5 -63.5l-18 -32l-51 31l19 34q43 73 113.5 94t142.5 -19l283 -157l-10 -76l-63 -17q9 -45 43.5 -74t82.5 -29z" />
    <glyph glyph-name="uniFEA7" unicode="&#x62e;" horiz-adv-x="637" arabic-form="initial" 
d="M294 519l-59 -60l-60 60l60 60zM331 346l256 -157l-9 -76l-294 -84q-48 -14 -103.5 -21t-86.5 -7.5t-94 -0.5h-5v65h5q173 0 269 27l248 69l-214 128q-48 29 -98 14t-80 -65l-17 -32l-51 31l18 34q42 74 113.5 95.5t142.5 -20.5z" />
    <glyph glyph-name="uniFEA8" unicode="&#x62e;" horiz-adv-x="671" arabic-form="medial" 
d="M293 519l-59 -60l-60 60l60 60zM611 65h65v-65h-65q-49 0 -88 29t-54 75l-186 -60q-140 -44 -283 -44h-5v65h5q135 2 267 42l253 77l-219 118q-51 28 -99 13t-78 -65l-18 -32l-51 31l19 34q44 74 114 94.5t141 -19.5l258 -144l-9 -75l-52 -17q10 -25 33 -41t52 -16z" />
    <glyph glyph-name="uniFEAA" unicode="&#x62f;" horiz-adv-x="582" arabic-form="final" 
d="M538 65h49v-65h-49q-70 0 -107 61q-45 -61 -165 -61h-31q-73 0 -115 25.5t-48 70.5l-5 67h54q0 -31 5 -54q10 -44 100 -44h47q76 0 102.5 26.5t15.5 71.5q0 1 -1 3l-75 295l58 16l75 -296q7 -29 12.5 -45t15.5 -35t25 -27.5t37 -8.5z" />
    <glyph glyph-name="uniFEAC" unicode="&#x630;" horiz-adv-x="582" arabic-form="final" 
d="M384 597l-59 -59l-60 59l60 60zM538 65h49v-65h-49q-70 0 -107 61q-45 -61 -165 -61h-31q-73 0 -115 25.5t-48 70.5l-5 67h54q0 -31 5 -54q10 -44 100 -44h47q76 0 102.5 26.5t15.5 71.5q0 1 -1 3l-75 295l58 16l75 -296q7 -29 12.5 -45t15.5 -35t25 -27.5t37 -8.5z" />
    <glyph glyph-name="uniFEAE" unicode="&#x631;" horiz-adv-x="330" arabic-form="final" 
d="M328 65h7v-65h-7q-37 0 -60 10l2 -14q9 -62 -6.5 -106t-59.5 -72t-81 -42t-108 -33l-15 63q112 31 140 44q74 36 74 110q0 13 -2 28l-40 288l59 9l16 -119q10 -63 26 -82t55 -19z" />
    <glyph glyph-name="uniFEB0" unicode="&#x632;" horiz-adv-x="330" arabic-form="final" 
d="M246 446l-59 -59l-60 59l60 60zM328 65h7v-65h-7q-37 0 -60 10l2 -14q9 -62 -6.5 -106t-59.5 -72t-81 -42t-108 -33l-15 63q112 31 140 44q74 36 74 110q0 13 -2 28l-40 288l59 9l16 -119q10 -63 26 -82t55 -19z" />
    <glyph glyph-name="uniFEB2" unicode="&#x633;" horiz-adv-x="1239" arabic-form="final" 
d="M1109 173q13 -47 50.5 -77.5t84.5 -30.5v-65q-88 0 -146 73q-38 -73 -139 -73q-85 0 -126 61q-41 -61 -124 -61q-68 0 -111 43l4 -31q7 -51 -2.5 -90.5t-28.5 -63.5t-55 -43.5t-67 -29.5t-79 -21q-96 -22 -169 2.5t-109.5 87t-41 155t36.5 206.5l57 -22
q-68 -193 -7 -297.5t220 -67.5q101 24 131 41q69 38 56 133l-40 274l58 10q7 -49 16 -106q11 -61 42 -87.5t87 -26.5q99 0 99 90v123h55v-123q0 -12 1.5 -21t7 -23t15 -23t28 -16t43.5 -7q62 0 85.5 29t12.5 68l-33 123l54 15l33 -123q0 -1 0.5 -2.5t0.5 -2.5z" />
    <glyph glyph-name="uniFEB3" unicode="&#x633;" horiz-adv-x="746" arabic-form="initial" 
d="M686 221q21 -75 1 -124.5t-60 -73t-90 -23.5q-79 0 -122 59q-41 -59 -125 -59q-80 0 -122 60q-41 -60 -126 -60h-47v65h47q94 0 99 83v8v124h55v-124v-8q0 -38 25 -60.5t69 -22.5q98 0 98 91v124h56v-124v-8q0 -38 25 -60.5t68 -22.5q53 0 82.5 32t9.5 108l-40 149l57 16
z" />
    <glyph glyph-name="uniFEB4" unicode="&#x633;" horiz-adv-x="795" arabic-form="medial" 
d="M665 173q13 -47 50.5 -77.5t84.5 -30.5v-65q-88 0 -146 73q-38 -73 -138 -73q-81 0 -124 64q-39 -64 -129 -64q-79 0 -120 64q-41 -64 -128 -64h-20v65h20q99 0 99 91v123h56v-123q0 -6 0.5 -12.5t6 -22t14 -27t27.5 -20.5t45 -9q99 0 99 91v123h55v-123v-1q0 -8 2.5 -19
t10.5 -28.5t29.5 -29.5t52.5 -12q62 0 85.5 29t13.5 68l-33 123l53 15l33 -123q0 -1 0.5 -2.5t0.5 -2.5z" />
    <glyph glyph-name="uniFEB6" unicode="&#x634;" horiz-adv-x="1239" arabic-form="final" 
d="M833 507l-8 8t-15 15.5t-17 17.5l-7 6l47 47q46 -46 46 -47l-11 -12q-12 -11 -24 -23zM803 440l-53 -53l-53 53l53 53zM915 387l-53 53l53 53l53 -53zM1109 173q13 -47 50.5 -77.5t84.5 -30.5v-65q-88 0 -146 73q-38 -73 -139 -73q-85 0 -126 61q-41 -61 -124 -61
q-68 0 -111 43l4 -31q7 -51 -2.5 -90.5t-28.5 -63.5t-55 -43.5t-67 -29.5t-79 -21q-96 -22 -169 2.5t-109.5 87t-41 155t36.5 206.5l57 -22q-68 -193 -7 -297.5t220 -67.5q101 24 131 41q69 38 56 133l-40 274l58 10q7 -49 16 -106q11 -61 42 -87.5t87 -26.5q99 0 99 90v123
h55v-123q0 -12 1.5 -21t7 -23t15 -23t28 -16t43.5 -7q62 0 85.5 29t12.5 68l-33 123l54 15l33 -123q0 -1 0.5 -2.5t0.5 -2.5z" />
    <glyph glyph-name="uniFEB7" unicode="&#x634;" horiz-adv-x="746" arabic-form="initial" 
d="M463 554l-47 -47l-47 47l47 46zM387 440l-54 -53l-52 53l52 53zM498 387l-53 53l53 53l53 -53zM686 221q21 -75 1 -124.5t-60 -73t-90 -23.5q-79 0 -122 59q-41 -59 -125 -59q-80 0 -122 60q-41 -60 -126 -60h-47v65h47q94 0 99 83v8v124h55v-124v-8q0 -38 25 -60.5
t69 -22.5q98 0 98 91v124h56v-124v-8q0 -38 25 -60.5t68 -22.5q53 0 82.5 32t9.5 108l-40 149l57 16z" />
    <glyph glyph-name="uniFEB8" unicode="&#x634;" horiz-adv-x="795" arabic-form="medial" 
d="M440 544l-47 -48l-47 48l47 46zM364 430l-53 -53l-53 53l53 53zM476 377l-53 53l53 53l53 -53zM665 173q13 -47 50.5 -77.5t84.5 -30.5v-65q-88 0 -146 73q-38 -73 -138 -73q-81 0 -124 64q-39 -64 -129 -64q-79 0 -120 64q-41 -64 -128 -64h-20v65h20q99 0 99 91v123h56
v-123q0 -6 0.5 -12.5t6 -22t14 -27t27.5 -20.5t45 -9q99 0 99 91v123h55v-123v-1q0 -8 2.5 -19t10.5 -28.5t29.5 -29.5t52.5 -12q62 0 85.5 29t13.5 68l-33 123l53 15l33 -123q0 -1 0.5 -2.5t0.5 -2.5z" />
    <glyph glyph-name="uniFEBA" unicode="&#x635;" horiz-adv-x="1244" arabic-form="final" 
d="M1235 65h14v-65h-14q-64 0 -122 44q-51 -44 -114 -44h-305h-23q-42 0 -70 22q0 -2 0.5 -5.5t0.5 -4.5q7 -51 -2.5 -90.5t-28.5 -63.5t-55 -43.5t-67 -29.5t-79 -21q-96 -22 -169 2.5t-109.5 87t-41 155t36.5 206.5l57 -22q-68 -193 -7 -297.5t220 -67.5q101 24 131 41
q69 38 56 133q-2 19 -18 126.5t-19 128.5l-3 19l58 10q4 -28 10 -65q14 -89 34 -122.5t64 -33.5h24h4l74 103q29 41 45 62.5t40 49t43.5 40.5t45 22.5t53.5 9.5q73 0 122.5 -52.5t49.5 -130.5q0 -39 -19 -75q35 -29 83 -29zM999 65q45 0 79 32t34 72q0 51 -32 84.5t-81 33.5
q-47 0 -82.5 -34.5t-95.5 -121.5l-48 -66h226z" />
    <glyph glyph-name="uniFEBB" unicode="&#x635;" horiz-adv-x="760" arabic-form="initial" 
d="M537 352q74 0 123.5 -52.5t49.5 -130.5q0 -68 -51.5 -118.5t-121.5 -50.5h-304q-65 0 -98 54q-46 -52 -135 -54h-5v65h5q106 2 114 93l11 123l58 -5l-11 -123v-2q-4 -41 12.5 -63.5t48.5 -22.5h4l74 103q36 51 56 77t49 55t58 40.5t63 11.5zM537 65q45 0 79.5 32t34.5 72
q0 51 -32.5 84.5t-81.5 33.5q-47 0 -82 -34.5t-95 -121.5l-48 -66h225z" />
    <glyph glyph-name="uniFEBC" unicode="&#x635;" horiz-adv-x="783" arabic-form="medial" 
d="M774 65h14v-65h-14q-64 0 -122 44q-51 -44 -115 -44h-304q-65 0 -98 54q-46 -52 -135 -54h-5v65h5q106 2 114 93l11 123l58 -5l-11 -123v-2q-4 -41 12.5 -63.5t48.5 -22.5h4l74 103q36 51 56 77t49 55t58 40.5t63 11.5q74 0 123.5 -52.5t49.5 -130.5q0 -39 -19 -75
q35 -29 83 -29zM537 65q45 0 79.5 32t34.5 72q0 51 -32.5 84.5t-81.5 33.5q-47 0 -82 -34.5t-95 -121.5l-48 -66h225z" />
    <glyph glyph-name="uniFEBE" unicode="&#x636;" horiz-adv-x="1244" arabic-form="final" 
d="M1042 500l-59 -59l-60 59l60 60zM1235 65h14v-65h-14q-64 0 -122 44q-51 -44 -114 -44h-305h-23q-42 0 -70 22q0 -2 0.5 -5.5t0.5 -4.5q7 -51 -2.5 -90.5t-28.5 -63.5t-55 -43.5t-67 -29.5t-79 -21q-96 -22 -169 2.5t-109.5 87t-41 155t36.5 206.5l57 -22
q-68 -193 -7 -297.5t220 -67.5q101 24 131 41q69 38 56 133q-2 19 -18 126.5t-19 128.5l-3 19l58 10q4 -28 10 -65q14 -89 34 -122.5t64 -33.5h24h4l74 103q29 41 45 62.5t40 49t43.5 40.5t45 22.5t53.5 9.5q73 0 122.5 -52.5t49.5 -130.5q0 -39 -19 -75q35 -29 83 -29z
M999 65q45 0 79 32t34 72q0 51 -32 84.5t-81 33.5q-47 0 -82.5 -34.5t-95.5 -121.5l-48 -66h226z" />
    <glyph glyph-name="uniFEBF" unicode="&#x636;" horiz-adv-x="760" arabic-form="initial" 
d="M584 483l-59 -59l-60 60l60 59zM537 352q74 0 123.5 -52.5t49.5 -130.5q0 -68 -51.5 -118.5t-121.5 -50.5h-304q-65 0 -98 54q-46 -52 -135 -54h-5v65h5q106 2 114 93l11 123l58 -5l-11 -123v-2q-4 -41 12.5 -63.5t48.5 -22.5h4l74 103q36 51 56 77t49 55t58 40.5
t63 11.5zM537 65q45 0 79.5 32t34.5 72q0 51 -32.5 84.5t-81.5 33.5q-47 0 -82 -34.5t-95 -121.5l-48 -66h225z" />
    <glyph glyph-name="uniFEC0" unicode="&#x636;" horiz-adv-x="783" arabic-form="medial" 
d="M573 488l-60 -59l-59 59l59 60zM774 65h14v-65h-14q-64 0 -122 44q-51 -44 -115 -44h-304q-65 0 -98 54q-46 -52 -135 -54h-5v65h5q106 2 114 93l11 123l58 -5l-11 -123v-2q-4 -41 12.5 -63.5t48.5 -22.5h4l74 103q36 51 56 77t49 55t58 40.5t63 11.5q74 0 123.5 -52.5
t49.5 -130.5q0 -39 -19 -75q35 -29 83 -29zM537 65q45 0 79.5 32t34.5 72q0 51 -32.5 84.5t-81.5 33.5q-47 0 -82 -34.5t-95 -121.5l-48 -66h225z" />
    <glyph glyph-name="uniFEC2" unicode="&#x637;" horiz-adv-x="676" arabic-form="final" 
d="M667 65h14v-65h-14q-61 0 -114 38q-47 -38 -107 -38h-396v65h96l31 43l-21 541l59 3l18 -465q61 87 106.5 126t106.5 39q74 0 123.5 -52.5t49.5 -130.5q0 -45 -24 -83q34 -21 72 -21zM446 65q45 0 79.5 32t34.5 72q0 51 -32.5 84.5t-81.5 33.5q-47 0 -82 -34.5
t-95 -121.5l-48 -66h225z" />
    <glyph glyph-name="uniFEC3" unicode="&#x637;" horiz-adv-x="614" arabic-form="initial" 
d="M391 352q74 0 123.5 -52.5t49.5 -130.5q0 -68 -51.5 -118.5t-121.5 -50.5h-396v65h96l31 43l-21 541l59 3l18 -465q61 87 106.5 126t106.5 39zM391 65q45 0 79.5 32t34.5 72q0 51 -32.5 84.5t-81.5 33.5q-47 0 -82 -34.5t-95 -121.5l-48 -66h225z" />
    <glyph glyph-name="uniFEC4" unicode="&#x637;" horiz-adv-x="637" arabic-form="medial" 
d="M628 65h14v-65h-14q-64 0 -122 44q-51 -44 -115 -44h-396v65h96l31 43l-21 541l59 3l18 -465q61 87 106.5 126t106.5 39q74 0 123.5 -52.5t49.5 -130.5q0 -39 -19 -75q35 -29 83 -29zM391 65q45 0 79.5 32t34.5 72q0 51 -32.5 84.5t-81.5 33.5q-47 0 -82 -34.5
t-95 -121.5l-48 -66h225z" />
    <glyph glyph-name="uniFEC6" unicode="&#x638;" horiz-adv-x="676" arabic-form="final" 
d="M667 65h14v-65h-14q-61 0 -114 38q-47 -38 -107 -38h-396v65h96l31 43l-21 541l59 3l18 -465q61 87 106.5 126t106.5 39q74 0 123.5 -52.5t49.5 -130.5q0 -45 -24 -83q34 -21 72 -21zM511 533l-60 -59l-59 60l59 59zM446 65q45 0 79.5 32t34.5 72q0 51 -32.5 84.5
t-81.5 33.5q-47 0 -82 -34.5t-95 -121.5l-48 -66h225z" />
    <glyph glyph-name="uniFEC7" unicode="&#x638;" horiz-adv-x="614" arabic-form="initial" 
d="M391 352q74 0 123.5 -52.5t49.5 -130.5q0 -68 -51.5 -118.5t-121.5 -50.5h-396v65h96l31 43l-21 541l59 3l18 -465q61 87 106.5 126t106.5 39zM445 533l-59 -59l-60 60l60 59zM391 65q45 0 79.5 32t34.5 72q0 51 -32.5 84.5t-81.5 33.5q-47 0 -82 -34.5t-95 -121.5
l-48 -66h225z" />
    <glyph glyph-name="uniFEC8" unicode="&#x638;" horiz-adv-x="637" arabic-form="medial" 
d="M628 65h14v-65h-14q-64 0 -122 44q-51 -44 -115 -44h-396v65h96l31 43l-21 541l59 3l18 -465q61 87 106.5 126t106.5 39q74 0 123.5 -52.5t49.5 -130.5q0 -39 -19 -75q35 -29 83 -29zM443 533l-59 -59l-60 60l60 59zM391 65q45 0 79.5 32t34.5 72q0 51 -32.5 84.5
t-81.5 33.5q-47 0 -82 -34.5t-95 -121.5l-48 -66h225z" />
    <glyph glyph-name="uniFECA" unicode="&#x639;" horiz-adv-x="588" arabic-form="final" 
d="M275 102q-83 -31 -127 -74t-38 -107q5 -58 50 -96t105 -34l293 25l5 -65l-294 -25q-83 -7 -146.5 49t-71.5 141t41 140t148 92l-133 177l16 52l241 35q72 10 113 -52t8 -122q-38 -79 -149 -115l21 -28q15 -20 62 -25t174 -5v-65h-16q-135 0 -186.5 8.5t-80.5 47.5z
M181 325l120 -156l11 3q108 33 128 104q13 32 -6.5 57t-51.5 20q-160 -21 -201 -28z" />
    <glyph glyph-name="uniFECB" unicode="&#x639;" horiz-adv-x="529" arabic-form="initial" 
d="M479 45l-172 -33l-22 -3q-35 -3 -105 -5.5t-122 -3.5h-52h-11v65h11q70 1 142 3q-30 37 -39 84q-13 72 27 131t111 72q23 4 63.5 -1.5t69.5 -12.5l28 -7l-16 -63q-10 3 -26.5 7t-52 9.5t-53.5 3.5q-47 -7 -74 -43.5t-19 -82.5q8 -45 45.5 -71t83.5 -17l171 32z" />
    <glyph glyph-name="uniFECC" unicode="&#x639;" horiz-adv-x="507" arabic-form="medial" 
d="M512 65v-65q-124 0 -181 6.5t-93 33.5q-118 -40 -225 -40h-18v65h18q96 0 183 21l-133 179l16 51l242 35q68 10 109.5 -46.5t14.5 -120.5q-25 -61 -128 -112q40 -7 195 -7zM137 265l123 -160q115 42 137 111q13 31 -6.5 56.5t-51.5 20.5z" />
    <glyph glyph-name="uniFECE" unicode="&#x63a;" horiz-adv-x="588" arabic-form="final" 
d="M363 531l-59 -59l-60 59l60 60zM275 102q-83 -31 -127 -74t-38 -107q5 -58 50 -96t105 -34l293 25l5 -65l-294 -25q-83 -7 -146.5 49t-71.5 141t41 140t148 92l-133 177l16 52l241 35q72 10 113 -52t8 -122q-38 -79 -149 -115l21 -28q15 -20 62 -25t174 -5v-65h-16
q-135 0 -186.5 8.5t-80.5 47.5zM181 325l120 -156l11 3q108 33 128 104q13 32 -6.5 57t-51.5 20q-160 -21 -201 -28z" />
    <glyph glyph-name="uniFECF" unicode="&#x63a;" horiz-adv-x="529" arabic-form="initial" 
d="M318 484l-59 -59l-60 60l60 59zM479 45l-172 -33l-22 -3q-35 -3 -105 -5.5t-122 -3.5h-52h-11v65h11q70 1 142 3q-30 37 -39 84q-13 72 27 131t111 72q23 4 63.5 -1.5t69.5 -12.5l28 -7l-16 -63q-10 3 -26.5 7t-52 9.5t-53.5 3.5q-47 -7 -74 -43.5t-19 -82.5
q8 -45 45.5 -71t83.5 -17l171 32z" />
    <glyph glyph-name="uniFED0" unicode="&#x63a;" horiz-adv-x="507" arabic-form="medial" 
d="M323 492l-59 -59l-60 59l60 60zM512 65v-65q-124 0 -181 6.5t-93 33.5q-118 -40 -225 -40h-18v65h18q96 0 183 21l-133 179l16 51l242 35q68 10 109.5 -46.5t14.5 -120.5q-25 -61 -128 -112q40 -7 195 -7zM137 265l123 -160q115 42 137 111q13 31 -6.5 56.5t-51.5 20.5z
" />
    <glyph glyph-name="uniFED2" unicode="&#x641;" horiz-adv-x="941" arabic-form="final" 
d="M777 500l-59 -59l-60 59l60 60zM888 65h58v-65h-58q-91 0 -189 39q-106 -39 -201 -39h-52q-165 0 -219 5t-89 21q-57 24 -77 77t-2 125l37 140l57 -17l-37 -142q-13 -49 -2 -77.5t48 -45.5q18 -8 35.5 -11.5t78.5 -6.5t175 -3h47q53 0 120 16q-87 55 -82 103l6 57
q8 69 60.5 111t120.5 34q67 -7 106.5 -61.5t34.5 -118.5l-3 -43q-4 -43 -80 -86q50 -12 107 -12zM595 181q3 -15 31 -37t71 -41q96 34 105 67l4 36q4 41 -21 75.5t-69 39.5q-43 5 -77 -21t-39 -69z" />
    <glyph glyph-name="uniFED3" unicode="&#x641;" horiz-adv-x="454" arabic-form="initial" 
d="M276 632l-59 -59l-60 59l60 60zM400 173q6 -68 -5.5 -102.5t-56.5 -52.5t-136 -18h-207v65h208q69 0 99 8.5t38 26.5t4 59q-55 -11 -134 -11q-67 0 -108.5 39t-44.5 105q-3 76 37 134t115 62q73 4 122.5 -48.5t57.5 -142.5zM111 297q3 -41 29.5 -65t69.5 -24q71 0 128 13
l-6 71q-7 66 -39.5 102.5t-81.5 34.5q-50 -3 -77 -42.5t-23 -89.5z" />
    <glyph glyph-name="uniFED4" unicode="&#x641;" horiz-adv-x="490" arabic-form="medial" 
d="M318 525l-59 -59l-60 59l60 60zM437 65h58v-65h-58q-91 0 -189 39q-104 -39 -201 -39h-52v65h52q53 0 120 16q-85 55 -81 103l5 57q9 69 61.5 110.5t120.5 34.5q66 -7 105.5 -61.5t34.5 -118.5l-3 -43q-4 -43 -80 -86q50 -12 107 -12zM144 181q3 -15 31 -37t71 -41
q97 35 106 67l3 36q4 41 -21 75.5t-69 39.5q-43 5 -77 -21t-39 -69z" />
    <glyph glyph-name="uniFED6" unicode="&#x642;" horiz-adv-x="665" arabic-form="final" 
d="M332 415l-53 53l53 53l53 -53zM497 415l-53 53l53 53l53 -53zM370 -236q-96 -22 -169 2.5t-109.5 87t-41 155t36.5 206.5l57 -22q-68 -193 -7 -297.5t220 -67.5q110 25 157.5 55t41.5 93l-3 24h-137q-69 0 -111 39.5t-47 109.5q-6 76 38 138t119 65q74 4 123.5 -50
t59.5 -146l9 -91h63v-65h-56l2 -26q2 -49 -11 -83t-46 -57.5t-76 -39t-113 -30.5zM416 65h132l-9 83q-7 68 -39.5 104.5t-81.5 34.5q-51 -2 -78 -42t-23 -91q8 -89 99 -89z" />
    <glyph glyph-name="uniFED7" unicode="&#x642;" horiz-adv-x="454" arabic-form="initial" 
d="M185 610l-54 -53l-52 53l52 54zM350 610l-53 -53l-53 53l53 54zM400 173q6 -68 -5.5 -102.5t-56.5 -52.5t-136 -18h-207v65h208q69 0 99 8.5t38 26.5t4 59q-55 -11 -134 -11q-67 0 -108.5 39t-44.5 105q-3 76 37 134t115 62q73 4 122.5 -48.5t57.5 -142.5zM111 297
q3 -41 29.5 -65t69.5 -24q71 0 128 13l-6 71q-7 66 -39.5 102.5t-81.5 34.5q-50 -3 -77 -42.5t-23 -89.5z" />
    <glyph glyph-name="uniFED8" unicode="&#x642;" horiz-adv-x="490" arabic-form="medial" 
d="M231 528l-53 -53l-53 53l53 53zM396 528l-53 -53l-53 53l53 53zM437 65h58v-65h-58q-91 0 -189 39q-104 -39 -201 -39h-52v65h52q53 0 120 16q-85 55 -81 103l5 57q9 69 61.5 110.5t120.5 34.5q66 -7 105.5 -61.5t34.5 -118.5l-3 -43q-4 -43 -80 -86q50 -12 107 -12z
M144 181q3 -15 31 -37t71 -41q97 35 106 67l3 36q4 41 -21 75.5t-69 39.5q-43 5 -77 -21t-39 -69z" />
    <glyph glyph-name="uniFEDA" unicode="&#x643;" horiz-adv-x="899" arabic-form="final" 
d="M884 65h20v-65h-20q-79 0 -123 61q-42 -61 -132 -61h-178q-169 0 -223.5 5t-89.5 21q-57 24 -77 77t-2 125l37 140l57 -17l-37 -142q-13 -49 -2 -77.5t48 -45.5q18 -8 35.5 -11.5t78.5 -6.5t175 -3h178q58 0 79 27t20 63l-19 494l58 3l19 -488q2 -53 30 -76t68 -23z
M477 295q17 -17 9.5 -40t-31.5 -23h-89v30h75q9 0 11 7.5t-5 13.5l-61 63l6 25l98 33l9 -28l-76 -25z" />
    <glyph glyph-name="uniFEDB" unicode="&#x643;" horiz-adv-x="459" arabic-form="initial" 
d="M112 499l194 -279q31 -50 26.5 -101t-41.5 -83q-34 -36 -94 -36h-202v65h203q27 0 43 13q25 17 31 46.5t-11 55.5l-223 316l13 49l362 133l21 -61z" />
    <glyph glyph-name="uniFEDC" unicode="&#x643;" horiz-adv-x="500" arabic-form="medial" 
d="M491 65h14v-65h-14q-87 0 -163 94q-11 -35 -37 -58q-34 -36 -94 -36h-202v65h203q27 0 43 13q25 17 31 46.5t-11 55.5l-223 316l13 49l362 133l21 -61l-322 -118l194 -279q4 -6 6 -10q55 -83 93.5 -114t85.5 -31z" />
    <glyph glyph-name="uniFEDE" unicode="&#x644;" horiz-adv-x="710" arabic-form="final" 
d="M695 65h20v-65h-20q-52 0 -93 29l1 -21q2 -52 -11 -92t-32 -63.5t-55 -42.5t-63 -27.5t-73 -19.5q-95 -23 -168 1t-109.5 86.5t-41.5 155.5t37 207l56 -22q-42 -130 -31.5 -220.5t75.5 -130.5t168 -14q91 23 114 34q71 34 75 123v22l-25 644l59 3l19 -488q2 -53 30 -76
t68 -23z" />
    <glyph glyph-name="uniFEDF" unicode="&#x644;" horiz-adv-x="225" arabic-form="initial" 
d="M175 158q2 -38 -11 -72.5t-51 -60t-95 -25.5h-25v65h25q58 0 79 27t20 63l-19 494l58 3z" />
    <glyph glyph-name="uniFEE0" unicode="&#x644;" horiz-adv-x="288" arabic-form="medial" 
d="M273 65h20v-65h-20q-79 0 -123 61q-42 -61 -132 -61h-25v65h25q58 0 79 27t20 63l-19 494l58 3l19 -488q2 -53 30 -76t68 -23z" />
    <glyph glyph-name="uniFEE2" unicode="&#x645;" horiz-adv-x="568" arabic-form="final" 
d="M465 175q0 -51 28.5 -80.5t79.5 -29.5v-65q-88 0 -131 68q-1 -3 -8 -17q-19 -37 -57.5 -50.5t-77.5 5.5l-190 99l17 -403l-59 -2l-17 458l40 26l55 -29l59 115q25 50 78 67t102 -9q38 -21 59.5 -62t21.5 -91zM387 78q31 60 25 115.5t-49 78.5q-31 17 -65 4.5t-52 -48.5
l-50 -99l134 -69q17 -8 33 -3t24 21z" />
    <glyph glyph-name="uniFEE3" unicode="&#x645;" horiz-adv-x="497" arabic-form="initial" 
d="M367 327q62 -35 76.5 -114.5t-27.5 -161.5q-18 -35 -55.5 -49.5t-79.5 4.5l-134 69q-53 -75 -141 -75h-11v65h11q74 0 106 63l73 140q27 52 79.5 69t102.5 -10zM369 77q31 60 25 115.5t-49 78.5q-31 17 -64.5 5t-52.5 -49l-51 -98l136 -70q20 -8 34 -2t22 20z" />
    <glyph glyph-name="uniFEE4" unicode="&#x645;" horiz-adv-x="550" arabic-form="medial" 
d="M447 175q0 -51 28.5 -80.5t79.5 -29.5v-65q-88 0 -131 68q-1 -3 -8 -17q-18 -35 -55.5 -49.5t-79.5 4.5l-134 69q-53 -75 -141 -75h-11v65h11q74 0 106 63l73 140q27 52 79.5 69t102.5 -10q80 -45 80 -152zM369 77q31 60 25 115.5t-49 78.5q-31 17 -64.5 5t-52.5 -49
l-51 -98l136 -70q20 -8 34 -2t22 20z" />
    <glyph glyph-name="uniFEE6" unicode="&#x646;" horiz-adv-x="694" arabic-form="final" 
d="M381 266l-60 -60l-59 60l59 60zM670 65h29v-65h-28q-42 0 -70 22q0 -2 0.5 -5.5t0.5 -4.5q7 -51 -2.5 -90.5t-28.5 -63.5t-55 -43.5t-67 -29.5t-79 -21q-96 -22 -169 2.5t-109.5 87t-41 155t36.5 206.5l57 -22q-68 -193 -7 -297.5t220 -67.5q101 24 131 41q69 38 56 133
q-2 19 -18 126.5t-19 128.5l-3 19l58 10q4 -28 10 -65q14 -89 34 -122.5t64 -33.5z" />
    <glyph glyph-name="uniFEE7" unicode="&#x646;" horiz-adv-x="301" arabic-form="initial" 
d="M134 447l-60 59l60 60l60 -60zM-5 0v65h79q64 0 97.5 32t13.5 108l-40 149l56 16l40 -149q14 -57 6.5 -99t-34 -69t-62 -40t-77.5 -13h-79z" />
    <glyph glyph-name="uniFEE8" unicode="&#x646;" horiz-adv-x="309" arabic-form="medial" 
d="M187 433l-59 -59l-60 59l60 60zM215 157q5 -50 27 -71t72 -21v-65q-86 0 -125 54q-43 -54 -131 -54h-63v65h63q53 0 77.5 22t21.5 64v2l-11 123l58 5l11 -123v-1z" />
    <glyph glyph-name="uniFEEA" unicode="&#x647;" horiz-adv-x="509" arabic-form="final" 
d="M495 65h19v-65h-19q-50 0 -93 25t-67 68q-19 -3 -65 -10.5t-51 -8.5q-50 -7 -97.5 25.5t-63.5 82.5q-20 61 9 120t89 78l153 50v49h59v-289q0 -52 37 -88.5t90 -36.5zM215 139q26 6 97 16q-3 18 -3 35v176l-134 -46q-38 -13 -55.5 -46t-6.5 -69q9 -31 39 -51.5t63 -14.5z
" />
    <glyph glyph-name="uniFEEB" unicode="&#x647;" horiz-adv-x="625" arabic-form="initial" 
d="M488 270q57 -29 78.5 -89.5t-5.5 -116.5q-27 -58 -85 -79.5t-115 4.5l-123 55q-86 -44 -197 -44h-46v65h46q66 0 119 14l-16 7q-62 28 -84 91.5t8 125.5q26 54 76 77l-36 19l27 57l140 -74q1 0 5 -2q6 -3 16 -9zM170 145l69 -32q44 30 64 75q17 37 4 75.5t-50 56.5
q-38 18 -76.5 5.5t-56.5 -48.5q-19 -38 -6 -76t52 -56zM509 89q16 34 2.5 70t-49.5 55l-94 49q10 -54 -12 -102q-20 -44 -57 -76l86 -40q34 -16 71 -3t53 47z" />
    <glyph glyph-name="uniFEEC" unicode="&#x647;" horiz-adv-x="474" arabic-form="medial" 
d="M431 65h48v-65h-48q-33 0 -56 -22.5t-23 -54.5v-133l-29 -30q-87 -1 -157.5 65t-81.5 176q-7 -1 -22 -1h-67v65h67q17 0 25 1q9 43 34.5 123t46.5 138l21 58l34 17l74 -21q59 -16 84 -86.5t-4 -133.5q-26 -58 -88.5 -99t-145.5 -55q7 -77 50.5 -125.5t101.5 -57.5v99
q0 59 39.5 100.5t96.5 41.5zM232 332q-63 -173 -84 -260q140 25 178 115q17 38 2.5 79.5t-47.5 51.5z" />
    <glyph glyph-name="uniFEEE" unicode="&#x648;" horiz-adv-x="475" arabic-form="final" 
d="M480 65v-65h-55v-3q13 -122 -54.5 -167t-267.5 -87l-12 64q168 35 211 55q58 26 65 79q2 20 -1 48l-1 11h-139q-69 0 -111 39.5t-47 109.5q-6 76 38 138t119 65q74 4 123.5 -50t59.5 -146l10 -91h62zM226 65h132l-9 83q-7 68 -39.5 104.5t-81.5 34.5q-51 -2 -78 -42
t-23 -91q6 -89 99 -89z" />
    <glyph glyph-name="uniFEF0" unicode="&#x649;" horiz-adv-x="668" arabic-form="final" 
d="M673 65v-65q-47 0 -97 8q15 -20 18 -39q7 -47 -6.5 -82t-48.5 -58t-73 -37t-96 -28q-96 -22 -169 2.5t-109.5 87t-41 155t36.5 206.5l57 -22q-68 -193 -7 -297.5t220 -67.5q110 26 142 47q49 31 37 92q-9 43 -133 86q-7 3 -21 7t-21 7l18 62q14 -4 51 -15t53 -15.5
t47 -12.5t50.5 -11.5t45 -6.5t47.5 -3z" />
    <glyph glyph-name="uniFEF2" unicode="&#x64a;" horiz-adv-x="668" arabic-form="final" 
d="M673 65v-65q-47 0 -97 8q15 -20 18 -39q7 -47 -6.5 -82t-48.5 -58t-73 -37t-96 -28q-96 -22 -169 2.5t-109.5 87t-41 155t36.5 206.5l57 -22q-68 -193 -7 -297.5t220 -67.5q110 26 142 47q49 31 37 92q-9 43 -133 86q-7 3 -21 7t-21 7l18 62q14 -4 51 -15t53 -15.5
t47 -12.5t50.5 -11.5t45 -6.5t47.5 -3zM176 -337l53 53l53 -53l-53 -53zM341 -337l53 53l54 -53l-54 -53z" />
    <glyph glyph-name="uniFEF3" unicode="&#x64a;" horiz-adv-x="365" arabic-form="initial" 
d="M-5 0v65h144q29 0 51.5 6.5t41 22.5t22 43t-5.5 68l-39 149l57 16l40 -152q14 -57 6.5 -98t-34.5 -67.5t-62 -39.5t-77 -13h-144zM14 -196l-53 53l53 53l53 -53zM179 -196l-53 53l53 53l53 -53z" />
    <glyph glyph-name="uniFEF4" unicode="&#x64a;" horiz-adv-x="391" arabic-form="medial" 
d="M297 157q5 -50 27 -71t72 -21v-65q-87 0 -126 54q-41 -54 -130 -54h-145v65h145q53 0 77.5 21.5t20.5 63.5v3l-11 123l59 5l11 -123v-1zM21 -144l53 53l53 -53l-53 -53zM186 -144l53 53l53 -53l-53 -53z" />
    <glyph glyph-name=".notdef" horiz-adv-x="300" 
d="M40 -12v524h220v-524h-220zM60 12h180v476h-180v-476z" />
    <glyph glyph-name=".null" 
 />
    <glyph glyph-name="nonmarkingreturn" horiz-adv-x="333" 
 />
    <glyph glyph-name="CR" unicode="&#xd;" horiz-adv-x="300" 
 />
    <glyph glyph-name="space" unicode=" " horiz-adv-x="267" 
 />
    <glyph glyph-name="exclam" unicode="!" horiz-adv-x="276" 
d="M110 163l-6 484h69l-7 -484h-56zM138 -25q-25 0 -42 17t-17 42t17 41.5t42 16.5q24 0 41 -16.5t17 -41.5t-17 -42t-41 -17z" />
    <glyph glyph-name="quotedbl" unicode="&#x22;" horiz-adv-x="258" 
d="M37 492l-6 206h71l-7 -206h-58zM162 492l-6 206h72l-8 -206h-58z" />
    <glyph glyph-name="numbersign" unicode="#" horiz-adv-x="625" 
d="M554 401h-85l-23 -155h75l-1 -60h-84l-25 -166l-69 1l26 165h-156l-26 -166l-68 1l25 165h-73v60h82l24 155h-72l1 60h80l26 167l69 -1l-26 -166h156l26 167l68 -1l-25 -166h75v-60zM377 246l24 155h-156l-24 -155h156z" />
    <glyph glyph-name="dollar" unicode="$" horiz-adv-x="548" 
d="M504 162q0 -76 -53 -121t-146 -50v-70h-61v72q-84 11 -132 56.5t-48 116.5v34h67v-30q0 -44 30 -74t83 -41l1 260q-44 19 -68 31.5t-51 33.5t-38.5 48.5t-11.5 64.5q0 70 44.5 112t123.5 50v83h60v-82q89 -6 141.5 -53t52.5 -124v-26h-67v22q0 49 -33.5 81.5t-93.5 39.5
l-1 -238q1 0 1 -0.5t1 -0.5q49 -20 78.5 -35t60.5 -38t45.5 -53t14.5 -69zM143 495q0 -40 23 -64t79 -49l-1 214q-49 -6 -75 -32t-26 -69zM305 51q64 2 97 31t33 77q0 42 -30 70t-101 60z" />
    <glyph glyph-name="percent" unicode="%" horiz-adv-x="780" 
d="M211 426q-58 0 -98 40.5t-40 99.5t40 99.5t98 40.5q56 0 96.5 -41t40.5 -99t-40 -99t-97 -41zM176 -3l375 706h51l-375 -706h-51zM211 464q41 0 69 29.5t28 72.5t-28 72.5t-69 29.5t-69.5 -29.5t-28.5 -72.5t28.5 -72.5t69.5 -29.5zM570 -6q-58 0 -98 41t-40 100
q0 58 40 98.5t98 40.5q56 0 96 -40.5t40 -98.5q0 -59 -39.5 -100t-96.5 -41zM570 32q40 0 68.5 30t28.5 73q0 42 -28.5 71.5t-68.5 29.5q-41 0 -70 -29.5t-29 -71.5q0 -43 29 -73t70 -30z" />
    <glyph glyph-name="ampersand" unicode="&#x26;" horiz-adv-x="640" 
d="M584 0h-78l-60 70q-87 -78 -193 -78q-83 0 -133.5 38.5t-50.5 111.5q0 66 37 110.5t104 88.5q-56 67 -73.5 101.5t-17.5 71.5q0 62 43.5 101.5t114.5 39.5q73 0 118.5 -39.5t45.5 -103.5q0 -58 -36 -100.5t-101 -85.5l45 -54q30 -37 99 -117q38 43 75 94l48 -29
q-42 -63 -84 -109q9 -11 27 -31q12 -14 37 -42.5t33 -37.5zM279 596q-43 1 -67.5 -24t-24.5 -64q0 -22 14.5 -47.5t61.5 -84.5q55 37 83 67t28 68q0 37 -25.5 61t-69.5 24zM264 47q73 4 143 67q-54 64 -76 88q-13 14 -80 90q-53 -36 -82.5 -69t-31.5 -75q-2 -47 33 -75.5
t94 -25.5z" />
    <glyph glyph-name="quotesingle" unicode="'" horiz-adv-x="133" 
d="M37 492l-6 206h71l-7 -206h-58z" />
    <glyph glyph-name="parenleft" unicode="(" horiz-adv-x="332" 
d="M277 -165l-43 -47q-88 90 -136 209t-48 247q0 130 49 249t140 211l43 -47q-84 -83 -128.5 -189.5t-44.5 -223.5q0 -115 43.5 -221t124.5 -188z" />
    <glyph glyph-name="parenright" unicode=")" horiz-adv-x="332" 
d="M55 -165q81 82 124.5 188t43.5 221q0 117 -44.5 223.5t-128.5 189.5l43 47q90 -92 139.5 -211.5t49.5 -248.5q0 -128 -48 -247t-136 -209z" />
    <glyph glyph-name="asterisk" unicode="*" horiz-adv-x="497" 
d="M447 447l-151 -49l93 -128l-47 -34l-93 129l-94 -129l-47 34l93 128l-151 49l19 56l150 -48v158h59v-158l150 48z" />
    <glyph glyph-name="plus" unicode="+" horiz-adv-x="421" 
d="M385 329v-52h-148v-148h-53v148h-148v52h148v148h53v-148h148z" />
    <glyph glyph-name="comma" unicode="," horiz-adv-x="171" 
d="M40 -78l29 216h62l-45 -216h-46z" />
    <glyph glyph-name="hyphen" unicode="-" horiz-adv-x="312" 
d="M33 279v61h246v-61h-246z" />
    <glyph glyph-name="period" unicode="." horiz-adv-x="302" 
d="M151 -8q-25 0 -42 17t-17 43q0 24 17 40.5t42 16.5q24 0 41 -16.5t17 -40.5q0 -25 -17 -42.5t-41 -17.5z" />
    <glyph glyph-name="slash" unicode="/" horiz-adv-x="321" 
d="M21 3l177 648h69l-176 -648h-70z" />
    <glyph glyph-name="zero" unicode="0" horiz-adv-x="514" 
d="M260 -8q-90 0 -143 51.5t-53 137.5v288q0 86 53 137t143 51q91 0 145 -51t54 -137v-288q0 -86 -54 -137.5t-145 -51.5zM260 52q59 0 94.5 34t35.5 91v296q0 56 -35.5 90.5t-94.5 34.5q-57 0 -92 -34.5t-35 -90.5v-296q0 -56 35 -90.5t92 -34.5z" />
    <glyph glyph-name="one" unicode="1" horiz-adv-x="319" 
d="M162 651h71v-651h-69v583l-115 -48l-4 54z" />
    <glyph glyph-name="two" unicode="2" horiz-adv-x="509" 
d="M148 61h300v-61h-392v58q14 13 84 97.5t112 139.5q106 138 106 193q0 48 -32.5 78t-85.5 30t-85 -30t-31 -79v-35h-70v45q2 71 54 114.5t132 43.5q85 0 136.5 -47t51.5 -119q0 -77 -96 -203q-106 -140 -184 -225z" />
    <glyph glyph-name="three" unicode="3" horiz-adv-x="486" 
d="M405 306q18 -43 18 -107q0 -48 -14 -90q-41 -116 -174 -116q-64 0 -111 33.5t-66 90.5q-11 32 -11 79h70q0 -32 7 -58q10 -40 39 -62.5t71 -22.5q82 0 107 72q12 31 12 76q0 58 -15 91q-29 65 -104 65q-13 0 -43 -16l-35 49l174 201h-276v60h365v-66l-155 -181
q102 -3 141 -98z" />
    <glyph glyph-name="four" unicode="4" horiz-adv-x="524" 
d="M464 243v-62h-53v-181h-69v181h-294v52l193 418h73l-189 -408h217v278h69v-278h53z" />
    <glyph glyph-name="five" unicode="5" horiz-adv-x="489" 
d="M426 280q7 -37 6.5 -82t-6.5 -72q-13 -64 -60 -98.5t-122 -34.5q-65 0 -110.5 32.5t-62.5 90.5l-8 49h71q1 -17 4 -26q10 -40 39.5 -62.5t71.5 -22.5q44 0 73.5 22.5t36.5 64.5q6 19 7 56t-5 63q-8 41 -36.5 63.5t-73.5 22.5q-41 0 -74.5 -21t-40.5 -53h-73v379h349v-60
h-279l-1 -237q47 52 127 52q67 0 111 -32.5t56 -93.5z" />
    <glyph glyph-name="six" unicode="6" horiz-adv-x="484" 
d="M429 273q3 -18 3.5 -75t-3.5 -73q-14 -61 -61 -95.5t-117 -34.5q-69 0 -121 37t-62 102q-5 24 -5 75l-1 284q0 75 50 119.5t133 44.5q80 0 128.5 -43t48.5 -115v-11h-69v9q0 44 -30 72.5t-78 28.5q-51 0 -82 -30t-31 -77v-151q37 64 128 64q65 0 111 -32t58 -99zM364 145
v12v23.5v23.5v55q-6 40 -37.5 66t-78.5 26q-46 0 -77 -26t-37 -66q-2 -16 -2 -61q0 -39 2 -54q7 -40 39 -65t76 -25q45 0 76.5 24.5t38.5 66.5z" />
    <glyph glyph-name="seven" unicode="7" horiz-adv-x="444" 
d="M123 0l220 591h-256v-56h-58l1 116h385v-62l-217 -589h-75z" />
    <glyph glyph-name="eight" unicode="8" horiz-adv-x="485" 
d="M412 274q19 -38 19 -92q0 -63 -26 -106q-49 -83 -162 -83q-116 0 -165 87q-24 46 -24 103q0 50 20 93q22 49 72 69q-38 20 -59 53q-27 38 -27 90t29 94q53 76 154 76q105 0 153 -76q29 -40 29 -94q0 -53 -27 -92q-21 -31 -58 -50q48 -20 72 -72zM143 541q-14 -26 -14 -58
q0 -37 20 -65q31 -48 93 -48q64 0 96 49q19 30 19 65q0 31 -15 58q-30 56 -100 56t-99 -57zM338 100q23 34 23 88q0 35 -11 66q-28 69 -108 69q-78 0 -104 -65q-13 -32 -13 -71q0 -49 20 -84q32 -50 98 -50q63 0 95 47z" />
    <glyph glyph-name="nine" unicode="9" horiz-adv-x="484" 
d="M421 441l1 -284q0 -75 -50 -119.5t-133 -44.5q-80 0 -128.5 43t-48.5 115v11h69v-9q0 -44 30 -72.5t78 -28.5q51 0 82 30t31 77v151q-37 -64 -128 -64q-65 0 -111 32t-58 99q-3 18 -3.5 75t3.5 73q14 61 61 95.5t117 34.5q69 0 121 -37t62 -102q5 -24 5 -75zM236 299
q46 0 77 26t37 66q2 16 2 61q0 39 -2 54q-7 40 -39 65t-76 25q-45 0 -76.5 -24.5t-38.5 -66.5v-59v-55q6 -40 37.5 -66t78.5 -26z" />
    <glyph glyph-name="colon" unicode=":" horiz-adv-x="302" 
d="M151 268q-25 0 -42 17t-17 43q0 24 17 40.5t42 16.5q24 0 41 -16.5t17 -40.5q0 -25 -17 -42.5t-41 -17.5zM151 -8q-25 0 -42 17t-17 43q0 24 17 40.5t42 16.5q24 0 41 -16.5t17 -40.5q0 -25 -17 -42.5t-41 -17.5z" />
    <glyph glyph-name="semicolon" unicode=";" horiz-adv-x="310" 
d="M160 268q-25 0 -42 17t-17 43q0 24 17 40.5t42 16.5q24 0 41 -16.5t17 -40.5q0 -25 -17 -42.5t-41 -17.5zM100 -78l30 216h62l-46 -216h-46z" />
    <glyph glyph-name="equal" unicode="=" horiz-adv-x="399" 
d="M30 357v60h339v-60h-339zM30 196v60h339v-60h-339z" />
    <glyph glyph-name="question" unicode="?" horiz-adv-x="438" 
d="M186 174v48q0 11 1.5 21t3 17.5t6 16.5t7 14.5t9 13.5t9 11.5t10.5 11.5t10.5 10t11.5 10.5t11 9.5q2 2 12 11t13.5 12t11.5 11.5t11.5 13.5t9 14.5t8 17.5t4.5 18.5t2 22.5q0 48 -32 80t-79 32q-48 0 -81 -33.5t-33 -81.5v-33l-68 3v30q0 76 52.5 126.5t130.5 50.5
t128.5 -48.5t50.5 -122.5q0 -37 -13 -67.5t-26.5 -45t-36.5 -34.5q-4 -3 -6 -5q-3 -3 -14.5 -13t-15 -13.5t-12.5 -13t-12.5 -15.5t-8 -15.5t-6.5 -20t-2 -21.5v-44h-67zM222 -8q-25 0 -42 17t-17 43q0 24 17 40.5t42 16.5q24 0 41 -16.5t17 -40.5q0 -25 -17 -42.5
t-41 -17.5z" />
    <glyph glyph-name="at" unicode="@" horiz-adv-x="788" 
d="M438 604q142 0 223.5 -95t63.5 -234q-11 -83 -55 -132t-109 -49q-74 0 -98 56q-32 -56 -111 -56q-44 0 -73 23.5t-34 63.5q-4 29 4 79q6 51 17 81q14 42 47 65.5t75 23.5q60 0 88 -40l5 36h47l-25 -199q-5 -38 12 -63.5t49 -25.5q39 0 65.5 35t36.5 98q18 125 -48.5 201
t-185.5 76q-121 0 -213 -79t-98 -222q-6 -124 57.5 -194t177.5 -70q48 0 92 11.5t64 28.5l31 -44q-29 -25 -83 -39t-109 -14q-133 0 -215.5 90t-73.5 237q5 108 60.5 189.5t138 121.5t177.5 40zM445 196q9 22 14 66q4 48 3 66q-1 27 -19.5 44t-47.5 17q-58 0 -82 -51
q-10 -20 -17 -77q-7 -52 -5 -66q2 -28 21.5 -44t51.5 -16q28 0 49.5 16.5t31.5 44.5z" />
    <glyph glyph-name="A" unicode="A" horiz-adv-x="555" 
d="M460 0l-53 166h-260l-52 -166h-74l212 651h87l214 -651h-74zM164 219h226l-113 355z" />
    <glyph glyph-name="B" unicode="B" horiz-adv-x="578" 
d="M397 338q113 -40 113 -160q0 -83 -54 -129t-143 -46h-234v648h227q92 0 143.5 -44t51.5 -126q0 -107 -104 -143zM148 592v-228h159q57 0 92 30t35 81q0 53 -35 85t-93 32h-158zM313 63q58 0 92.5 33t34.5 89q0 55 -35.5 88t-94.5 33h-162v-243h165z" />
    <glyph glyph-name="C" unicode="C" horiz-adv-x="587" 
d="M297 -11q-98 0 -161.5 56.5t-63.5 132.5v288q0 77 63.5 133.5t161.5 56.5q100 0 162.5 -56.5t62.5 -133.5v-20l-70 -4l-1 31q0 47 -42.5 85.5t-111.5 38.5q-66 0 -110.5 -39t-44.5 -85v-297q0 -47 44.5 -87t110.5 -40q69 0 111.5 37t43.5 85l1 28l69 -1v-20
q0 -78 -60 -133.5t-165 -55.5z" />
    <glyph glyph-name="D" unicode="D" horiz-adv-x="579" 
d="M79 0v651h228q94 0 149 -48.5t55 -131.5v-291q0 -83 -55 -131.5t-149 -48.5h-228zM148 60h163q59 0 94.5 35t35.5 95v271q0 60 -35 95.5t-95 35.5h-163v-532z" />
    <glyph glyph-name="E" unicode="E" horiz-adv-x="562" 
d="M500 592h-352v-235h249v-59h-249v-238h352v-60h-421v651h421v-59z" />
    <glyph glyph-name="F" unicode="F" horiz-adv-x="511" 
d="M489 592h-341v-233h248v-60h-248v-299h-69v651h410v-59z" />
    <glyph glyph-name="G" unicode="G" horiz-adv-x="578" 
d="M291 -11q-97 0 -158 54t-61 138v269q0 93 60.5 149.5t158.5 56.5q97 0 158 -47t61 -121v-47h-69v41q0 51 -41.5 82.5t-108.5 31.5q-68 0 -109 -39.5t-41 -103.5v-260q0 -64 42.5 -104t110.5 -40q75 0 111.5 28.5t36.5 91.5v101h-147v56h215v-152q0 -86 -58 -135.5
t-161 -49.5z" />
    <glyph glyph-name="H" unicode="H" horiz-adv-x="619" 
d="M475 651h69v-651h-69v294h-323v-294h-70v651h70v-297h323v297z" />
    <glyph glyph-name="I" unicode="I" horiz-adv-x="227" 
d="M79 0v651h69v-651h-69z" />
    <glyph glyph-name="J" unicode="J" horiz-adv-x="557" 
d="M270 -13q-96 0 -154 53.5t-58 141.5v76h69v-76q0 -61 39 -98t104 -37q64 0 104 37.5t40 97.5v469h68v-469q0 -88 -58.5 -141.5t-153.5 -53.5z" />
    <glyph glyph-name="K" unicode="K" horiz-adv-x="566" 
d="M79 3v648h69v-330l298 330h78l-235 -272l252 -376h-79l-221 328l-93 -100v-228h-69z" />
    <glyph glyph-name="L" unicode="L" horiz-adv-x="510" 
d="M79 0v651h69v-591h340v-60h-409z" />
    <glyph glyph-name="M" unicode="M" horiz-adv-x="652" 
d="M504 651h69v-651h-69v561l-157 -276h-41l-158 274v-559h-69v651h69l178 -285z" />
    <glyph glyph-name="N" unicode="N" horiz-adv-x="614" 
d="M467 651h68v-648h-67l-321 525l1 -525h-69v648h67l321 -525v525z" />
    <glyph glyph-name="O" unicode="O" horiz-adv-x="594" 
d="M297 -11q-98 0 -161.5 56.5t-63.5 132.5v288q0 77 63.5 133.5t161.5 56.5q100 0 162.5 -56.5t62.5 -133.5v-288q0 -77 -62.5 -133t-162.5 -56zM297 49q68 0 110 39.5t42 87.5v297q0 47 -41.5 85.5t-110.5 38.5q-66 0 -109.5 -38.5t-43.5 -85.5v-297q0 -48 43.5 -87.5
t109.5 -39.5z" />
    <glyph glyph-name="P" unicode="P" horiz-adv-x="538" 
d="M333 651q83 0 133 -50t50 -132q0 -81 -51 -130.5t-135 -49.5h-182v-289h-69v651h254zM324 345q55 0 89 33.5t34 88.5q0 56 -34 90.5t-89 34.5h-176v-247h176z" />
    <glyph glyph-name="Q" unicode="Q" horiz-adv-x="594" 
d="M522 466v-288q0 -69 -51 -122l51 -38l-40 -44l-60 45q-55 -30 -125 -30q-98 0 -161.5 56.5t-63.5 132.5v288q0 77 63.5 133.5t161.5 56.5q100 0 162.5 -56.5t62.5 -133.5zM341 152l75 -55q33 36 33 79v297q0 47 -41.5 85.5t-110.5 38.5q-66 0 -109.5 -38.5t-43.5 -85.5
v-297q0 -48 43.5 -87.5t109.5 -39.5q36 0 67 13l-63 47z" />
    <glyph glyph-name="R" unicode="R" horiz-adv-x="545" 
d="M516 469q0 -72 -40 -119t-109 -58l139 -292h-74l-133 289h-151v-289h-69v651h254q83 0 133 -50t50 -132zM148 592v-247h176q55 0 89 33.5t34 88.5q0 56 -34 90.5t-89 34.5h-176z" />
    <glyph glyph-name="S" unicode="S" horiz-adv-x="562" 
d="M285 -9q-104 0 -165.5 47.5t-61.5 127.5v34h68v-30q0 -54 44.5 -86.5t120.5 -32.5q70 0 107 29t37 79q0 46 -37 75.5t-132 70.5q-104 44 -136 67q-60 46 -60 121q0 78 54.5 121t150.5 43q102 0 162.5 -48t60.5 -130v-26h-68v22q0 55 -42 89t-116 34q-64 0 -99 -26.5
t-35 -76.5q0 -49 35 -75t129 -63q39 -15 64.5 -27t54 -30t45 -36t27.5 -44.5t11 -57.5q0 -80 -59 -125.5t-160 -45.5z" />
    <glyph glyph-name="T" unicode="T" horiz-adv-x="509" 
d="M487 651v-59h-193v-592h-69v592h-203v59h465z" />
    <glyph glyph-name="U" unicode="U" horiz-adv-x="600" 
d="M300 -11q-98 0 -161.5 56.5t-63.5 132.5v473h73v-475q0 -48 43 -87.5t109 -39.5q69 0 111 39.5t42 87.5v475h72v-473q0 -77 -62.5 -133t-162.5 -56z" />
    <glyph glyph-name="V" unicode="V" horiz-adv-x="530" 
d="M438 651h71l-208 -651h-73l-207 651h74l171 -559z" />
    <glyph glyph-name="W" unicode="W" horiz-adv-x="947" 
d="M854 651h72l-208 -651h-73l-172 540l-172 -540h-73l-207 651h74l171 -559l172 559h73l172 -561z" />
    <glyph glyph-name="X" unicode="X" horiz-adv-x="530" 
d="M26 0l197 326l-197 325h74l165 -273l165 273h74l-196 -326l196 -325h-74l-165 272l-165 -272h-74z" />
    <glyph glyph-name="Y" unicode="Y" horiz-adv-x="511" 
d="M220 3v282l-199 366h74l160 -295l160 295h74l-200 -366v-282h-69z" />
    <glyph glyph-name="Z" unicode="Z" horiz-adv-x="478" 
d="M29 0v65l345 527h-345v59h420v-64l-345 -527h345v-60h-420z" />
    <glyph glyph-name="bracketleft" unicode="[" horiz-adv-x="247" 
d="M27 -120v836h164v-60h-95v-716h96v-60h-165z" />
    <glyph glyph-name="backslash" unicode="\" horiz-adv-x="321" 
d="M300 3h-70l-176 648h69z" />
    <glyph glyph-name="bracketright" unicode="]" horiz-adv-x="219" 
d="M192 716v-837h-165v60h96v717h-96v60h165z" />
    <glyph glyph-name="underscore" unicode="_" horiz-adv-x="377" 
d="M23 3v55h331v-55h-331z" />
    <glyph glyph-name="a" unicode="a" horiz-adv-x="513" 
d="M257 475q82 0 130 -41.5t48 -112.5v-321h-69v77q-33 -84 -151 -84q-66 0 -109.5 31.5t-43.5 96.5q0 66 50 104t141 38h113v48q0 50 -28.5 77.5t-81.5 27.5q-46 0 -74.5 -19.5t-32.5 -51.5l-70 8q5 54 54.5 88t123.5 34zM234 42q54 0 93 26.5t39 75.5v81h-101
q-62 0 -97.5 -26t-35.5 -71q0 -39 27 -62.5t75 -23.5z" />
    <glyph glyph-name="b" unicode="b" horiz-adv-x="514" 
d="M275 478q76 0 119 -38t43 -105v-198q0 -67 -43 -105.5t-118 -38.5q-86 0 -128 57v-50h-69v651h69v-230q42 57 127 57zM370 137v198q0 44 -31 68.5t-80 24.5t-80 -24.5t-31 -68.5v-198q0 -45 30.5 -69.5t80.5 -24.5q49 0 80 24.5t31 69.5z" />
    <glyph glyph-name="c" unicode="c" horiz-adv-x="509" 
d="M262 -5q-67 0 -116 34.5t-66 93.5q-14 45 -14 114q0 64 14 113q16 59 65 93t117 34q67 0 117.5 -34t64.5 -86q0 -1 7 -34l-69 -10l-3 21q-8 37 -41 60.5t-77 23.5q-45 0 -76 -23.5t-40 -64.5q-9 -34 -9 -94q0 -62 9 -92q10 -42 40.5 -65.5t75.5 -23.5t77.5 21.5
t40.5 59.5q2 10 2 16l68 -10q0 -11 -5 -26q-15 -56 -65 -88.5t-117 -32.5z" />
    <glyph glyph-name="d" unicode="d" horiz-adv-x="520" 
d="M372 651h69v-651h-69v58q-40 -65 -133 -65q-76 0 -119 38t-43 105v198q0 67 43 105.5t118 38.5q93 0 134 -66v239zM366 136v198q0 45 -30.5 69t-80.5 24q-49 0 -80 -24t-31 -69v-198q0 -44 31 -68.5t80 -24.5t80 24.5t31 68.5z" />
    <glyph glyph-name="e" unicode="e" horiz-adv-x="521" 
d="M451 210l-311 -1v-46q0 -50 35.5 -80t85.5 -30q44 0 78.5 22t42.5 57l60 -12q-10 -55 -60.5 -90t-120.5 -35q-74 0 -129 44.5t-55 121.5v149q0 74 54 121.5t130 47.5q80 0 135 -47t55 -122v-100zM261 420q-48 0 -84.5 -31t-36.5 -81v-48l247 1v47q0 51 -37 81.5t-89 30.5
z" />
    <glyph glyph-name="f" unicode="f" horiz-adv-x="319" 
d="M254 603q-49 -1 -66.5 -25t-17.5 -74v-90h119v-52h-119v-362h-69v362h-71v52h71v95q0 76 34 110t119 32h35v-48h-35z" />
    <glyph glyph-name="g" unicode="g" horiz-adv-x="513" 
d="M366 475h70v-466q0 -61 -21.5 -104t-60.5 -65t-86.5 -29.5t-105.5 -2.5l2 61q95 -9 148.5 24.5t53.5 114.5v41q-42 -56 -127 -56q-76 0 -119 38t-43 105v198q0 67 43 105.5t118 38.5q86 0 128 -57v54zM255 43q49 0 80 24.5t31 68.5v198q0 45 -30.5 69t-80.5 24
q-49 0 -80 -24t-31 -69v-198q0 -44 31 -68.5t80 -24.5z" />
    <glyph glyph-name="h" unicode="h" horiz-adv-x="514" 
d="M275 478q76 0 119 -38t43 -105v-335h-67v335q0 44 -31 68.5t-80 24.5t-80 -24.5t-31 -68.5v-335h-69v651h69v-231q42 58 127 58z" />
    <glyph glyph-name="i" unicode="i" horiz-adv-x="278" 
d="M140 553q-23 0 -38.5 16t-15.5 39q0 22 15.5 37t38.5 15q22 0 38 -15t16 -37q0 -23 -16 -39t-38 -16zM104 0v475h69v-475h-69z" />
    <glyph glyph-name="j" unicode="j" horiz-adv-x="279" 
d="M147 553q-23 0 -38.5 16t-15.5 39q0 22 15.5 37t38.5 15q22 0 37.5 -15t15.5 -37q0 -23 -15.5 -39t-37.5 -16zM2 -201v59q109 -3 109 95l-1 522h70v-521q0 -84 -41 -120t-137 -35z" />
    <glyph glyph-name="k" unicode="k" horiz-adv-x="476" 
d="M79 3v648h69v-394l202 213h80l-128 -144l148 -323h-74l-122 279l-106 -114v-165h-69z" />
    <glyph glyph-name="l" unicode="l" horiz-adv-x="250" 
d="M148 60h80v-60h-149v651h69v-591z" />
    <glyph glyph-name="m" unicode="m" horiz-adv-x="802" 
d="M563 478q76 0 119 -38t43 -105v-335h-67v335q0 44 -31 68.5t-80 24.5t-80 -24.5t-31 -68.5v-335h-67v335q0 44 -31 68.5t-80 24.5t-80 -24.5t-31 -68.5v-335h-70v475h70v-53q42 56 127 56q112 0 149 -78q18 37 55 57.5t85 20.5z" />
    <glyph glyph-name="n" unicode="n" horiz-adv-x="513" 
d="M274 478q76 0 119 -38t43 -105v-335h-67v335q0 44 -31 68.5t-80 24.5t-80 -24.5t-31 -68.5v-335h-70v475h70v-53q42 56 127 56z" />
    <glyph glyph-name="o" unicode="o" horiz-adv-x="528" 
d="M264 -7q-82 0 -134.5 43.5t-52.5 111.5v176q0 65 54 109.5t133 44.5t133 -44.5t54 -109.5v-176q0 -68 -52 -111.5t-135 -43.5zM264 48q57 0 88.5 29t31.5 75v167q0 44 -33.5 73.5t-86.5 29.5q-52 0 -86 -30t-34 -73v-167q0 -46 32 -75t88 -29z" />
    <glyph glyph-name="p" unicode="p" horiz-adv-x="514" 
d="M275 478q76 0 119 -38t43 -105v-198q0 -67 -43 -105.5t-118 -38.5q-86 0 -128 57v-251h-69v679h69v-58q42 58 127 58zM371 137v198q0 44 -31 68.5t-81 24.5q-49 0 -80 -24.5t-31 -68.5v-198q0 -45 31 -69.5t81 -24.5q49 0 80 24.5t31 69.5z" />
    <glyph glyph-name="q" unicode="q" horiz-adv-x="515" 
d="M367 478h69v-679h-69v252q-42 -58 -128 -58q-76 0 -119 38t-43 105v198q0 67 43 105.5t118 38.5q87 0 129 -58v58zM366 136v198q0 45 -30.5 69t-80.5 24q-49 0 -80 -24t-31 -69v-198q0 -44 31 -68.5t80 -24.5t80 24.5t31 68.5z" />
    <glyph glyph-name="r" unicode="r" horiz-adv-x="351" 
d="M279 472q35 0 59 -13l-15 -67q-20 13 -57 10q-45 -2 -77.5 -36.5t-33.5 -86.5v-279h-69v475h69v-103q42 100 124 100z" />
    <glyph glyph-name="s" unicode="s" horiz-adv-x="493" 
d="M248 -3q-78 0 -128 37.5t-50 95.5v14h64v-16q0 -34 32.5 -56t80.5 -22q47 0 76.5 22t29.5 57q0 21 -16 36t-34 22t-54 18t-55 18q-60 22 -91.5 48t-31.5 74q0 60 47 95.5t125 35.5t126.5 -36.5t48.5 -95.5v-9h-65v9q0 34 -30.5 55.5t-78.5 21.5t-77 -20.5t-29 -54.5
q0 -13 6.5 -24t14.5 -18t25.5 -14t29 -11t36 -11t36.5 -11q66 -21 101.5 -48t35.5 -78q0 -62 -48 -98t-127 -36z" />
    <glyph glyph-name="t" unicode="t" horiz-adv-x="322" 
d="M287 412h-117v-272q0 -42 19 -61.5t62 -19.5h33v-59q-16 -1 -45 -1q-70 0 -102.5 26t-33.5 90v297h-70v52h70v126h67v-126h117v-52z" />
    <glyph glyph-name="u" unicode="u" horiz-adv-x="513" 
d="M366 475h70v-475h-70v53q-42 -56 -127 -56q-76 0 -119 38t-43 105v335h67v-335q0 -44 31 -68.5t80 -24.5t80 24.5t31 68.5v335z" />
    <glyph glyph-name="v" unicode="v" horiz-adv-x="445" 
d="M185 0l-158 475h76l119 -395l120 395h75l-157 -475h-75z" />
    <glyph glyph-name="w" unicode="w" horiz-adv-x="748" 
d="M645 475h75l-157 -475h-67l-122 376l-122 -376h-68l-157 475h75l120 -395l120 395h64l119 -395z" />
    <glyph glyph-name="x" unicode="x" horiz-adv-x="454" 
d="M27 0l160 237l-160 238h75l123 -185l123 185h79l-159 -237l159 -238h-75l-123 184l-123 -184h-79z" />
    <glyph glyph-name="y" unicode="y" horiz-adv-x="448" 
d="M53 -200v59h10q55 1 79 24.5t47 101.5l-162 472h74l124 -386l122 386h74l-176 -510q-32 -90 -66 -118.5t-115 -28.5h-11z" />
    <glyph glyph-name="z" unicode="z" horiz-adv-x="461" 
d="M55 0v66l269 346h-265v63h344v-66l-272 -346h273v-63h-349z" />
    <glyph glyph-name="braceleft" unicode="{" horiz-adv-x="302" 
d="M180 -120q-94 0 -94 104v202q0 81 -56 87v57q56 4 56 85v196q0 105 94 105h67v-60h-38q-53 0 -53 -71v-176q0 -91 -53 -108q53 -17 53 -109v-181q0 -71 53 -71h38v-60h-67z" />
    <glyph glyph-name="bar" unicode="|" horiz-adv-x="262" 
d="M100 -106v806h62v-806h-62z" />
    <glyph glyph-name="braceright" unicode="}" horiz-adv-x="303" 
d="M122 -120h-67v60h39q53 0 53 71v181q0 92 52 109q-52 16 -52 108v176q0 71 -53 71h-39v60h67q94 0 94 -105v-196q0 -81 56 -85v-57q-56 -6 -56 -87v-202q0 -104 -94 -104z" />
    <glyph glyph-name="uni00A0" unicode="&#xa0;" horiz-adv-x="267" 
 />
    <glyph glyph-name="guillemotleft" unicode="&#xab;" horiz-adv-x="451" 
d="M210 435q-65 -62 -65 -153q0 -86 61 -149l-38 -36q-75 77 -75 185q0 114 82 191zM354 435q-65 -62 -65 -153q0 -86 61 -149l-38 -36q-75 77 -75 185q0 114 82 191z" />
    <glyph glyph-name="guillemotright" unicode="&#xbb;" horiz-adv-x="455" 
d="M97 435l35 38q82 -77 82 -191q0 -108 -75 -185l-38 36q61 63 61 149q0 91 -65 153zM244 435l35 38q83 -78 83 -191q0 -108 -75 -185l-38 36q60 62 60 149q0 91 -65 153z" />
    <glyph glyph-name="multiply" unicode="&#xd7;" horiz-adv-x="419" 
d="M351 407l-105 -105l105 -105l-37 -37l-105 105l-105 -105l-37 37l105 105l-105 105l37 37l105 -105l105 105z" />
    <glyph glyph-name="divide" unicode="&#xf7;" horiz-adv-x="399" 
d="M198 389q-22 0 -37.5 15.5t-15.5 37.5t15.5 37t37.5 15q21 0 36.5 -15t15.5 -37t-15.5 -37.5t-36.5 -15.5zM30 277v60h339v-60h-339zM198 109q-22 0 -37.5 15.5t-15.5 37.5t15.5 37t37.5 15q21 0 36.5 -15t15.5 -37t-15.5 -37.5t-36.5 -15.5z" />
    <glyph glyph-name="uni060C" unicode="&#x60c;" horiz-adv-x="282" 
d="M148 112q22 -3 36.5 -19t14.5 -38q0 -25 -17 -42.5t-41 -17.5q-25 0 -42 17.5t-17 42.5q0 16 8 29l64 160l36 -15z" />
    <glyph glyph-name="uni061B" unicode="&#x61b;" horiz-adv-x="282" 
d="M142 271q-25 0 -42 17.5t-17 42.5q0 13 4 22l68 167l36 -15l-43 -117q22 -2 37 -18.5t15 -38.5q0 -25 -17.5 -42.5t-40.5 -17.5zM142 109q24 0 41 -16.5t17 -40.5q0 -25 -17 -42.5t-41 -17.5q-25 0 -42 17t-17 43q0 24 17 40.5t42 16.5z" />
    <glyph glyph-name="uni061F" unicode="&#x61f;" horiz-adv-x="515" 
d="M290 156h-59v56q0 24 -10 43.5t-19 29t-35 31.5q-32 27 -47 42.5t-29 46t-14 68.5q0 76 52.5 128.5t127.5 52.5t128 -53.5t53 -129.5v-40h-59v40q0 49 -35.5 83.5t-86.5 34.5t-86 -34t-35 -82q0 -29 13 -53.5t23.5 -34.5t37.5 -32q33 -26 45.5 -38.5t23.5 -38.5t11 -64
v-56zM260 -28q-25 0 -42 17.5t-17 42.5q0 24 17 40.5t42 16.5q24 0 41 -16.5t17 -40.5q0 -25 -17 -42.5t-41 -17.5z" />
    <glyph glyph-name="uni0640" unicode="&#x640;" horiz-adv-x="300" 
d="M-5 0v65h310v-65h-310z" />
    <glyph glyph-name="uni064B" unicode="&#x64b;" 
d="M8 521l-8 35l227 54l7 -35zM8 414l-8 35l227 54l7 -35z" />
    <glyph glyph-name="uni064C" unicode="&#x64c;" 
d="M317 669q7 -43 -18 -75t-75 -44l-195 -48l-6 31l3 1q23 7 36.5 25.5t11.5 40.5q-2 26 -21.5 43t-47.5 15l-5 29q42 5 71 -19.5t32 -62.5q1 -28 -13 -54l65 17l-19 72q-9 37 7.5 64.5t53.5 35.5q43 10 78 -11t42 -60zM216 584q37 10 56 30.5t14 46.5t-28 39.5t-53 6.5
q-24 -5 -34 -21t-3 -38l18 -72z" />
    <glyph glyph-name="uni064D" unicode="&#x64d;" 
d="M8 -340l-8 35l227 54l7 -35zM8 -447l-8 35l227 54l7 -35z" />
    <glyph glyph-name="uni064E" unicode="&#x64e;" 
d="M8 503l-8 35l227 54l7 -35z" />
    <glyph glyph-name="uni064F" unicode="&#x64f;" 
d="M284 662q7 -42 -18.5 -74t-76.5 -45l-181 -43l-8 35l114 27l-19 66q-11 36 8.5 67t57.5 39q43 9 79.5 -12t43.5 -60zM181 578q37 9 55.5 29.5t13.5 47.5q-5 26 -28 39.5t-53 6.5q-24 -5 -36 -24t-5 -42l19 -65z" />
    <glyph glyph-name="uni0650" unicode="&#x650;" 
d="M8 -346l-8 35l227 54l7 -35z" />
    <glyph glyph-name="uni0651" unicode="&#x651;" 
d="M3 589l11 47l29 -8l-10 -44q-5 -21 5 -34t33 -13q19 0 29.5 9.5t10.5 23.5l1 58h27l1 -58q0 -14 10.5 -23.5t29.5 -9.5q25 0 35 13t5 33l-17 65l29 8l18 -66q11 -38 -9.5 -64t-60.5 -26q-38 0 -54 26q-18 -26 -55 -26q-38 0 -58 26t-10 63z" />
    <glyph glyph-name="uni0652" unicode="&#x652;" 
d="M107 500q-44 0 -75.5 31.5t-31.5 76.5q0 44 31.5 75t75.5 31q43 0 74 -31.5t31 -74.5q0 -45 -30.5 -76.5t-74.5 -31.5zM107 535q29 0 51 21.5t22 51.5q0 29 -22 50.5t-51 21.5q-31 0 -52.5 -21.5t-21.5 -50.5q0 -30 21.5 -51.5t52.5 -21.5z" />
    <glyph glyph-name="uni0653" unicode="&#x653;" 
d="M0 585v15q0 41 27 62t69 14l101 -19q27 -5 42.5 6t15.5 34v7l33 2v-15q0 -41 -27 -62t-70 -14l-101 19q-26 5 -41.5 -6t-15.5 -34v-7z" />
    <glyph glyph-name="uni0654" unicode="&#x654;" 
d="M266 560l-99 -24q-1 0 -3 -0.5t-3 -0.5l-153 -37l-8 35l88 21q-25 22 -32 53q-10 43 15 77.5t68 37.5q12 1 32.5 -1t34.5 -5l15 -3l-7 -35q-7 1 -17.5 3t-32.5 4.5t-31 0.5q-25 -5 -38 -25.5t-7 -45.5q5 -22 24.5 -35t42.5 -10l104 25z" />
    <glyph glyph-name="uni0655" unicode="&#x655;" 
d="M265 -321l-99 -24q-1 0 -3 -0.5t-3 -0.5l-154 -37l-7 35l89 21q-25 21 -33 54q-10 43 15 77t68 37q12 1 32 -1t34 -5l15 -3l-6 -34q-7 1 -16.5 3t-34 4.5t-30.5 -0.5q-25 -5 -38 -25.5t-8 -45.5q6 -22 25 -35t42 -10l104 25z" />
    <glyph glyph-name="uni0656" unicode="&#x656;" 
d="M1 -400v163h32v-163h-32z" />
    <glyph glyph-name="uni0660" unicode="&#x660;" horiz-adv-x="298" 
d="M149 159l-25 25l-29 29l-25 25l79 80q15 -15 42.5 -43t36.5 -37z" />
    <glyph glyph-name="uni0661" unicode="&#x661;" horiz-adv-x="293" 
d="M164 -3l-64 655l59 6l64 -655z" />
    <glyph glyph-name="uni0662" unicode="&#x662;" horiz-adv-x="542" 
d="M461 493q7 -62 -38.5 -109t-111.5 -47h-36q-48 0 -87 28l35 -361l-59 -6l-64 656l59 6l17 -176q7 -39 31 -60.5t59 -21.5h45q41 0 68 25t23 60l-17 167l59 7z" />
    <glyph glyph-name="uni0663" unicode="&#x663;" horiz-adv-x="773" 
d="M692 490q6 -63 -40 -109t-110 -46h-9q-74 0 -118 62q-47 -62 -122 -62h-24q-45 0 -81 25l35 -357l-59 -6l-64 655l59 6l17 -170q5 -40 29 -63.5t61 -23.5h27q38 0 65.5 25t24.5 60v1l-14 142l59 6l14 -145q4 -40 28.5 -64.5t62.5 -24.5h9q39 0 66.5 25.5t24.5 60.5
l-16 165l59 6z" />
    <glyph glyph-name="uni0664" unicode="&#x664;" horiz-adv-x="514" 
d="M250 65h184v-65h-186q-61 0 -104.5 44.5t-43.5 105.5q0 110 148 162l56 20l-31 11q-66 24 -96.5 59.5t-30.5 87.5q0 105 125 143l127 38l17 -63l-127 -37q-83 -24 -83 -83q0 -30 20.5 -49.5t68.5 -36.5l115 -39l1 -62l-141 -48q-59 -20 -84.5 -44t-25.5 -58
q0 -36 26.5 -61t64.5 -25z" />
    <glyph glyph-name="uni0665" unicode="&#x665;" horiz-adv-x="659" 
d="M300 -7q-123 0 -171 78.5t-17 228.5q22 102 51 164.5t74 82.5q70 33 156 -19.5t140.5 -150t44.5 -182.5q-26 -202 -278 -202zM300 59q203 0 220 146q5 46 -20.5 104.5t-65 104t-88 69t-85.5 5.5q-56 -27 -91 -203q-25 -120 5.5 -173t124.5 -53z" />
    <glyph glyph-name="uni0666" unicode="&#x666;" horiz-adv-x="580" 
d="M441 -3l-54 585q-223 -22 -347 18l19 63q59 -20 146.5 -23t144.5 4l58 6l34 -30l58 -617z" />
    <glyph glyph-name="uni0667" unicode="&#x667;" horiz-adv-x="671" 
d="M536 658l55 -22l-228 -639h-56l-227 639l56 22l199 -563z" />
    <glyph glyph-name="uni0668" unicode="&#x668;" horiz-adv-x="671" 
d="M136 -5l-56 22l228 640h56l227 -640l-55 -22l-200 563z" />
    <glyph glyph-name="uni0669" unicode="&#x669;" horiz-adv-x="577" 
d="M497 3l-59 -6l-33 318h-132q-72 0 -122.5 50t-50.5 123t50.5 124t122.5 51q68 0 117 -48.5t57 -122.5zM273 378h126l-11 108q-5 50 -37 81.5t-78 31.5q-49 0 -81.5 -32t-32.5 -79q0 -45 33 -77.5t81 -32.5z" />
    <glyph glyph-name="uni066A" unicode="&#x66a;" horiz-adv-x="404" 
d="M80 3l176 648h70l-177 -648h-69zM78 532q-25 0 -42 17t-17 42q0 24 17 41t42 17q23 0 40.5 -17t17.5 -41q0 -25 -17 -42t-41 -17zM327 3q-25 0 -42 17t-17 42t17 41.5t42 16.5q24 0 41 -16.5t17 -41.5t-17 -42t-41 -17z" />
    <glyph glyph-name="uni066B" unicode="&#x66b;" horiz-adv-x="359" 
d="M83 -91l-43 18l216 536l43 -18z" />
    <glyph glyph-name="uni066C" unicode="&#x66c;" horiz-adv-x="268" 
d="M114 -124l-44 16l84 238l44 -16z" />
    <glyph glyph-name="uni066D" unicode="&#x66d;" horiz-adv-x="497" 
d="M447 447l-151 -49l93 -128l-47 -34l-93 129l-94 -129l-47 34l93 128l-151 49l19 56l150 -48v158h59v-158l150 48z" />
    <glyph glyph-name="uni066E" unicode="&#x66e;" horiz-adv-x="901" 
d="M841 231q21 -73 0.5 -127t-78.5 -78q-35 -16 -89 -21t-223 -5t-223.5 5t-89.5 21q-57 24 -77 77t-2 125l37 140l57 -17l-37 -142q-13 -49 -2 -77.5t48 -45.5q18 -8 35.5 -11.5t78.5 -6.5t175 -3q115 0 176 3t77 6.5t35 11.5q38 17 49 46.5t-3 82.5l-38 139l56 16z" />
    <glyph glyph-name="uni066F" unicode="&#x66f;" horiz-adv-x="668" 
d="M370 -236q-96 -22 -169 2.5t-109.5 87t-41 155t36.5 206.5l57 -22q-68 -193 -7 -297.5t220 -67.5q58 13 92.5 24t62 28t37.5 41t7 59l-4 40q-70 -14 -136 -14q-65 0 -108.5 41t-49.5 108q-6 76 38 138t119 65q74 4 124 -50.5t59 -145.5l17 -161q6 -57 -4.5 -95.5
t-43.5 -65t-78 -43t-119 -33.5zM416 71q63 0 131 15l-7 67q-7 67 -40 104.5t-83 35.5t-76.5 -42.5t-23.5 -90.5q3 -41 29.5 -65t69.5 -24z" />
    <glyph glyph-name="uni0670" unicode="&#x670;" 
d="M1 500v163h32v-163h-32z" />
    <glyph glyph-name="uni06A1" unicode="&#x6a1;" horiz-adv-x="904" 
d="M850 173q6 -68 -5.5 -102.5t-56.5 -52.5t-136 -18h-207q-165 0 -218.5 5t-88.5 21q-57 24 -77 77t-2 125l37 140l57 -17l-37 -142q-13 -49 -2 -77.5t48 -45.5q18 -8 35.5 -11.5t78.5 -6.5t175 -3h202q69 0 99 8.5t38 26.5t4 59q-55 -11 -134 -11q-67 0 -108.5 39
t-44.5 105q-3 76 37 134t115 62q73 4 122.5 -48.5t57.5 -142.5zM561 297q3 -41 29.5 -65t69.5 -24q71 0 128 13l-6 71q-7 66 -39.5 102.5t-81.5 34.5q-50 -3 -77 -42.5t-23 -89.5z" />
    <glyph glyph-name="uni06BA" unicode="&#x6ba;" horiz-adv-x="655" 
d="M370 -236q-96 -22 -169 2.5t-109.5 87t-41 155t36.5 206.5l57 -22q-68 -193 -7 -297.5t220 -67.5q101 24 131 41q69 38 56 133l-40 274l58 10q34 -230 40 -274q7 -51 -2.5 -90.5t-28.5 -63.5t-55 -43.5t-67 -29.5t-79 -21z" />
    <glyph glyph-name="uni06F0" unicode="&#x6f0;" horiz-adv-x="501" 
d="M421 231q0 -68 -47 -116t-114 -48q-66 0 -113 48t-47 116t47 116t113 48q67 0 114 -48t47 -116zM365 231q0 43 -30.5 73t-74.5 30q-42 0 -73 -30.5t-31 -72.5t31 -72t73 -30q44 0 74.5 29.5t30.5 72.5z" />
    <glyph glyph-name="uni06F1" unicode="&#x6f1;" horiz-adv-x="293" 
d="M164 -3l-64 655l59 6l64 -655z" />
    <glyph glyph-name="uni06F2" unicode="&#x6f2;" horiz-adv-x="542" 
d="M461 493q7 -62 -38.5 -109t-111.5 -47h-36q-48 0 -87 28l35 -361l-59 -6l-64 656l59 6l17 -176q7 -39 31 -60.5t59 -21.5h45q41 0 68 25t23 60l-17 167l59 7z" />
    <glyph glyph-name="uni06F3" unicode="&#x6f3;" horiz-adv-x="773" 
d="M692 490q6 -63 -40 -109t-110 -46h-9q-74 0 -118 62q-47 -62 -122 -62h-24q-45 0 -81 25l35 -357l-59 -6l-64 655l59 6l17 -170q5 -40 29 -63.5t61 -23.5h27q38 0 65.5 25t24.5 60v1l-14 142l59 6l14 -145q4 -40 28.5 -64.5t62.5 -24.5h9q39 0 66.5 25.5t24.5 60.5
l-16 165l59 6z" />
    <glyph glyph-name="uni06F4" unicode="&#x6f4;" horiz-adv-x="694" 
d="M612 401v-66h-347q-43 0 -77 23l34 -355l-59 -6l-46 477q0 2 -0.5 5.5t-0.5 5.5l-16 168l59 6l17 -176q5 -39 29 -60.5t60 -21.5h39q-36 49 -36 108q0 73 50.5 123.5t122.5 50.5q23 0 61.5 -12.5t64.5 -24t28 -13.5l-26 -58q-1 0 -28 11t-55.5 21t-44.5 10
q-47 4 -80.5 -28.5t-33.5 -79.5q0 -46 30.5 -77t75.5 -31h179z" />
    <glyph glyph-name="uni06F5" unicode="&#x6f5;" horiz-adv-x="727" 
d="M327 672q89 -99 132.5 -147.5t87.5 -104t58 -78.5t27 -61t14 -61.5t1 -70.5q0 -62 -42.5 -105.5t-103.5 -43.5h-11q-74 0 -116 60q-45 -60 -118 -60h-11q-61 0 -103 43.5t-42 105.5q0 84 12.5 128t57.5 106t162 191l-49 55zM501 65q37 0 62 24.5t25 59.5
q0 71 -11.5 108.5t-52.5 93t-151 178.5q-112 -124 -152 -178t-51 -91t-11 -111q0 -36 24.5 -60t61.5 -24h11q37 0 62.5 24.5t25.5 59.5v61h59v-59q4 -39 27.5 -62.5t59.5 -23.5h11z" />
    <glyph glyph-name="uni06F6" unicode="&#x6f6;" horiz-adv-x="594" 
d="M416 376h1l-9 -13l-258 -381l-48 36l191 282q-60 -5 -111 30q-61 39 -74.5 110.5t27.5 132.5q12 17 44 42t57 41l26 17l30 -56q-88 -51 -109 -81q-26 -40 -18 -82t48 -68q37 -27 83.5 -19t72.5 47l97 143l48 -36z" />
    <glyph glyph-name="uni06F7" unicode="&#x6f7;" horiz-adv-x="671" 
d="M536 658l55 -22l-228 -639h-56l-227 639l56 22l199 -563z" />
    <glyph glyph-name="uni06F8" unicode="&#x6f8;" horiz-adv-x="671" 
d="M136 -5l-56 22l228 640h56l227 -640l-55 -22l-200 563z" />
    <glyph glyph-name="uni06F9" unicode="&#x6f9;" horiz-adv-x="577" 
d="M497 3l-59 -6l-33 318h-132q-72 0 -122.5 50t-50.5 123t50.5 124t122.5 51q68 0 117 -48.5t57 -122.5zM273 378h126l-11 108q-5 50 -37 81.5t-78 31.5q-49 0 -81.5 -32t-32.5 -79q0 -45 33 -77.5t81 -32.5z" />
    <glyph glyph-name="uni2009" unicode="&#x2009;" horiz-adv-x="150" 
 />
    <glyph glyph-name="uni200A" unicode="&#x200a;" horiz-adv-x="75" 
 />
    <glyph glyph-name="uni200B" unicode="&#x200b;" 
 />
    <glyph glyph-name="uni200C" unicode="&#x200c;" 
 />
    <glyph glyph-name="uni200D" unicode="&#x200d;" 
 />
    <glyph glyph-name="uni200E" unicode="&#x200e;" horiz-adv-x="546" 
 />
    <glyph glyph-name="uni200F" unicode="&#x200f;" horiz-adv-x="546" 
 />
    <glyph glyph-name="quoteleft" unicode="&#x2018;" horiz-adv-x="171" 
d="M131 778l-29 -216h-62l45 216h46z" />
    <glyph glyph-name="quoteright" unicode="&#x2019;" horiz-adv-x="171" 
d="M40 563l29 216h62l-45 -216h-46z" />
    <glyph glyph-name="quotedblleft" unicode="&#x201c;" horiz-adv-x="342" 
d="M131 778l-29 -216h-62l45 216h46zM302 778l-29 -216h-62l45 216h46z" />
    <glyph glyph-name="quotedblright" unicode="&#x201d;" horiz-adv-x="342" 
d="M40 563l29 216h62l-45 -216h-46zM211 563l29 216h62l-45 -216h-46z" />
    <glyph glyph-name="quotedblbase" unicode="&#x201e;" horiz-adv-x="342" 
d="M40 -78l29 216h62l-45 -216h-46zM211 -78l29 216h62l-45 -216h-46z" />
    <glyph glyph-name="guilsinglleft" unicode="&#x2039;" horiz-adv-x="321" 
d="M220 435q-66 -63 -66 -153q0 -86 61 -149l-38 -36q-75 77 -75 185q0 112 82 191z" />
    <glyph glyph-name="guilsinglright" unicode="&#x203a;" horiz-adv-x="321" 
d="M101 435l36 38q82 -79 82 -191q0 -108 -75 -185l-38 36q61 63 61 149q0 90 -66 153z" />
    <glyph glyph-name="minus" unicode="&#x2212;" horiz-adv-x="399" 
d="M30 277v60h339v-60h-339z" />
    <glyph glyph-name="notequal" unicode="&#x2260;" horiz-adv-x="399" 
d="M369 357h-106l-43 -101h149v-60h-175l-35 -83h-64l35 83h-100v60h126l43 101h-169v60h195l32 76h64l-32 -76h80v-60z" />
    <glyph glyph-name="dotabove-ar" unicode="&#xfbb2;" 
d="M63 344l-59 59l59 60l60 -60z" />
    <glyph glyph-name="dotbelow-ar" unicode="&#xfbb3;" 
d="M63 -174l-59 59l59 60l60 -60z" />
    <glyph glyph-name="twodotshorizontalabove-ar" unicode="&#xfbb4;" 
d="M56 439l-53 53l53 53l53 -53zM221 439l-53 53l53 53l54 -53z" />
    <glyph glyph-name="twodotshorizontalbelow-ar" unicode="&#xfbb5;" 
d="M56 -110l-53 53l53 53l53 -53zM221 -110l-53 53l53 53l54 -53z" />
    <glyph glyph-name="threedotsupabove-ar" unicode="&#xfbb6;" 
d="M139 558l-47 48l47 46l46 -46zM56 439l-53 53l53 53l53 -53zM221 439l-53 53l53 53l53 -53z" />
    <glyph glyph-name="threedotsdownbelow-ar" unicode="&#xfbb9;" 
d="M56 -182l-53 53l53 53l53 -53zM221 -182l-53 53l53 53l53 -53zM139 -290l-47 48l47 46l46 -46z" />
    <glyph glyph-name="uniFD3E" unicode="&#xfd3e;" horiz-adv-x="332" 
d="M277 -165l-43 -47q-88 90 -136 209t-48 247q0 130 49 249t140 211l43 -47q-84 -83 -128.5 -189.5t-44.5 -223.5q0 -115 43.5 -221t124.5 -188z" />
    <glyph glyph-name="uniFD3F" unicode="&#xfd3f;" horiz-adv-x="332" 
d="M55 -165q81 82 124.5 188t43.5 221q0 117 -44.5 223.5t-128.5 189.5l43 47q90 -92 139.5 -211.5t49.5 -248.5q0 -128 -48 -247t-136 -209z" />
    <glyph glyph-name="uniFEFF" unicode="&#xfeff;" 
 />
    <glyph glyph-name="b.bowl" horiz-adv-x="315" 
d="M154 -7q-68 0 -111 38.5t-43 105.5v198q0 66 43 104.5t110 38.5q76 0 119 -38t43 -105v-198q0 -67 -43 -105.5t-118 -38.5zM138 43q49 0 80 24.5t31 69.5v198q0 44 -31 68.5t-81 24.5q-49 0 -80 -24.5t-31 -68.5v-198q0 -45 31 -69.5t81 -24.5z" />
    <glyph glyph-name="d.bowl" horiz-adv-x="315" 
d="M161 478q68 0 111 -39t43 -105v-198q0 -66 -43 -104.5t-110 -38.5q-76 0 -119 38t-43 105v198q0 67 43 105.5t118 38.5zM177 427q-49 0 -79.5 -24t-30.5 -69v-198q0 -44 31 -68.5t80 -24.5t80 24.5t31 68.5v198q0 45 -30.5 69t-81.5 24z" />
    <glyph glyph-name="n.curve" horiz-adv-x="315" 
d="M249 0v335q0 44 -31 68.5t-81 24.5q-49 0 -80 -24.5t-31 -68.5v-56h-26v56q0 66 43 104.5t110 38.5q76 0 119 -38t43 -105v-335h-66z" />
    <glyph glyph-name="uni0627.001" horiz-adv-x="151" 
d="M55 84l-21 565l59 3l20 -534z" />
    <glyph glyph-name="uni0627.002" horiz-adv-x="287" 
d="M135 -2l-21 548l59 3l21 -548z" />
    <glyph glyph-name="uniFE8E.001" horiz-adv-x="278" 
d="M273 0q-92 0 -127.5 41t-39.5 148l-14 357l59 3l14 -360q3 -78 22.5 -101t85.5 -23h10v-65h-10z" />
    <glyph glyph-name="uniFE8E.002" horiz-adv-x="313" 
d="M127 124l-77 480l58 12l77 -480zM91 0v65h227v-65h-227z" />
    <glyph glyph-name="uni066E.001" horiz-adv-x="450" 
d="M0 0v65q115 0 176 3t77 6.5t35 11.5q38 17 49 46.5t-3 82.5l-38 139l56 16l38 -139q21 -73 0.5 -127t-78.5 -78q-35 -16 -89 -21t-223 -5z" />
    <glyph glyph-name="uni066E.fina.001" horiz-adv-x="451" 
d="M451 0q-169 0 -223.5 5t-89.5 21q-57 24 -77 77t-2 125l37 140l57 -17l-37 -142q-13 -49 -2 -77.5t48 -45.5q18 -8 35.5 -11.5t78.5 -6.5t175 -3v-65z" />
    <glyph glyph-name="uni066E.fina.001.003" horiz-adv-x="451" 
d="M208 0q-78 2 -121 44t-36 114l11 123l59 -5l-11 -123q-4 -43 20.5 -65t77.5 -23h243v-65h-243z" />
    <glyph glyph-name="uni066E.fina.002" horiz-adv-x="492" 
d="M398 157q5 -50 27 -71t72 -21v-65q-86 0 -125 54q-43 -54 -131 -54h-241v65h241q53 0 77.5 22t21.5 64v2l-11 123l58 5l11 -123v-1z" />
    <glyph glyph-name="uni066E.medi.001" horiz-adv-x="391" 
d="M297 157q5 -50 27 -71t72 -21v-65q-87 0 -126 54q-41 -54 -130 -54h-145v65h145q53 0 77.5 21.5t20.5 63.5v3l-11 123l59 5l11 -123v-1z" />
    <glyph glyph-name="uni066E.init.001" horiz-adv-x="365" 
d="M-5 0v65h144q29 0 51.5 6.5t41 22.5t22 43t-5.5 68l-39 149l57 16l40 -152q14 -57 6.5 -98t-34.5 -67.5t-62 -39.5t-77 -13h-144z" />
    <glyph glyph-name="uni066E.init.002" horiz-adv-x="301" 
d="M145 354l56 16l40 -149q14 -57 6.5 -99t-34 -69t-62 -40t-77.5 -13h-79v65h79q64 0 97.5 32t13.5 108z" />
    <glyph glyph-name="uniFE92.alt" horiz-adv-x="309" 
d="M215 157q5 -50 27 -71t72 -21v-65q-86 0 -125 54q-43 -54 -131 -54h-63v65h63q53 0 77.5 22t21.5 64v2l-11 123l58 5l11 -123v-1zM8 -139l59 60l60 -60l-60 -60z" />
    <glyph glyph-name="uniFE91.alt" horiz-adv-x="317" 
d="M258 221q14 -57 6.5 -99t-34 -69t-62.5 -40t-78 -13h-95v65h95q64 0 97.5 32t13.5 108l-40 149l57 16zM49 -140l59 60l60 -60l-60 -59z" />
    <glyph glyph-name="uniFB59.alt" horiz-adv-x="391" 
d="M297 157q5 -50 27 -71t72 -21v-65q-87 0 -126 54q-41 -54 -130 -54h-145v65h145q53 0 77.5 21.5t20.5 63.5v3l-11 123l59 5l11 -123v-1zM10 -85l53 -54l-53 -52l-53 52zM122 -139l52 54l54 -54l-54 -52zM45 -251l47 46l47 -46l-47 -48z" />
    <glyph glyph-name="uniFB58.alt" horiz-adv-x="382" 
d="M322 218q14 -57 6.5 -98t-34.5 -67.5t-62 -39.5t-77 -13h-160v65h160q64 0 97 32t12 108l-39 149l57 16zM58 -86l53 -54l-53 -52l-53 52zM170 -140l53 54l53 -54l-53 -52zM94 -252l47 46l46 -46l-46 -48z" />
    <glyph glyph-name="uniFEA2.001" horiz-adv-x="695" 
d="M291 91q-52 -14 -89.5 -37.5t-56.5 -48.5t-28 -54.5t-8.5 -54t6.5 -47.5q20 -77 91.5 -115t156.5 -16l254 70l15 -63l-257 -71q-108 -27 -198 23.5t-118 153.5q-6 32 -8.5 67.5t11.5 74t37.5 72.5t69 63.5t107.5 45.5l293 79l-238 128q-50 27 -99.5 12.5t-78.5 -63.5
l-18 -32l-51 31l19 34q43 73 113.5 94t142.5 -19l283 -157l-10 -76z" />
    <glyph glyph-name="uniFEA2.002" horiz-adv-x="225" 
d="M188 0q-80 0 -134 57t-54 139h59q0 -55 36.5 -93t92.5 -38h37v-65h-37z" />
    <glyph glyph-name="uniFEAE.001" horiz-adv-x="151" 
d="M149 0q-75 0 -101.5 47.5t-46.5 191.5l55 10q16 -122 30.5 -153t62.5 -31h7v-65h-7z" />
    <glyph glyph-name="uniFEBC.001" horiz-adv-x="23" 
d="M14 0q-35 0 -67.5 12.5t-47.5 25.5l-15 13l40 49q33 -35 90 -35h14v-65h-14z" />
    <glyph glyph-name="uniFEBC.002" horiz-adv-x="233" 
d="M172 151q-4 -41 12.5 -63.5t48.5 -22.5v-65q-65 0 -98 54q-46 -52 -135 -54h-5v65h5q106 2 114 93l11 123l58 -5l-11 -123v-2z" />
    <glyph glyph-name="uniFEBC.003" horiz-adv-x="527" 
d="M304 352q74 0 123.5 -52.5t49.5 -130.5q0 -68 -51.5 -118.5t-121.5 -50.5h-304v48l-5 5l5 7v5h4l74 103q36 51 56 77t49 55t58 40.5t63 11.5zM304 65q45 0 79.5 32t34.5 72q0 51 -32.5 84.5t-81.5 33.5q-47 0 -82 -34.5t-95 -121.5l-48 -66h225z" />
    <glyph glyph-name="uniFEDC.001" horiz-adv-x="235" 
d="M226 0q-63 0 -114.5 43.5t-111.5 141.5l45 28q56 -85 95 -116.5t86 -31.5h14v-65h-14z" />
    <glyph glyph-name="uniFEDB.001" horiz-adv-x="459" 
d="M112 499l194 -279q31 -50 26.5 -101t-41.5 -83q-34 -36 -94 -36h-202v65h203q27 0 43 13q25 17 31 46.5t-11 55.5l-223 316l13 49l362 133l21 -61z" />
    <glyph glyph-name="uniFEDE.001" horiz-adv-x="171" 
d="M156 0q-61 0 -106.5 41t-49.5 119l58 4q2 -53 30 -76t68 -23h20v-65h-20z" />
    <glyph glyph-name="uniFEE0.001" horiz-adv-x="288" 
d="M273 65h20v-65h-20q-79 0 -123 61q-42 -61 -132 -61h-23v65h23q58 0 79 27t20 63l-19 494l58 3l19 -488q2 -53 30 -76t68 -23z" />
    <glyph glyph-name="uniFEDF.001" horiz-adv-x="225" 
d="M-5 0v65h23q58 0 79 27t20 63l-19 494l58 3l19 -494q2 -38 -11 -72.5t-51 -60t-95 -25.5h-23z" />
    <glyph glyph-name="uniFEE4.001" horiz-adv-x="154" 
d="M159 0q-74 0 -116.5 47.5t-42.5 127.5h50q0 -51 29 -80.5t80 -29.5v-65z" />
    <glyph glyph-name="uniFB9F.001" horiz-adv-x="190" 
d="M167 0q-72 0 -109 66.5t-58 209.5l58 9q18 -131 38 -175.5t70 -44.5h29v-65h-28z" />
    <glyph glyph-name="uniFEF4.alt" horiz-adv-x="391" 
d="M297 157q5 -50 27 -71t72 -21v-65q-87 0 -126 54q-41 -54 -130 -54h-145v65h145q53 0 77.5 21.5t20.5 63.5v3l-11 123l59 5l11 -123v-1zM-42 -144l52 53l54 -53l-54 -53zM123 -144l53 53l53 -53l-53 -53z" />
    <glyph glyph-name="uniFEF3.alt" horiz-adv-x="382" 
d="M322 218q14 -57 6.5 -98t-34.5 -67.5t-62 -39.5t-77 -13h-160v65h160q64 0 97 32t12 108l-39 149l57 16zM4 -143l53 53l53 -53l-53 -53zM169 -143l53 53l53 -53l-53 -53z" />
    <glyph glyph-name="uniFBFF.alt" horiz-adv-x="391" 
d="M297 157q5 -50 27 -71t72 -21v-65q-87 0 -126 54q-41 -54 -130 -54h-145v65h145q53 0 77.5 21.5t20.5 63.5v3l-11 123l59 5l11 -123v-1zM-42 -144l52 53l54 -53l-54 -53zM123 -144l53 53l53 -53l-53 -53z" />
    <glyph glyph-name="uniFBFE.alt" horiz-adv-x="382" 
d="M322 218q14 -57 6.5 -98t-34.5 -67.5t-62 -39.5t-77 -13h-160v65h160q64 0 97 32t12 108l-39 149l57 16zM4 -143l53 53l53 -53l-53 -53zM169 -143l53 53l53 -53l-53 -53z" />
    <glyph glyph-name="uni0640.001" horiz-adv-x="160" 
d="M0 0v65h160v-65h-160z" />
    <glyph glyph-name="uni0640.002" horiz-adv-x="65" 
d="M0 0v65h70v-65h-70z" />
    <glyph glyph-name="uni0640.003" 
d="M-2 0v65h4v-65h-4z" />
    <glyph glyph-name="uni0640.004" horiz-adv-x="16" 
d="M-5 0v65h26v-65h-26z" />
    <glyph glyph-name="period.001" horiz-adv-x="302" 
d="M151 -3q-23 0 -38.5 16t-15.5 39q0 22 15.5 37t38.5 15q22 0 38 -15t16 -37q0 -23 -16 -39t-38 -16z" />
    <glyph glyph-name="sareyaar" 
d="M6 493l-2 36q14 1 35.5 3t34 3t29 3t26 4t19 5t13.5 7t4 9q0 14 -12.5 18.5t-59.5 14.5q-59 12 -73.5 31t3.5 68q19 48 56 65.5t84 3.5l36 -11l-9 -35l-37 11q-71 22 -101 -48q-10 -24 -2 -32.5t50 -17.5q40 -9 55.5 -13.5t28.5 -17.5t13 -36q0 -21 -10.5 -33.5t-33 -19
t-54 -10.5t-75.5 -7q-12 -1 -18 -1z" />
    <glyph glyph-name="dotcenterar" 
d="M63 -145l-59 60l59 60l60 -61z" />
    <glyph glyph-name="threedotsdownbelowar.002" 
d="M50 -177l-8 8t-15 15.5t-17 17.5l-7 6l47 47q47 -46 47 -47l-11 -12q-12 -11 -24 -23zM202 -177l-8 8t-15 15.5t-17 17.5l-7 6l47 47q47 -46 47 -47l-11 -12q-12 -11 -24 -23zM126 -269l-47 47l47 46l47 -46z" />
    <glyph glyph-name="threedotsupabovear.001" 
d="M56 439l-53 53l53 53l53 -53z" />
    <glyph glyph-name="threedotsupabovear.002" 
d="M50 558l-47 48l47 46l47 -46z" />
    <glyph glyph-name="waslaar" 
d="M221 707q36 0 60 -26t24 -65q0 -33 -25 -58t-59 -25h-140q-17 0 -27 -7t-27 -30l-27 21q21 28 36 40t36 13l36 48q21 30 33 44.5t34.5 29.5t45.5 15zM221 570q21 0 37 14t16 34q0 23 -15 38.5t-38 15.5q-22 0 -39.5 -16t-44.5 -53l-25 -33h109z" />
    <glyph glyph-name="miniKehehar" 
d="M0 0v30h75q9 0 11.5 7t-4.5 14l-62 63l6 25l98 33l10 -28l-76 -25l53 -56q18 -17 10 -40t-32 -23h-89z" />
    <glyph glyph-name="gafsarkashabovear" 
d="M13 505l-16 42l244 88l15 -42z" />
    <glyph glyph-name="uni0654064F" 
d="M284 904q7 -42 -19 -74.5t-76 -44.5l-182 -44l-7 36l114 27l-19 65q-11 36 8.5 67.5t57.5 39.5q43 9 79.5 -12t43.5 -60zM147 812l34 8q37 8 55.5 29t13.5 48q-5 25 -28 38.5t-53 6.5q-25 -5 -36.5 -23.5t-4.5 -41.5zM166 570l104 25l7 -35l-99 -24q-1 0 -3 -0.5t-3 -0.5
l-153 -37l-8 35l88 21q-25 22 -32 53q-10 43 15 77.5t68 37.5q12 1 32.5 -1t35.5 -5l14 -3l-7 -35q-7 1 -17 3t-32 4.5t-32 0.5q-25 -5 -38 -25.5t-7 -45.5q5 -22 24.5 -35t42.5 -10z" />
    <glyph glyph-name="uni0654064C" 
d="M338 912q7 -42 -18 -74t-75 -45l-195 -48l-7 32l3 1q23 7 37 25.5t12 40.5q-2 26 -21.5 43t-47.5 14l-5 30q42 4 71 -20.5t31 -61.5q3 -28 -12 -54l65 17l-19 72q-9 37 7.5 64.5t53.5 35.5q43 9 78 -12t42 -60zM237 828q37 10 56 30.5t14 46.5t-28 39.5t-53 6.5
q-24 -5 -34 -21t-4 -39l18 -71zM195 570l104 25l7 -35l-98 -24q-1 0 -4 -0.5t-4 -1.5l-152 -36l-8 35l88 21q-25 22 -32 53q-10 43 15 77.5t68 37.5q12 1 32.5 -1t34.5 -5l15 -3l-7 -35q-7 1 -17 3t-32 4.5t-31 0.5q-25 -5 -38.5 -25.5t-7.5 -45.5q5 -22 24.5 -35t42.5 -10z
" />
    <glyph glyph-name="uni0654064E" 
d="M248 801l-227 -54l-8 35l227 54zM266 560l-99 -24q-1 0 -3 -0.5t-3 -0.5l-153 -37l-8 35l88 21q-25 22 -32 53q-10 43 15 77.5t68 37.5q12 1 32.5 -1t34.5 -5l15 -3l-7 -35q-7 1 -17.5 3t-32.5 4.5t-31 0.5q-25 -5 -38 -25.5t-7 -45.5q5 -22 24.5 -35t42.5 -10l104 25z
" />
    <glyph glyph-name="uni0654064B" 
d="M250 904l-227 -54l-7 35l227 54zM250 797l-227 -54l-7 35l227 54zM266 560l-99 -24q-1 0 -3 -0.5t-3 -0.5l-153 -37l-8 35l88 21q-25 22 -32 53q-10 43 15 77.5t68 37.5q12 1 32.5 -1t34.5 -5l15 -3l-7 -35q-7 1 -17.5 3t-32.5 4.5t-31 0.5q-25 -5 -38 -25.5t-7 -45.5
q5 -22 24.5 -35t42.5 -10l104 25z" />
    <glyph glyph-name="uni06540652" 
d="M133 758q-44 0 -75.5 31.5t-31.5 76.5q0 44 31.5 75.5t75.5 31.5q43 0 74.5 -31.5t31.5 -75.5q0 -45 -31 -76.5t-75 -31.5zM133 938q-30 0 -52 -21.5t-22 -50.5q0 -30 21.5 -51.5t52.5 -21.5q30 0 51.5 21.5t21.5 51.5q0 29 -21.5 50.5t-51.5 21.5zM266 560l-99 -24
q-1 0 -3 -0.5t-3 -0.5l-153 -37l-8 35l88 21q-25 22 -32 53q-10 43 15 77.5t68 37.5q12 1 32.5 -1t34.5 -5l15 -3l-7 -35q-7 1 -17.5 3t-32.5 4.5t-31 0.5q-25 -5 -38 -25.5t-7 -45.5q5 -22 24.5 -35t42.5 -10l104 25z" />
    <glyph glyph-name="uni06550650" 
d="M166 -345q-1 0 -3 -0.5t-3 -0.5l-154 -37l-7 35l89 21q-25 21 -33 54q-10 43 15 77t68 37q12 1 32 -1t34 -5l15 -3l-6 -34q-7 1 -16.5 3t-34 4.5t-30.5 -0.5q-25 -5 -38 -25.5t-8 -45.5q6 -22 25 -35t42 -10l104 25l8 -35zM21 -451l227 54l7 -35l-227 -54z" />
    <glyph glyph-name="uni0655064D" 
d="M166 -345q-1 0 -3 -0.5t-3 -0.5l-154 -37l-7 35l89 21q-25 21 -33 54q-10 43 15 77t68 37q12 1 32 -1t34 -5l15 -3l-6 -34q-7 1 -16.5 3t-34 4.5t-30.5 -0.5q-25 -5 -38 -25.5t-8 -45.5q6 -22 25 -35t42 -10l104 25l8 -35zM21 -427l227 54l7 -35l-227 -54zM21 -534
l227 54l7 -35l-227 -54z" />
    <glyph glyph-name="uni0653.001" 
d="M0 585v15q0 41 27 62t69 14l101 -19q27 -5 42.5 6t15.5 34v7l33 2v-15q0 -41 -27 -62t-70 -14l-101 19q-26 5 -41.5 -6t-15.5 -34v-7z" />
    <glyph glyph-name="uni06510670" 
d="M110 671v163h32v-163h-32zM3 589l11 47l29 -8l-10 -44q-5 -21 5 -34t33 -13q19 0 29.5 9.5t10.5 23.5l1 58h27l1 -58q0 -14 10.5 -23.5t29.5 -9.5q25 0 35 13t5 33l-17 65l29 8l18 -66q11 -38 -9.5 -64t-60.5 -26q-38 0 -54 26q-18 -26 -55 -26q-38 0 -58 26t-10 63z" />
    <glyph glyph-name="uni0651064F" 
d="M271 837q7 -42 -18.5 -74t-76.5 -45l-182 -43l-7 35l114 27l-19 66q-11 36 8.5 67t57.5 39q43 9 79.5 -12t43.5 -60zM134 745l34 8q37 8 55.5 29t13.5 48q-5 25 -28 38.5t-53 6.5q-25 -5 -36.5 -23.5t-4.5 -41.5zM238 656l18 -66q11 -38 -9.5 -64t-60.5 -26q-38 0 -54 26
q-18 -26 -55 -26q-38 0 -58 26t-10 63l11 47l29 -8l-10 -44q-5 -21 5 -34t33 -13q19 0 29.5 9.5t10.5 23.5l1 58h28l1 -58q0 -14 10 -23.5t29 -9.5q25 0 35 13t5 33l-17 65z" />
    <glyph glyph-name="uni0651064C" 
d="M305 841q8 -42 -17.5 -74.5t-76.5 -44.5l-194 -48l-7 32l7 2q22 7 34.5 24.5t10.5 39.5q-2 26 -22 43t-48 15l-4 29q41 5 70 -19.5t32 -62.5q3 -27 -12 -53l64 17l-18 72q-10 36 7 64t54 36q43 9 77.5 -12t42.5 -60zM203 757q80 21 71 77q-5 25 -28 38.5t-53 6.5
q-51 -11 -38 -59l18 -71zM255 656l18 -66q10 -38 -10.5 -64t-59.5 -26q-37 0 -55 26q-18 -26 -54 -26q-39 0 -59 26t-10 63l12 47l28 -8l-10 -44q-5 -21 5 -34t34 -13q19 0 29 9.5t10 23.5l1 58h28l1 -58q0 -14 10.5 -23.5t29.5 -9.5q24 0 34 13t5 33l-17 65z" />
    <glyph glyph-name="uni0651064E" 
d="M13 681l-7 35l226 54l8 -35zM3 589l11 47l29 -8l-10 -44q-5 -21 5 -34t33 -13q19 0 29.5 9.5t10.5 23.5l1 58h27l1 -58q0 -14 10.5 -23.5t29.5 -9.5q25 0 35 13t5 33l-17 65l29 8l18 -66q11 -38 -9.5 -64t-60.5 -26q-38 0 -54 26q-18 -26 -55 -26q-38 0 -58 26t-10 63z
" />
    <glyph glyph-name="uni0651064B.1" 
d="M16 784l-8 35l227 54l8 -35zM16 677l-8 36l227 54l8 -36zM3 589l11 47l29 -8l-10 -44q-5 -21 5 -34t33 -13q19 0 29.5 9.5t10.5 23.5l1 58h27l1 -58q0 -14 10.5 -23.5t29.5 -9.5q25 0 35 13t5 33l-17 65l29 8l18 -66q11 -38 -9.5 -64t-60.5 -26q-38 0 -54 26
q-18 -26 -55 -26q-38 0 -58 26t-10 63z" />
    <glyph glyph-name="uni06510650" 
d="M15 708l12 46l29 -7l-11 -44q-5 -21 5.5 -34.5t33.5 -13.5q19 0 29 9.5t10 23.5l1 58h28l1 -58q0 -14 10.5 -23.5t29.5 -9.5q25 0 34.5 13t4.5 33l-16 65l29 8l18 -66q11 -37 -9.5 -63t-60.5 -26q-37 0 -55 25q-17 -25 -54 -25q-38 0 -58 26t-11 63zM29 503l-7 35l226 54
l8 -35z" />
    <glyph glyph-name="uni0651064D" 
d="M9 805l11 47l29 -8l-10 -44q-5 -21 5 -34.5t33 -13.5q19 0 29.5 9.5t10.5 23.5l1 58h28l1 -58q0 -13 10 -23t29 -10q25 0 35 13t5 33l-17 65l29 9l18 -67q11 -37 -9.5 -63t-60.5 -26q-37 0 -54 25q-18 -25 -55 -25q-38 0 -58 26t-10 63zM23 603l-7 35l226 54l8 -35z
M23 496l-7 35l226 54l8 -35z" />
    </font>
</defs>
</svg>
